# Blender v2.76 (sub 0) OBJ File: 'hillTree3LP.blend'
# www.blender.org
mtllib hillTree3LP.mtl
o Cube
v -0.141871 1.936614 0.027944
v -0.118175 2.129717 0.027977
v 0.020658 1.935775 -0.194314
v 0.028567 2.128960 -0.172692
v 0.080344 1.931727 0.190460
v 0.082436 2.124214 0.174697
v 0.242873 1.930888 -0.031797
v 0.229178 2.123456 -0.025972
v -0.237436 1.639262 0.121479
v -0.200998 1.945086 0.112493
v -0.072358 1.637934 -0.282138
v -0.051956 1.943886 -0.251918
v 0.166110 1.631523 0.286553
v 0.163315 1.936370 0.261524
v 0.331188 1.630194 -0.117064
v 0.312358 1.935171 -0.102887
v -0.328059 1.183854 0.286032
v -0.280301 1.643807 0.258918
v -0.249296 1.182693 -0.364803
v -0.209189 1.642759 -0.328697
v 0.322705 1.174263 0.364803
v 0.307207 1.632549 0.330037
v 0.401468 1.173102 -0.286032
v 0.378319 1.631501 -0.257578
v -0.411972 0.583214 0.431427
v -0.362722 1.189446 0.389520
v -0.411972 0.583214 -0.431427
v -0.362722 1.189446 -0.389520
v 0.450882 0.583214 0.431427
v 0.416310 1.186026 0.389520
v 0.450882 0.583214 -0.431427
v 0.416310 1.186026 -0.389520
vt 0.000000 0.000000
vt 1.000000 0.000000
vt 1.000000 1.000000
vt 0.000000 1.000000
vn -0.803100 0.098600 -0.587600
vn 0.590100 0.066100 -0.804600
vn 0.806600 0.039500 0.589700
vn -0.587600 0.072200 0.805900
vn -0.016100 -0.999800 -0.008000
vn 0.019700 0.999800 0.010600
vn -0.920900 0.098600 -0.377000
vn 0.379000 0.066100 -0.923000
vn 0.924900 0.039500 0.378200
vn -0.376300 0.072200 0.923700
vn -0.017600 -0.999800 -0.003900
vn 0.021600 0.999800 0.005600
vn -0.988200 0.095500 -0.119800
vn 0.121000 0.067400 -0.990400
vn 0.991900 0.042600 0.120000
vn -0.118700 0.070900 0.990400
vn -0.014700 -0.999900 0.000000
vn 0.019100 0.999800 0.000500
vn -0.996700 0.081000 0.000000
vn 0.000100 0.069200 -0.997600
vn 0.998400 0.057300 0.000000
vn 0.000100 0.069200 0.997600
vn 0.000000 -1.000000 0.000000
vn 0.004400 1.000000 0.000000
usemtl foliage
s off
f 2/1/1 4/2/1 3/3/1 1/4/1
f 4/1/2 8/2/2 7/3/2 3/4/2
f 8/1/3 6/2/3 5/3/3 7/4/3
f 6/1/4 2/2/4 1/3/4 5/4/4
f 1/1/5 3/2/5 7/3/5 5/4/5
f 6/1/6 8/2/6 4/3/6 2/4/6
f 10/1/7 12/2/7 11/3/7 9/4/7
f 12/1/8 16/2/8 15/3/8 11/4/8
f 16/1/9 14/2/9 13/3/9 15/4/9
f 14/1/10 10/2/10 9/3/10 13/4/10
f 9/1/11 11/2/11 15/3/11 13/4/11
f 14/1/12 16/2/12 12/3/12 10/4/12
f 18/1/13 20/2/13 19/3/13 17/4/13
f 20/1/14 24/2/14 23/3/14 19/4/14
f 24/1/15 22/2/15 21/3/15 23/4/15
f 22/1/16 18/2/16 17/3/16 21/4/16
f 17/1/17 19/2/17 23/3/17 21/4/17
f 22/1/18 24/2/18 20/3/18 18/4/18
f 26/1/19 28/2/19 27/3/19 25/4/19
f 28/1/20 32/2/20 31/3/20 27/4/20
f 32/1/21 30/2/21 29/3/21 31/4/21
f 30/1/22 26/2/22 25/3/22 29/4/22
f 25/1/23 27/2/23 31/3/23 29/4/23
f 30/1/24 32/2/24 28/3/24 26/4/24
o Cylinder_Cylinder.001
v -0.000000 -0.720016 -0.181720
v -0.000000 0.732445 -0.106047
v 0.172826 -0.720016 -0.056155
v 0.100857 0.732445 -0.032770
v 0.106813 -0.720016 0.147015
v 0.062333 0.732445 0.085794
v -0.106813 -0.720016 0.147015
v -0.062333 0.732445 0.085794
v -0.172826 -0.720016 -0.056155
v -0.100857 0.732445 -0.032770
vt 0.671414 -0.687827
vt 0.595811 1.646761
vt 0.383927 1.646760
vt 0.308338 -0.687828
vt 0.172487 1.660467
vt -0.053977 -0.664340
vt -0.037623 1.687824
vt -0.414014 -0.617462
vt 1.033729 -0.664338
vt 0.807250 1.660470
vt 1.393766 -0.617458
vt 1.017360 1.687828
vn 0.000000 0.052000 -0.998600
vn 0.949800 0.052000 -0.308600
vn 0.587000 0.052000 0.807900
vn -0.587000 0.052000 0.807900
vn -0.949800 0.052000 -0.308600
usemtl wood
s 1
f 33/5/25 34/6/25 36/7/26 35/8/26
f 35/8/26 36/7/26 38/9/27 37/10/27
f 37/10/27 38/9/27 40/11/28 39/12/28
f 41/13/29 42/14/29 34/6/25 33/5/25
f 39/15/28 40/16/28 42/14/29 41/13/29
