# Blender v2.76 (sub 0) OBJ File: 'tree4LP.blend'
# www.blender.org
mtllib tree4LP.mtl
o Icosphere
v 0.693154 2.150045 -0.079720
v 0.299848 2.172982 0.047611
v 0.057745 2.192636 -0.287698
v 0.301434 2.181847 -0.622259
v 0.694134 2.155524 -0.493719
v 0.560047 2.582032 0.032887
v 0.175082 2.607836 -0.093121
v 0.176043 2.613207 -0.498966
v 0.561602 2.590723 -0.623789
v 0.798936 2.571455 -0.295085
v 0.468516 2.819291 -0.292587
v 0.059819 2.126032 0.574964
v -0.327708 2.115149 0.693207
v -0.560150 2.308867 0.398829
v -0.313077 2.361848 0.070835
v 0.070081 2.248850 0.179695
v -0.018072 2.521706 0.808170
v -0.393682 2.632478 0.701455
v -0.383622 2.752877 0.313973
v -0.001794 2.716517 0.181206
v 0.224135 2.573644 0.486638
v -0.071091 2.851590 0.565336
v -0.072645 2.592188 -0.241709
v -0.489178 2.629289 -0.107471
v -0.749499 2.581524 -0.457972
v -0.493843 2.514904 -0.808829
v -0.075528 2.521495 -0.675169
v -0.225010 3.060571 -0.201871
v -0.635085 3.054110 -0.332899
v -0.637911 2.984808 -0.757820
v -0.229583 2.948439 -0.889414
v 0.025610 2.995263 -0.545817
v -0.331755 3.245820 -0.584304
vt 0.342833 0.000103
vt 0.687026 0.245232
vt 0.402751 0.285276
vt 0.000103 0.245967
vt 0.292217 0.282981
vt 0.133103 0.647219
vt 0.254076 0.384936
vt 0.552901 0.647219
vt 0.348171 0.443164
vt 0.439554 0.383628
vt 0.000103 0.782059
vt 0.185408 0.647425
vt 0.185408 0.842267
vt 0.070884 0.999897
vt 0.299931 0.999897
vt 0.370713 0.782059
vn 0.588800 -0.660200 0.466200
vn 0.588200 -0.662900 -0.463100
vn 0.928000 0.372500 0.000500
vn -0.294500 -0.585700 0.755100
vn 0.310700 0.427400 0.849000
vn -0.840400 -0.541900 -0.001000
vn -0.682600 0.510800 0.522500
vn -0.291600 -0.589700 -0.753100
vn -0.682500 0.507000 -0.526500
vn 0.313200 0.421700 -0.850900
vn 0.062500 0.997900 0.013300
vn 0.504700 -0.827800 0.244700
vn 0.506700 -0.556700 -0.658200
vn 0.968500 0.232000 0.090400
vn -0.367600 -0.774600 0.514500
vn 0.341000 0.123000 0.931900
vn -0.908800 -0.392100 -0.142100
vn -0.620700 0.418400 0.663000
vn -0.333500 -0.294100 -0.895700
vn -0.599400 0.720600 -0.348400
vn 0.383200 0.601500 -0.700900
vn 0.191900 0.935800 0.295700
vn 0.797400 -0.008900 0.603300
vn 0.795100 -0.238600 -0.557500
vn 0.917700 0.389800 -0.076300
vn -0.312100 0.147400 0.938500
vn 0.306400 0.576300 0.757600
vn -0.999700 0.020000 0.013600
vn -0.691500 0.576900 0.434700
vn -0.332200 -0.218700 -0.917500
vn -0.700300 0.390500 -0.597600
vn 0.294500 0.274800 -0.915300
vn 0.035900 0.986300 -0.161100
usemtl cream
s 1
f 1/1/1 5/2/2 10/3/3
f 2/4/4 1/1/1 6/5/5
f 3/6/6 2/4/4 7/7/7
f 4/8/8 3/6/6 8/9/9
f 5/2/2 4/8/8 9/10/10
f 1/1/1 10/3/3 6/5/5
f 2/4/4 6/5/5 7/7/7
f 3/6/6 7/7/7 8/9/9
f 4/8/8 8/9/9 9/10/10
f 5/2/2 9/10/10 10/3/3
f 6/11/5 10/12/3 11/13/11
f 7/14/7 6/11/5 11/13/11
f 8/15/9 7/14/7 11/13/11
f 9/16/10 8/15/9 11/13/11
f 10/12/3 9/16/10 11/13/11
f 12/1/12 16/2/13 21/3/14
f 13/4/15 12/1/12 17/5/16
f 14/6/17 13/4/15 18/7/18
f 15/8/19 14/6/17 19/9/20
f 16/2/13 15/8/19 20/10/21
f 12/1/12 21/3/14 17/5/16
f 13/4/15 17/5/16 18/7/18
f 14/6/17 18/7/18 19/9/20
f 15/8/19 19/9/20 20/10/21
f 16/2/13 20/10/21 21/3/14
f 17/11/16 21/12/14 22/13/22
f 18/14/18 17/11/16 22/13/22
f 19/15/20 18/14/18 22/13/22
f 20/16/21 19/15/20 22/13/22
f 21/12/14 20/16/21 22/13/22
f 23/1/23 27/2/24 32/3/25
f 24/4/26 23/1/23 28/5/27
f 25/6/28 24/4/26 29/7/29
f 26/8/30 25/6/28 30/9/31
f 27/2/24 26/8/30 31/10/32
f 23/1/23 32/3/25 28/5/27
f 24/4/26 28/5/27 29/7/29
f 25/6/28 29/7/29 30/9/31
f 26/8/30 30/9/31 31/10/32
f 27/2/24 31/10/32 32/3/25
f 28/11/27 32/12/25 33/13/33
f 29/14/29 28/11/27 33/13/33
f 30/15/31 29/14/29 33/13/33
f 31/16/32 30/15/31 33/13/33
f 32/12/25 31/16/32 33/13/33
usemtl cream_NONE
f 1/1/1 2/4/4 3/6/6 4/8/8 5/2/2
f 12/1/12 13/4/15 14/6/17 15/8/19 16/2/13
o Cylinder_Cylinder.008
v 0.338210 1.891343 -0.508570
v 0.388144 2.202102 -0.752683
v 0.553133 1.867523 -0.388925
v 0.792920 2.157241 -0.527351
v 0.560428 1.888182 -0.142637
v 0.806658 2.196150 -0.063502
v 0.352799 1.932662 -0.015992
v 0.415621 2.279920 0.175014
v 0.137876 1.956482 -0.135637
v 0.010846 2.324781 -0.050319
v 0.130581 1.935822 -0.381925
v -0.002893 2.285872 -0.514167
v -0.129691 2.064748 0.016986
v -0.166910 2.510639 -0.045014
v 0.113786 2.036335 0.154015
v 0.263202 2.460448 0.197053
v 0.116275 1.937514 0.416871
v 0.267599 2.285876 0.661399
v -0.124713 1.867105 0.542698
v -0.158116 2.161495 0.883678
v -0.368189 1.895517 0.405669
v -0.588228 2.211686 0.641611
v -0.370678 1.994338 0.142813
v -0.592625 2.386258 0.177265
v -0.363618 2.204073 -0.674771
v -0.363618 2.546996 -0.941925
v -0.129573 2.226282 -0.541482
v 0.049833 2.586229 -0.706465
v -0.129573 2.270700 -0.274905
v 0.049833 2.664695 -0.235546
v -0.363618 2.292909 -0.141616
v -0.363618 2.703928 -0.000087
v -0.597663 2.270700 -0.274905
v -0.777069 2.664695 -0.235546
v -0.597663 2.226282 -0.541482
v -0.777069 2.586229 -0.706465
vt 0.361892 0.351800
vt 0.545398 0.472613
vt 0.272773 0.631509
vt 0.285317 0.413187
vt 0.000101 0.473516
vt 0.195700 0.378406
vt 0.001691 0.161162
vt 0.185963 0.280935
vt 0.272725 0.000101
vt 0.260003 0.217561
vt 0.349024 0.254358
vt 0.545398 0.157410
vt 0.886324 0.000101
vt 0.999899 0.196818
vt 0.886324 0.393535
vt 0.659175 0.393535
vt 0.545600 0.196818
vt 0.659175 0.000101
vn -0.147700 -0.847700 -0.509500
vn 0.036100 0.306500 -0.951200
vn 0.836800 0.214200 -0.503700
vn 0.356200 -0.906400 -0.227100
vn 0.863300 0.289200 0.413600
vn 0.372300 -0.859700 0.349700
vn 0.090300 0.456100 0.885300
vn -0.113500 -0.754400 0.646500
vn -0.711100 0.548700 0.439600
vn -0.618200 -0.695300 0.366400
vn -0.635900 -0.741900 -0.212400
vn -0.738600 0.474000 -0.479200
vn 0.064600 -0.517700 -0.853100
vn -0.045300 0.710400 -0.702300
vn 0.741700 0.618600 -0.259300
vn 0.598500 -0.580000 -0.552700
vn 0.749700 0.299100 0.590300
vn 0.603900 -0.796700 0.023700
vn -0.029200 0.071600 0.997000
vn 0.075500 -0.951000 0.299600
vn -0.816200 0.163400 0.554100
vn -0.458400 -0.888800 -0.000800
vn -0.463800 -0.672000 -0.577200
vn -0.824300 0.482800 -0.295600
vn 0.000000 -0.878400 -0.477900
vn 0.000000 0.264600 -0.964300
vn 0.786100 0.339200 -0.516600
vn 0.533300 -0.827800 -0.174200
vn 0.786100 0.488400 0.378700
vn 0.533300 -0.726600 0.433200
vn 0.000000 0.563000 0.826400
vn 0.000000 -0.676000 0.736900
vn -0.786100 0.488400 0.378700
vn -0.533300 -0.726600 0.433200
vn -0.533300 -0.827800 -0.174200
vn -0.786100 0.339200 -0.516600
usemtl dough
s 1
f 34/17/34 35/18/35 37/19/36 36/20/37
f 36/20/37 37/19/36 39/21/38 38/22/39
f 38/22/39 39/21/38 41/23/40 40/24/41
f 40/24/41 41/23/40 43/25/42 42/26/43
f 44/27/44 45/28/45 35/18/35 34/17/34
f 42/26/43 43/25/42 45/28/45 44/27/44
f 34/17/34 36/20/37 38/22/39 40/24/41 42/26/43 44/27/44
f 37/29/36 35/30/35 45/31/45 43/32/42 41/33/40 39/34/38
f 46/17/46 47/18/47 49/19/48 48/20/49
f 48/20/49 49/19/48 51/21/50 50/22/51
f 50/22/51 51/21/50 53/23/52 52/24/53
f 52/24/53 53/23/52 55/25/54 54/26/55
f 56/27/56 57/28/57 47/18/47 46/17/46
f 54/26/55 55/25/54 57/28/57 56/27/56
f 46/17/46 48/20/49 50/22/51 52/24/53 54/26/55 56/27/56
f 49/29/48 47/30/47 57/31/57 55/32/54 53/33/52 51/34/50
f 58/17/58 59/18/59 61/19/60 60/20/61
f 60/20/61 61/19/60 63/21/62 62/22/63
f 62/22/63 63/21/62 65/23/64 64/24/65
f 64/24/65 65/23/64 67/25/66 66/26/67
f 68/27/68 69/28/69 59/18/59 58/17/58
f 66/26/67 67/25/66 69/28/69 68/27/68
f 58/17/58 60/20/61 62/22/63 64/24/65 66/26/67 68/27/68
f 61/29/60 59/30/59 69/31/69 67/32/66 65/33/64 63/34/62
o Cylinder.004_Cylinder.007
v -0.005340 1.264987 0.053951
v -0.120448 2.010750 0.364741
v -0.043306 1.383609 -0.021916
v -0.167194 2.043295 0.309251
v 0.017311 1.516935 -0.060817
v -0.122955 2.093372 0.266139
v 0.086471 1.520449 -0.034741
v -0.048868 2.091777 0.294984
v 0.074633 1.390410 0.022833
v -0.047319 2.040713 0.355923
v -0.081337 1.716940 0.198141
v -0.129024 1.742670 0.131662
v -0.079367 1.789968 0.080158
v -0.000991 1.793469 0.114806
v -0.002209 1.748336 0.187723
v 0.062050 1.243003 -0.053790
v 0.501132 2.200724 -0.391563
v 0.057557 1.380412 0.037970
v 0.506070 2.222183 -0.334210
v -0.018417 1.534400 0.034164
v 0.459254 2.260696 -0.324253
v -0.068765 1.538323 -0.032794
v 0.425381 2.263040 -0.375452
v -0.041116 1.384792 -0.098046
v 0.451262 2.225975 -0.417051
v 0.319546 1.813348 -0.225465
v 0.325250 1.840692 -0.146112
v 0.258866 1.890042 -0.130786
v 0.212135 1.893198 -0.200668
v 0.249638 1.845799 -0.259182
v -0.039048 1.343504 -0.075340
v -0.400047 2.303828 -0.480134
v 0.052799 1.480913 -0.077417
v -0.351231 2.320779 -0.487177
v 0.054433 1.634901 -0.001365
v -0.338813 2.351374 -0.446807
v -0.008755 1.638825 0.053640
v -0.379954 2.353331 -0.414814
v -0.075817 1.485293 0.030726
v -0.417799 2.323945 -0.435411
v -0.228689 1.913849 -0.319906
v -0.149946 1.941193 -0.331267
v -0.129915 1.990544 -0.266148
v -0.196278 1.993700 -0.214542
v -0.257323 1.946301 -0.247767
v 0.003290 -0.040376 -0.333467
v 0.003290 1.559121 -0.137555
v 0.286913 -0.040376 -0.127403
v 0.100589 1.559121 -0.066863
v 0.178579 -0.040376 0.206016
v 0.063424 1.559121 0.047519
v -0.171998 -0.040376 0.206016
v -0.056844 1.559121 0.047519
v -0.280333 -0.040376 -0.127403
v -0.094009 1.559121 -0.066863
v 0.003290 0.394548 -0.192972
v 0.153294 0.394548 -0.083988
v 0.095998 0.394548 0.092353
v -0.089418 0.394548 0.092353
v -0.146714 0.394548 -0.083988
vt 0.664619 0.208840
vt 0.479987 1.216289
vt 0.395843 1.204905
vt 0.497133 0.170166
vt 0.310956 1.200532
vt 0.324080 0.160004
vt 0.226507 1.203062
vt 0.154971 0.178207
vt 0.815313 0.273511
vt 0.562216 1.234432
vt 0.140084 1.212247
vt -0.000894 0.224646
vt 0.028465 -0.179757
vt -0.202628 -0.065432
vt 1.067044 -0.024001
vt 0.807710 -0.172679
vt 0.278702 -0.234432
vt 0.540195 -0.234432
vn -0.357100 -0.448600 0.819300
vn -0.306800 -0.501500 0.808900
vn -0.991700 -0.056500 -0.115200
vn -0.980200 -0.089000 -0.177000
vn -0.239300 0.482000 -0.842900
vn -0.304100 0.416600 -0.856700
vn 0.792500 0.403000 -0.457700
vn 0.808400 0.416700 -0.415700
vn 0.790200 -0.134600 0.597800
vn 0.834300 -0.171100 0.524000
vn 0.897700 0.375500 -0.230400
vn 0.657200 -0.145900 0.739400
vn -0.334800 -0.394200 0.855800
vn -0.330400 0.348900 -0.876900
vn -0.981600 -0.190500 -0.012300
vn 0.714600 -0.522400 -0.465200
vn 0.664600 -0.535300 -0.521200
vn 0.794500 -0.079800 0.602000
vn 0.746100 -0.091400 0.659500
vn -0.212800 0.540300 0.814100
vn -0.132600 0.510100 0.849800
vn -0.882600 0.457400 -0.108300
vn -0.849900 0.512300 -0.122800
vn -0.343500 -0.140100 -0.928600
vn -0.392600 -0.167000 -0.904400
vn -0.818900 0.514500 -0.254300
vn -0.201000 -0.181000 -0.962700
vn 0.705500 -0.513200 -0.488700
vn -0.096700 0.484000 0.869700
vn 0.788800 -0.191300 0.584100
vn -0.519300 -0.511200 -0.684800
vn -0.575700 -0.514200 -0.635700
vn 0.524300 -0.070500 -0.848600
vn 0.600500 -0.083800 -0.795200
vn 0.825800 0.546900 0.137400
vn 0.854700 0.514700 0.067600
vn -0.057400 0.463200 0.884400
vn -0.064300 0.516700 0.853700
vn -0.905200 -0.133000 0.403700
vn -0.886200 -0.160700 0.434500
vn -0.195100 0.514500 0.835000
vn -0.945900 -0.181000 0.269300
vn -0.537900 -0.513200 -0.668800
vn 0.874400 0.484000 0.034300
vn 0.526200 -0.191300 -0.828500
vn 0.000000 0.188400 -0.982100
vn 0.000000 0.047500 -0.998800
vn 0.950000 0.047500 -0.308700
vn 0.934000 0.188400 -0.303500
vn 0.587100 0.047500 0.808100
vn 0.577200 0.188400 0.794500
vn -0.587100 0.047500 0.808100
vn -0.577200 0.188400 0.794500
vn -0.934000 0.188400 -0.303500
vn -0.950000 0.047500 -0.308700
vn -0.559300 0.307400 0.769800
vn -0.905000 0.307400 -0.294000
vn 0.000000 0.307400 -0.951600
vn 0.559300 0.307400 0.769800
vn 0.905000 0.307400 -0.294000
usemtl Material
s 1
f 80/35/70 71/36/71 73/37/72 81/38/73
f 81/38/73 73/37/72 75/39/74 82/40/75
f 82/40/75 75/39/74 77/41/76 83/42/77
f 84/43/78 79/44/79 71/36/71 80/35/70
f 83/42/77 77/41/76 79/45/79 84/46/78
f 76/47/80 83/42/77 84/46/78 78/48/81
f 78/49/81 84/43/78 80/35/70 70/50/82
f 74/51/83 82/40/75 83/42/77 76/47/80
f 72/52/84 81/38/73 82/40/75 74/51/83
f 70/50/82 80/35/70 81/38/73 72/52/84
f 95/35/85 86/36/86 88/37/87 96/38/88
f 96/38/88 88/37/87 90/39/89 97/40/90
f 97/40/90 90/39/89 92/41/91 98/42/92
f 99/43/93 94/44/94 86/36/86 95/35/85
f 98/42/92 92/41/91 94/45/94 99/46/93
f 91/47/95 98/42/92 99/46/93 93/48/96
f 93/49/96 99/43/93 95/35/85 85/50/97
f 89/51/98 97/40/90 98/42/92 91/47/95
f 87/52/99 96/38/88 97/40/90 89/51/98
f 85/50/97 95/35/85 96/38/88 87/52/99
f 110/35/100 101/36/101 103/37/102 111/38/103
f 111/38/103 103/37/102 105/39/104 112/40/105
f 112/40/105 105/39/104 107/41/106 113/42/107
f 114/43/108 109/44/109 101/36/101 110/35/100
f 113/42/107 107/41/106 109/45/109 114/46/108
f 106/47/110 113/42/107 114/46/108 108/48/111
f 108/49/111 114/43/108 110/35/100 100/50/112
f 104/51/113 112/40/105 113/42/107 106/47/110
f 102/52/114 111/38/103 112/40/105 104/51/113
f 100/50/112 110/35/100 111/38/103 102/52/114
f 125/35/115 116/36/116 118/37/117 126/38/118
f 126/38/118 118/37/117 120/39/119 127/40/120
f 127/40/120 120/39/119 122/41/121 128/42/122
f 129/43/123 124/44/124 116/36/116 125/35/115
f 128/42/122 122/41/121 124/45/124 129/46/123
f 121/47/125 128/42/122 129/46/123 123/48/126
f 123/49/126 129/43/123 125/35/115 115/50/127
f 119/51/128 127/40/120 128/42/122 121/47/125
f 117/52/129 126/38/118 127/40/120 119/51/128
f 115/50/127 125/35/115 126/38/118 117/52/129
