# Blender v2.76 (sub 0) OBJ File: 'grass3LP.blend'
# www.blender.org
mtllib grass3LP.mtl
o Plane.002_Plane.024
v -2.046181 -0.031443 -1.247759
v -2.730005 0.642814 -1.581027
v -2.138029 -0.031443 -1.068652
v -1.915579 -0.029661 -1.096923
v -1.639824 0.553975 -1.229548
v -1.935486 -0.029661 -1.236370
v -1.927375 -0.037657 -1.045177
v -2.044090 0.910128 -0.820604
v -2.051158 -0.037657 -1.058966
v -2.251662 -0.036327 -1.094498
v -2.469234 1.044432 -0.821876
v -2.098998 -0.036327 -0.900353
v -1.824131 -0.037205 -1.084913
v -1.790108 0.875374 -1.011925
v -1.750923 -0.037205 -0.975873
v -1.893310 -0.016016 -0.908190
v -1.557441 0.609381 -0.425278
v -1.738986 -0.016016 -0.974074
v -1.873653 -0.025742 -0.914331
v -2.486492 0.530593 -0.666548
v -1.833058 -0.025742 -0.789422
v 0.829349 -0.033503 2.313591
v 0.978721 0.820669 2.081892
v 0.693847 -0.033503 2.173090
v 0.570359 0.005618 2.343066
v 0.224284 0.641224 2.558148
v 0.607364 0.005618 2.492516
v 0.686371 0.003670 2.498030
v 0.991149 1.101300 2.498720
v 0.766526 0.003670 2.293141
v 0.601754 -0.004299 2.404859
v 0.670407 0.870076 2.368882
v 0.709393 -0.004299 2.343068
v -1.944614 -0.091316 -1.169953
v -2.052485 1.068359 -1.126650
v -2.114555 -0.091316 -1.094027
vt 0.000000 0.000000
vn 0.590300 0.748300 0.302700
vn -0.885500 0.447100 0.126400
vn -0.107400 -0.241700 0.964400
vn 0.749900 0.299700 -0.589700
vn -0.830200 -0.013600 0.557400
vn -0.288800 0.677500 -0.676500
vn -0.613300 -0.764300 0.199300
vn 0.686700 -0.299700 -0.662300
vn 0.828700 0.520700 -0.205200
vn 0.901600 -0.250600 0.352700
vn 0.497900 -0.003400 0.867300
vn -0.407900 -0.003900 -0.913000
usemtl Material
s off
f 3/1/1 1/1/1 2/1/1
f 5/1/2 6/1/2 4/1/2
f 9/1/3 7/1/3 8/1/3
f 11/1/4 12/1/4 10/1/4
f 13/1/5 15/1/5 14/1/5
f 18/1/6 16/1/6 17/1/6
f 19/1/7 21/1/7 20/1/7
f 22/1/8 24/1/8 23/1/8
f 26/1/9 27/1/9 25/1/9
f 29/1/10 28/1/10 30/1/10
f 31/1/11 33/1/11 32/1/11
f 34/1/12 36/1/12 35/1/12
o Plane.011_Plane.010
v 1.211746 -0.033503 2.602394
v 1.124974 0.820669 2.340601
v 1.017252 -0.033503 2.619820
v 1.010321 -0.003123 2.866853
v 0.876406 1.025348 2.618626
v 1.096807 -0.003123 2.761628
v 1.050700 0.005617 2.908535
v 1.018713 0.657916 3.293679
v 1.190354 0.005617 2.973480
v 1.267963 0.001124 2.931744
v 2.040662 1.057654 2.044270
v 1.111548 0.001124 2.658420
v 1.141145 -0.004299 2.886292
v 1.156199 0.870076 2.810217
v 1.160554 -0.004299 2.763639
v 2.144105 -0.013823 0.115351
v 2.203833 0.823435 0.158886
v 2.251315 -0.013823 0.170455
v 2.166955 0.005617 0.288041
v 2.651115 0.579396 0.526912
v 2.261703 0.005617 0.166602
v 2.180022 -0.003305 0.274382
v 1.797619 0.507111 0.745504
v 2.268072 -0.003305 0.356712
v 1.172319 -0.004300 -2.815258
v 1.096465 0.870075 -2.831344
v 1.049955 -0.004300 -2.836332
v 1.166562 0.003669 -2.941048
v 0.923719 1.060755 -3.161041
v 0.974076 0.003669 -2.834319
v 1.148742 0.005617 -2.724510
v 1.576960 0.598530 -2.602520
v 1.215579 0.005617 -2.863284
v 0.951238 -0.033503 -2.889714
v 0.688313 0.820668 -2.806496
v 0.966007 -0.033503 -2.694982
v 1.224463 -0.040632 -1.891602
v 1.364591 0.265103 -0.999748
v 1.396878 -0.049879 -1.895769
v 1.329193 -0.026818 -1.983397
v 0.599423 0.283686 -2.512172
v 1.212294 -0.026818 -1.856104
v 1.236533 -0.033410 -1.861404
v 1.367390 1.061553 -2.377270
v 1.529175 -0.033410 -1.940027
v 1.514655 -0.033409 -1.928812
v 1.366191 1.358650 -1.810626
v 1.220782 -0.033409 -1.854928
v 2.036639 -0.007806 0.109415
v 1.948541 0.838964 0.051720
v 2.048141 -0.007806 -0.014231
v 2.161588 0.000163 0.093893
v 2.337785 1.097793 -0.154992
v 2.040237 0.000163 -0.089731
v 1.904838 -0.006629 0.098410
v 1.321191 0.595865 -0.261723
v 1.984396 -0.006629 -0.012147
vt 0.000000 0.000000
vn 0.085100 0.299900 0.950200
vn 0.748800 0.246000 0.615400
vn -0.368500 -0.486000 0.792500
vn 0.598000 -0.724800 -0.342200
vn 0.987700 -0.003400 0.156300
vn -0.457100 -0.013600 0.889300
vn 0.579800 -0.677600 0.452400
vn 0.440300 0.764500 -0.470900
vn 0.169700 -0.003400 -0.985500
vn 0.465300 0.281500 0.839200
vn -0.724200 0.594800 -0.348800
vn 0.951300 0.299800 -0.072100
vn -0.042600 -0.943000 0.330000
vn -0.241400 -0.944800 -0.221700
vn 0.238900 0.390300 0.889100
vn -0.243400 0.056200 -0.968300
vn -0.989700 -0.109200 -0.092100
vn 0.807600 -0.250700 -0.533700
vn -0.536500 -0.750400 -0.386000
usemtl Material.001
s off
f 39/2/13 37/2/13 38/2/13
f 40/2/14 42/2/14 41/2/14
f 43/2/15 45/2/15 44/2/15
f 46/2/16 48/2/16 47/2/16
f 49/2/17 51/2/17 50/2/17
f 52/2/18 54/2/18 53/2/18
f 55/2/19 57/2/19 56/2/19
f 60/2/20 58/2/20 59/2/20
f 61/2/21 63/2/21 62/2/21
f 66/2/22 64/2/22 65/2/22
f 69/2/23 67/2/23 68/2/23
f 72/2/24 70/2/24 71/2/24
f 73/2/25 75/2/25 74/2/25
f 76/2/26 78/2/26 77/2/26
f 79/2/27 81/2/27 80/2/27
f 82/2/28 84/2/28 83/2/28
f 87/2/29 85/2/29 86/2/29
f 88/2/30 90/2/30 89/2/30
f 93/2/31 91/2/31 92/2/31
