# Blender v2.76 (sub 0) OBJ File: 'grass5LP.blend'
# www.blender.org
mtllib grass5LP.mtl
o Plane.003_Plane.015
v -2.046181 -0.031443 -1.247759
v -2.738231 0.643463 -1.559170
v -2.138029 -0.031443 -1.068652
v -1.915579 -0.029661 -1.096923
v -1.647226 0.519670 -1.238811
v -1.935486 -0.029661 -1.236370
v -2.251662 -0.036327 -1.094498
v -2.469234 1.044432 -0.821876
v -2.098998 -0.036327 -0.900353
v -1.715135 -0.019780 -0.928836
v -1.624204 0.635471 -1.086446
v -1.797382 -0.019780 -1.031230
v -1.824131 -0.037205 -1.084913
v -1.790108 0.875374 -1.011925
v -1.750923 -0.037205 -0.975873
v -1.893310 -0.016016 -0.908190
v -1.557441 0.609381 -0.425278
v -1.738986 -0.016016 -0.974074
v -1.873653 -0.025742 -0.914331
v -2.486492 0.530593 -0.666548
v -1.833058 -0.025742 -0.789422
v 0.866997 -0.033503 2.281826
v 1.016369 0.820669 2.050128
v 0.731494 -0.033503 2.141325
v 0.527735 0.005618 2.348389
v 0.212534 0.655931 2.580145
v 0.564741 0.005618 2.497839
v 0.686371 0.003670 2.498030
v 0.991149 1.101300 2.498720
v 0.766526 0.003670 2.293141
v 0.601754 -0.004299 2.404859
v 0.670407 0.870076 2.368882
v 0.709393 -0.004299 2.343068
v -1.944614 -0.091316 -1.169953
v -2.052485 1.068359 -1.126650
v -2.114555 -0.091316 -1.094027
vt 0.000000 0.000000
vn 0.591800 0.746800 0.303500
vn -0.878300 0.461400 0.125400
vn 0.749900 0.299700 -0.589700
vn 0.754800 -0.250600 -0.606300
vn -0.830200 -0.013600 0.557400
vn -0.288800 0.677500 -0.676500
vn -0.613300 -0.764300 0.199300
vn 0.686700 -0.299700 -0.662300
vn 0.848300 0.486000 -0.210100
vn 0.901600 -0.250600 0.352700
vn 0.497900 -0.003400 0.867300
vn -0.407900 -0.003900 -0.913000
usemtl Material
s off
f 3/1/1 1/1/1 2/1/1
f 5/1/2 6/1/2 4/1/2
f 8/1/3 9/1/3 7/1/3
f 10/1/4 12/1/4 11/1/4
f 13/1/5 15/1/5 14/1/5
f 18/1/6 16/1/6 17/1/6
f 19/1/7 21/1/7 20/1/7
f 22/1/8 24/1/8 23/1/8
f 26/1/9 27/1/9 25/1/9
f 29/1/10 28/1/10 30/1/10
f 31/1/11 33/1/11 32/1/11
f 34/1/12 36/1/12 35/1/12
o Plane.013_Plane.012
v 1.010321 -0.003123 2.866853
v 0.865586 1.031747 2.642026
v 1.096807 -0.003123 2.761628
v 1.050700 0.005617 2.908535
v 1.033451 0.655931 3.299588
v 1.190354 0.005617 2.973480
v 1.267963 0.001124 2.931744
v 2.000184 1.062992 1.997455
v 1.111548 0.001124 2.658420
v 1.172319 -0.004300 -2.815258
v 1.096465 0.870075 -2.831344
v 1.049955 -0.004300 -2.836332
v 1.166562 0.003669 -2.941047
v 0.932158 1.101299 -3.136067
v 0.974076 0.003669 -2.834319
v 1.148742 0.005617 -2.724510
v 1.539483 0.655930 -2.701953
v 1.215579 0.005617 -2.863284
v 0.951238 -0.033503 -2.889714
v 0.688313 0.820668 -2.806496
v 0.966007 -0.033503 -2.694982
v 1.224463 -0.040632 -1.891602
v 1.364591 0.317967 -0.999748
v 1.396878 -0.049879 -1.895769
v 1.329193 -0.026818 -1.983397
v 0.599423 0.283686 -2.512172
v 1.212294 -0.026818 -1.856104
v 1.236533 -0.033410 -1.861404
v 1.398873 1.033908 -2.417258
v 1.529175 -0.033410 -1.940027
v 1.514655 -0.033409 -1.928812
v 1.325336 1.342931 -1.868231
v 1.220782 -0.033409 -1.854928
v 1.211746 -0.033503 2.602394
v 1.124974 0.820669 2.340601
v 1.017252 -0.033503 2.619820
vt 0.000000 0.000000
vn 0.750200 0.238900 0.616600
vn -0.368500 -0.486200 0.792300
vn 0.602900 -0.719300 -0.345000
vn 0.169700 -0.003400 -0.985500
vn -0.469400 -0.250700 -0.846600
vn 0.787300 -0.486200 0.379200
vn 0.951300 0.299800 -0.072100
vn 0.040500 0.924800 -0.378200
vn -0.241400 -0.944800 -0.221700
vn 0.235400 0.420500 0.876200
vn -0.243800 0.009100 -0.969800
vn 0.085100 0.299900 0.950200
usemtl Material.001
s off
f 37/2/13 39/2/13 38/2/13
f 40/2/14 42/2/14 41/2/14
f 43/2/15 45/2/15 44/2/15
f 46/2/16 48/2/16 47/2/16
f 49/2/17 51/2/17 50/2/17
f 52/2/18 54/2/18 53/2/18
f 57/2/19 55/2/19 56/2/19
f 60/2/20 58/2/20 59/2/20
f 61/2/21 63/2/21 62/2/21
f 64/2/22 66/2/22 65/2/22
f 67/2/23 69/2/23 68/2/23
f 72/2/24 70/2/24 71/2/24
o Plane.000
v -1.097480 -0.136057 0.055380
v -0.921185 -0.047486 0.203190
v -1.100066 -0.036146 0.255574
v -1.372471 -0.014058 -0.047461
v -1.131820 0.093452 -0.162067
v -0.834500 -0.002044 -0.172131
v -1.037022 0.179696 0.173826
v -1.215861 0.140098 0.038377
v -1.256040 0.118345 -0.056645
v -1.049837 0.090967 -0.116082
v -0.973606 0.198812 -0.060684
v -1.085441 0.193107 -0.002576
v 1.252098 -0.151673 1.413709
v 1.512710 -0.002247 1.750376
v 1.243587 -0.019089 1.811647
v 0.838607 0.030754 1.250456
v 1.092127 0.039270 1.000982
v 1.486373 0.069940 1.206569
v 1.313609 0.253399 1.712308
v 1.008536 0.289531 1.532940
v 1.000692 0.334352 1.260127
v 1.361556 0.263855 1.084601
v 1.590198 0.283922 1.500094
v 1.356185 0.359704 1.475178
vt 0.000000 0.000000
vt 1.000000 0.000000
vt 1.000000 1.000000
vn -0.139800 -0.691900 -0.708200
vn -0.897200 0.025200 -0.440900
vn -0.113600 0.374200 -0.920300
vn 0.611000 0.248000 -0.751700
vn 0.676800 0.418200 0.605800
vn 0.353600 0.868800 -0.346600
vn -0.235500 0.380800 0.894200
vn 0.143400 0.766700 0.625700
vn -0.598100 0.722500 0.346700
vn -0.558300 0.754300 -0.345500
vn 0.034800 0.792000 -0.609600
vn -0.226400 0.948100 -0.223300
vn 0.055000 -0.996700 -0.058800
vn 0.681200 -0.375700 0.628300
vn -0.256300 -0.400300 0.879800
vn 0.762500 -0.390400 -0.515900
vn -0.932600 -0.314600 -0.176900
vn -0.221500 -0.299300 -0.928100
vn 0.859100 0.500100 0.108700
vn 0.024600 0.651300 0.758400
vn -0.647600 0.583700 0.489700
vn -0.513200 0.808600 -0.287700
vn 0.377100 0.522800 -0.764500
vn 0.120700 0.986300 0.112200
usemtl Material.002
s 1
f 73/3/25 76/4/26 77/5/27
f 73/3/25 77/4/27 78/5/28
f 74/3/29 78/4/28 83/5/30
f 75/3/31 74/4/29 79/5/32
f 76/3/26 75/4/31 80/5/33
f 77/3/27 76/4/26 81/5/34
f 78/3/28 77/4/27 82/5/35
f 74/3/29 83/4/30 79/5/32
f 75/3/31 79/4/32 80/5/33
f 76/3/26 80/4/33 81/5/34
f 77/3/27 81/4/34 82/5/35
f 78/3/28 82/4/35 83/5/30
f 79/3/32 83/4/30 84/5/36
f 80/3/33 79/4/32 84/5/36
f 81/3/34 80/4/33 84/5/36
f 82/3/35 81/4/34 84/5/36
f 83/3/30 82/4/35 84/5/36
f 85/3/37 86/4/38 87/5/39
f 86/3/38 85/4/37 90/5/40
f 85/3/37 87/4/39 88/5/41
f 85/3/37 88/4/41 89/5/42
f 85/3/37 89/4/42 90/5/40
f 86/3/38 90/4/40 95/5/43
f 87/3/39 86/4/38 91/5/44
f 88/3/41 87/4/39 92/5/45
f 89/3/42 88/4/41 93/5/46
f 90/3/40 89/4/42 94/5/47
f 86/3/38 95/4/43 91/5/44
f 87/3/39 91/4/44 92/5/45
f 88/3/41 92/4/45 93/5/46
f 89/3/42 93/4/46 94/5/47
f 90/3/40 94/4/47 95/5/43
f 91/3/44 95/4/43 96/5/48
f 92/3/45 91/4/44 96/5/48
f 93/3/46 92/4/45 96/5/48
f 94/3/47 93/4/46 96/5/48
f 95/3/43 94/4/47 96/5/48
