# Blender v2.76 (sub 0) OBJ File: 'tree3LP.blend'
# www.blender.org
mtllib tree3LP.mtl
o Icosphere.010_Icosphere.019
v -0.190639 0.468645 0.010739
v -0.246757 0.449199 0.096509
v -0.304544 0.390726 0.066260
v -0.295483 0.364872 -0.004672
v -0.220752 0.416529 -0.051793
v -0.314757 0.554560 0.005967
v -0.389488 0.502903 0.053089
v -0.419602 0.450787 -0.009444
v -0.363483 0.470233 -0.095214
v -0.298685 0.534369 -0.085690
v -0.421580 0.555541 -0.059515
v 0.013977 0.714880 -0.122221
v -0.080567 0.725955 -0.086016
v -0.144737 0.686814 -0.134573
v -0.089850 0.651548 -0.200788
v 0.008240 0.668895 -0.193153
v -0.046527 0.832377 -0.187569
v -0.144617 0.815031 -0.195205
v -0.150354 0.769045 -0.266137
v -0.055810 0.757971 -0.302341
v 0.008360 0.797112 -0.253784
v -0.089657 0.859008 -0.298890
v -0.149876 0.391938 -0.218058
v -0.201277 0.392710 -0.188144
v -0.234447 0.354093 -0.199958
v -0.203545 0.329455 -0.237173
v -0.151278 0.352844 -0.248359
v -0.207756 0.434479 -0.265530
v -0.260023 0.411090 -0.254344
v -0.261425 0.371996 -0.284645
v -0.210025 0.371224 -0.314559
v -0.176855 0.409841 -0.302745
v -0.244929 0.421677 -0.325171
v -0.208526 0.301967 0.219715
v -0.155032 0.301523 0.265277
v -0.126044 0.249592 0.274952
v -0.173882 0.213970 0.247733
v -0.220176 0.247857 0.208872
v -0.235646 0.282688 0.336616
v -0.177095 0.252773 0.363112
v -0.188745 0.198663 0.352269
v -0.254496 0.195135 0.319071
v -0.283483 0.247066 0.309397
v -0.256482 0.219117 0.390379
v -0.246334 0.537398 0.138656
v -0.225473 0.572375 0.166574
v -0.223659 0.567724 0.216024
v -0.243398 0.529872 0.218667
v -0.257411 0.511131 0.170850
v -0.306658 0.586438 0.161367
v -0.292644 0.605180 0.209184
v -0.303722 0.578912 0.241378
v -0.324582 0.543936 0.213460
v -0.326397 0.548587 0.164010
v -0.356728 0.596790 0.203279
v -0.066226 0.735807 0.179254
v 0.004156 0.738735 0.189090
v 0.027407 0.695496 0.227763
v -0.028607 0.665846 0.241827
v -0.086475 0.690760 0.211847
v -0.048045 0.792817 0.263048
v 0.009822 0.767904 0.293028
v -0.010426 0.722856 0.325621
v -0.080808 0.719929 0.315785
v -0.104059 0.763167 0.277111
v -0.053825 0.793174 0.346526
v 0.129948 0.631904 0.199731
v 0.161924 0.632396 0.148093
v 0.199939 0.595104 0.144584
v 0.191458 0.571565 0.194054
v 0.148201 0.594309 0.228135
v 0.201959 0.680659 0.212719
v 0.245216 0.657915 0.178637
v 0.263469 0.620320 0.207042
v 0.231493 0.619828 0.258679
v 0.193477 0.657120 0.262188
v 0.265177 0.681772 0.246010
v 0.086753 0.397112 0.287628
v 0.146913 0.398131 0.276077
v 0.165531 0.352867 0.267955
v 0.121799 0.324068 0.287585
v 0.076155 0.351534 0.307838
v 0.132958 0.426266 0.388926
v 0.186569 0.399114 0.389865
v 0.175971 0.353535 0.410074
v 0.115811 0.352517 0.421626
v 0.089226 0.397467 0.408555
v 0.148141 0.396957 0.454693
v 0.267999 0.340919 0.125328
v 0.296505 0.343920 0.050368
v 0.297364 0.282620 0.016159
v 0.306015 0.250324 0.081247
v 0.272938 0.281885 0.146113
v 0.365408 0.404232 0.126339
v 0.412607 0.375623 0.070200
v 0.442852 0.324478 0.100653
v 0.414345 0.321476 0.175614
v 0.366481 0.370767 0.191490
v 0.455854 0.392215 0.157418
v 0.132313 0.374265 -0.272779
v 0.062997 0.385730 -0.244714
v 0.018205 0.339076 -0.260079
v 0.059839 0.298778 -0.297642
v 0.129768 0.317076 -0.284471
v 0.073263 0.426858 -0.348559
v 0.002741 0.405109 -0.340711
v 0.000789 0.351370 -0.373422
v 0.070105 0.339906 -0.401488
v 0.114897 0.386560 -0.386122
v 0.034817 0.405622 -0.428106
v 0.228674 0.586849 -0.133053
v 0.154322 0.575537 -0.192406
v 0.154829 0.504295 -0.237248
v 0.225623 0.470713 -0.199134
v 0.268768 0.520554 -0.135435
v 0.265478 0.635095 -0.257769
v 0.219840 0.584074 -0.322165
v 0.266300 0.519823 -0.330325
v 0.340652 0.531135 -0.270972
v 0.340145 0.602377 -0.226129
v 0.334685 0.600662 -0.343007
vt 0.404685 0.191870
vt 0.404761 0.217784
vt 0.000105 0.306122
vt 0.421076 0.186296
vt 0.220693 0.000106
vt 0.432999 0.194025
vt 0.586271 0.000105
vt 0.434665 0.212853
vt 0.719814 0.315039
vt 0.433610 0.664524
vt 0.380491 0.806316
vt 0.308807 0.999895
vt 0.185836 0.906979
vt 0.172900 0.664734
vt 0.000105 0.808012
vt 0.098583 0.999895
vn 0.709900 0.702300 -0.052700
vn 0.441300 -0.155500 -0.883800
vn 0.353000 0.590800 -0.725500
vn 0.092800 0.478600 0.873100
vn 0.191400 0.932500 0.306300
vn -0.537600 -0.502600 0.677000
vn -0.566400 0.296300 0.769000
vn -0.389000 -0.848700 -0.358200
vn -0.888200 -0.458500 0.030100
vn -0.307800 -0.299300 -0.903100
vn -0.699100 0.630200 -0.337500
vn 0.807400 0.418500 0.415900
vn 0.772400 -0.405300 -0.488900
vn 0.872900 0.342800 -0.347100
vn -0.183600 0.582700 0.791700
vn 0.293700 0.850200 0.436800
vn -0.969200 -0.086500 0.230400
vn -0.728800 0.607700 0.315600
vn -0.349700 -0.705400 -0.616500
vn -0.829700 -0.118000 -0.545500
vn 0.166500 -0.297500 -0.940100
vn -0.126300 0.774300 -0.620000
vn 0.708500 0.699500 0.093500
vn 0.780100 -0.363600 -0.509200
vn 0.687200 0.391900 -0.611600
vn -0.227900 0.756300 0.613200
vn 0.103000 0.989400 0.101900
vn -0.866000 -0.216600 0.450600
vn -0.818500 0.501500 0.280300
vn -0.221100 -0.928300 -0.298700
vn -0.830900 -0.471700 -0.295100
vn 0.112200 -0.547600 -0.829200
vn -0.420100 0.477400 -0.771800
vn -0.591700 0.783100 -0.191500
vn -0.741700 -0.284200 -0.607500
vn -0.985600 0.150300 -0.077600
vn 0.297400 0.890200 0.345100
vn -0.295200 0.857000 0.422400
vn 0.927600 -0.152300 0.341000
vn 0.549200 0.313900 0.774500
vn 0.173000 -0.948200 -0.266300
vn 0.445200 -0.776900 0.445100
vn -0.487600 -0.867900 -0.094600
vn -0.449400 -0.204300 0.869700
vn -0.134500 -0.013700 -0.990800
vn -0.336400 -0.923600 -0.183800
vn -0.670500 -0.421500 -0.610500
vn 0.309800 0.841200 -0.443200
vn -0.194100 0.616200 -0.763200
vn 0.473000 0.599300 0.645800
vn 0.129900 0.974500 0.183000
vn 0.026200 -0.570100 0.821100
vn -0.137900 0.180700 0.973800
vn -0.577100 -0.682500 0.448400
vn -0.881300 0.463100 0.094000
vn -0.511200 0.653800 -0.557800
vn -0.920700 -0.385900 -0.057800
vn -0.931500 0.363000 0.022900
vn 0.544500 0.742000 -0.391000
vn -0.034100 0.966100 -0.255800
vn 0.962900 -0.185600 0.195900
vn 0.826400 0.514500 0.228800
vn 0.006000 -0.901200 0.433200
vn 0.468700 -0.416600 0.778900
vn -0.587600 -0.503200 0.633600
vn -0.118700 0.611500 0.782300
vn -0.712900 0.666100 0.219000
vn -0.427000 -0.354300 0.831900
vn -0.353100 0.395200 0.848000
vn -0.133400 0.719200 -0.681800
vn -0.242200 0.964400 -0.106200
vn 0.567100 -0.217100 -0.794500
vn 0.546100 0.487600 -0.681200
vn 0.393500 -0.897000 0.201200
vn 0.899400 -0.425600 -0.099200
vn 0.339300 -0.476900 0.810800
vn 0.671200 0.622200 0.402900
vn -0.598200 0.791800 -0.123300
vn -0.890000 -0.430700 0.149200
vn -0.837500 0.328200 0.436900
vn 0.522800 0.796700 -0.303100
vn -0.022400 0.994000 0.106700
vn 0.927800 -0.319800 -0.191800
vn 0.895700 0.432800 0.101600
vn 0.125100 -0.988600 0.083100
vn 0.667200 -0.630800 0.396000
vn -0.401100 -0.701800 0.588700
vn 0.158900 0.264700 0.951100
vn -0.647200 0.633900 0.423400
vn -0.206900 -0.494200 0.844400
vn -0.172900 0.372300 0.911900
vn -0.207600 0.728700 -0.652600
vn -0.202800 0.979100 -0.011200
vn 0.421100 -0.290900 -0.859100
vn 0.433800 0.515500 -0.738900
vn 0.394600 -0.918700 -0.015000
vn 0.839200 -0.450200 -0.305000
vn 0.453400 -0.548300 0.702700
vn 0.781800 0.523700 0.338500
vn 0.823100 0.561400 0.084600
vn 0.794100 -0.514100 -0.324300
vn 0.810600 0.228100 -0.539300
vn -0.225300 0.843300 0.488000
vn 0.192100 0.981400 0.006100
vn -0.935200 -0.081700 0.344400
vn -0.790900 0.602900 0.104700
vn -0.209900 -0.949300 -0.233900
vn -0.830200 -0.428700 -0.356200
vn 0.178100 -0.659600 -0.730200
vn -0.263600 0.414100 -0.871200
vn 0.164500 0.802200 0.573900
vn 0.757400 -0.259300 0.599200
vn 0.805700 0.477400 0.350600
vn -0.673400 0.728300 -0.126900
vn -0.084200 0.995500 -0.043900
vn -0.710900 -0.372000 -0.596800
vn -0.564200 0.361900 -0.742100
vn 0.241200 -0.962800 -0.122000
vn -0.005400 -0.623600 -0.781700
vn 0.827500 -0.554500 -0.088000
vn 0.561000 0.366700 -0.742100
usemtl nut
s 1
f 1/1/1 5/2/2 10/3/3
f 2/4/4 1/1/1 6/5/5
f 3/6/6 2/4/4 7/7/7
f 4/8/8 3/6/6 8/9/9
f 5/2/2 4/8/8 9/10/10
f 1/1/1 10/3/3 6/5/5
f 2/4/4 6/5/5 7/7/7
f 3/6/6 7/7/7 8/9/9
f 4/8/8 8/9/9 9/10/10
f 5/2/2 9/10/10 10/3/3
f 6/11/5 10/12/3 11/13/11
f 7/14/7 6/11/5 11/13/11
f 8/15/9 7/14/7 11/13/11
f 9/16/10 8/15/9 11/13/11
f 10/12/3 9/16/10 11/13/11
f 12/1/12 16/2/13 21/3/14
f 13/4/15 12/1/12 17/5/16
f 14/6/17 13/4/15 18/7/18
f 15/8/19 14/6/17 19/9/20
f 16/2/13 15/8/19 20/10/21
f 12/1/12 21/3/14 17/5/16
f 13/4/15 17/5/16 18/7/18
f 14/6/17 18/7/18 19/9/20
f 15/8/19 19/9/20 20/10/21
f 16/2/13 20/10/21 21/3/14
f 17/11/16 21/12/14 22/13/22
f 18/14/18 17/11/16 22/13/22
f 19/15/20 18/14/18 22/13/22
f 20/16/21 19/15/20 22/13/22
f 21/12/14 20/16/21 22/13/22
f 23/1/23 27/2/24 32/3/25
f 24/4/26 23/1/23 28/5/27
f 25/6/28 24/4/26 29/7/29
f 26/8/30 25/6/28 30/9/31
f 27/2/24 26/8/30 31/10/32
f 23/1/23 32/3/25 28/5/27
f 24/4/26 28/5/27 29/7/29
f 25/6/28 29/7/29 30/9/31
f 26/8/30 30/9/31 31/10/32
f 27/2/24 31/10/32 32/3/25
f 28/11/27 32/12/25 33/13/33
f 29/14/29 28/11/27 33/13/33
f 30/15/31 29/14/29 33/13/33
f 31/16/32 30/15/31 33/13/33
f 32/12/25 31/16/32 33/13/33
f 34/1/34 38/2/35 43/3/36
f 35/4/37 34/1/34 39/5/38
f 36/6/39 35/4/37 40/7/40
f 37/8/41 36/6/39 41/9/42
f 38/2/35 37/8/41 42/10/43
f 34/1/34 43/3/36 39/5/38
f 35/4/37 39/5/38 40/7/40
f 36/6/39 40/7/40 41/9/42
f 37/8/41 41/9/42 42/10/43
f 38/2/35 42/10/43 43/3/36
f 39/11/38 43/12/36 44/13/44
f 40/14/40 39/11/38 44/13/44
f 41/15/42 40/14/40 44/13/44
f 42/16/43 41/15/42 44/13/44
f 43/12/36 42/16/43 44/13/44
f 45/1/45 49/2/46 54/3/47
f 46/4/48 45/1/45 50/5/49
f 47/6/50 46/4/48 51/7/51
f 48/8/52 47/6/50 52/9/53
f 49/2/46 48/8/52 53/10/54
f 45/1/45 54/3/47 50/5/49
f 46/4/48 50/5/49 51/7/51
f 47/6/50 51/7/51 52/9/53
f 48/8/52 52/9/53 53/10/54
f 49/2/46 53/10/54 54/3/47
f 50/11/49 54/12/47 55/13/55
f 51/14/51 50/11/49 55/13/55
f 52/15/53 51/14/51 55/13/55
f 53/16/54 52/15/53 55/13/55
f 54/12/47 53/16/54 55/13/55
f 56/1/56 60/2/57 65/3/58
f 57/4/59 56/1/56 61/5/60
f 58/6/61 57/4/59 62/7/62
f 59/8/63 58/6/61 63/9/64
f 60/2/57 59/8/63 64/10/65
f 56/1/56 65/3/58 61/5/60
f 57/4/59 61/5/60 62/7/62
f 58/6/61 62/7/62 63/9/64
f 59/8/63 63/9/64 64/10/65
f 60/2/57 64/10/65 65/3/58
f 61/11/60 65/12/58 66/13/66
f 62/14/62 61/11/60 66/13/66
f 63/15/64 62/14/62 66/13/66
f 64/16/65 63/15/64 66/13/66
f 65/12/58 64/16/65 66/13/66
f 67/1/67 71/2/68 76/3/69
f 68/4/70 67/1/67 72/5/71
f 69/6/72 68/4/70 73/7/73
f 70/8/74 69/6/72 74/9/75
f 71/2/68 70/8/74 75/10/76
f 67/1/67 76/3/69 72/5/71
f 68/4/70 72/5/71 73/7/73
f 69/6/72 73/7/73 74/9/75
f 70/8/74 74/9/75 75/10/76
f 71/2/68 75/10/76 76/3/69
f 72/11/71 76/12/69 77/13/77
f 73/14/73 72/11/71 77/13/77
f 74/15/75 73/14/73 77/13/77
f 75/16/76 74/15/75 77/13/77
f 76/12/69 75/16/76 77/13/77
f 78/1/78 82/2/79 87/3/80
f 79/4/81 78/1/78 83/5/82
f 80/6/83 79/4/81 84/7/84
f 81/8/85 80/6/83 85/9/86
f 82/2/79 81/8/85 86/10/87
f 78/1/78 87/3/80 83/5/82
f 79/4/81 83/5/82 84/7/84
f 80/6/83 84/7/84 85/9/86
f 81/8/85 85/9/86 86/10/87
f 82/2/79 86/10/87 87/3/80
f 83/11/82 87/12/80 88/13/88
f 84/14/84 83/11/82 88/13/88
f 85/15/86 84/14/84 88/13/88
f 86/16/87 85/15/86 88/13/88
f 87/12/80 86/16/87 88/13/88
f 89/1/89 93/2/90 98/3/91
f 90/4/92 89/1/89 94/5/93
f 91/6/94 90/4/92 95/7/95
f 92/8/96 91/6/94 96/9/97
f 93/2/90 92/8/96 97/10/98
f 89/1/89 98/3/91 94/5/93
f 90/4/92 94/5/93 95/7/95
f 91/6/94 95/7/95 96/9/97
f 92/8/96 96/9/97 97/10/98
f 93/2/90 97/10/98 98/3/91
f 94/11/93 98/12/91 99/13/99
f 95/14/95 94/11/93 99/13/99
f 96/15/97 95/14/95 99/13/99
f 97/16/98 96/15/97 99/13/99
f 98/12/91 97/16/98 99/13/99
f 100/1/100 104/2/101 109/3/102
f 101/4/103 100/1/100 105/5/104
f 102/6/105 101/4/103 106/7/106
f 103/8/107 102/6/105 107/9/108
f 104/2/101 103/8/107 108/10/109
f 100/1/100 109/3/102 105/5/104
f 101/4/103 105/5/104 106/7/106
f 102/6/105 106/7/106 107/9/108
f 103/8/107 107/9/108 108/10/109
f 104/2/101 108/10/109 109/3/102
f 105/11/104 109/12/102 110/13/110
f 106/14/106 105/11/104 110/13/110
f 107/15/108 106/14/106 110/13/110
f 108/16/109 107/15/108 110/13/110
f 109/12/102 108/16/109 110/13/110
f 111/1/111 115/2/112 120/3/113
f 112/4/114 111/1/111 116/5/115
f 113/6/116 112/4/114 117/7/117
f 114/8/118 113/6/116 118/9/119
f 115/2/112 114/8/118 119/10/120
f 111/1/111 120/3/113 116/5/115
f 112/4/114 116/5/115 117/7/117
f 113/6/116 117/7/117 118/9/119
f 114/8/118 118/9/119 119/10/120
f 115/2/112 119/10/120 120/3/113
f 116/11/115 120/12/113 121/13/121
f 117/14/117 116/11/115 121/13/121
f 118/15/119 117/14/117 121/13/121
f 119/16/120 118/15/119 121/13/121
f 120/12/113 119/16/120 121/13/121
o Icosphere.001
v 0.000000 -0.049407 0.000000
v 0.283259 0.029177 0.205797
v -0.108193 0.029177 0.332990
v -0.350130 0.029177 0.000000
v -0.108193 0.029177 -0.332990
v 0.283259 0.029177 -0.205797
v 0.108193 0.687009 0.332990
v -0.283259 0.687009 0.205797
v -0.283259 0.687009 -0.205797
v 0.108193 0.687009 -0.332990
v 0.350130 0.687009 0.000000
v 0.000000 0.884734 0.000000
vt 0.288888 0.339590
vt 0.347870 0.382442
vt 0.266360 0.408926
vt 0.347870 0.296738
vt 0.215984 0.339590
vt 0.266360 0.270254
vt 0.645848 0.339590
vt 0.399193 0.679079
vt 0.000101 0.549405
vt 0.000101 0.129776
vt 0.399193 0.000101
vt 0.522612 0.655209
vt 0.699537 0.526663
vt 0.699537 0.712695
vt 0.590192 0.863197
vt 0.808882 0.863197
vt 0.876462 0.655209
vn 0.000000 -1.000000 0.000000
vn 0.672400 -0.556000 0.488500
vn -0.256800 -0.556000 0.790500
vn 0.672400 -0.556000 -0.488500
vn -0.831200 -0.556000 0.000000
vn -0.256800 -0.556000 -0.790500
vn 0.885300 0.464900 0.000000
vn 0.273600 0.464900 0.842000
vn -0.716300 0.464900 0.520400
vn -0.716300 0.464900 -0.520400
vn 0.273600 0.464900 -0.842000
vn 0.000000 1.000000 0.000000
usemtl foliage1
s 1
f 122/17/122 123/18/123 124/19/124
f 123/18/123 122/17/122 127/20/125
f 122/17/122 124/19/124 125/21/126
f 122/17/122 125/21/126 126/22/127
f 122/17/122 126/22/127 127/20/125
f 123/18/123 127/20/125 132/23/128
f 124/19/124 123/18/123 128/24/129
f 125/21/126 124/19/124 129/25/130
f 126/22/127 125/21/126 130/26/131
f 127/20/125 126/22/127 131/27/132
f 123/18/123 132/23/128 128/24/129
f 124/19/124 128/24/129 129/25/130
f 125/21/126 129/25/130 130/26/131
f 126/22/127 130/26/131 131/27/132
f 127/20/125 131/27/132 132/23/128
f 128/28/129 132/29/128 133/30/133
f 129/31/130 128/28/129 133/30/133
f 130/32/131 129/31/130 133/30/133
f 131/33/132 130/32/131 133/30/133
f 132/29/128 131/33/132 133/30/133
o Icosphere.006
v 0.009060 0.981492 0.014990
v -0.064830 0.936557 -0.038694
v 0.037284 0.936557 -0.071873
v 0.100395 0.936557 0.014990
v 0.037284 0.936557 0.101854
v -0.064830 0.936557 0.068674
v -0.019163 0.845222 -0.071873
v 0.082951 0.845222 -0.038693
v 0.082951 0.845222 0.068675
v -0.019163 0.845222 0.101854
v -0.082274 0.845222 0.014990
v 0.009060 0.788774 0.014990
vt 0.811103 0.198614
vt 0.694421 0.359215
vt 0.622306 0.137272
vt 0.927784 0.359215
vt 0.811103 0.000101
vt 0.999899 0.137272
vt 0.622105 0.125008
vt 0.622105 0.529207
vt 0.440130 0.327108
vt 0.237687 0.000101
vt 0.373661 0.235622
vt 0.000101 0.327108
vt 0.266113 0.270567
vt 0.237687 0.654115
vt 0.266113 0.383649
vt 0.373661 0.418593
vt 0.343936 0.327108
vn 0.000000 -1.000000 0.000000
vn 0.710500 -0.478300 0.516200
vn -0.271400 -0.478300 0.835200
vn 0.710500 -0.478300 -0.516200
vn -0.878200 -0.478300 0.000000
vn -0.271400 -0.478300 -0.835200
vn 0.894400 0.447200 0.000000
vn 0.276400 0.447200 0.850600
vn -0.723600 0.447200 0.525700
vn -0.723600 0.447200 -0.525700
vn 0.276400 0.447200 -0.850600
vn 0.000000 1.000000 0.000000
usemtl foliage-red
s 1
f 134/34/134 135/35/135 136/36/136
f 135/35/135 134/34/134 139/37/137
f 134/34/134 136/36/136 137/38/138
f 134/34/134 137/38/138 138/39/139
f 134/34/134 138/39/139 139/37/137
f 135/40/135 139/41/137 144/42/140
f 136/43/136 135/40/135 140/44/141
f 137/45/138 136/43/136 141/46/142
f 138/47/139 137/45/138 142/48/143
f 139/41/137 138/47/139 143/49/144
f 135/40/135 144/42/140 140/44/141
f 136/43/136 140/44/141 141/46/142
f 137/45/138 141/46/142 142/48/143
f 138/47/139 142/48/143 143/49/144
f 139/41/137 143/49/144 144/42/140
f 140/44/141 144/42/140 145/50/145
f 141/46/142 140/44/141 145/50/145
f 142/48/143 141/46/142 145/50/145
f 143/49/144 142/48/143 145/50/145
f 144/42/140 143/49/144 145/50/145
