# Blender v2.76 (sub 0) OBJ File: 'hillTree1LP.blend'
# www.blender.org
mtllib hillTree1LP.mtl
o Cone
v 0.105492 2.311691 -0.015907
v 0.300920 1.984518 -0.045063
v 0.016481 2.310768 0.104922
v 0.048756 1.981902 0.297240
v -0.015330 2.310438 -0.104922
v -0.041366 1.980967 -0.297240
v -0.104341 2.309515 0.015907
v -0.293530 1.978351 0.045063
v -0.260363 1.755885 0.339283
v -0.008365 2.176798 -0.000184
v -0.335515 1.753188 -0.254838
v 0.258543 1.762025 -0.330022
v 0.333695 1.764722 0.264100
v -0.531754 1.378896 0.241293
v -0.003441 2.088635 -0.008727
v -0.236449 1.375161 -0.532364
v 0.537149 1.387609 -0.237141
v 0.241843 1.391344 0.536516
v -0.605395 0.987012 -0.274537
v 0.013697 1.773672 0.000633
v 0.270213 0.974685 -0.602420
v 0.598026 0.967488 0.273270
v -0.277581 0.979815 0.601154
v -0.553639 0.485811 -0.555261
v -0.002149 1.613648 -0.000000
v 0.557395 0.494015 -0.555803
v 0.557936 0.494019 0.555261
v -0.553097 0.485815 0.555803
vt 0.000000 0.000000
vt 1.000000 0.000000
vt 1.000000 1.000000
vt 0.000000 1.000000
vn 0.739000 0.392700 0.547400
vn -0.551100 0.380300 0.742700
vn -0.746600 0.378400 -0.547100
vn 0.543400 0.390800 -0.743000
vn -0.010400 0.999900 -0.000000
vn 0.010400 -0.999900 -0.000000
vn 0.796900 0.595100 -0.103500
vn -0.815800 0.569500 0.100600
vn 0.092600 0.590900 0.801400
vn -0.111200 0.573700 -0.811500
vn 0.015200 -0.999900 0.002600
vn 0.799900 0.518200 0.302800
vn -0.811500 0.494100 -0.312100
vn -0.313000 0.514300 0.798500
vn 0.302200 0.497900 -0.812900
vn 0.012400 -0.999900 0.009600
vn 0.310100 0.498500 0.809500
vn -0.294500 0.513700 -0.805800
vn -0.797500 0.521700 0.302800
vn 0.817500 0.490400 -0.302000
vn -0.015000 -0.999900 -0.002600
vn -0.002800 0.443200 0.896400
vn -0.003700 0.443200 -0.896400
vn -0.898400 0.439100 0.000400
vn 0.894400 0.447200 -0.000400
vn 0.007400 -1.000000 0.000000
usemtl foliage
s off
f 2/1/1 1/1/1 3/1/1 4/1/1
f 4/1/2 3/1/2 7/1/2 8/1/2
f 8/1/3 7/1/3 5/1/3 6/1/3
f 6/1/4 5/1/4 1/1/4 2/1/4
f 1/1/5 5/1/5 7/1/5 3/1/5
f 6/1/6 2/1/6 4/1/6 8/1/6
f 12/1/7 10/2/7 13/3/7
f 9/1/8 10/2/8 11/3/8
f 13/1/9 10/2/9 9/3/9
f 11/1/10 10/2/10 12/3/10
f 9/1/11 11/2/11 12/3/11 13/4/11
f 17/1/12 15/2/12 18/3/12
f 14/1/13 15/2/13 16/3/13
f 18/1/14 15/2/14 14/3/14
f 16/1/15 15/2/15 17/3/15
f 14/1/16 16/2/16 17/3/16 18/4/16
f 22/1/17 20/2/17 23/3/17
f 19/1/18 20/2/18 21/3/18
f 23/1/19 20/2/19 19/3/19
f 21/1/20 20/2/20 22/3/20
f 19/1/21 21/2/21 22/3/21 23/4/21
f 27/1/22 25/2/22 28/3/22
f 24/1/23 25/2/23 26/3/23
f 28/1/24 25/2/24 24/3/24
f 26/1/25 25/2/25 27/3/25
f 24/1/26 26/2/26 27/3/26 28/4/26
o Cylinder_Cylinder.001
v 0.000000 -0.720318 -0.184585
v 0.002460 0.732619 -0.100243
v 0.175551 -0.720318 -0.057040
v 0.097797 0.732619 -0.030977
v 0.108496 -0.720318 0.149332
v 0.061381 0.732619 0.081098
v -0.108496 -0.720318 0.149332
v -0.056461 0.732619 0.081098
v -0.175551 -0.720318 -0.057040
v -0.092876 0.732619 -0.030977
vt 0.642877 -0.785935
vt 0.580037 1.758971
vt 0.430682 1.759119
vt 0.367858 -0.785663
vt 0.281508 1.766433
vt 0.093171 -0.772196
vt 0.132862 1.780974
vt -0.180543 -0.745420
vt 0.917573 -0.772635
vt 0.729217 1.766195
vt 1.191243 -0.745420
vt 0.877844 1.780974
vn -0.000600 0.057900 -0.998300
vn 0.000600 0.057900 -0.998300
vn 0.949600 0.056300 -0.308300
vn 0.949500 0.056300 -0.308700
vn 0.587200 0.056900 0.807400
vn 0.586400 0.056900 0.808000
vn -0.586300 0.058900 0.807900
vn -0.587100 0.058900 0.807300
vn -0.949400 0.059500 -0.308300
vn -0.949300 0.059500 -0.308600
usemtl wood
s 1
f 29/5/27 30/6/28 32/7/29 31/8/30
f 31/8/30 32/7/29 34/9/31 33/10/32
f 33/10/32 34/9/31 36/11/33 35/12/34
f 37/13/35 38/14/36 30/6/28 29/5/27
f 35/15/34 36/16/33 38/14/36 37/13/35
