# Blender v2.76 (sub 0) OBJ File: 'hillTree2.blend'
# www.blender.org
mtllib hillTree2.mtl
o leaves_Cone.005
v 0.471630 2.699367 -0.149911
v 0.110353 3.087390 -0.156389
v 0.221481 2.696170 0.183807
v -0.173133 2.689168 0.048998
v -0.166869 2.688038 -0.368037
v 0.231616 2.694341 -0.490970
v 0.719762 2.323077 -0.349295
v 0.118260 2.849707 -0.163075
v 0.489972 2.347925 0.369716
v -0.265163 2.360491 0.373093
v -0.502071 2.343409 -0.343831
v 0.106646 2.320286 -0.790291
v 0.833016 1.953084 -0.057639
v 0.107315 2.441730 -0.155867
v 0.247959 1.938218 0.552587
v -0.512862 1.917654 0.184497
v -0.398019 1.919811 -0.653221
v 0.433780 1.941708 -0.802869
v 0.711679 1.459220 -0.779301
v 0.114045 2.102722 -0.155598
v 0.891900 1.459220 0.220051
v -0.002848 1.459220 0.700268
v -0.736055 1.459220 -0.002293
v -0.294453 1.459220 -0.916717
v -0.130498 1.020531 -0.842479
v 0.119906 1.806460 -0.167015
v 0.686712 0.999011 -0.600558
v 0.709573 1.029454 0.251407
v -0.093508 1.069789 0.536029
v -0.612701 1.064275 -0.140030
v 0.105172 0.648681 -0.810980
v 0.109546 1.248987 -0.159161
v 0.725067 0.636451 -0.361343
v 0.489013 0.639529 0.367197
v -0.276771 0.653662 0.367823
v -0.513998 0.659317 -0.360331
vt 0.000000 0.000000
vt 1.000000 0.000000
vt 1.000000 1.000000
vt 0.500000 1.000000
vt 0.975528 0.654508
vt 0.793893 0.095491
vt 0.206107 0.095492
vt 0.024472 0.654509
vn -0.248000 0.582400 -0.774100
vn 0.636800 0.601000 0.483100
vn -0.817900 0.575100 -0.013800
vn 0.651100 0.598400 -0.467000
vn -0.271100 0.586600 0.763100
vn 0.016700 -0.999900 0.003000
vn -0.403000 0.703000 -0.585900
vn 0.679500 0.707900 0.192700
vn -0.653800 0.730100 0.198700
vn 0.421000 0.689300 -0.589600
vn 0.015200 0.733200 0.679900
vn -0.016500 -0.999400 0.029300
vn -0.136300 0.749400 -0.647900
vn 0.454400 0.766200 0.454300
vn -0.671200 0.735800 -0.090100
vn 0.559400 0.768200 -0.311400
vn -0.306200 0.746200 0.591100
vn 0.026500 -0.999600 0.001100
vn -0.610000 0.735600 -0.294600
vn 0.666600 0.735600 -0.120200
vn -0.468700 0.735600 0.489100
vn 0.091700 0.735600 -0.671200
vn 0.320300 0.735600 0.596900
vn -0.000000 -1.000000 0.000000
vn -0.619400 0.628500 0.470500
vn 0.244100 0.586200 -0.772500
vn 0.290600 0.615200 0.732800
vn -0.635200 0.609800 -0.474000
vn 0.806800 0.589300 -0.042700
vn -0.037200 -0.998600 0.036700
vn -0.706800 0.667100 0.235500
vn 0.452300 0.654500 -0.605800
vn 0.012800 0.658100 0.752800
vn -0.432100 0.664800 -0.609400
vn 0.723400 0.650400 0.231600
vn -0.018500 -0.999800 -0.001800
usemtl leaves
s off
f 5/1/1 2/2/1 6/3/1
f 1/1/2 2/2/2 3/3/2
f 4/1/3 2/2/3 5/3/3
f 6/1/4 2/2/4 1/3/4
f 3/1/5 2/2/5 4/3/5
f 1/4/6 3/5/6 4/6/6 5/7/6 6/8/6
f 11/1/7 8/2/7 12/3/7
f 7/1/8 8/2/8 9/3/8
f 10/1/9 8/2/9 11/3/9
f 12/1/10 8/2/10 7/3/10
f 9/1/11 8/2/11 10/3/11
f 7/4/12 9/5/12 10/6/12 11/7/12 12/8/12
f 17/1/13 14/2/13 18/3/13
f 13/1/14 14/2/14 15/3/14
f 16/1/15 14/2/15 17/3/15
f 18/1/16 14/2/16 13/3/16
f 15/1/17 14/2/17 16/3/17
f 13/4/18 15/5/18 16/6/18 17/7/18 18/8/18
f 23/1/19 20/2/19 24/3/19
f 19/1/20 20/2/20 21/3/20
f 22/1/21 20/2/21 23/3/21
f 24/1/22 20/2/22 19/3/22
f 21/1/23 20/2/23 22/3/23
f 19/4/24 21/5/24 22/6/24 23/7/24 24/8/24
f 29/1/25 26/2/25 30/3/25
f 25/1/26 26/2/26 27/3/26
f 28/1/27 26/2/27 29/3/27
f 30/1/28 26/2/28 25/3/28
f 27/1/29 26/2/29 28/3/29
f 25/4/30 27/5/30 28/6/30 29/7/30 30/8/30
f 35/1/31 32/2/31 36/3/31
f 31/1/32 32/2/32 33/3/32
f 34/1/33 32/2/33 35/3/33
f 36/1/34 32/2/34 31/3/34
f 33/1/35 32/2/35 34/3/35
f 31/4/36 33/5/36 34/6/36 35/7/36 36/8/36
o wood_Cylinder.001
v 0.114834 -0.577977 -0.129776
v 0.114834 2.544002 -0.129776
v 0.114834 -0.577977 -0.344796
v 0.114834 2.544002 -0.200243
v 0.253047 -0.577977 -0.294491
v 0.160130 2.544002 -0.183757
v 0.326588 -0.577977 -0.167113
v 0.184231 2.544002 -0.142012
v 0.301047 -0.577977 -0.022265
v 0.175861 2.544002 -0.094542
v 0.188375 -0.577977 0.072278
v 0.138935 2.544002 -0.063558
v 0.041293 -0.577977 0.072278
v 0.090733 2.544002 -0.063558
v -0.071379 -0.577977 -0.022265
v 0.053808 2.544002 -0.094542
v -0.096920 -0.577977 -0.167113
v 0.045437 2.544002 -0.142012
v -0.023378 -0.577977 -0.294491
v 0.069539 2.544002 -0.183757
vt 0.000000 0.000000
vt 1.000000 0.000000
vt 1.000000 1.000000
vt 0.000000 1.000000
vn 0.000000 -1.000000 0.000000
vn 0.000000 1.000000 0.000000
vn 0.341700 0.043500 -0.938800
vn 0.865200 0.043500 -0.499500
vn 0.983900 0.043500 0.173500
vn 0.642200 0.043500 0.765300
vn -0.000000 0.043500 0.999100
vn -0.642200 0.043500 0.765300
vn -0.983900 0.043500 0.173500
vn -0.865200 0.043500 -0.499500
vn -0.341700 0.043500 -0.938800
usemtl Material
s off
f 37/9/37 39/10/37 41/11/37
f 38/9/38 42/10/38 40/11/38
f 39/9/39 40/10/39 42/11/39 41/12/39
f 37/9/37 41/10/37 43/11/37
f 38/9/38 44/10/38 42/11/38
f 41/9/40 42/10/40 44/11/40 43/12/40
f 37/9/37 43/10/37 45/11/37
f 38/9/38 46/10/38 44/11/38
f 43/9/41 44/10/41 46/11/41 45/12/41
f 37/9/37 45/10/37 47/11/37
f 38/9/38 48/10/38 46/11/38
f 45/9/42 46/10/42 48/11/42 47/12/42
f 37/9/37 47/10/37 49/11/37
f 38/9/38 50/10/38 48/11/38
f 47/9/43 48/10/43 50/11/43 49/12/43
f 37/9/37 49/10/37 51/11/37
f 38/9/38 52/10/38 50/11/38
f 49/9/44 50/10/44 52/11/44 51/12/44
f 37/9/37 51/10/37 53/11/37
f 38/9/38 54/10/38 52/11/38
f 51/9/45 52/10/45 54/11/45 53/12/45
f 37/9/37 53/10/37 55/11/37
f 38/9/38 56/10/38 54/11/38
f 53/9/46 54/10/46 56/11/46 55/12/46
f 37/9/37 55/10/37 39/11/37
f 38/9/38 40/10/38 56/11/38
f 55/9/47 56/10/47 40/11/47 39/12/47
