# Blender v2.76 (sub 0) OBJ File: 'tree5LP.blend'
# www.blender.org
mtllib tree5LP.mtl
o Icosphere.002
v -0.361019 1.543292 -0.260218
v -0.083394 1.475266 -0.661119
v 0.081849 1.579751 -0.139581
v -0.367288 1.732818 0.154515
v -0.810110 1.722929 -0.185274
v -0.634650 1.563754 -0.689358
v 0.129782 1.766720 -0.489401
v -0.045678 1.925895 0.014683
v -0.596934 2.014384 -0.013557
v -0.762177 1.909899 -0.535094
v -0.313040 1.756832 -0.829190
v -0.294959 1.995735 -0.409271
v 0.361543 1.847376 -0.295191
v 0.197266 1.722089 -0.819897
v 0.782590 1.708895 -0.579780
v 0.777410 2.029437 -0.034190
v 0.188874 2.240732 0.062876
v -0.169668 2.050779 -0.422717
v 0.610596 1.998591 -0.978417
v 0.969138 2.188544 -0.492824
v 0.602205 2.517234 -0.095645
v 0.016880 2.530427 -0.335762
v 0.022060 2.209886 -0.881352
v 0.480279 2.447308 -0.656720
v 0.601287 1.086656 0.108974
v 0.865338 1.212671 -0.246263
v 1.007072 1.125480 0.247031
v 0.572801 1.091022 0.534248
v 0.162676 1.156918 0.218452
v 0.343477 1.232100 -0.263925
v 1.025776 1.420925 0.019382
v 0.844975 1.345743 0.501760
v 0.323115 1.365172 0.484097
v 0.181381 1.452362 -0.009197
v 0.615651 1.486820 -0.296414
v 0.603351 1.534022 0.152834
v -0.188038 1.547372 0.588425
v 0.063433 1.589840 0.205339
v 0.228475 1.539312 0.696498
v -0.182888 1.604913 1.010741
v -0.602165 1.695985 0.713783
v -0.449927 1.686669 0.216022
v 0.272212 1.800263 0.432960
v 0.119973 1.809580 0.930721
v -0.393386 1.906408 0.941403
v -0.558429 1.956937 0.450244
v -0.147066 1.891335 0.136001
v -0.117912 1.991203 0.575751
v -0.470934 1.996865 0.482276
v -0.656320 2.082713 0.005169
v -0.133102 2.223600 0.218687
v -0.158373 2.181893 0.799053
v -0.697219 2.015228 0.944210
v -1.004961 1.953933 0.453563
v -0.466806 2.522326 0.045016
v -0.159064 2.583621 0.535664
v -0.507705 2.454841 0.984058
v -1.030923 2.313953 0.770539
v -1.005652 2.355660 0.190173
v -0.688534 2.612877 0.508956
v -0.038167 2.502827 -0.092455
v 0.122464 2.664393 0.710246
v -0.696094 2.768633 0.328597
v -0.576266 2.890818 -0.564311
v 0.316363 2.862090 -0.734493
v 0.748192 2.722153 0.053226
v -0.316363 3.271986 0.734493
v -0.748192 3.411923 -0.053226
v -0.122464 3.469683 -0.710247
v 0.696094 3.365443 -0.328597
v 0.576266 3.243258 0.564311
v 0.038167 3.632390 0.092455
vt 0.335922 0.352433
vt 0.328298 0.407303
vt 0.240127 0.411208
vt 0.447734 0.397530
vt 0.278024 0.273380
vt 0.394184 0.273360
vt 0.432572 0.734994
vt 0.216267 0.744759
vt 0.004009 0.732463
vt 0.881006 0.722759
vt 0.664338 0.740213
vt 0.670312 0.039886
vt 0.904180 0.039886
vt 0.787722 0.198825
vt 0.597759 0.262471
vt 0.787349 0.400288
vt 0.976770 0.262347
vn -0.159200 -0.953700 0.255200
vn 0.407300 -0.758100 -0.509200
vn 0.705600 -0.568200 0.423400
vn -0.571300 -0.602300 -0.557600
vn -0.096700 -0.294100 0.950900
vn -0.885000 -0.315900 0.341800
vn 0.091300 0.263200 -0.960400
vn 0.897100 0.282500 -0.339700
vn 0.576700 0.574600 0.580600
vn -0.423300 0.735300 0.529200
vn -0.725200 0.543300 -0.422800
vn 0.166800 0.954000 -0.249100
vn -0.204600 -0.844100 0.495500
vn -0.367700 -0.811100 -0.454800
vn 0.551200 -0.830200 -0.083700
vn -0.939300 -0.299700 0.167000
vn 0.543400 -0.326200 0.773500
vn -0.380900 -0.000100 0.924600
vn -0.568900 0.293400 -0.768200
vn 0.378800 -0.045700 -0.924300
vn 0.954300 0.261700 -0.144200
vn 0.365100 0.789600 0.493100
vn -0.575900 0.810100 0.109200
vn 0.216500 0.840300 -0.497000
vn -0.024600 -0.987800 -0.153900
vn 0.505800 -0.430900 -0.747300
vn 0.779300 -0.594600 0.197900
vn -0.485200 -0.395800 -0.779700
vn -0.050700 -0.660700 0.749000
vn -0.831300 -0.537300 0.142000
vn 0.049700 0.635800 -0.770200
vn 0.847800 0.507700 -0.152700
vn 0.494500 0.362200 0.790100
vn -0.518400 0.400200 0.755700
vn -0.795300 0.569300 -0.208200
vn 0.032200 0.986600 0.160000
vn -0.179000 -0.983500 -0.027300
vn 0.379300 -0.586200 -0.715800
vn 0.697900 -0.680000 0.224700
vn -0.595700 -0.404000 -0.694200
vn -0.088100 -0.554600 0.827400
vn -0.886900 -0.384000 0.256700
vn 0.081900 0.527900 -0.845300
vn 0.898100 0.351100 -0.264600
vn 0.600800 0.370800 0.708200
vn -0.395600 0.558900 0.728800
vn -0.718200 0.656400 -0.230800
vn 0.186700 0.981800 0.033100
vn 0.297000 -0.953300 -0.054300
vn -0.064100 -0.532700 -0.843800
vn 0.826400 -0.288200 -0.483700
vn -0.653200 -0.752600 -0.082600
vn 0.783400 -0.359000 0.507200
vn -0.133900 -0.646900 0.750700
vn -0.790200 0.320500 -0.522300
vn 0.152100 0.612800 -0.775400
vn 0.687800 0.721200 0.082200
vn 0.079400 0.496800 0.864200
vn -0.833800 0.249100 0.492600
vn -0.285300 0.957000 0.051600
vn -0.061400 -0.986900 -0.148700
vn 0.127000 -0.624300 0.770700
vn -0.790600 -0.506400 0.344200
vn 0.828400 -0.559000 0.035200
vn -0.657200 -0.367700 -0.657900
vn 0.345300 -0.400300 -0.848800
vn 0.657400 0.367300 0.658000
vn -0.345400 0.399900 0.849000
vn -0.828600 0.558600 -0.035200
vn -0.127000 0.624000 -0.771100
vn 0.790800 0.506000 -0.344300
vn 0.061300 0.987000 0.148700
usemtl foliage1
s 1
f 1/1/1 2/2/2 3/3/3
f 2/2/2 1/1/1 6/4/4
f 1/1/1 3/3/3 4/5/5
f 1/1/1 4/5/5 5/6/6
f 1/1/1 5/6/6 6/4/4
f 2/2/2 6/4/4 11/7/7
f 3/3/3 2/2/2 7/8/8
f 4/5/5 3/3/3 8/9/9
f 5/6/6 4/5/5 9/10/10
f 6/4/4 5/6/6 10/11/11
f 2/2/2 11/7/7 7/8/8
f 3/3/3 7/8/8 8/9/9
f 4/5/5 8/9/9 9/10/10
f 5/6/6 9/10/10 10/11/11
f 6/4/4 10/11/11 11/7/7
f 7/12/8 11/13/7 12/14/12
f 8/15/9 7/12/8 12/14/12
f 9/16/10 8/15/9 12/14/12
f 10/17/11 9/16/10 12/14/12
f 11/13/7 10/17/11 12/14/12
f 13/1/13 14/2/14 15/3/15
f 14/2/14 13/1/13 18/4/16
f 13/1/13 15/3/15 16/5/17
f 13/1/13 16/5/17 17/6/18
f 13/1/13 17/6/18 18/4/16
f 14/2/14 18/4/16 23/7/19
f 15/3/15 14/2/14 19/8/20
f 16/5/17 15/3/15 20/9/21
f 17/6/18 16/5/17 21/10/22
f 18/4/16 17/6/18 22/11/23
f 14/2/14 23/7/19 19/8/20
f 15/3/15 19/8/20 20/9/21
f 16/5/17 20/9/21 21/10/22
f 17/6/18 21/10/22 22/11/23
f 18/4/16 22/11/23 23/7/19
f 19/12/20 23/13/19 24/14/24
f 20/15/21 19/12/20 24/14/24
f 21/16/22 20/15/21 24/14/24
f 22/17/23 21/16/22 24/14/24
f 23/13/19 22/17/23 24/14/24
f 25/1/25 26/2/26 27/3/27
f 26/2/26 25/1/25 30/4/28
f 25/1/25 27/3/27 28/5/29
f 25/1/25 28/5/29 29/6/30
f 25/1/25 29/6/30 30/4/28
f 26/2/26 30/4/28 35/7/31
f 27/3/27 26/2/26 31/8/32
f 28/5/29 27/3/27 32/9/33
f 29/6/30 28/5/29 33/10/34
f 30/4/28 29/6/30 34/11/35
f 26/2/26 35/7/31 31/8/32
f 27/3/27 31/8/32 32/9/33
f 28/5/29 32/9/33 33/10/34
f 29/6/30 33/10/34 34/11/35
f 30/4/28 34/11/35 35/7/31
f 31/12/32 35/13/31 36/14/36
f 32/15/33 31/12/32 36/14/36
f 33/16/34 32/15/33 36/14/36
f 34/17/35 33/16/34 36/14/36
f 35/13/31 34/17/35 36/14/36
f 37/1/37 38/2/38 39/3/39
f 38/2/38 37/1/37 42/4/40
f 37/1/37 39/3/39 40/5/41
f 37/1/37 40/5/41 41/6/42
f 37/1/37 41/6/42 42/4/40
f 38/2/38 42/4/40 47/7/43
f 39/3/39 38/2/38 43/8/44
f 40/5/41 39/3/39 44/9/45
f 41/6/42 40/5/41 45/10/46
f 42/4/40 41/6/42 46/11/47
f 38/2/38 47/7/43 43/8/44
f 39/3/39 43/8/44 44/9/45
f 40/5/41 44/9/45 45/10/46
f 41/6/42 45/10/46 46/11/47
f 42/4/40 46/11/47 47/7/43
f 43/12/44 47/13/43 48/14/48
f 44/15/45 43/12/44 48/14/48
f 45/16/46 44/15/45 48/14/48
f 46/17/47 45/16/46 48/14/48
f 47/13/43 46/17/47 48/14/48
f 49/1/49 50/2/50 51/3/51
f 50/2/50 49/1/49 54/4/52
f 49/1/49 51/3/51 52/5/53
f 49/1/49 52/5/53 53/6/54
f 49/1/49 53/6/54 54/4/52
f 50/2/50 54/4/52 59/7/55
f 51/3/51 50/2/50 55/8/56
f 52/5/53 51/3/51 56/9/57
f 53/6/54 52/5/53 57/10/58
f 54/4/52 53/6/54 58/11/59
f 50/2/50 59/7/55 55/8/56
f 51/3/51 55/8/56 56/9/57
f 52/5/53 56/9/57 57/10/58
f 53/6/54 57/10/58 58/11/59
f 54/4/52 58/11/59 59/7/55
f 55/12/56 59/13/55 60/14/60
f 56/15/57 55/12/56 60/14/60
f 57/16/58 56/15/57 60/14/60
f 58/17/59 57/16/58 60/14/60
f 59/13/55 58/17/59 60/14/60
f 61/1/61 62/2/62 63/3/63
f 62/2/62 61/1/61 66/4/64
f 61/1/61 63/3/63 64/5/65
f 61/1/61 64/5/65 65/6/66
f 61/1/61 65/6/66 66/4/64
f 62/2/62 66/4/64 71/7/67
f 63/3/63 62/2/62 67/8/68
f 64/5/65 63/3/63 68/9/69
f 65/6/66 64/5/65 69/10/70
f 66/4/64 65/6/66 70/11/71
f 62/2/62 71/7/67 67/8/68
f 63/3/63 67/8/68 68/9/69
f 64/5/65 68/9/69 69/10/70
f 65/6/66 69/10/70 70/11/71
f 66/4/64 70/11/71 71/7/67
f 67/12/68 71/13/67 72/14/72
f 68/15/69 67/12/68 72/14/72
f 69/16/70 68/15/69 72/14/72
f 70/17/71 69/16/70 72/14/72
f 71/13/67 70/17/71 72/14/72
o Cylinder.005_Cylinder.011
v -0.025746 1.411849 0.116601
v -0.112474 1.865938 0.578581
v -0.023586 1.455804 0.077828
v -0.111826 1.879131 0.566943
v 0.031910 1.474527 0.074729
v -0.095168 1.884751 0.566013
v 0.064048 1.442145 0.111587
v -0.085522 1.875031 0.577076
v 0.028415 1.403408 0.137465
v -0.096217 1.863404 0.584843
v 0.134054 1.846059 -0.027988
v 0.304943 2.182323 -0.461176
v 0.132160 1.891046 0.002834
v 0.304332 2.196837 -0.451232
v 0.082812 1.913538 -0.003177
v 0.288411 2.204093 -0.453171
v 0.054206 1.882453 -0.037714
v 0.279182 2.194065 -0.464314
v 0.085875 1.840749 -0.053048
v 0.289399 2.180609 -0.469261
v 0.127522 1.029682 0.087055
v 0.647894 1.418518 0.074026
v 0.096783 1.075907 0.097811
v 0.638324 1.432909 0.077375
v 0.082085 1.099018 0.048342
v 0.633748 1.440104 0.061973
v 0.103741 1.067077 0.007013
v 0.640490 1.430160 0.049106
v 0.131823 1.024225 0.030939
v 0.649233 1.416819 0.056555
v -0.022833 1.552238 -0.071366
v -0.308180 1.951932 -0.346191
v 0.009047 1.589157 -0.053992
v -0.297341 1.964484 -0.340285
v -0.011055 1.608410 -0.010329
v -0.304175 1.971030 -0.325440
v -0.055359 1.583390 -0.000717
v -0.319238 1.962523 -0.322172
v -0.062638 1.548673 -0.038440
v -0.321713 1.950720 -0.334997
v -0.035228 2.012807 0.063216
v -0.377366 2.243957 0.462515
v -0.029962 2.062946 0.042340
v -0.375667 2.260133 0.455779
v 0.011464 2.087592 0.067911
v -0.362302 2.268084 0.464029
v 0.031800 2.052686 0.104590
v -0.355741 2.256823 0.475863
v 0.002943 2.006467 0.101689
v -0.365051 2.241911 0.474927
v 0.035578 -0.019033 -0.290911
v 0.035578 2.707345 -0.153408
v 0.312250 -0.019033 -0.089896
v 0.181478 2.707345 -0.047406
v 0.206571 -0.019033 0.235352
v 0.125749 2.707345 0.124110
v -0.135415 -0.019033 0.235352
v -0.054593 2.707345 0.124110
v -0.241094 -0.019033 -0.089896
v -0.110322 2.707345 -0.047406
v 0.035578 0.381101 -0.140000
v 0.168726 0.381101 -0.043262
v 0.117868 0.381101 0.113262
v -0.046712 0.381101 0.113262
v -0.097570 0.381101 -0.043262
vt 0.524375 -0.022367
vt 0.492817 1.016454
vt 0.460305 1.016453
vt 0.428748 -0.022366
vt 0.427854 1.018427
vt 0.333298 -0.016562
vt 0.395582 1.022367
vt 0.238377 -0.004974
vt 0.619825 -0.016562
vt 0.525268 1.018427
vt 0.714747 -0.004974
vt 0.557539 1.022367
vt 0.575719 -0.326444
vt 0.576774 1.673727
vt 0.435046 1.674121
vt 0.426893 -0.326839
vt 0.293313 1.674637
vt 0.282334 -0.308536
vt 0.142480 1.674783
vt 0.147186 -0.270841
vt 0.722641 -0.306418
vt 0.718389 1.673502
vt 0.858973 -0.268034
vt 0.859786 1.673377
vt 1.068866 -0.544512
vt 0.817760 -0.662851
vt 0.578535 -0.692427
vt 0.150914 -0.612093
vt -0.040406 -0.501864
vt 0.357922 -0.672569
vn -0.824500 -0.473100 0.310200
vn -0.829500 -0.468200 0.304500
vn -0.777300 0.399500 -0.485900
vn -0.784400 0.391900 -0.480700
vn 0.331100 0.764600 -0.552800
vn 0.332800 0.764400 -0.552200
vn 0.972800 0.130000 0.191600
vn 0.972300 0.120600 0.200300
vn 0.252900 -0.638400 0.726900
vn 0.258600 -0.636600 0.726600
vn 0.797900 -0.586200 -0.140200
vn 0.802700 -0.581100 -0.134400
vn 0.752100 0.378100 0.539800
vn 0.756800 0.371900 0.537500
vn -0.307000 0.857300 0.413200
vn -0.310600 0.856900 0.411300
vn -0.919400 0.200000 -0.338700
vn -0.918900 0.191400 -0.344800
vn -0.232400 -0.694600 -0.680800
vn -0.234600 -0.693600 -0.681100
vn 0.451200 -0.581100 0.677300
vn 0.446200 -0.574200 0.686400
vn -0.212000 0.373300 0.903100
vn -0.206000 0.364400 0.908100
vn -0.520000 0.845800 -0.119400
vn -0.519500 0.845300 -0.124600
vn -0.057700 0.198700 -0.978300
vn -0.049300 0.186600 -0.981200
vn 0.545000 -0.686900 -0.480600
vn 0.543900 -0.685300 -0.484200
vn 0.104100 -0.511900 -0.852700
vn 0.826900 0.325100 -0.458800
vn 0.371200 0.761600 0.531200
vn -0.633300 0.194300 0.749100
vn -0.798300 -0.592700 -0.106100
vn -0.713600 -0.662300 -0.228100
vn -0.717000 -0.656500 -0.234300
vn -0.589800 0.416500 -0.691800
vn -0.594100 0.409700 -0.692200
vn 0.300600 0.942500 -0.145800
vn 0.303400 0.942000 -0.142900
vn 0.730800 0.200800 0.652400
vn 0.729700 0.191100 0.656500
vn 0.100500 -0.793800 0.599800
vn 0.102300 -0.792700 0.600900
vn 0.000000 0.189600 -0.981800
vn 0.000000 -0.005700 -1.000000
vn 0.951000 -0.005700 -0.309000
vn 0.933800 0.189600 -0.303400
vn 0.587800 -0.005700 0.809000
vn 0.577100 0.189600 0.794300
vn -0.587800 -0.005700 0.809000
vn -0.577100 0.189600 0.794300
vn -0.933800 0.189600 -0.303400
vn -0.951000 -0.005700 -0.309000
vn -0.549900 0.352900 0.757000
vn -0.889900 0.352900 -0.289100
vn 0.000000 0.352900 -0.935600
vn 0.549900 0.352900 0.757000
vn 0.889900 0.352900 -0.289100
usemtl wood
s 1
f 73/18/73 74/19/74 76/20/75 75/21/76
f 75/21/76 76/20/75 78/22/77 77/23/78
f 77/23/78 78/22/77 80/24/79 79/25/80
f 81/26/81 82/27/82 74/19/74 73/18/73
f 79/28/80 80/29/79 82/27/82 81/26/81
f 83/18/83 84/19/84 86/20/85 85/21/86
f 85/21/86 86/20/85 88/22/87 87/23/88
f 87/23/88 88/22/87 90/24/89 89/25/90
f 91/26/91 92/27/92 84/19/84 83/18/83
f 89/28/90 90/29/89 92/27/92 91/26/91
f 93/18/93 94/19/94 96/20/95 95/21/96
f 95/21/96 96/20/95 98/22/97 97/23/98
f 97/23/98 98/22/97 100/24/99 99/25/100
f 101/26/101 102/27/102 94/19/94 93/18/93
f 99/28/100 100/29/99 102/27/102 101/26/101
f 103/18/103 104/19/103 106/20/104 105/21/104
f 105/21/104 106/20/104 108/22/105 107/23/105
f 107/23/105 108/22/105 110/24/106 109/25/106
f 111/26/107 112/27/107 104/19/103 103/18/103
f 109/28/106 110/29/106 112/27/107 111/26/107
f 113/18/108 114/19/109 116/20/110 115/21/111
f 115/21/111 116/20/110 118/22/112 117/23/113
f 117/23/113 118/22/112 120/24/114 119/25/115
f 121/26/116 122/27/117 114/19/109 113/18/108
f 119/28/115 120/29/114 122/27/117 121/26/116
f 133/30/118 124/31/119 126/32/120 134/33/121
f 134/33/121 126/32/120 128/34/122 135/35/123
f 135/35/123 128/34/122 130/36/124 136/37/125
f 137/38/126 132/39/127 124/31/119 133/30/118
f 136/40/125 130/41/124 132/39/127 137/38/126
f 129/42/128 136/40/125 137/38/126 131/43/129
f 131/43/129 137/38/126 133/30/118 123/44/130
f 127/45/131 135/35/123 136/37/125 129/46/128
f 125/47/132 134/33/121 135/35/123 127/45/131
f 123/44/130 133/30/118 134/33/121 125/47/132
