# Blender v2.79 (sub 0) OBJ File: 'tree2_2LP.obj'
# www.blender.org
mtllib tree2_2LP.mtl
o tree2_2mesh_tree1mesh_tree1poly
v 0.578689 3.246402 -0.839882
v 1.080929 3.246402 -0.112263
v 0.225654 2.755301 -0.008416
v 0.178305 2.755301 -0.077014
v 0.136628 3.601589 -0.633023
v 0.136627 3.246402 -0.948840
v -0.646222 3.246402 -0.537969
v -0.386311 3.601589 -0.358565
v 0.431921 3.601589 -0.560240
v 0.136627 3.714613 0.002396
v 1.026048 3.246402 0.339708
v 0.220479 2.755301 0.034192
v 0.767414 3.601589 -0.074196
v 0.730755 3.601589 0.227717
v -0.091016 3.246399 0.925989
v 0.115167 2.755301 0.089466
v -0.015436 3.601589 0.619349
v -0.494157 3.246402 0.714405
v 0.077161 2.755301 0.069519
v -0.494157 3.601589 -0.074196
v -0.284732 3.601589 0.478013
v -0.807672 3.246402 -0.112263
v 0.047603 2.755301 -0.008416
v 0.062824 2.755301 -0.048551
v 0.136628 2.755301 -0.087286
v -0.162666 -0.027527 -0.154953
v -0.191980 0.870815 -0.224692
v 0.121681 0.896209 -0.224692
v 0.152208 -0.025436 -0.154953
v 0.121681 0.896209 0.090294
v 0.152208 -0.025436 0.160033
v -0.191980 0.870815 0.090294
v -0.162666 -0.027527 0.160033
v 0.077745 2.823311 0.088011
v 0.077745 2.823311 -0.082924
v 0.248343 2.832771 -0.082924
v 0.248343 2.832771 0.088011
v -0.157510 -0.108143 -0.154954
v -0.157510 -0.108143 0.160033
v 0.157476 -0.108143 0.160033
v 0.157476 -0.108143 -0.154954
v 0.395749 1.849792 -0.880409
v 0.650021 1.630754 -0.902940
v 0.383386 1.549731 -1.031905
v 0.344530 1.301042 -0.977028
v -0.054630 1.519134 -0.910538
v 0.116749 1.695415 -0.987491
v 0.598229 1.982543 -0.646916
v 0.666156 1.948970 -0.400691
v 0.743691 1.422334 -0.783966
v 0.305850 2.076367 -0.648630
v 0.228459 2.089427 -0.403258
v 0.290807 1.530398 -0.462779
v 0.080451 1.941953 -0.808066
v -0.108968 1.888206 -0.641936
v -0.932420 1.999807 -0.055911
v -1.003116 1.701720 -0.334144
v -1.080646 1.622422 0.027014
v -0.979815 1.327002 0.082010
v -0.818887 1.643615 0.522166
v -0.973147 1.833918 0.321036
v -0.372570 1.653786 -0.011703
v -0.863752 1.445713 -0.458652
v -0.570959 1.897198 -0.632759
v -0.807533 2.003309 -0.450446
v -0.341326 2.348978 -0.004694
v -0.654140 2.305096 -0.030902
v -0.773483 2.153502 0.293923
v -0.519986 2.122040 0.481578
v 0.504213 2.163116 0.611611
v 0.618662 1.927073 0.818248
v 0.777038 1.976905 0.562573
v 0.231981 2.125618 0.801342
v 0.198170 2.274129 0.537264
v 0.042772 2.258798 0.476391
v 0.090448 2.049395 0.848747
v 0.635674 1.769444 0.872586
v 0.289921 1.727230 0.393917
v 0.406928 2.282377 0.315256
v 0.337127 2.270426 0.163355
v 0.677918 2.143234 0.327103
v 0.719227 2.074234 0.180062
v 0.858988 1.839705 0.512077
v 0.129676 1.564452 -0.052553
v -0.013694 1.567255 0.043514
v 0.386540 2.055123 0.588920
v 0.449679 2.053889 0.546612
v 0.111081 1.453092 0.078003
v 0.441490 2.004846 0.604107
v -0.008690 1.146628 -0.142290
v 0.015558 1.260792 -0.015127
v 0.379000 1.728410 -0.606897
v 0.368321 1.678133 -0.662898
v 0.107187 1.224606 -0.000112
v 0.419352 1.712474 -0.600285
v -0.026657 1.594567 0.061375
v -0.038118 1.576396 -0.152765
v -0.500193 1.681102 -0.135077
v -0.491941 1.694188 0.019145
v -0.131322 1.428626 -0.027090
v -0.567319 1.574678 -0.044567
vt 0.509621 0.955037
vt 0.266924 0.995017
vt 0.295878 0.891502
vt 0.314252 0.888440
vt 0.274173 0.329443
vt 0.255078 0.203526
vt 0.503734 0.283132
vt 0.405910 0.373883
vt 0.208268 0.355491
vt 0.133429 0.251155
vt 0.296135 0.476795
vt 0.110146 0.971326
vt 0.286291 0.890109
vt 0.146850 0.481104
vt 0.166788 0.549560
vt 0.014803 0.484510
vt 0.045022 0.642828
vt 0.040916 0.858953
vt 0.278888 0.878948
vt 0.351696 0.615163
vt 0.137582 0.791656
vt 0.285372 0.875749
vt 0.282985 0.760644
vt 0.442242 0.437184
vt 0.410004 0.574157
vt 0.392746 0.774945
vt 0.304998 0.874516
vt 0.534368 0.646289
vt 0.572039 0.445066
vt 0.504540 0.807235
vt 0.313545 0.876794
vt 0.564035 0.907553
vt 0.318786 0.884648
vt 0.693371 0.049453
vt 0.689074 0.343416
vt 0.594765 0.353265
vt 0.595198 0.047060
vt 0.984274 0.050648
vt 0.984935 0.357323
vt 0.884865 0.354984
vt 0.886889 0.044898
vt 0.786264 0.343639
vt 0.791607 0.046347
vt 0.783251 0.962032
vt 0.683140 0.964487
vt 0.589603 0.981106
vt 0.978893 0.982173
vt 0.879829 0.973859
vt 0.692477 0.022464
vt 0.791611 0.019743
vt 0.888355 0.017827
vt 0.985767 0.023485
vt 0.594765 0.019484
vt 0.295635 0.476784
vt 0.342345 0.340446
vt 0.433289 0.438166
vt 0.557884 0.402997
vt 0.509914 0.656307
vt 0.406682 0.569103
vt 0.167009 0.414356
vt 0.053630 0.359885
vt 0.384980 0.213717
vt 0.170897 0.545888
vt 0.017985 0.886209
vt 0.122089 0.792378
vt 0.290272 0.882103
vt 0.057896 0.607371
vt 0.281374 0.620176
vt 0.267084 0.751043
vt 0.376316 0.774455
vt 0.562006 0.852830
vt 0.500805 0.954646
vt 0.265050 0.993989
vt 0.293929 0.476932
vt 0.160204 0.411951
vt 0.271791 0.330870
vt 0.250866 0.198965
vt 0.503478 0.280002
vt 0.402109 0.375821
vt 0.297898 0.880619
vt 0.398733 0.979196
vt 0.149134 0.966788
vt 0.166766 0.549234
vt 0.052677 0.616717
vt 0.035804 0.352489
vt 0.057287 0.834229
vt 0.348965 0.613264
vt 0.438780 0.509548
vt 0.570946 0.540338
vt 0.397760 0.736646
vt 0.256215 0.776132
vt 0.497953 0.809953
vt 0.555901 0.903410
vt 0.297083 0.475935
vt 0.402120 0.377630
vt 0.437706 0.505793
vt 0.212302 0.362153
vt 0.155662 0.480153
vt 0.080331 0.482823
vt 0.166522 0.301409
vt 0.457413 0.324280
vt 0.295879 0.886505
vt 0.218290 0.595197
vt 0.177591 0.658947
vt 0.351782 0.610105
vt 0.380543 0.682014
vt 0.512695 0.523045
vt 0.584748 0.075387
vt 0.580985 0.131875
vt 0.020206 0.130593
vt 0.021863 0.077114
vt 0.559356 0.019823
vt 0.010680 0.024509
vt 0.574423 0.047425
vt 0.587164 0.103680
vt 0.023020 0.103901
vt 0.017408 0.050643
vt 0.581149 0.131875
vt 0.020370 0.130594
vt 0.583285 0.074994
vt 0.579530 0.131374
vt 0.299676 0.130479
vt 0.302380 0.075600
vt 0.557942 0.187146
vt 0.284127 0.184764
vt 0.559355 0.187752
vt 0.010680 0.183495
vt 0.557942 0.019536
vt 0.284127 0.021619
vn 0.5491 -0.1400 -0.8239
vn 0.9651 -0.1400 -0.2213
vn 0.4809 -0.8662 -0.1357
vn 0.2974 -0.8662 -0.4015
vn -0.0748 0.8390 -0.5389
vn -0.1034 -0.1400 -0.9847
vn -0.7517 -0.1400 -0.6445
vn -0.4010 0.8390 -0.3677
vn 0.3167 0.8390 -0.4424
vn 0.0050 0.9999 0.0096
vn 0.8373 -0.1355 0.5297
vn 0.3947 -0.8557 0.3348
vn 0.5260 0.8390 -0.1392
vn 0.4512 0.8222 0.3469
vn -0.0398 -0.1355 0.9900
vn 0.0513 -0.8557 0.5150
vn 0.0292 0.8222 0.5684
vn -0.7304 -0.1400 0.6686
vn -0.3849 -0.8662 0.3187
vn -0.5440 0.8390 0.0093
vn -0.4134 0.8390 0.3538
vn -0.9900 -0.1400 -0.0161
vn -0.4994 -0.8662 0.0167
vn -0.3628 -0.8662 -0.3436
vn -0.0767 -0.8662 -0.4938
vn -0.7173 -0.0616 -0.6940
vn -0.7086 0.0314 -0.7049
vn 0.6786 -0.0088 -0.7344
vn 0.7127 0.0081 -0.7015
vn 0.7038 0.0154 0.7102
vn 0.6931 0.0606 0.7182
vn -0.7326 0.0654 0.6775
vn -0.7025 -0.0062 0.7117
vn -0.6591 0.0919 0.7464
vn -0.6740 0.1458 -0.7242
vn 0.7485 -0.0005 -0.6632
vn 0.7335 -0.0472 0.6781
vn -0.6915 -0.0442 -0.7211
vn -0.6915 -0.0442 0.7211
vn 0.7201 0.0459 0.6923
vn 0.7201 0.0459 -0.6923
vn 0.2064 0.5955 -0.7764
vn 0.6830 0.2094 -0.6998
vn 0.1598 0.0273 -0.9868
vn -0.0302 -0.8766 -0.4802
vn -0.8276 -0.4409 -0.3474
vn -0.3066 0.2820 -0.9091
vn 0.6070 0.7256 -0.3240
vn 0.6817 0.3590 0.6375
vn 0.8189 -0.5726 -0.0405
vn 0.0242 0.9483 -0.3165
vn -0.2620 0.6984 0.6660
vn -0.1737 -0.5961 0.7839
vn -0.3700 0.7132 -0.5953
vn -0.9361 0.2964 0.1892
vn -0.8438 0.5315 -0.0738
vn -0.8870 0.0624 -0.4576
vn -0.9972 -0.0504 0.0558
vn -0.3899 -0.8991 0.1992
vn -0.1286 -0.3850 0.9139
vn -0.8444 0.2503 0.4737
vn 0.8586 -0.5099 0.0529
vn -0.2014 -0.7063 -0.6787
vn 0.3185 0.1105 -0.9414
vn -0.5501 0.5629 -0.6169
vn 0.6487 0.7601 -0.0384
vn -0.3672 0.9228 -0.1165
vn -0.5605 0.7046 0.4352
vn 0.3568 0.3919 0.8480
vn 0.4002 0.8151 0.4189
vn 0.4884 0.4678 0.7366
vn 0.7730 0.5410 0.3314
vn 0.0452 0.6954 0.7172
vn -0.0325 0.9546 0.2961
vn -0.8502 0.5067 -0.1426
vn -0.6938 -0.0017 0.7202
vn 0.3515 -0.5384 0.7659
vn -0.4078 -0.8271 -0.3869
vn 0.2580 0.9661 -0.0128
vn -0.2138 0.5318 -0.8194
vn 0.6351 0.7724 0.0037
vn 0.6123 0.1077 -0.7833
vn 0.9144 -0.3994 -0.0654
vn 0.5788 0.4522 -0.6786
vn -0.8609 0.4576 0.2225
vn -0.8709 0.4079 0.2742
vn 0.6045 0.4276 -0.6721
vn 0.3746 -0.7474 0.5486
vn 0.3440 -0.7476 0.5681
vn -0.3942 -0.4850 -0.7806
vn -0.4995 0.8022 0.3271
vn -0.4997 0.8021 0.3270
vn -0.3128 -0.5421 -0.7799
vn 0.8596 0.0724 0.5059
vn 0.8899 -0.0085 0.4560
vn 0.0842 0.6957 0.7134
vn 0.0944 0.5563 -0.8256
vn 0.0230 0.2646 -0.9641
vn 0.0273 0.4957 0.8681
vn -0.3196 -0.9375 0.1375
vn -0.3194 -0.9451 0.0694
usemtl tree2_2
s 1
f 1/1/1 2/2/2 3/3/3 4/4/4
f 5/5/5 6/6/6 7/7/7 8/8/8
f 6/6/6 5/5/5 9/9/9 1/10/1
f 10/11/10 9/9/9 5/5/5
f 3/3/3 2/2/2 11/12/11 12/13/12
f 13/14/13 10/11/10 14/15/14
f 2/16/2 13/14/13 14/15/14 11/17/11
f 11/12/11 15/18/15 16/19/16 12/13/12
f 14/15/14 10/11/10 17/20/17
f 16/19/16 15/18/15 18/21/18 19/22/19
f 14/15/14 17/20/17 15/23/15 11/17/11
f 10/11/10 20/24/20 21/25/21
f 18/21/18 22/26/22 23/27/23 19/22/19
f 15/23/15 17/20/17 21/25/21 18/28/18
f 17/20/17 10/11/10 21/25/21
f 21/25/21 20/24/20 22/29/22 18/28/18
f 23/27/23 22/26/22 7/30/7 24/31/24
f 7/30/7 6/32/6 25/33/25 24/31/24
f 8/8/8 10/11/10 5/5/5
f 20/24/20 10/11/10 8/8/8
f 20/24/20 8/8/8 7/7/7 22/29/22
f 25/33/25 6/32/6 1/1/1 4/4/4
f 10/11/10 13/14/13 9/9/9
f 26/34/26 27/35/27 28/36/28 29/37/29
f 29/38/29 28/39/28 30/40/30 31/41/31
f 31/41/31 30/40/30 32/42/32 33/43/33
f 32/42/32 34/44/34 35/45/35 27/35/27
f 27/35/27 35/45/35 36/46/36 28/36/28
f 30/40/30 28/39/28 36/47/36 37/48/37
f 26/34/26 38/49/38 39/50/39 33/43/33
f 31/41/31 40/51/40 41/52/41 29/38/29
f 29/37/29 41/53/41 38/49/38 26/34/26
f 33/43/33 39/50/39 40/51/40 31/41/31
f 42/54/42 43/55/43 44/56/44
f 44/56/44 45/57/45 46/58/46 47/59/47
f 43/55/43 48/60/48 49/61/49 50/62/50
f 42/54/42 51/63/51 48/60/48
f 43/55/43 42/54/42 48/60/48
f 49/64/49 52/65/52 53/66/53
f 48/60/48 51/63/51 52/67/52 49/61/49
f 51/63/51 54/68/54 55/69/55 52/67/52
f 52/65/52 55/70/55 53/66/53
f 42/54/42 54/68/54 51/63/51
f 55/70/55 46/71/46 53/66/53
f 54/68/54 47/59/47 46/58/46 55/69/55
f 46/71/46 45/72/45 53/66/53
f 47/59/47 42/54/42 44/56/44
f 42/54/42 47/59/47 54/68/54
f 45/72/45 50/73/50 53/66/53
f 45/57/45 44/56/44 43/55/43 50/62/50
f 56/74/56 57/75/57 58/76/58
f 58/76/58 59/77/59 60/78/60 61/79/61
f 62/80/62 63/81/63 64/82/64
f 56/74/56 65/83/65 57/75/57
f 57/75/57 65/83/65 64/84/64 63/85/63
f 64/82/64 66/86/66 62/80/62
f 65/83/65 56/74/56 67/87/67
f 67/87/67 68/88/68 69/89/69 66/90/66
f 65/83/65 67/87/67 66/90/66 64/84/64
f 66/86/66 69/91/69 62/80/62
f 56/74/56 68/88/68 67/87/67
f 69/91/69 60/92/60 62/80/62
f 68/88/68 61/79/61 60/78/60 69/89/69
f 60/92/60 59/93/59 62/80/62
f 61/79/61 56/74/56 58/76/58
f 56/74/56 61/79/61 68/88/68
f 59/93/59 63/81/63 62/80/62
f 50/73/50 49/64/49 53/66/53
f 70/94/70 71/95/71 72/96/72
f 71/95/71 70/94/70 73/97/73
f 73/97/73 74/98/74 75/99/75 76/100/76
f 71/95/71 73/97/73 76/100/76 77/101/77
f 78/102/78 77/101/77 76/100/76
f 70/94/70 74/98/74 73/97/73
f 76/100/76 75/99/75 78/102/78
f 74/98/74 79/103/79 80/104/80 75/99/75
f 70/94/70 79/103/79 74/98/74
f 70/94/70 81/105/81 79/103/79
f 75/99/75 80/104/80 78/102/78
f 82/106/82 83/107/83 78/102/78
f 79/103/79 81/105/81 82/106/82 80/104/80
f 80/104/80 82/106/82 78/102/78
f 81/105/81 72/96/72 83/107/83 82/106/82
f 70/94/70 72/96/72 81/105/81
f 77/101/77 78/102/78 83/107/83
f 72/96/72 71/95/71 77/101/77 83/107/83
f 9/9/9 13/14/13 2/16/2 1/10/1
f 84/108/84 85/109/85 86/110/86 87/111/87
f 88/112/88 84/108/84 87/111/87 89/113/89
f 90/114/90 91/115/91 92/116/92 93/117/93
f 91/115/91 94/118/94 95/119/95 92/116/92
f 94/118/94 90/114/90 93/117/93 95/119/95
f 96/120/96 97/121/97 98/122/98 99/123/99
f 97/121/97 100/124/100 101/125/101 98/122/98
f 85/109/85 88/126/88 89/127/89 86/110/86
f 59/77/59 58/76/58 57/75/57 63/85/63
f 33/43/33 32/42/32 27/35/27 26/34/26
f 100/128/100 96/120/96 99/123/99 101/129/101
f 30/40/30 37/48/37 34/44/34 32/42/32
