# Blender v2.76 (sub 0) OBJ File: 'tree3_2LP.blend'
# www.blender.org
mtllib tree3_2LP.mtl
o Icosphere.006_Icosphere.021
v -0.225919 0.818265 0.194575
v -0.240430 0.803536 0.154099
v -0.234525 0.837081 0.124002
v -0.216364 0.872542 0.145880
v -0.211045 0.860913 0.189496
v -0.331339 0.838913 0.198557
v -0.336658 0.850542 0.154941
v -0.321784 0.893190 0.149861
v -0.307272 0.907919 0.190338
v -0.313177 0.874373 0.220434
v -0.359764 0.889916 0.190402
v 0.013013 0.982264 0.208803
v -0.039635 0.966675 0.200512
v -0.064072 1.005030 0.168646
v -0.026526 1.044323 0.157245
v 0.021115 1.030252 0.182063
v -0.047947 1.029725 0.315008
v -0.095589 1.043795 0.290189
v -0.087487 1.091783 0.263449
v -0.034838 1.107372 0.271741
v -0.010401 1.069017 0.303606
v -0.069792 1.096943 0.328890
v 0.168994 0.868866 0.122109
v 0.141774 0.853759 0.175238
v 0.109174 0.902356 0.194410
v 0.116248 0.947497 0.153128
v 0.153218 0.926798 0.108444
v 0.272651 0.897815 0.220226
v 0.235681 0.918513 0.264910
v 0.219905 0.976446 0.251245
v 0.247126 0.991553 0.198116
v 0.279725 0.942956 0.178944
v 0.294823 0.968001 0.251244
v 0.322136 0.559418 0.031144
v 0.299143 0.544485 0.090257
v 0.259874 0.592836 0.109395
v 0.258599 0.637652 0.062108
v 0.297078 0.616998 0.013747
v 0.433498 0.610813 0.124457
v 0.395018 0.631467 0.172818
v 0.369961 0.689047 0.155421
v 0.392954 0.703980 0.096308
v 0.432222 0.655629 0.077170
v 0.449575 0.689656 0.150328
v 0.157913 0.715055 -0.140646
v 0.212230 0.697093 -0.080778
v 0.203141 0.752995 -0.020366
v 0.143206 0.805504 -0.042899
v 0.115254 0.782056 -0.117235
v 0.320583 0.805076 -0.202204
v 0.348534 0.828525 -0.127868
v 0.305876 0.895526 -0.104457
v 0.251559 0.913487 -0.164325
v 0.260648 0.857586 -0.224737
v 0.347478 0.908876 -0.195943
v 0.132570 0.377282 -0.227488
v 0.175924 0.365033 -0.211636
v 0.194242 0.402481 -0.188331
v 0.162208 0.437874 -0.189782
v 0.124093 0.422300 -0.213982
v 0.198432 0.399073 -0.316627
v 0.236547 0.414647 -0.292427
v 0.228070 0.459665 -0.278920
v 0.184715 0.471914 -0.294773
v 0.166398 0.434466 -0.318078
v 0.220826 0.453273 -0.336590
v -0.109220 0.921751 -0.149746
v -0.047110 0.904075 -0.214571
v 0.028427 0.951927 -0.195158
v 0.013000 0.999176 -0.118334
v -0.072070 0.980526 -0.090268
v -0.161555 1.063138 -0.304993
v -0.076485 1.081788 -0.333058
v -0.039335 1.140563 -0.273581
v -0.101444 1.158239 -0.208755
v -0.176981 1.110387 -0.228168
v -0.137059 1.179020 -0.312582
v -0.226002 0.624532 -0.224306
v -0.186147 0.614247 -0.248529
v -0.154121 0.648501 -0.239479
v -0.174183 0.679958 -0.209663
v -0.218608 0.665144 -0.200286
v -0.246763 0.669195 -0.325956
v -0.202338 0.684009 -0.335333
v -0.194944 0.724620 -0.311313
v -0.234799 0.734906 -0.287091
v -0.266826 0.700651 -0.296140
v -0.243001 0.728205 -0.344431
v -0.280253 0.648718 0.054765
v -0.257784 0.629237 -0.031768
v -0.199491 0.693431 -0.060983
v -0.185933 0.752586 0.007496
v -0.235847 0.724951 0.079032
v -0.440951 0.740431 -0.057465
v -0.391037 0.768065 -0.129001
v -0.346631 0.844298 -0.104734
v -0.369099 0.863779 -0.018201
v -0.427393 0.799585 0.011014
v -0.456758 0.854341 -0.086810
v 0.067064 0.508053 0.265250
v -0.019314 0.487850 0.278408
v -0.068139 0.560225 0.257901
v -0.011935 0.625159 0.232068
v 0.071625 0.592915 0.236610
v 0.041548 0.546807 0.472211
v -0.042012 0.579051 0.467669
v -0.037451 0.663913 0.439030
v 0.048927 0.684116 0.425871
v 0.097752 0.611741 0.446378
v 0.026514 0.648365 0.526907
v -0.103541 0.286571 0.199735
v -0.161391 0.270285 0.160865
v -0.179120 0.327956 0.122362
v -0.132227 0.379884 0.137437
v -0.085517 0.354307 0.185256
v -0.230319 0.317449 0.307567
v -0.277029 0.343027 0.259748
v -0.259006 0.410763 0.245269
v -0.201156 0.427049 0.284139
v -0.183426 0.369377 0.322642
v -0.268824 0.398472 0.331474
vt 0.411537 0.375553
vt 0.377310 0.286854
vt 0.677014 0.238409
vt 0.329223 0.423514
vt 0.545932 0.636548
vt 0.252970 0.373760
vt 0.135210 0.636548
vt 0.282784 0.292912
vt 0.000103 0.242490
vt 0.335588 0.000103
vt 0.000103 0.774315
vt 0.190851 0.636753
vt 0.190197 0.827370
vt 0.071945 0.999897
vt 0.310123 0.999897
vt 0.381955 0.774029
vn 0.057600 -0.541000 0.839000
vn 0.424700 0.565000 0.707400
vn -0.114600 0.148900 0.982100
vn -0.311400 -0.926800 -0.210000
vn -0.553500 -0.700000 0.451200
vn -0.168800 -0.052600 -0.984200
vn -0.677200 -0.427000 -0.599200
vn 0.285100 0.864400 -0.414000
vn -0.311800 0.604400 -0.733100
vn 0.040500 0.965900 0.255800
vn -0.905400 0.380000 0.189400
vn 0.703000 -0.526000 0.478600
vn 0.865300 0.495800 -0.073400
vn 0.787100 0.186100 0.588000
vn -0.410500 -0.861900 0.297500
vn 0.043100 -0.583400 0.811000
vn -0.929100 -0.041700 -0.367500
vn -0.894200 -0.313700 0.319300
vn -0.138700 0.792900 -0.593300
vn -0.740300 0.635000 -0.220600
vn 0.311500 0.948800 -0.053200
vn -0.281200 0.536100 0.795900
vn 0.538800 -0.609500 -0.581400
vn 0.249700 0.499600 -0.829500
vn 0.797600 0.067800 -0.599300
vn 0.013000 -0.902700 0.430100
vn 0.670200 -0.729200 0.138000
vn -0.599000 0.031300 0.800100
vn 0.009600 -0.368400 0.929600
vn -0.449900 0.892800 0.020500
vn -0.283900 0.666600 0.689200
vn 0.208500 0.940700 -0.267400
vn 0.780200 0.372500 0.502500
vn 0.572600 -0.583800 -0.575500
vn 0.132900 0.460500 -0.877700
vn 0.743600 0.116200 -0.658400
vn 0.152200 -0.858900 0.489000
vn 0.762900 -0.631300 0.139200
vn -0.546600 0.021100 0.837100
vn 0.113800 -0.292000 0.949600
vn -0.555100 0.831700 -0.008500
vn -0.320500 0.679100 0.660400
vn 0.072800 0.935500 -0.345700
vn 0.758000 0.500400 0.418200
vn -0.169300 -0.539500 -0.824800
vn -0.759500 0.419400 -0.497200
vn -0.242100 0.170300 -0.955200
vn 0.598100 -0.800900 0.028700
vn 0.551400 -0.518600 -0.653400
vn 0.475200 0.001700 0.879800
vn 0.918800 -0.216600 0.329900
vn -0.362600 0.751500 0.551000
vn 0.350800 0.671300 0.652900
vn -0.376000 0.914300 -0.150400
vn 0.664000 0.618100 -0.420800
vn -0.650600 -0.601300 -0.463800
vn -0.848000 0.509800 -0.144900
vn -0.692300 0.076900 -0.717500
vn 0.414500 -0.907500 -0.067100
vn 0.045700 -0.729000 -0.683000
vn 0.868200 0.020400 0.495700
vn 0.916900 -0.379100 -0.124600
vn 0.086400 0.891300 0.445100
vn 0.726700 0.657900 0.197600
vn -0.280000 0.944300 -0.172800
vn 0.406800 0.368800 -0.835700
vn -0.897800 -0.430900 0.090500
vn -0.424100 0.335400 0.841200
vn -0.916600 0.262900 0.301100
vn -0.097300 -0.665500 -0.740000
vn -0.727400 -0.297600 -0.618300
vn 0.868100 -0.039800 -0.494700
vn 0.289700 -0.082800 -0.953500
vn 0.661800 0.575400 0.480600
vn 0.747900 0.619700 -0.238000
vn -0.006000 0.836700 0.547600
vn -0.322000 0.790900 -0.520300
vn -0.818500 -0.571400 0.059800
vn -0.638800 0.434900 0.634700
vn -0.989000 0.133600 0.063500
vn 0.165600 -0.830600 -0.531700
vn -0.525300 -0.582000 -0.620700
vn 0.948300 0.020900 -0.316700
vn 0.493500 -0.250300 -0.832900
vn 0.447800 0.798400 0.402500
vn 0.675500 0.683600 -0.276200
vn -0.251500 0.924900 0.285200
vn -0.324100 0.557100 -0.764500
vn -0.567100 -0.560800 0.603200
vn -0.009400 0.425800 0.904800
vn -0.666200 0.146200 0.731300
vn -0.273100 -0.817300 -0.507400
vn -0.826100 -0.556100 -0.091100
vn 0.466600 0.016100 -0.884300
vn -0.226800 -0.233400 -0.945500
vn 0.625900 0.779800 -0.010400
vn 0.317800 0.681300 -0.659400
vn 0.043700 0.919900 0.389800
vn -0.745400 0.583600 -0.322000
vn 0.772500 -0.629900 0.080600
vn 0.829100 0.485400 -0.277400
vn 0.955500 0.039300 0.292200
vn -0.361300 -0.899300 0.246400
vn 0.265800 -0.747800 0.608400
vn -0.998400 0.055400 -0.011500
vn -0.754100 -0.361200 0.548400
vn -0.260200 0.906000 -0.333800
vn -0.708000 0.680200 0.189900
vn 0.361300 0.932000 0.029100
vn 0.062500 0.352900 0.933500
vn 0.515500 -0.628100 0.582900
vn 0.797400 0.487400 0.355700
vn 0.506000 0.041600 0.861500
vn -0.431300 -0.900100 -0.061500
vn -0.214500 -0.747200 0.629000
vn -0.727600 0.053000 -0.683900
vn -0.925700 -0.363000 -0.105600
vn 0.032500 0.905400 -0.423300
vn -0.651100 0.678500 -0.340100
vn 0.244800 0.932800 0.264400
vn -0.586000 0.353100 0.729300
usemtl None
s 1
f 1/1/1 5/2/2 10/3/3
f 2/4/4 1/1/1 6/5/5
f 3/6/6 2/4/4 7/7/7
f 4/8/8 3/6/6 8/9/9
f 5/2/2 4/8/8 9/10/10
f 1/1/1 10/3/3 6/5/5
f 2/4/4 6/5/5 7/7/7
f 3/6/6 7/7/7 8/9/9
f 4/8/8 8/9/9 9/10/10
f 5/2/2 9/10/10 10/3/3
f 6/11/5 10/12/3 11/13/11
f 7/14/7 6/11/5 11/13/11
f 8/15/9 7/14/7 11/13/11
f 9/16/10 8/15/9 11/13/11
f 10/12/3 9/16/10 11/13/11
f 12/1/12 16/2/13 21/3/14
f 13/4/15 12/1/12 17/5/16
f 14/6/17 13/4/15 18/7/18
f 15/8/19 14/6/17 19/9/20
f 16/2/13 15/8/19 20/10/21
f 12/1/12 21/3/14 17/5/16
f 13/4/15 17/5/16 18/7/18
f 14/6/17 18/7/18 19/9/20
f 15/8/19 19/9/20 20/10/21
f 16/2/13 20/10/21 21/3/14
f 17/11/16 21/12/14 22/13/22
f 18/14/18 17/11/16 22/13/22
f 19/15/20 18/14/18 22/13/22
f 20/16/21 19/15/20 22/13/22
f 21/12/14 20/16/21 22/13/22
f 23/1/23 27/2/24 32/3/25
f 24/4/26 23/1/23 28/5/27
f 25/6/28 24/4/26 29/7/29
f 26/8/30 25/6/28 30/9/31
f 27/2/24 26/8/30 31/10/32
f 23/1/23 32/3/25 28/5/27
f 24/4/26 28/5/27 29/7/29
f 25/6/28 29/7/29 30/9/31
f 26/8/30 30/9/31 31/10/32
f 27/2/24 31/10/32 32/3/25
f 28/11/27 32/12/25 33/13/33
f 29/14/29 28/11/27 33/13/33
f 30/15/31 29/14/29 33/13/33
f 31/16/32 30/15/31 33/13/33
f 32/12/25 31/16/32 33/13/33
f 34/1/34 38/2/35 43/3/36
f 35/4/37 34/1/34 39/5/38
f 36/6/39 35/4/37 40/7/40
f 37/8/41 36/6/39 41/9/42
f 38/2/35 37/8/41 42/10/43
f 34/1/34 43/3/36 39/5/38
f 35/4/37 39/5/38 40/7/40
f 36/6/39 40/7/40 41/9/42
f 37/8/41 41/9/42 42/10/43
f 38/2/35 42/10/43 43/3/36
f 39/11/38 43/12/36 44/13/44
f 40/14/40 39/11/38 44/13/44
f 41/15/42 40/14/40 44/13/44
f 42/16/43 41/15/42 44/13/44
f 43/12/36 42/16/43 44/13/44
f 45/1/45 49/2/46 54/3/47
f 46/4/48 45/1/45 50/5/49
f 47/6/50 46/4/48 51/7/51
f 48/8/52 47/6/50 52/9/53
f 49/2/46 48/8/52 53/10/54
f 45/1/45 54/3/47 50/5/49
f 46/4/48 50/5/49 51/7/51
f 47/6/50 51/7/51 52/9/53
f 48/8/52 52/9/53 53/10/54
f 49/2/46 53/10/54 54/3/47
f 50/11/49 54/12/47 55/13/55
f 51/14/51 50/11/49 55/13/55
f 52/15/53 51/14/51 55/13/55
f 53/16/54 52/15/53 55/13/55
f 54/12/47 53/16/54 55/13/55
f 56/1/56 60/2/57 65/3/58
f 57/4/59 56/1/56 61/5/60
f 58/6/61 57/4/59 62/7/62
f 59/8/63 58/6/61 63/9/64
f 60/2/57 59/8/63 64/10/65
f 56/1/56 65/3/58 61/5/60
f 57/4/59 61/5/60 62/7/62
f 58/6/61 62/7/62 63/9/64
f 59/8/63 63/9/64 64/10/65
f 60/2/57 64/10/65 65/3/58
f 61/11/60 65/12/58 66/13/66
f 62/14/62 61/11/60 66/13/66
f 63/15/64 62/14/62 66/13/66
f 64/16/65 63/15/64 66/13/66
f 65/12/58 64/16/65 66/13/66
f 67/1/67 71/2/68 76/3/69
f 68/4/70 67/1/67 72/5/71
f 69/6/72 68/4/70 73/7/73
f 70/8/74 69/6/72 74/9/75
f 71/2/68 70/8/74 75/10/76
f 67/1/67 76/3/69 72/5/71
f 68/4/70 72/5/71 73/7/73
f 69/6/72 73/7/73 74/9/75
f 70/8/74 74/9/75 75/10/76
f 71/2/68 75/10/76 76/3/69
f 72/11/71 76/12/69 77/13/77
f 73/14/73 72/11/71 77/13/77
f 74/15/75 73/14/73 77/13/77
f 75/16/76 74/15/75 77/13/77
f 76/12/69 75/16/76 77/13/77
f 78/1/78 82/2/79 87/3/80
f 79/4/81 78/1/78 83/5/82
f 80/6/83 79/4/81 84/7/84
f 81/8/85 80/6/83 85/9/86
f 82/2/79 81/8/85 86/10/87
f 78/1/78 87/3/80 83/5/82
f 79/4/81 83/5/82 84/7/84
f 80/6/83 84/7/84 85/9/86
f 81/8/85 85/9/86 86/10/87
f 82/2/79 86/10/87 87/3/80
f 83/11/82 87/12/80 88/13/88
f 84/14/84 83/11/82 88/13/88
f 85/15/86 84/14/84 88/13/88
f 86/16/87 85/15/86 88/13/88
f 87/12/80 86/16/87 88/13/88
f 89/1/89 93/2/90 98/3/91
f 90/4/92 89/1/89 94/5/93
f 91/6/94 90/4/92 95/7/95
f 92/8/96 91/6/94 96/9/97
f 93/2/90 92/8/96 97/10/98
f 89/1/89 98/3/91 94/5/93
f 90/4/92 94/5/93 95/7/95
f 91/6/94 95/7/95 96/9/97
f 92/8/96 96/9/97 97/10/98
f 93/2/90 97/10/98 98/3/91
f 94/11/93 98/12/91 99/13/99
f 95/14/95 94/11/93 99/13/99
f 96/15/97 95/14/95 99/13/99
f 97/16/98 96/15/97 99/13/99
f 98/12/91 97/16/98 99/13/99
f 100/1/100 104/2/101 109/3/102
f 101/4/103 100/1/100 105/5/104
f 102/6/105 101/4/103 106/7/106
f 103/8/107 102/6/105 107/9/108
f 104/2/101 103/8/107 108/10/109
f 100/1/100 109/3/102 105/5/104
f 101/4/103 105/5/104 106/7/106
f 102/6/105 106/7/106 107/9/108
f 103/8/107 107/9/108 108/10/109
f 104/2/101 108/10/109 109/3/102
f 105/11/104 109/12/102 110/13/110
f 106/14/106 105/11/104 110/13/110
f 107/15/108 106/14/106 110/13/110
f 108/16/109 107/15/108 110/13/110
f 109/12/102 108/16/109 110/13/110
f 111/1/111 115/2/112 120/3/113
f 112/4/114 111/1/111 116/5/115
f 113/6/116 112/4/114 117/7/117
f 114/8/118 113/6/116 118/9/119
f 115/2/112 114/8/118 119/10/120
f 111/1/111 120/3/113 116/5/115
f 112/4/114 116/5/115 117/7/117
f 113/6/116 117/7/117 118/9/119
f 114/8/118 118/9/119 119/10/120
f 115/2/112 119/10/120 120/3/113
f 116/11/115 120/12/113 121/13/121
f 117/14/117 116/11/115 121/13/121
f 118/15/119 117/14/117 121/13/121
f 119/16/120 118/15/119 121/13/121
f 120/12/113 119/16/120 121/13/121
o Icosphere_Icosphere.002
v 0.006678 1.232473 0.014839
v 0.092916 1.293096 0.077495
v -0.026262 1.293096 0.116219
v -0.099920 1.293096 0.014839
v -0.026262 1.293096 -0.086540
v 0.092916 1.293096 -0.047816
v 0.039617 1.399694 0.116219
v -0.079561 1.399694 0.077495
v -0.079561 1.399694 -0.047816
v 0.039617 1.399694 -0.086540
v 0.113275 1.399694 0.014839
v 0.006678 1.455794 0.014839
vt 0.280565 0.329806
vt 0.359030 0.386814
vt 0.250595 0.422047
vt 0.359030 0.272799
vt 0.183578 0.329806
vt 0.250595 0.237566
vt 0.627238 0.329806
vt 0.387691 0.659512
vt 0.000101 0.533574
vt 0.000101 0.126039
vt 0.387691 0.000101
vt 0.627439 0.135407
vt 0.813669 0.000101
vt 0.813669 0.195916
vt 0.698574 0.354333
vt 0.928765 0.354333
vt 0.999899 0.135407
vn 0.000000 -1.000000 0.000000
vn 0.718700 -0.459100 0.522200
vn -0.274500 -0.459100 0.844900
vn 0.718700 -0.459100 -0.522200
vn -0.888400 -0.459100 0.000000
vn -0.274500 -0.459100 -0.844900
vn 0.882900 0.469600 0.000000
vn 0.272800 0.469600 0.839700
vn -0.714300 0.469600 0.518900
vn -0.714300 0.469600 -0.518900
vn 0.272800 0.469600 -0.839700
vn 0.000000 1.000000 0.000000
usemtl foliage-red
s 1
f 122/17/122 123/18/123 124/19/124
f 123/18/123 122/17/122 127/20/125
f 122/17/122 124/19/124 125/21/126
f 122/17/122 125/21/126 126/22/127
f 122/17/122 126/22/127 127/20/125
f 123/18/123 127/20/125 132/23/128
f 124/19/124 123/18/123 128/24/129
f 125/21/126 124/19/124 129/25/130
f 126/22/127 125/21/126 130/26/131
f 127/20/125 126/22/127 131/27/132
f 123/18/123 132/23/128 128/24/129
f 124/19/124 128/24/129 129/25/130
f 125/21/126 129/25/130 130/26/131
f 126/22/127 130/26/131 131/27/132
f 127/20/125 131/27/132 132/23/128
f 128/28/129 132/29/128 133/30/133
f 129/31/130 128/28/129 133/30/133
f 130/32/131 129/31/130 133/30/133
f 131/33/132 130/32/131 133/30/133
f 132/29/128 131/33/132 133/30/133
o Icosphere.001
v 0.000000 -0.029047 0.000000
v 0.261281 0.064731 0.214216
v -0.112619 0.049813 0.346612
v -0.356994 0.068460 0.000000
v -0.112619 0.049813 -0.346612
v 0.247509 0.066589 -0.197062
v 0.112619 1.018384 0.346612
v -0.294847 1.018384 0.214216
v -0.294847 1.018384 -0.214216
v 0.112619 1.018384 -0.346612
v 0.364453 1.018384 0.000000
v 0.000000 1.347985 0.000000
vt 0.289946 0.335850
vt 0.332332 0.371067
vt 0.271566 0.388780
vt 0.332141 0.302617
vt 0.233403 0.335858
vt 0.271009 0.283086
vt 0.646474 0.335604
vt 0.398303 0.672777
vt 0.000100 0.546432
vt 0.000100 0.125367
vt 0.399456 0.000100
vt 0.646675 0.128419
vt 0.823287 0.000100
vt 0.823287 0.185803
vt 0.714136 0.336039
vt 0.932439 0.336039
vt 0.999900 0.128419
vn 0.026000 -0.999600 -0.005400
vn 0.690500 -0.545400 0.475100
vn -0.252300 -0.564200 0.786100
vn 0.688300 -0.546800 -0.476700
vn -0.846200 -0.532800 0.000000
vn -0.233700 -0.564600 -0.791600
vn 0.931400 0.363800 -0.004200
vn 0.290900 0.379000 0.878400
vn -0.747900 0.383300 0.541800
vn -0.747900 0.383300 -0.541800
vn 0.295800 0.373000 -0.879400
vn 0.000000 1.000000 0.000000
usemtl foliage1
s 1
f 134/34/134 135/35/135 136/36/136
f 135/35/135 134/34/134 139/37/137
f 134/34/134 136/36/136 137/38/138
f 134/34/134 137/38/138 138/39/139
f 134/34/134 138/39/139 139/37/137
f 135/35/135 139/37/137 144/40/140
f 136/36/136 135/35/135 140/41/141
f 137/38/138 136/36/136 141/42/142
f 138/39/139 137/38/138 142/43/143
f 139/37/137 138/39/139 143/44/144
f 135/35/135 144/40/140 140/41/141
f 136/36/136 140/41/141 141/42/142
f 137/38/138 141/42/142 142/43/143
f 138/39/139 142/43/143 143/44/144
f 139/37/137 143/44/144 144/40/140
f 140/45/141 144/46/140 145/47/145
f 141/48/142 140/45/141 145/47/145
f 142/49/143 141/48/142 145/47/145
f 143/50/144 142/49/143 145/47/145
f 144/46/140 143/50/144 145/47/145
