# Blender v2.76 (sub 0) OBJ File: 'grass2.blend'
# www.blender.org
mtllib grass2.mtl
o Plane.005_Plane.082
v 3.753786 -0.017501 -1.379241
v 3.660468 1.086353 -1.452144
v 3.530138 -0.017501 -1.394931
v 3.702480 0.783940 -1.526652
v 3.749609 0.392480 -1.524728
v 3.552693 0.392480 -1.538542
v 3.573885 0.783940 -1.535674
v 3.656471 -0.015480 -1.228617
v 3.953709 0.659070 -0.972054
v 3.790579 -0.015480 -1.310063
v 3.828772 0.428671 -1.048432
v 3.771968 0.181647 -1.112371
v 3.857263 0.181647 -1.164173
v 3.896712 0.428671 -1.089693
v 3.512453 -0.056068 -1.489245
v 3.174711 0.787769 -1.600761
v 3.416995 -0.056068 -1.314686
v 3.327789 0.624136 -1.577342
v 3.451106 0.289197 -1.489266
v 3.379162 0.289197 -1.357707
v 3.280567 0.624136 -1.490989
v -0.884768 -0.056067 -1.047282
v -0.732539 0.830138 -1.283441
v -1.022864 -0.056067 -1.190488
v -0.745614 0.624137 -1.197298
v -0.866447 0.289198 -1.105843
v -0.970525 0.289198 -1.213773
v -0.813929 0.624137 -1.268141
v -1.129331 -0.015480 -1.010983
v -1.450563 0.659222 -0.774764
v -1.091617 -0.015480 -0.858656
v -1.318838 0.438179 -0.908650
v -1.260115 0.226472 -0.941034
v -1.236129 0.226472 -0.844151
v -1.299732 0.438179 -0.831479
v -1.015617 -0.017500 -0.858461
v -0.705008 1.121293 -0.857758
v -0.933928 -0.017501 -1.067295
v -0.859645 0.783940 -0.863468
v -0.875541 0.392480 -0.819048
v -0.803615 0.392480 -1.002921
v -0.812675 0.783940 -0.983545
v -1.101853 -0.025769 -0.953426
v -1.031886 0.881398 -0.990095
v -0.992155 -0.025769 -1.016406
v -1.105542 0.578066 -0.971756
v -1.095231 0.278659 -0.945385
v -0.985533 0.278659 -1.008366
v -1.022930 0.578066 -1.019185
v 3.688892 -0.025769 -1.268583
v 3.633028 0.881397 -1.324440
v 3.596069 -0.025769 -1.354523
v 3.672502 0.578066 -1.259594
v 3.694589 0.278658 -1.277304
v 3.601766 0.278658 -1.363243
v 3.602598 0.578066 -1.324313
vt 0.000000 0.000000
vt 1.000000 0.000000
vt 1.000000 1.000000
vt 0.000000 1.000000
vn 0.068900 -0.175800 -0.982000
vn 0.066000 -0.333100 -0.940500
vn 0.068900 -0.171800 -0.982700
vn 0.069500 0.112000 -0.991200
vn 0.067800 0.247500 -0.966500
vn 0.069500 0.117200 -0.990700
vn 0.451600 -0.492900 0.743600
vn 0.403700 -0.628500 0.664800
vn 0.453200 -0.487400 0.746300
vn 0.474100 -0.407100 0.780700
vn 0.451900 -0.491800 0.744200
vn 0.475700 -0.400000 0.783300
vn -0.841500 -0.283100 -0.460200
vn -0.866900 -0.154100 -0.474000
vn -0.843800 -0.274000 -0.461400
vn -0.745500 -0.527200 -0.407700
vn -0.655600 -0.664600 -0.358500
vn -0.741300 -0.535000 -0.405300
vn 0.690400 -0.283100 -0.665700
vn 0.711200 -0.154100 -0.685800
vn 0.692300 -0.274000 -0.667600
vn 0.668600 -0.370300 -0.644800
vn 0.682300 -0.318500 -0.658000
vn 0.669400 -0.367600 -0.645500
vn -0.884600 -0.411700 0.219000
vn -0.834500 -0.510800 0.206600
vn -0.886400 -0.407600 0.219400
vn -0.867800 -0.448100 0.214800
vn -0.786200 -0.586400 0.194600
vn -0.879300 -0.423500 0.217700
vn 0.916800 -0.175700 0.358600
vn 0.878100 -0.333000 0.343500
vn 0.917400 -0.171800 0.358900
vn 0.915500 -0.183100 0.358100
vn 0.854600 -0.397400 0.334300
vn 0.915300 -0.184200 0.358000
vn 0.497700 0.029400 0.866800
vn 0.497600 -0.033700 0.866700
vn 0.497700 0.028000 0.866900
vn 0.497800 0.016600 0.867100
vn 0.496700 -0.068300 0.865200
vn 0.497800 0.019300 0.867100
vn 0.679100 0.029400 -0.733500
vn 0.679000 -0.033700 -0.733400
vn 0.679100 0.028000 -0.733500
vn 0.679300 0.016600 -0.733700
vn 0.677800 -0.068300 -0.732000
vn 0.679200 0.019300 -0.733600
usemtl Material
s 1
f 5/1/1 1/2/2 3/3/2 6/4/3
f 7/1/4 2/2/5 4/3/6
f 4/1/6 5/2/1 6/3/3 7/4/4
f 12/1/7 8/2/8 10/3/8 13/4/9
f 14/1/10 9/2/11 11/3/12
f 11/1/12 12/2/7 13/3/9 14/4/10
f 19/1/13 15/2/14 17/3/14 20/4/15
f 21/1/16 16/2/17 18/3/18
f 18/1/18 19/2/13 20/3/15 21/4/16
f 26/1/19 22/2/20 24/3/20 27/4/21
f 28/1/22 23/2/23 25/3/24
f 25/1/24 26/2/19 27/3/21 28/4/22
f 33/1/25 29/2/26 31/3/26 34/4/27
f 35/1/28 30/2/29 32/3/30
f 32/1/30 33/2/25 34/3/27 35/4/28
f 40/1/31 36/2/32 38/3/32 41/4/33
f 42/1/34 37/2/35 39/3/36
f 39/1/36 40/2/31 41/3/33 42/4/34
f 47/1/37 43/2/38 45/3/38 48/4/39
f 49/1/40 44/2/41 46/3/42
f 46/1/42 47/2/37 48/3/39 49/4/40
f 54/1/43 50/2/44 52/3/44 55/4/45
f 56/1/46 51/2/47 53/3/48
f 53/1/48 54/2/43 55/3/45 56/4/46
o Plane.009_Plane.066
v 0.414961 -0.018896 2.826537
v 0.271624 0.884959 2.589393
v 0.503103 -0.018896 2.719286
v 0.348990 0.544319 2.764470
v 0.369809 0.292332 2.787529
v 0.457951 0.292332 2.680278
v 0.415368 0.544319 2.683702
v 0.456112 -0.011185 2.828258
v 0.438526 0.562545 3.226835
v 0.598437 -0.011185 2.894450
v 0.411083 0.377356 3.049963
v 0.416653 0.195450 2.992005
v 0.507175 0.195450 3.034105
v 0.483186 0.377356 3.083497
v 0.677531 -0.015149 2.892672
v 1.503899 0.927286 2.058296
v 0.518129 -0.015149 2.614092
v 1.270716 0.868093 2.300799
v 0.913058 0.470975 2.731465
v 0.772708 0.470975 2.486181
v 1.179062 0.868093 2.140618
v 0.548287 -0.019934 2.846347
v 0.563631 0.751472 2.768809
v 0.568070 -0.019934 2.721334
v 0.531694 0.493535 2.837720
v 0.558706 0.258940 2.846232
v 0.578488 0.258940 2.721219
v 0.546592 0.493535 2.743576
v 1.730321 -0.014232 0.086406
v 1.733492 0.516142 -0.083796
v 1.616667 -0.014232 0.039777
v 1.728977 0.359026 0.000892
v 1.753165 0.194195 0.009999
v 1.653096 0.194195 -0.031057
v 1.663627 0.359026 -0.025920
v 1.570485 -0.028336 0.022077
v 1.631354 0.710324 0.066449
v 1.679744 -0.028336 0.078239
v 1.564526 0.471768 0.107395
v 1.541203 0.227495 0.096256
v 1.637404 0.227495 0.145706
v 1.627349 0.471768 0.139688
v 1.593769 -0.011185 0.198089
v 2.087188 0.495024 0.441547
v 1.690331 -0.011185 0.074312
v 1.889338 0.419272 0.363708
v 1.721152 0.189738 0.249842
v 1.782568 0.189738 0.171117
v 1.938258 0.419272 0.301001
v 1.607086 -0.019057 0.184166
v 1.217359 0.431251 0.664360
v 1.696819 -0.019057 0.268079
v 1.410442 0.385979 0.447078
v 1.544594 0.184656 0.250301
v 1.623602 0.184656 0.324184
v 1.462037 0.385979 0.495327
v -2.754881 -0.013122 1.168535
v -3.215423 1.183135 0.980795
v -2.758149 -0.013122 0.980287
v -3.043802 0.847546 1.098200
v -2.998101 0.375168 1.157194
v -3.001702 0.375168 0.949757
v -3.046165 0.847546 0.962042
v -2.841188 -0.012431 1.103489
v -3.467896 0.231711 1.630165
v -2.754800 -0.012431 1.234560
v -3.230892 0.249359 1.424313
v -3.010062 0.177503 1.267263
v -2.955117 0.177503 1.350627
v -3.187127 0.249359 1.490715
v -2.783392 -0.023292 1.216015
v -1.966740 0.217100 1.289004
v -2.749067 -0.030562 1.063141
v -2.279175 0.236417 1.260198
v -2.546672 0.162975 1.215999
v -2.524840 0.158351 1.118767
v -2.261786 0.232734 1.182751
v -0.256796 -0.023292 -1.783018
v -0.129534 0.309774 -0.972882
v -0.100195 -0.030562 -1.786807
v -0.177367 0.271172 -1.283038
v -0.199370 0.161156 -1.553324
v -0.099768 0.156532 -1.555733
v -0.098031 0.267489 -1.284958
v -0.161670 -0.012431 -1.866403
v -0.824496 0.380586 -2.346719
v -0.267849 -0.012431 -1.750772
v -0.567357 0.249359 -2.166698
v -0.361474 0.170154 -1.990527
v -0.429006 0.170154 -1.916984
v -0.621148 0.249359 -2.108119
v -0.245833 -0.017613 -1.755588
v -0.147911 0.848142 -2.297637
v 0.019969 -0.017613 -1.827011
v -0.205678 0.596944 -2.064290
v -0.252848 0.270184 -2.005276
v -0.052522 0.270184 -2.059105
v -0.074188 0.596944 -2.099623
v 0.006781 -0.017613 -1.816823
v -0.117524 1.042345 -1.657231
v -0.260140 -0.017613 -1.749703
v -0.037243 0.801810 -1.790583
v -0.050854 0.388420 -1.879145
v -0.252023 0.388420 -1.828559
v -0.169286 0.801810 -1.757380
v 0.620244 -0.045698 2.556986
v 0.531817 0.707884 2.290159
v 0.422029 -0.045698 2.574751
v 0.590714 0.532711 2.354403
v 0.586124 0.271538 2.505961
v 0.436736 0.271538 2.519349
v 0.492658 0.532711 2.363191
vt 0.000000 0.000000
vt 1.000000 0.000000
vt 1.000000 1.000000
vt 0.000000 1.000000
vn 0.763200 0.154900 0.627200
vn 0.758800 0.188200 0.623600
vn 0.763100 0.155900 0.627100
vn 0.741500 0.280500 0.609400
vn 0.690500 0.448500 0.567500
vn 0.742700 0.275400 0.610400
vn -0.370600 -0.477200 0.796800
vn -0.329400 -0.624200 0.708300
vn -0.372200 -0.470000 0.800300
vn -0.372100 -0.470400 0.800100
vn -0.328700 -0.626400 0.706800
vn -0.379500 -0.435900 0.816100
vn 0.662000 -0.646700 -0.378800
vn 0.749100 -0.505100 -0.428600
vn 0.644900 -0.669300 -0.369000
vn 0.358000 -0.910900 -0.204800
vn 0.156500 -0.983600 -0.089500
vn 0.383600 -0.897000 -0.219500
vn 0.986900 0.040400 0.156200
vn 0.987000 -0.036800 0.156200
vn 0.987000 0.038200 0.156200
vn 0.987400 0.025500 0.156200
vn 0.984500 -0.080300 0.155800
vn 0.987300 0.029400 0.156200
vn 0.372600 -0.190200 -0.908300
vn 0.354700 -0.355800 -0.864600
vn 0.373000 -0.184600 -0.909200
vn 0.371300 -0.206700 -0.905100
vn 0.338200 -0.454000 -0.824300
vn 0.371300 -0.207600 -0.905000
vn -0.451600 -0.154900 0.878600
vn -0.436600 -0.296300 0.849400
vn -0.451900 -0.151800 0.879100
vn -0.453200 0.130600 0.881700
vn -0.440100 0.270300 0.856300
vn -0.453500 0.126200 0.882300
vn 0.628400 -0.603900 0.490200
vn 0.658600 -0.549900 0.513700
vn 0.627400 -0.605500 0.489500
vn 0.452000 -0.819300 0.352600
vn 0.274600 -0.937400 0.214200
vn 0.463700 -0.808700 0.361700
vn -0.550600 -0.591600 0.588900
vn -0.623600 -0.407800 0.666900
vn -0.549200 -0.594400 0.587300
vn -0.298300 -0.899600 0.318900
vn -0.105100 -0.988100 0.112400
vn -0.293100 -0.903200 0.313500
vn 0.942900 0.332600 -0.016400
vn 0.847600 0.530500 -0.014700
vn 0.948200 0.317100 -0.016400
vn 0.961700 0.273500 -0.016700
vn 0.892400 0.450900 -0.015500
vn 0.967900 0.250600 -0.016800
vn -0.389700 -0.884400 0.256800
vn -0.530100 -0.772600 0.349400
vn -0.385100 -0.887300 0.253800
vn -0.091400 -0.994000 0.060200
vn 0.047300 -0.998400 -0.031200
vn -0.091700 -0.993900 0.060400
vn 0.448500 -0.882300 0.142600
vn 0.609000 -0.773900 0.173500
vn 0.442300 -0.885600 0.141400
vn 0.100600 -0.992500 0.069800
vn -0.064700 -0.997300 0.032900
vn 0.101700 -0.992300 0.070000
vn -0.027200 -0.855800 0.516500
vn -0.020800 -0.777000 0.629100
vn -0.027400 -0.858100 0.512800
vn -0.038400 -0.963900 0.263400
vn -0.042800 -0.990600 0.129900
vn -0.038400 -0.964000 0.263100
vn -0.344900 -0.883500 -0.316800
vn -0.456600 -0.784700 -0.419300
vn -0.341300 -0.886200 -0.313400
vn -0.244900 -0.943100 -0.224900
vn -0.286200 -0.921400 -0.262800
vn -0.244800 -0.943100 -0.224900
vn 0.233700 0.434800 0.869600
vn 0.198300 0.645000 0.737900
vn 0.236500 0.411300 0.880200
vn 0.238200 0.396900 0.886400
vn 0.199000 0.642000 0.740400
vn 0.242300 0.358000 0.901700
vn -0.243800 0.008200 -0.969800
vn -0.239800 -0.180500 -0.953900
vn -0.243800 0.001600 -0.969800
vn -0.232100 0.307000 -0.923000
vn -0.221800 0.415100 -0.882300
vn -0.232700 0.299400 -0.925300
vn -0.084000 -0.337100 -0.937700
vn -0.088000 -0.167400 -0.981900
vn -0.084500 -0.322300 -0.942800
vn -0.080000 -0.444400 -0.892200
vn -0.083000 -0.367600 -0.926200
vn -0.080100 -0.439700 -0.894600
usemtl Material.001
s 1
f 61/5/49 57/6/50 59/7/50 62/8/51
f 63/5/52 58/6/53 60/7/54
f 60/5/54 61/6/49 62/7/51 63/8/52
f 68/5/55 64/6/56 66/7/56 69/8/57
f 70/5/58 65/6/59 67/7/60
f 67/5/60 68/6/55 69/7/57 70/8/58
f 75/5/61 71/6/62 73/7/62 76/8/63
f 77/5/64 72/6/65 74/7/66
f 74/5/66 75/6/61 76/7/63 77/8/64
f 82/5/67 78/6/68 80/7/68 83/8/69
f 84/5/70 79/6/71 81/7/72
f 81/5/72 82/6/67 83/7/69 84/8/70
f 89/5/73 85/6/74 87/7/74 90/8/75
f 91/5/76 86/6/77 88/7/78
f 88/5/78 89/6/73 90/7/75 91/8/76
f 96/5/79 92/6/80 94/7/80 97/8/81
f 98/5/82 93/6/83 95/7/84
f 95/5/84 96/6/79 97/7/81 98/8/82
f 103/5/85 99/6/86 101/7/86 104/8/87
f 105/5/88 100/6/89 102/7/90
f 102/5/90 103/6/85 104/7/87 105/8/88
f 110/5/91 106/6/92 108/7/92 111/8/93
f 112/5/94 107/6/95 109/7/96
f 109/5/96 110/6/91 111/7/93 112/8/94
f 117/5/97 113/6/98 115/7/98 118/8/99
f 119/5/100 114/6/101 116/7/102
f 116/5/102 117/6/97 118/7/99 119/8/100
f 124/5/103 120/6/104 122/7/104 125/8/105
f 126/5/106 121/6/107 123/7/108
f 123/5/108 124/6/103 125/7/105 126/8/106
f 131/5/109 127/6/110 129/7/110 132/8/111
f 133/5/112 128/6/113 130/7/114
f 130/5/114 131/6/109 132/7/111 133/8/112
f 138/5/115 134/6/116 136/7/116 139/8/117
f 140/5/118 135/6/119 137/7/120
f 137/5/120 138/6/115 139/7/117 140/8/118
f 145/5/121 141/6/122 143/7/122 146/8/123
f 147/5/124 142/6/125 144/7/126
f 144/5/126 145/6/121 146/7/123 147/8/124
f 152/5/127 148/6/128 150/7/128 153/8/129
f 154/5/130 149/6/131 151/7/132
f 151/5/132 152/6/127 153/7/129 154/8/130
f 159/5/133 155/6/134 157/7/134 160/8/135
f 161/5/136 156/6/137 158/7/138
f 158/5/138 159/6/133 160/7/135 161/8/136
f 166/5/139 162/6/140 164/7/140 167/8/141
f 168/5/142 163/6/143 165/7/144
f 165/5/144 166/6/139 167/7/141 168/8/142
