# Blender v2.79 (sub 0) OBJ File: 'sky.blend'
# www.blender.org
mtllib sky.mtl
o Plane
v -0.951389 0.735128 1.034028
v 1.048611 0.735128 1.034028
v -0.951389 0.735128 -0.965972
v 1.048611 0.735128 -0.965972
vt -0.031036 0.473954
vt 0.276228 0.487626
vt 0.268415 1.007499
vt -0.031036 1.007499
vn 0.0000 1.0000 0.0000
usemtl cloudsTop
s off
f 1/1/1 2/2/1 4/3/1 3/4/1
o Cylinder
v 0.000000 0.746356 -1.000000
v 0.000000 -0.074315 -1.000000
v -0.195090 0.746356 -0.980785
v -0.195090 -0.074315 -0.980785
v -0.382683 0.746356 -0.923880
v -0.382683 -0.074315 -0.923880
v -0.555570 0.746356 -0.831470
v -0.555570 -0.074315 -0.831470
v -0.707107 0.746356 -0.707107
v -0.707107 -0.074315 -0.707107
v -0.831470 0.746356 -0.555570
v -0.831469 -0.074315 -0.555570
v -0.923880 0.746356 -0.382683
v -0.923879 -0.074315 -0.382683
v -0.980785 0.746356 -0.195090
v -0.980785 -0.074315 -0.195090
v -1.000000 0.746356 -0.000000
v -1.000000 -0.074315 -0.000000
v -0.980785 0.746356 0.195090
v -0.980785 -0.074315 0.195090
v -0.923879 0.746356 0.382683
v -0.923879 -0.074315 0.382683
v -0.831470 0.746356 0.555570
v -0.831469 -0.074315 0.555570
v -0.707107 0.746356 0.707107
v -0.707107 -0.074315 0.707107
v -0.555570 0.746356 0.831470
v -0.555570 -0.074315 0.831470
v -0.382683 0.746356 0.923880
v -0.382683 -0.074315 0.923880
v -0.195090 0.746356 0.980785
v -0.195090 -0.074315 0.980785
v 0.000000 0.746356 1.000000
v 0.000000 -0.074315 1.000000
v 0.195091 0.746356 0.980785
v 0.195091 -0.074315 0.980785
v 0.382684 0.746356 0.923879
v 0.382684 -0.074315 0.923879
v 0.555571 0.746356 0.831469
v 0.555571 -0.074315 0.831469
v 0.707107 0.746356 0.707106
v 0.707107 -0.074315 0.707106
v 0.831470 0.746356 0.555570
v 0.831470 -0.074315 0.555570
v 0.923880 0.746356 0.382683
v 0.923880 -0.074315 0.382683
v 0.980786 0.746356 0.195089
v 0.980786 -0.074315 0.195089
v 1.000000 0.746356 -0.000001
v 1.000000 -0.074315 -0.000001
v 0.980785 0.746356 -0.195091
v 0.980785 -0.074315 -0.195091
v 0.923879 0.746356 -0.382684
v 0.923879 -0.074315 -0.382684
v 0.831469 0.746356 -0.555571
v 0.831469 -0.074315 -0.555571
v 0.707106 0.746356 -0.707108
v 0.707106 -0.074315 -0.707108
v 0.555569 0.746356 -0.831470
v 0.555569 -0.074315 -0.831470
v 0.382682 0.746356 -0.923880
v 0.382682 -0.074315 -0.923880
v 0.195089 0.746356 -0.980786
v 0.195089 -0.074315 -0.980786
v 0.000000 0.541188 -1.000000
v 0.000000 0.336020 -1.000000
v 0.000000 0.130853 -1.000000
v -0.195090 0.130853 -0.980785
v -0.195090 0.336020 -0.980785
v -0.195090 0.541188 -0.980785
v -0.382683 0.130853 -0.923880
v -0.382683 0.336020 -0.923880
v -0.382683 0.541188 -0.923880
v -0.555570 0.130853 -0.831470
v -0.555570 0.336020 -0.831470
v -0.555570 0.541188 -0.831470
v -0.707107 0.130853 -0.707107
v -0.707107 0.336020 -0.707107
v -0.707107 0.541188 -0.707107
v -0.831469 0.130853 -0.555570
v -0.831470 0.336020 -0.555570
v -0.831470 0.541188 -0.555570
v -0.923879 0.130853 -0.382683
v -0.923879 0.336020 -0.382683
v -0.923879 0.541188 -0.382683
v -0.980785 0.130853 -0.195090
v -0.980785 0.336020 -0.195090
v -0.980785 0.541188 -0.195090
v -1.000000 0.130853 -0.000000
v -1.000000 0.336020 -0.000000
v -1.000000 0.541188 -0.000000
v -0.980785 0.130853 0.195090
v -0.980785 0.336020 0.195090
v -0.980785 0.541188 0.195090
v -0.923879 0.130853 0.382683
v -0.923879 0.336020 0.382683
v -0.923879 0.541188 0.382683
v -0.831469 0.130853 0.555570
v -0.831470 0.336020 0.555570
v -0.831470 0.541188 0.555570
v -0.707107 0.130853 0.707107
v -0.707107 0.336020 0.707107
v -0.707107 0.541188 0.707107
v -0.555570 0.130853 0.831470
v -0.555570 0.336020 0.831470
v -0.555570 0.541188 0.831470
v -0.382683 0.130853 0.923880
v -0.382683 0.336020 0.923880
v -0.382683 0.541188 0.923880
v -0.195090 0.130853 0.980785
v -0.195090 0.336020 0.980785
v -0.195090 0.541188 0.980785
v 0.000000 0.130853 1.000000
v 0.000000 0.336020 1.000000
v 0.000000 0.541188 1.000000
v 0.195091 0.130853 0.980785
v 0.195091 0.336020 0.980785
v 0.195091 0.541188 0.980785
v 0.382684 0.130853 0.923879
v 0.382684 0.336021 0.923879
v 0.382684 0.541188 0.923879
v 0.555571 0.130853 0.831469
v 0.555571 0.336021 0.831469
v 0.555571 0.541188 0.831469
v 0.707107 0.130853 0.707106
v 0.707107 0.336021 0.707106
v 0.707107 0.541188 0.707106
v 0.831470 0.130853 0.555570
v 0.831470 0.336021 0.555570
v 0.831470 0.541188 0.555570
v 0.923880 0.130853 0.382683
v 0.923880 0.336021 0.382683
v 0.923880 0.541188 0.382683
v 0.980786 0.130853 0.195089
v 0.980786 0.336021 0.195089
v 0.980786 0.541188 0.195089
v 1.000000 0.130853 -0.000001
v 1.000000 0.336021 -0.000001
v 1.000000 0.541188 -0.000001
v 0.980785 0.130853 -0.195091
v 0.980785 0.336021 -0.195091
v 0.980785 0.541188 -0.195091
v 0.923879 0.130853 -0.382684
v 0.923879 0.336021 -0.382684
v 0.923879 0.541188 -0.382684
v 0.831469 0.130853 -0.555571
v 0.831469 0.336021 -0.555571
v 0.831469 0.541188 -0.555571
v 0.707106 0.130853 -0.707108
v 0.707106 0.336021 -0.707108
v 0.707106 0.541188 -0.707108
v 0.555569 0.130853 -0.831470
v 0.555569 0.336021 -0.831470
v 0.555569 0.541188 -0.831470
v 0.382682 0.130853 -0.923880
v 0.382682 0.336021 -0.923880
v 0.382682 0.541188 -0.923880
v 0.195089 0.130853 -0.980786
v 0.195089 0.336020 -0.980786
v 0.195089 0.541188 -0.980786
vt 0.375009 0.149520
vt 0.375009 0.000036
vt 0.406257 0.000036
vt 0.406257 0.149520
vt 0.437504 0.000036
vt 0.437504 0.149520
vt 0.468752 0.000036
vt 0.468752 0.149520
vt 0.500000 0.000036
vt 0.500000 0.149520
vt 0.531248 0.000036
vt 0.531248 0.149520
vt 0.562495 0.000036
vt 0.562495 0.149520
vt 0.593743 0.000036
vt 0.593743 0.149520
vt 0.624991 0.000036
vt 0.624991 0.149520
vt 0.656239 0.000036
vt 0.656239 0.149520
vt 0.687486 0.000036
vt 0.687486 0.149520
vt 0.718734 0.000036
vt 0.718734 0.149520
vt 0.749982 0.000036
vt 0.749982 0.149520
vt 0.781230 0.000036
vt 0.781230 0.149520
vt 0.812477 0.000036
vt 0.812477 0.149520
vt 0.843725 0.000036
vt 0.843725 0.149520
vt 0.874973 0.000036
vt 0.874973 0.149520
vt 0.906221 0.000036
vt 0.906221 0.149520
vt 0.937469 0.000036
vt 0.937469 0.149520
vt 0.968716 0.000036
vt 0.968716 0.149520
vt 0.999964 0.000036
vt 0.999964 0.149521
vt 0.000036 0.149520
vt 0.000036 0.000036
vt 0.031284 0.000036
vt 0.031284 0.149520
vt 0.062531 0.000036
vt 0.062531 0.149520
vt 0.093779 0.000036
vt 0.093779 0.149520
vt 0.125027 0.000036
vt 0.125027 0.149520
vt 0.156275 0.000036
vt 0.156275 0.149520
vt 0.187523 0.000036
vt 0.187523 0.149520
vt 0.218770 0.000036
vt 0.218770 0.149520
vt 0.250018 0.000036
vt 0.250018 0.149520
vt 0.281266 0.000036
vt 0.281266 0.149520
vt 0.312514 0.000036
vt 0.312514 0.149520
vt 0.343761 0.000036
vt 0.343761 0.149520
vt 0.343761 0.496411
vt 0.343761 0.387942
vt 0.375009 0.387942
vt 0.375009 0.496410
vt 0.343761 0.275567
vt 0.375009 0.275567
vt 0.312514 0.496411
vt 0.312514 0.387942
vt 0.312514 0.275567
vt 0.281266 0.496411
vt 0.281266 0.387942
vt 0.281266 0.275567
vt 0.250018 0.496411
vt 0.250018 0.387942
vt 0.250018 0.275567
vt 0.218770 0.496411
vt 0.218770 0.387942
vt 0.218770 0.275567
vt 0.187523 0.496411
vt 0.187523 0.387942
vt 0.187523 0.275567
vt 0.156275 0.496411
vt 0.156275 0.387942
vt 0.156275 0.275567
vt 0.125027 0.496411
vt 0.125027 0.387942
vt 0.125027 0.275567
vt 0.093779 0.496411
vt 0.093779 0.387942
vt 0.093779 0.275567
vt 0.062532 0.496411
vt 0.062532 0.387942
vt 0.062532 0.275567
vt 0.031284 0.496411
vt 0.031284 0.387942
vt 0.031284 0.275567
vt 0.000036 0.496411
vt 0.000036 0.387942
vt 0.000036 0.275567
vt 0.968716 0.496411
vt 0.968716 0.387942
vt 0.999964 0.387942
vt 0.999964 0.496411
vt 0.968716 0.275567
vt 0.999964 0.275567
vt 0.937468 0.496411
vt 0.937468 0.387942
vt 0.937468 0.275567
vt 0.906221 0.496411
vt 0.906221 0.387942
vt 0.906221 0.275567
vt 0.874973 0.496411
vt 0.874973 0.387942
vt 0.874973 0.275567
vt 0.843725 0.496411
vt 0.843725 0.387942
vt 0.843725 0.275567
vt 0.812477 0.496411
vt 0.812477 0.387942
vt 0.812477 0.275567
vt 0.781230 0.496411
vt 0.781230 0.387942
vt 0.781230 0.275567
vt 0.749982 0.496411
vt 0.749982 0.387942
vt 0.749982 0.275567
vt 0.718734 0.496411
vt 0.718734 0.387942
vt 0.718734 0.275567
vt 0.687486 0.496411
vt 0.687486 0.387942
vt 0.687486 0.275567
vt 0.656239 0.496411
vt 0.656239 0.387942
vt 0.656239 0.275567
vt 0.624991 0.496411
vt 0.624991 0.387942
vt 0.624991 0.275567
vt 0.593743 0.496411
vt 0.593743 0.387942
vt 0.593743 0.275567
vt 0.562495 0.496411
vt 0.562495 0.387942
vt 0.562495 0.275567
vt 0.531248 0.496411
vt 0.531248 0.387942
vt 0.531248 0.275567
vt 0.500000 0.496411
vt 0.500000 0.387942
vt 0.500000 0.275567
vt 0.468752 0.496411
vt 0.468752 0.387942
vt 0.468752 0.275567
vt 0.437504 0.496411
vt 0.437504 0.387942
vt 0.437504 0.275567
vt 0.406257 0.496411
vt 0.406257 0.387942
vt 0.406257 0.275567
vn -0.0980 -0.0000 -0.9952
vn -0.2903 0.0000 -0.9569
vn -0.4714 -0.0000 -0.8819
vn -0.6344 0.0000 -0.7730
vn -0.7730 0.0000 -0.6344
vn -0.8819 -0.0000 -0.4714
vn -0.9569 -0.0000 -0.2903
vn -0.9952 -0.0000 -0.0980
vn -0.9952 -0.0000 0.0980
vn -0.9569 0.0000 0.2903
vn -0.8819 0.0000 0.4714
vn -0.7730 0.0000 0.6344
vn -0.6344 0.0000 0.7730
vn -0.4714 0.0000 0.8819
vn -0.2903 -0.0000 0.9569
vn -0.0980 -0.0000 0.9952
vn 0.0980 0.0000 0.9952
vn 0.2903 0.0000 0.9569
vn 0.4714 0.0000 0.8819
vn 0.6344 0.0000 0.7730
vn 0.7730 0.0000 0.6344
vn 0.8819 0.0000 0.4714
vn 0.9569 0.0000 0.2903
vn 0.9952 0.0000 0.0980
vn 0.9952 0.0000 -0.0980
vn 0.9569 0.0000 -0.2903
vn 0.8819 0.0000 -0.4714
vn 0.7730 0.0000 -0.6344
vn 0.6344 0.0000 -0.7730
vn 0.4714 0.0000 -0.8819
vn 0.2903 0.0000 -0.9569
vn 0.0980 0.0000 -0.9952
usemtl clouds
s off
f 71/5/2 6/6/2 8/7/2 72/8/2
f 72/8/3 8/7/3 10/9/3 75/10/3
f 75/10/4 10/9/4 12/11/4 78/12/4
f 78/12/5 12/11/5 14/13/5 81/14/5
f 81/14/6 14/13/6 16/15/6 84/16/6
f 84/16/7 16/15/7 18/17/7 87/18/7
f 87/18/8 18/17/8 20/19/8 90/20/8
f 90/20/9 20/19/9 22/21/9 93/22/9
f 93/22/10 22/21/10 24/23/10 96/24/10
f 96/24/11 24/23/11 26/25/11 99/26/11
f 99/26/12 26/25/12 28/27/12 102/28/12
f 102/28/13 28/27/13 30/29/13 105/30/13
f 105/30/14 30/29/14 32/31/14 108/32/14
f 108/32/15 32/31/15 34/33/15 111/34/15
f 111/34/16 34/33/16 36/35/16 114/36/16
f 114/36/17 36/35/17 38/37/17 117/38/17
f 117/38/18 38/37/18 40/39/18 120/40/18
f 120/40/19 40/39/19 42/41/19 123/42/19
f 123/42/20 42/41/20 44/43/20 126/44/20
f 126/44/21 44/43/21 46/45/21 129/46/21
f 129/47/22 46/48/22 48/49/22 132/50/22
f 132/50/23 48/49/23 50/51/23 135/52/23
f 135/52/24 50/51/24 52/53/24 138/54/24
f 138/54/25 52/53/25 54/55/25 141/56/25
f 141/56/26 54/55/26 56/57/26 144/58/26
f 144/58/27 56/57/27 58/59/27 147/60/27
f 147/60/28 58/59/28 60/61/28 150/62/28
f 150/62/29 60/61/29 62/63/29 153/64/29
f 153/64/30 62/63/30 64/65/30 156/66/30
f 156/66/31 64/65/31 66/67/31 159/68/31
f 159/68/32 66/67/32 68/69/32 162/70/32
f 162/70/33 68/69/33 6/6/33 71/5/33
f 67/71/33 164/72/33 69/73/33 5/74/33
f 164/72/33 163/75/33 70/76/33 69/73/33
f 163/75/33 162/70/33 71/5/33 70/76/33
f 65/77/32 161/78/32 164/72/32 67/71/32
f 161/78/32 160/79/32 163/75/32 164/72/32
f 160/79/32 159/68/32 162/70/32 163/75/32
f 63/80/31 158/81/31 161/78/31 65/77/31
f 158/81/31 157/82/31 160/79/31 161/78/31
f 157/82/31 156/66/31 159/68/31 160/79/31
f 61/83/30 155/84/30 158/81/30 63/80/30
f 155/84/30 154/85/30 157/82/30 158/81/30
f 154/85/30 153/64/30 156/66/30 157/82/30
f 59/86/29 152/87/29 155/84/29 61/83/29
f 152/87/29 151/88/29 154/85/29 155/84/29
f 151/88/29 150/62/29 153/64/29 154/85/29
f 57/89/28 149/90/28 152/87/28 59/86/28
f 149/90/28 148/91/28 151/88/28 152/87/28
f 148/91/28 147/60/28 150/62/28 151/88/28
f 55/92/27 146/93/27 149/90/27 57/89/27
f 146/93/27 145/94/27 148/91/27 149/90/27
f 145/94/27 144/58/27 147/60/27 148/91/27
f 53/95/26 143/96/26 146/93/26 55/92/26
f 143/96/26 142/97/26 145/94/26 146/93/26
f 142/97/26 141/56/26 144/58/26 145/94/26
f 51/98/25 140/99/25 143/96/25 53/95/25
f 140/99/25 139/100/25 142/97/25 143/96/25
f 139/100/25 138/54/25 141/56/25 142/97/25
f 49/101/24 137/102/24 140/99/24 51/98/24
f 137/102/24 136/103/24 139/100/24 140/99/24
f 136/103/24 135/52/24 138/54/24 139/100/24
f 47/104/23 134/105/23 137/102/23 49/101/23
f 134/105/23 133/106/23 136/103/23 137/102/23
f 133/106/23 132/50/23 135/52/23 136/103/23
f 45/107/22 131/108/22 134/105/22 47/104/22
f 131/108/22 130/109/22 133/106/22 134/105/22
f 130/109/22 129/47/22 132/50/22 133/106/22
f 43/110/21 128/111/21 131/112/21 45/113/21
f 128/111/21 127/114/21 130/115/21 131/112/21
f 127/114/21 126/44/21 129/46/21 130/115/21
f 41/116/20 125/117/20 128/111/20 43/110/20
f 125/117/20 124/118/20 127/114/20 128/111/20
f 124/118/20 123/42/20 126/44/20 127/114/20
f 39/119/19 122/120/19 125/117/19 41/116/19
f 122/120/19 121/121/19 124/118/19 125/117/19
f 121/121/19 120/40/19 123/42/19 124/118/19
f 37/122/18 119/123/18 122/120/18 39/119/18
f 119/123/18 118/124/18 121/121/18 122/120/18
f 118/124/18 117/38/18 120/40/18 121/121/18
f 35/125/17 116/126/17 119/123/17 37/122/17
f 116/126/17 115/127/17 118/124/17 119/123/17
f 115/127/17 114/36/17 117/38/17 118/124/17
f 33/128/16 113/129/16 116/126/16 35/125/16
f 113/129/16 112/130/16 115/127/16 116/126/16
f 112/130/16 111/34/16 114/36/16 115/127/16
f 31/131/15 110/132/15 113/129/15 33/128/15
f 110/132/15 109/133/15 112/130/15 113/129/15
f 109/133/15 108/32/15 111/34/15 112/130/15
f 29/134/14 107/135/14 110/132/14 31/131/14
f 107/135/14 106/136/14 109/133/14 110/132/14
f 106/136/14 105/30/14 108/32/14 109/133/14
f 27/137/13 104/138/13 107/135/13 29/134/13
f 104/138/13 103/139/13 106/136/13 107/135/13
f 103/139/13 102/28/13 105/30/13 106/136/13
f 25/140/12 101/141/12 104/138/12 27/137/12
f 101/141/12 100/142/12 103/139/12 104/138/12
f 100/142/12 99/26/12 102/28/12 103/139/12
f 23/143/11 98/144/11 101/141/11 25/140/11
f 98/144/11 97/145/11 100/142/11 101/141/11
f 97/145/11 96/24/11 99/26/11 100/142/11
f 21/146/10 95/147/10 98/144/10 23/143/10
f 95/147/10 94/148/10 97/145/10 98/144/10
f 94/148/10 93/22/10 96/24/10 97/145/10
f 19/149/9 92/150/9 95/147/9 21/146/9
f 92/150/9 91/151/9 94/148/9 95/147/9
f 91/151/9 90/20/9 93/22/9 94/148/9
f 17/152/8 89/153/8 92/150/8 19/149/8
f 89/153/8 88/154/8 91/151/8 92/150/8
f 88/154/8 87/18/8 90/20/8 91/151/8
f 15/155/7 86/156/7 89/153/7 17/152/7
f 86/156/7 85/157/7 88/154/7 89/153/7
f 85/157/7 84/16/7 87/18/7 88/154/7
f 13/158/6 83/159/6 86/156/6 15/155/6
f 83/159/6 82/160/6 85/157/6 86/156/6
f 82/160/6 81/14/6 84/16/6 85/157/6
f 11/161/5 80/162/5 83/159/5 13/158/5
f 80/162/5 79/163/5 82/160/5 83/159/5
f 79/163/5 78/12/5 81/14/5 82/160/5
f 9/164/4 77/165/4 80/162/4 11/161/4
f 77/165/4 76/166/4 79/163/4 80/162/4
f 76/166/4 75/10/4 78/12/4 79/163/4
f 7/167/3 74/168/3 77/165/3 9/164/3
f 74/168/3 73/169/3 76/166/3 77/165/3
f 73/169/3 72/8/3 75/10/3 76/166/3
f 5/74/2 69/73/2 74/168/2 7/167/2
f 69/73/2 70/76/2 73/169/2 74/168/2
f 70/76/2 71/5/2 72/8/2 73/169/2
