# Blender v2.76 (sub 0) OBJ File: 'tree5_2LP.blend'
# www.blender.org
mtllib tree5_2LP.mtl
o Icosphere.004_Icosphere.015
v 0.510324 1.107279 -0.082308
v 0.150500 1.249665 -0.350463
v 0.632877 1.111156 -0.536707
v 0.977719 1.122423 -0.127413
v 0.708453 1.267900 0.311788
v 0.197208 1.346538 0.173932
v 0.401362 1.377801 -0.565344
v 0.912607 1.299163 -0.427488
v 0.959315 1.396035 0.096906
v 0.476938 1.534545 0.283151
v 0.132096 1.523277 -0.126143
v 0.598111 1.532529 -0.170295
v 0.090729 1.271985 0.585092
v -0.394380 1.376770 0.692216
v -0.147331 1.456581 0.176590
v 0.425185 1.453746 0.250721
v 0.531959 1.372182 0.812169
v 0.025441 1.324610 1.085022
v -0.358871 1.650948 0.428488
v 0.147647 1.698520 0.155636
v 0.567468 1.646360 0.548442
v 0.320419 1.566550 1.064068
v -0.252097 1.569384 0.989937
v 0.082153 1.744625 0.654518
v -0.365421 1.580473 -0.186313
v -0.669354 1.644455 -0.416324
v -0.249971 1.657033 -0.546991
v 0.002559 1.695913 -0.189452
v -0.260762 1.707363 0.162184
v -0.676022 1.675561 0.021967
v -0.489870 1.820750 -0.562260
v -0.074610 1.852552 -0.422043
v -0.081279 1.883658 0.016248
v -0.500661 1.871080 0.146915
v -0.753191 1.832200 -0.210624
v -0.385057 1.942615 -0.213612
v 0.221068 1.834070 -0.454965
v -0.104420 1.951052 -0.710397
v 0.363832 1.928855 -0.849159
v 0.640691 1.923148 -0.446260
v 0.343537 1.941818 -0.058495
v -0.116962 1.959064 -0.221743
v 0.115553 2.136105 -0.858930
v 0.576052 2.118859 -0.695682
v 0.563509 2.126871 -0.207028
v 0.095258 2.149068 -0.068266
v -0.181601 2.154775 -0.471165
v 0.237665 2.238271 -0.462608
v -0.008000 2.400113 -0.022555
v 0.309160 2.578656 0.757538
v -0.642338 2.586668 0.528222
v -0.718163 2.632015 -0.446565
v 0.186489 2.652028 -0.819684
v 0.821399 2.619050 -0.075507
v -0.204990 2.968416 0.815657
v -0.839899 3.001394 0.071480
v -0.327661 3.041788 -0.761565
v 0.623837 3.033775 -0.532248
v 0.699663 2.988429 0.442538
v -0.010500 3.209129 0.018528
v -0.261886 1.977903 0.459515
v 0.106649 2.093218 0.688616
v -0.364924 2.081732 0.883871
v -0.696451 2.080878 0.495631
v -0.429762 2.091837 0.060432
v 0.066577 2.099463 0.179708
v -0.101234 2.292212 0.865691
v -0.597573 2.284585 0.746415
v -0.637644 2.290831 0.237507
v -0.166072 2.302317 0.042252
v 0.165455 2.303170 0.430492
v -0.268853 2.400310 0.466758
vt 0.329896 0.296050
vt 0.386942 0.359135
vt 0.272883 0.359132
vt 0.476439 0.308019
vt 0.201992 0.315768
vt 0.329914 0.270440
vt 0.506259 0.747456
vt 0.328356 0.745255
vt 0.161321 0.744343
vt 0.000526 0.751946
vt 0.733716 0.758147
vt 0.609328 0.193682
vt 0.744533 0.007562
vt 0.804700 0.193633
vt 0.744519 0.379821
vt 0.963374 0.308758
vt 0.963374 0.078632
vn -0.200000 -0.960100 0.195600
vn -0.832600 -0.407100 -0.375600
vn 0.094200 -0.673200 -0.733500
vn -0.742900 -0.220800 0.631900
vn 0.756900 -0.651400 0.052900
vn 0.239500 -0.371800 0.896900
vn -0.754100 0.654600 -0.053700
vn -0.238000 0.375600 -0.895700
vn 0.742100 0.225000 -0.631300
vn 0.831500 0.410900 0.373700
vn -0.092900 0.676300 0.730700
vn 0.199900 0.960000 -0.195800
vn 0.014500 -0.989100 -0.146200
vn -0.852900 -0.514700 0.087400
vn -0.412800 -0.372400 -0.831200
vn -0.105000 -0.607500 0.787300
vn 0.607200 -0.377400 -0.699200
vn 0.797500 -0.522600 0.301200
vn -0.605900 0.381300 0.698200
vn -0.795700 0.526200 -0.299800
vn 0.104700 0.610900 -0.784700
vn 0.850800 0.518300 -0.086500
vn 0.411800 0.376400 0.829900
vn -0.014700 0.989100 0.146200
vn 0.052400 -0.996000 0.071900
vn -0.673700 -0.556400 -0.486400
vn 0.307800 -0.526900 -0.792200
vn -0.689400 -0.483400 0.539400
vn 0.898900 -0.435800 0.044600
vn 0.282600 -0.408900 0.867700
vn -0.897100 0.439600 -0.044800
vn -0.282200 0.412800 -0.866000
vn 0.687500 0.487200 -0.538500
vn 0.671800 0.560000 0.484800
vn -0.307300 0.530600 0.789900
vn -0.052400 0.996000 -0.072100
vn -0.042600 -0.999000 0.015700
vn -0.714400 -0.462200 -0.525300
vn 0.270600 -0.508900 -0.817200
vn -0.740900 -0.445200 0.502800
vn 0.853100 -0.520700 0.030400
vn 0.227900 -0.481400 0.846300
vn -0.850900 0.524400 -0.030400
vn -0.227200 0.485100 -0.844400
vn 0.739400 0.449000 -0.501600
vn 0.712900 0.466000 0.523900
vn -0.269700 0.512600 0.815100
vn 0.042500 0.999000 -0.015900
vn 0.002900 -0.998900 -0.047200
vn 0.335300 -0.520600 0.785200
vn -0.664400 -0.512100 0.544200
vn 0.873700 -0.478000 -0.090100
vn -0.744200 -0.464300 -0.480100
vn 0.206500 -0.443200 -0.872300
vn 0.742500 0.468100 0.479100
vn -0.206000 0.447000 0.870400
vn -0.871600 0.481800 0.090100
vn -0.334500 0.524300 -0.783000
vn 0.662800 0.515800 -0.542700
vn -0.002900 0.998900 0.047400
vn 0.018400 -0.999700 -0.014200
vn 0.754900 -0.476500 0.450600
vn -0.195100 -0.499600 0.844000
vn 0.674200 -0.463800 -0.574700
vn -0.863100 -0.501200 0.061800
vn -0.325800 -0.479100 -0.815100
vn 0.860900 0.504900 -0.061600
vn 0.324900 0.482800 0.813200
vn -0.672700 0.467600 0.573300
vn -0.753100 0.480300 -0.449400
vn 0.194500 0.503400 -0.841900
vn -0.018300 0.999700 0.014300
usemtl foliage1
s 1
f 1/1/1 2/2/2 3/3/3
f 2/2/2 1/1/1 6/4/4
f 1/1/1 3/3/3 4/5/5
f 1/1/1 4/5/5 5/6/6
f 1/1/1 5/6/6 6/4/4
f 2/2/2 6/4/4 11/7/7
f 3/3/3 2/2/2 7/8/8
f 4/5/5 3/3/3 8/9/9
f 5/6/6 4/5/5 9/10/10
f 6/4/4 5/6/6 10/11/11
f 2/2/2 11/7/7 7/8/8
f 3/3/3 7/8/8 8/9/9
f 4/5/5 8/9/9 9/10/10
f 5/6/6 9/10/10 10/11/11
f 6/4/4 10/11/11 11/7/7
f 7/12/8 11/13/7 12/14/12
f 8/15/9 7/12/8 12/14/12
f 9/16/10 8/15/9 12/14/12
f 10/17/11 9/16/10 12/14/12
f 11/13/7 10/17/11 12/14/12
f 13/1/13 14/2/14 15/3/15
f 14/2/14 13/1/13 18/4/16
f 13/1/13 15/3/15 16/5/17
f 13/1/13 16/5/17 17/6/18
f 13/1/13 17/6/18 18/4/16
f 14/2/14 18/4/16 23/7/19
f 15/3/15 14/2/14 19/8/20
f 16/5/17 15/3/15 20/9/21
f 17/6/18 16/5/17 21/10/22
f 18/4/16 17/6/18 22/11/23
f 14/2/14 23/7/19 19/8/20
f 15/3/15 19/8/20 20/9/21
f 16/5/17 20/9/21 21/10/22
f 17/6/18 21/10/22 22/11/23
f 18/4/16 22/11/23 23/7/19
f 19/12/20 23/13/19 24/14/24
f 20/15/21 19/12/20 24/14/24
f 21/16/22 20/15/21 24/14/24
f 22/17/23 21/16/22 24/14/24
f 23/13/19 22/17/23 24/14/24
f 25/1/25 26/2/26 27/3/27
f 26/2/26 25/1/25 30/4/28
f 25/1/25 27/3/27 28/5/29
f 25/1/25 28/5/29 29/6/30
f 25/1/25 29/6/30 30/4/28
f 26/2/26 30/4/28 35/7/31
f 27/3/27 26/2/26 31/8/32
f 28/5/29 27/3/27 32/9/33
f 29/6/30 28/5/29 33/10/34
f 30/4/28 29/6/30 34/11/35
f 26/2/26 35/7/31 31/8/32
f 27/3/27 31/8/32 32/9/33
f 28/5/29 32/9/33 33/10/34
f 29/6/30 33/10/34 34/11/35
f 30/4/28 34/11/35 35/7/31
f 31/12/32 35/13/31 36/14/36
f 32/15/33 31/12/32 36/14/36
f 33/16/34 32/15/33 36/14/36
f 34/17/35 33/16/34 36/14/36
f 35/13/31 34/17/35 36/14/36
f 37/1/37 38/2/38 39/3/39
f 38/2/38 37/1/37 42/4/40
f 37/1/37 39/3/39 40/5/41
f 37/1/37 40/5/41 41/6/42
f 37/1/37 41/6/42 42/4/40
f 38/2/38 42/4/40 47/7/43
f 39/3/39 38/2/38 43/8/44
f 40/5/41 39/3/39 44/9/45
f 41/6/42 40/5/41 45/10/46
f 42/4/40 41/6/42 46/11/47
f 38/2/38 47/7/43 43/8/44
f 39/3/39 43/8/44 44/9/45
f 40/5/41 44/9/45 45/10/46
f 41/6/42 45/10/46 46/11/47
f 42/4/40 46/11/47 47/7/43
f 43/12/44 47/13/43 48/14/48
f 44/15/45 43/12/44 48/14/48
f 45/16/46 44/15/45 48/14/48
f 46/17/47 45/16/46 48/14/48
f 47/13/43 46/17/47 48/14/48
f 49/1/49 50/2/50 51/3/51
f 50/2/50 49/1/49 54/4/52
f 49/1/49 51/3/51 52/5/53
f 49/1/49 52/5/53 53/6/54
f 49/1/49 53/6/54 54/4/52
f 50/2/50 54/4/52 59/7/55
f 51/3/51 50/2/50 55/8/56
f 52/5/53 51/3/51 56/9/57
f 53/6/54 52/5/53 57/10/58
f 54/4/52 53/6/54 58/11/59
f 50/2/50 59/7/55 55/8/56
f 51/3/51 55/8/56 56/9/57
f 52/5/53 56/9/57 57/10/58
f 53/6/54 57/10/58 58/11/59
f 54/4/52 58/11/59 59/7/55
f 55/12/56 59/13/55 60/14/60
f 56/15/57 55/12/56 60/14/60
f 57/16/58 56/15/57 60/14/60
f 58/17/59 57/16/58 60/14/60
f 59/13/55 58/17/59 60/14/60
f 61/1/61 62/2/62 63/3/63
f 62/2/62 61/1/61 66/4/64
f 61/1/61 63/3/63 64/5/65
f 61/1/61 64/5/65 65/6/66
f 61/1/61 65/6/66 66/4/64
f 62/2/62 66/4/64 71/7/67
f 63/3/63 62/2/62 67/8/68
f 64/5/65 63/3/63 68/9/69
f 65/6/66 64/5/65 69/10/70
f 66/4/64 65/6/66 70/11/71
f 62/2/62 71/7/67 67/8/68
f 63/3/63 67/8/68 68/9/69
f 64/5/65 68/9/69 69/10/70
f 65/6/66 69/10/70 70/11/71
f 66/4/64 70/11/71 71/7/67
f 67/12/68 71/13/67 72/14/72
f 68/15/69 67/12/68 72/14/72
f 69/16/70 68/15/69 72/14/72
f 70/17/71 69/16/70 72/14/72
f 71/13/67 70/17/71 72/14/72
o Cylinder.003
v 0.009677 1.108953 0.098621
v 0.053592 1.446288 0.657003
v 0.001865 1.165064 0.061394
v 0.050232 1.453412 0.639622
v 0.063410 1.186777 0.043062
v 0.067039 1.457625 0.631626
v 0.109259 1.144086 0.068959
v 0.080786 1.453104 0.644066
v 0.076050 1.095988 0.103297
v 0.072475 1.446098 0.659750
v 0.044679 1.310167 0.587577
v 0.041371 1.333747 0.568567
v 0.069148 1.343110 0.560259
v 0.089623 1.325318 0.574133
v 0.074500 1.304958 0.591017
v -0.052063 1.846143 0.091714
v -0.312587 2.067569 0.511169
v -0.039514 1.890451 0.064425
v -0.308497 2.078804 0.500233
v 0.008150 1.907597 0.081734
v -0.293918 2.084627 0.504247
v 0.025058 1.873886 0.119722
v -0.288997 2.076990 0.517665
v -0.012155 1.835905 0.125890
v -0.300535 2.066447 0.521943
v -0.240644 1.953409 0.382408
v -0.236501 1.981453 0.371243
v -0.211001 1.992784 0.383476
v -0.199384 1.971743 0.402201
v -0.217705 1.947408 0.401541
v 0.010684 1.321443 -0.037220
v -0.388629 1.640880 -0.228553
v 0.042379 1.368594 -0.029940
v -0.372802 1.646941 -0.222441
v 0.032144 1.388856 0.022649
v -0.375589 1.654533 -0.206341
v -0.005877 1.354227 0.047870
v -0.393138 1.653164 -0.202503
v -0.019140 1.312564 0.010869
v -0.401198 1.644726 -0.216230
v -0.301686 1.487074 -0.196008
v -0.276109 1.509982 -0.187152
v -0.284252 1.523810 -0.155531
v -0.314860 1.509447 -0.144844
v -0.325635 1.486743 -0.169860
v 0.092509 1.707879 -0.027174
v 0.208992 1.952638 -0.473758
v 0.088786 1.752187 0.002631
v 0.204765 1.954336 -0.457933
v 0.038121 1.769333 0.000521
v 0.188406 1.956071 -0.457193
v 0.010531 1.735622 -0.030588
v 0.182522 1.955444 -0.472561
v 0.044145 1.697641 -0.047704
v 0.195245 1.953323 -0.482798
v 0.195563 1.822282 -0.383978
v 0.194042 1.846735 -0.369783
v 0.167587 1.856561 -0.372090
v 0.152758 1.838181 -0.387712
v 0.170048 1.816996 -0.395059
v 0.136628 0.838581 0.085949
v 0.601837 1.312427 -0.007332
v 0.098795 0.897449 0.098646
v 0.581050 1.320168 -0.002916
v 0.072159 0.920230 0.036762
v 0.569274 1.319982 -0.022224
v 0.093531 0.875441 -0.014181
v 0.582783 1.312125 -0.038573
v 0.133374 0.824979 0.016218
v 0.602907 1.307456 -0.029370
v 0.495203 1.145776 0.023445
v 0.469770 1.181618 0.031614
v 0.453656 1.196306 -0.007410
v 0.469130 1.169541 -0.039697
v 0.494808 1.138312 -0.020627
v 0.048619 -0.026411 -0.221995
v 0.048619 2.473882 -0.097120
v 0.281508 -0.026411 -0.052791
v 0.162746 2.473882 -0.014202
v 0.192553 -0.026411 0.220987
v 0.119153 2.473882 0.119962
v -0.095314 -0.026410 0.220987
v -0.021915 2.473882 0.119962
v -0.184270 -0.026411 -0.052791
v -0.065508 2.473882 -0.014202
v 0.048619 0.338113 -0.121298
v 0.185740 0.338113 -0.021674
v 0.133365 0.338113 0.139522
v -0.036126 0.338113 0.139522
v -0.088502 0.338113 -0.021674
vt 0.506252 0.710181
vt 0.490429 0.996644
vt 0.464857 0.980742
vt 0.456867 0.715172
vt 0.436306 0.981040
vt 0.403331 0.722544
vt 0.411759 1.000443
vt 0.350401 0.726446
vt 0.555114 0.713690
vt 0.522546 1.007270
vt 0.603671 0.724370
vt 0.552864 0.999836
vt 0.714967 0.008152
vt 0.619033 0.025676
vt 0.511737 0.017343
vt 0.335715 -0.019895
vt 0.253003 0.007505
vt 0.422426 -0.010866
vt 0.545992 -0.203399
vt 0.533106 1.468570
vt 0.409078 1.469232
vt 0.377455 -0.202838
vt 0.285383 1.472829
vt 0.214548 -0.182524
vt 0.155701 1.479133
vt 0.063784 -0.142292
vt 0.713079 -0.182627
vt 0.657035 1.470941
vt 0.868057 -0.140945
vt 0.780390 1.476247
vt 1.019757 -0.382185
vt 0.779248 -0.476537
vt 0.548053 -0.501424
vt 0.122956 -0.438225
vt -0.071785 -0.347282
vt 0.330481 -0.486706
vn -0.670300 -0.517400 0.531900
vn -0.674300 -0.299100 0.675200
vn -0.893700 0.273900 -0.355200
vn -0.925700 0.334600 -0.176500
vn 0.188900 0.523300 -0.830900
vn 0.229100 0.775600 -0.588100
vn 0.994000 0.094700 -0.055200
vn 0.998900 0.023300 0.041200
vn 0.385900 -0.672600 0.631300
vn 0.430900 -0.387200 0.815100
vn 0.976900 0.210300 -0.036800
vn 0.447900 -0.821500 0.352900
vn -0.778000 -0.559200 0.286100
vn 0.196800 0.937700 -0.286200
vn -0.807200 0.576000 -0.128600
vn -0.786700 -0.607100 -0.111400
vn -0.836900 -0.547000 0.019400
vn -0.630100 0.407800 -0.660800
vn -0.661900 0.431000 -0.613200
vn 0.468400 0.827900 -0.308500
vn 0.383900 0.904600 -0.185300
vn 0.821600 0.078300 0.564700
vn 0.803100 0.064300 0.592300
vn 0.062500 -0.811600 0.580800
vn 0.017700 -0.704300 0.709600
vn 0.799600 0.238400 0.551100
vn 0.202800 -0.845600 0.493800
vn -0.769500 -0.569300 -0.289300
vn 0.284400 0.956700 -0.061500
vn -0.577300 0.602900 -0.550600
vn -0.115300 -0.537400 -0.835400
vn -0.301400 -0.353100 -0.885700
vn 0.708900 0.334800 -0.620700
vn 0.604400 0.335500 -0.722600
vn 0.518200 0.599600 0.609800
vn 0.407500 0.808700 0.424100
vn -0.488100 0.082200 0.868900
vn -0.489000 0.063100 0.870000
vn -0.762200 -0.646000 0.041100
vn -0.907700 -0.413300 0.071800
vn -0.429600 0.235300 0.871800
vn -0.581000 -0.777100 0.242100
vn 0.078300 -0.605600 -0.791900
vn 0.227100 0.926000 0.301600
vn 0.552900 0.506100 -0.661900
vn 0.803200 -0.555100 -0.216300
vn 0.775400 -0.407900 -0.482000
vn 0.783200 0.341000 0.519900
vn 0.815700 0.387500 0.429400
vn -0.493000 0.620600 0.609800
vn -0.371700 0.834500 0.406700
vn -0.908200 -0.064200 -0.413600
vn -0.931100 0.006500 -0.364700
vn -0.162200 -0.750900 -0.640200
vn -0.094400 -0.527500 -0.844200
vn -0.922300 0.249200 -0.295200
vn -0.345400 -0.841900 -0.414600
vn 0.816000 -0.575800 0.050900
vn -0.252200 0.958100 0.135900
vn 0.711800 0.605700 0.355500
vn 0.631400 -0.431700 0.644200
vn 0.711400 -0.341800 0.614100
vn -0.135000 0.339400 0.930900
vn -0.154900 0.385900 0.909400
vn -0.735200 0.667400 -0.118200
vn -0.668400 0.731300 -0.135900
vn -0.060400 0.054800 -0.996600
vn -0.113700 0.090600 -0.989300
vn 0.644000 -0.603600 -0.470000
vn 0.765700 -0.505400 -0.397700
vn -0.136900 0.089300 -0.986500
vn 0.543400 -0.683800 -0.486800
vn 0.557100 -0.518500 0.648600
vn -0.591000 0.792700 -0.149500
vn -0.146400 0.404100 0.902900
vn 0.000000 0.147100 -0.989100
vn 0.000000 0.011300 -0.999900
vn 0.951000 0.011300 -0.309000
vn 0.940700 0.147100 -0.305600
vn 0.587700 0.011300 0.809000
vn 0.581400 0.147100 0.800200
vn -0.587700 0.011300 0.809000
vn -0.581400 0.147100 0.800200
vn -0.940700 0.147100 -0.305600
vn -0.951000 0.011300 -0.309000
vn -0.566500 0.266200 0.779800
vn -0.916700 0.266200 -0.297900
vn 0.000000 0.266200 -0.963900
vn 0.566500 0.266200 0.779800
vn 0.916700 0.266200 -0.297900
usemtl wood
s 1
f 83/18/73 74/19/74 76/20/75 84/21/76
f 84/21/76 76/20/75 78/22/77 85/23/78
f 85/23/78 78/22/77 80/24/79 86/25/80
f 87/26/81 82/27/82 74/19/74 83/18/73
f 86/28/80 80/29/79 82/27/82 87/26/81
f 79/30/83 86/28/80 87/26/81 81/31/84
f 81/31/84 87/26/81 83/18/73 73/32/85
f 77/33/86 85/23/78 86/25/80 79/34/83
f 75/35/87 84/21/76 85/23/78 77/33/86
f 73/32/85 83/18/73 84/21/76 75/35/87
f 98/18/88 89/19/89 91/20/90 99/21/91
f 99/21/91 91/20/90 93/22/92 100/23/93
f 100/23/93 93/22/92 95/24/94 101/25/95
f 102/26/96 97/27/97 89/19/89 98/18/88
f 101/28/95 95/29/94 97/27/97 102/26/96
f 94/30/98 101/28/95 102/26/96 96/31/99
f 96/31/99 102/26/96 98/18/88 88/32/100
f 92/33/101 100/23/93 101/25/95 94/34/98
f 90/35/102 99/21/91 100/23/93 92/33/101
f 88/32/100 98/18/88 99/21/91 90/35/102
f 113/18/103 104/19/104 106/20/105 114/21/106
f 114/21/106 106/20/105 108/22/107 115/23/108
f 115/23/108 108/22/107 110/24/109 116/25/110
f 117/26/111 112/27/112 104/19/104 113/18/103
f 116/28/110 110/29/109 112/27/112 117/26/111
f 109/30/113 116/28/110 117/26/111 111/31/114
f 111/31/114 117/26/111 113/18/103 103/32/115
f 107/33/116 115/23/108 116/25/110 109/34/113
f 105/35/117 114/21/106 115/23/108 107/33/116
f 103/32/115 113/18/103 114/21/106 105/35/117
f 128/18/118 119/19/119 121/20/120 129/21/121
f 129/21/121 121/20/120 123/22/122 130/23/123
f 130/23/123 123/22/122 125/24/124 131/25/125
f 132/26/126 127/27/127 119/19/119 128/18/118
f 131/28/125 125/29/124 127/27/127 132/26/126
f 124/30/128 131/28/125 132/26/126 126/31/129
f 126/31/129 132/26/126 128/18/118 118/32/130
f 122/33/131 130/23/123 131/25/125 124/34/128
f 120/35/132 129/21/121 130/23/123 122/33/131
f 118/32/130 128/18/118 129/21/121 120/35/132
f 143/18/133 134/19/134 136/20/135 144/21/136
f 144/21/136 136/20/135 138/22/137 145/23/138
f 145/23/138 138/22/137 140/24/139 146/25/140
f 147/26/141 142/27/142 134/19/134 143/18/133
f 146/28/140 140/29/139 142/27/142 147/26/141
f 139/30/143 146/28/140 147/26/141 141/31/144
f 141/31/144 147/26/141 143/18/133 133/32/145
f 137/33/146 145/23/138 146/25/140 139/34/143
f 135/35/147 144/21/136 145/23/138 137/33/146
f 133/32/145 143/18/133 144/21/136 135/35/147
f 158/36/148 149/37/149 151/38/150 159/39/151
f 159/39/151 151/38/150 153/40/152 160/41/153
f 160/41/153 153/40/152 155/42/154 161/43/155
f 162/44/156 157/45/157 149/37/149 158/36/148
f 161/46/155 155/47/154 157/45/157 162/44/156
f 154/48/158 161/46/155 162/44/156 156/49/159
f 156/49/159 162/44/156 158/36/148 148/50/160
f 152/51/161 160/41/153 161/43/155 154/52/158
f 150/53/162 159/39/151 160/41/153 152/51/161
f 148/50/160 158/36/148 159/39/151 150/53/162
