# Blender v2.76 (sub 0) OBJ File: 'hillTree3.blend'
# www.blender.org
mtllib hillTree3.mtl
o Cube.004
v 0.078788 1.932742 0.189409
v 0.080915 2.123636 0.168920
v -0.142258 1.938700 0.026100
v -0.116956 2.128969 0.022733
v 0.242107 1.930601 -0.031737
v 0.227111 2.121719 -0.029041
v 0.021061 1.936558 -0.195047
v 0.029240 2.127053 -0.175228
v 0.079657 1.964331 0.189330
v -0.141390 1.970289 0.026020
v 0.021929 1.968148 -0.195127
v 0.242976 1.962190 -0.031817
v 0.079030 1.966639 0.185483
v -0.137432 1.972473 0.025561
v 0.022500 1.970376 -0.190998
v 0.238961 1.964542 -0.031076
v -0.239754 1.638873 0.121036
v -0.201657 1.941730 0.109114
v -0.073449 1.635573 -0.283456
v -0.052787 1.938777 -0.252969
v 0.164726 1.631898 0.287384
v 0.160416 1.935487 0.258022
v 0.331031 1.628598 -0.117108
v 0.309285 1.932533 -0.104062
v -0.238356 1.689131 0.121143
v -0.072051 1.685832 -0.283349
v 0.332429 1.678857 -0.117001
v 0.166123 1.682156 0.287491
v -0.232598 1.692636 0.118598
v -0.069742 1.689405 -0.277504
v 0.326347 1.682574 -0.114607
v 0.163492 1.685806 0.281495
v -0.327882 1.186587 0.285914
v -0.277134 1.640622 0.256562
v -0.247571 1.185809 -0.364595
v -0.205243 1.639925 -0.325746
v 0.322598 1.175041 0.366222
v 0.305147 1.630286 0.328450
v 0.402909 1.174263 -0.284287
v 0.377038 1.629590 -0.253857
v -0.325753 1.261906 0.286006
v -0.245442 1.261128 -0.364503
v 0.405037 1.249582 -0.284195
v 0.324726 1.250360 0.366315
v -0.318432 1.267190 0.280082
v -0.239787 1.266428 -0.356933
v 0.397199 1.255122 -0.278291
v 0.318554 1.255884 0.358724
v -0.418087 0.583337 0.435435
v -0.363726 1.187992 0.390267
v -0.418002 0.584935 -0.436009
v -0.363650 1.189423 -0.389811
v 0.453482 0.581356 0.435495
v 0.416465 1.186219 0.390321
v 0.453567 0.582955 -0.435949
v 0.416540 1.187650 -0.389757
v -0.416561 0.683504 0.435512
v -0.416476 0.685102 -0.435932
v 0.455093 0.683122 -0.435871
v 0.455008 0.681523 0.435573
v -0.407956 0.690689 0.426524
v -0.407873 0.692255 -0.426842
v 0.445616 0.690315 -0.426783
v 0.445533 0.688750 0.426584
vt 0.011167 0.852870
vt 0.370558 0.970131
vt 0.371939 0.999842
vt 0.000158 0.887964
vt 0.719170 0.834368
vt 0.729524 0.861042
vt 0.128502 0.717044
vt 0.243516 0.350613
vt 0.273233 0.348922
vt 0.164383 0.727793
vt 0.103151 0.010905
vt 0.129168 0.000158
vt 0.273550 0.000158
vt 0.638208 0.000158
vt 0.638208 0.364817
vt 0.273550 0.364817
vt 0.236607 0.350604
vt 0.099917 0.017020
vt 0.122521 0.707500
vt 0.370083 0.963258
vt 0.708874 0.829463
vt 0.017649 0.849219
vt 0.599976 0.691560
vt 0.273550 0.691560
vt 0.273550 0.365133
vt 0.599976 0.365133
vt 0.069219 0.728109
vt 0.370208 0.818000
vt 0.659287 0.728109
vt 0.000158 0.655348
vt 0.091096 0.351233
vt 0.000158 0.066914
vn -0.593800 0.018400 0.804400
vn -0.804100 0.020600 -0.594100
vn 0.593800 -0.018400 -0.804400
vn 0.804100 -0.020600 0.594100
vn -0.022100 -0.999700 -0.006600
vn 0.519000 0.767700 0.375900
vn 0.375800 0.792800 -0.479800
vn -0.482000 0.797100 -0.363700
vn -0.364900 0.771000 0.521900
vn 0.022100 0.999700 0.006600
vn -0.590100 0.091700 0.802100
vn -0.800400 0.094000 -0.592000
vn 0.594300 0.055200 -0.802400
vn 0.803500 0.052900 0.592900
vn -0.924500 0.026500 -0.380300
vn 0.380200 -0.008600 -0.924900
vn 0.924500 -0.026500 0.380300
vn -0.380200 0.008600 0.924900
vn -0.017600 -0.999800 0.000900
vn -0.223500 0.786000 0.576400
vn 0.571700 0.788000 0.228600
vn 0.249900 0.779100 -0.575000
vn -0.580800 0.776300 -0.245100
vn 0.017600 0.999800 -0.000900
vn -0.920000 0.099800 -0.379100
vn 0.380500 0.064900 -0.922500
vn 0.924000 0.047100 0.379500
vn -0.377900 0.082000 0.922200
vn -0.992100 0.028200 -0.122500
vn 0.122500 -0.002200 -0.992500
vn 0.992100 -0.028200 0.122500
vn -0.122500 0.002200 0.992500
vn -0.017600 -0.999800 -0.001000
vn -0.062700 0.782000 0.620100
vn 0.612500 0.787000 0.074700
vn 0.089900 0.783000 -0.615400
vn -0.624200 0.777300 -0.078000
vn 0.017600 0.999800 0.001000
vn -0.987300 0.101500 -0.122000
vn 0.123500 0.071200 -0.989800
vn 0.991400 0.045400 0.122300
vn -0.120900 0.075700 0.989800
vn -0.999900 0.015200 -0.000100
vn 0.000100 0.000800 -1.000000
vn 0.999900 -0.015200 0.000100
vn -0.000100 -0.000800 1.000000
vn -0.002300 -1.000000 -0.001800
vn 0.001700 0.780300 0.625400
vn 0.605500 0.795800 0.001500
vn 0.001800 0.785000 -0.619400
vn -0.640100 0.768300 0.001300
vn 0.002300 1.000000 0.001800
vn -0.996100 0.088600 0.000100
vn 0.000200 0.074300 -0.997200
vn 0.998300 0.058300 0.000200
vn 0.000100 0.072700 0.997400
usemtl foliage
s off
f 9/1/1 10/2/1 3/3/1 1/4/1
f 10/2/2 11/5/2 7/6/2 3/3/2
f 11/7/3 12/8/3 5/9/3 7/10/3
f 12/8/4 9/11/4 1/12/4 5/9/4
f 1/13/5 3/14/5 7/15/5 5/16/5
f 16/17/6 13/18/6 9/11/6 12/8/6
f 15/19/7 16/17/7 12/8/7 11/7/7
f 14/20/8 15/21/8 11/5/8 10/2/8
f 13/22/9 14/20/9 10/2/9 9/1/9
f 2/23/10 6/24/10 8/25/10 4/26/10
f 2/27/11 4/28/11 14/20/11 13/22/11
f 4/28/12 8/29/12 15/21/12 14/20/12
f 8/30/13 6/31/13 16/17/13 15/19/13
f 6/31/14 2/32/14 13/18/14 16/17/14
f 25/1/15 26/2/15 19/3/15 17/4/15
f 26/2/16 27/5/16 23/6/16 19/3/16
f 27/7/17 28/8/17 21/9/17 23/10/17
f 28/8/18 25/11/18 17/12/18 21/9/18
f 17/13/19 19/14/19 23/15/19 21/16/19
f 32/17/20 29/18/20 25/11/20 28/8/20
f 31/19/21 32/17/21 28/8/21 27/7/21
f 30/20/22 31/21/22 27/5/22 26/2/22
f 29/22/23 30/20/23 26/2/23 25/1/23
f 18/23/24 22/24/24 24/25/24 20/26/24
f 18/27/25 20/28/25 30/20/25 29/22/25
f 20/28/26 24/29/26 31/21/26 30/20/26
f 24/30/27 22/31/27 32/17/27 31/19/27
f 22/31/28 18/32/28 29/18/28 32/17/28
f 41/1/29 42/2/29 35/3/29 33/4/29
f 42/2/30 43/5/30 39/6/30 35/3/30
f 43/7/31 44/8/31 37/9/31 39/10/31
f 44/8/32 41/11/32 33/12/32 37/9/32
f 33/13/33 35/14/33 39/15/33 37/16/33
f 48/17/34 45/18/34 41/11/34 44/8/34
f 47/19/35 48/17/35 44/8/35 43/7/35
f 46/20/36 47/21/36 43/5/36 42/2/36
f 45/22/37 46/20/37 42/2/37 41/1/37
f 34/23/38 38/24/38 40/25/38 36/26/38
f 34/27/39 36/28/39 46/20/39 45/22/39
f 36/28/40 40/29/40 47/21/40 46/20/40
f 40/30/41 38/31/41 48/17/41 47/19/41
f 38/31/42 34/32/42 45/18/42 48/17/42
f 57/1/43 58/2/43 51/3/43 49/4/43
f 58/2/44 59/5/44 55/6/44 51/3/44
f 59/7/45 60/8/45 53/9/45 55/10/45
f 60/8/46 57/11/46 49/12/46 53/9/46
f 49/13/47 51/14/47 55/15/47 53/16/47
f 64/17/48 61/18/48 57/11/48 60/8/48
f 63/19/49 64/17/49 60/8/49 59/7/49
f 62/20/50 63/21/50 59/5/50 58/2/50
f 61/22/51 62/20/51 58/2/51 57/1/51
f 50/23/52 54/24/52 56/25/52 52/26/52
f 50/27/53 52/28/53 62/20/53 61/22/53
f 52/28/54 56/29/54 63/21/54 62/20/54
f 56/30/55 54/31/55 64/17/55 63/19/55
f 54/31/56 50/32/56 61/18/56 64/17/56
o wood_Cylinder
v 0.002971 -0.719296 -0.173229
v 0.002999 0.732310 -0.098680
v 0.114899 -0.719296 -0.132491
v 0.067025 0.732310 -0.075376
v 0.174454 -0.719296 -0.029338
v 0.101093 0.732310 -0.016369
v 0.153771 -0.719296 0.087964
v 0.089261 0.732310 0.050732
v 0.062527 -0.719296 0.164527
v 0.037066 0.732310 0.094528
v -0.056584 -0.719296 0.164527
v -0.031069 0.732310 0.094528
v -0.147829 -0.719296 0.087964
v -0.083264 0.732310 0.050732
v -0.168512 -0.719296 -0.029338
v -0.095096 0.732310 -0.016369
v -0.108957 -0.719296 -0.132491
v -0.061028 0.732310 -0.075376
v 0.002971 -0.145677 -0.129905
v 0.002999 0.322497 -0.124516
v 0.085062 0.310834 -0.094796
v 0.089613 -0.150473 -0.102132
v 0.126537 0.322497 -0.020855
v 0.131788 -0.145677 -0.021814
v 0.116113 0.313100 0.062155
v 0.119460 -0.156500 0.065729
v 0.045903 0.322497 0.118807
v 0.047709 -0.145677 0.123815
v -0.031323 0.346951 0.106304
v -0.046961 -0.151690 0.132219
v -0.105639 0.322497 0.063650
v -0.110308 -0.145677 0.066301
v -0.120540 0.322497 -0.020855
v -0.125846 -0.145677 -0.021814
v -0.081457 0.313166 -0.102552
v -0.069658 -0.139934 -0.091864
vt 0.555549 0.645555
vt 0.555549 0.999219
vt 0.444451 0.999219
vt 0.444451 0.645555
vt 0.333352 0.999218
vt 0.333352 0.645554
vt 0.222254 0.999218
vt 0.222254 0.645554
vt 0.111155 0.999217
vt 0.111156 0.645553
vt 0.000057 0.999217
vt 0.000057 0.645553
vt 0.999943 0.645556
vt 0.999943 0.999220
vt 0.888844 0.999220
vt 0.888844 0.645555
vt 0.777746 0.999219
vt 0.777746 0.645555
vt 0.666648 0.645555
vt 0.666648 0.999219
vt 0.777746 -0.061773
vt 0.777746 0.291891
vt 0.666648 0.291891
vt 0.666648 -0.061773
vt 0.555549 0.291891
vt 0.555549 -0.061773
vt 0.888845 -0.061773
vt 0.888844 0.291891
vt 0.999943 -0.061773
vt 0.999943 0.291892
vt 0.111156 -0.061774
vt 0.111156 0.291890
vt 0.000057 0.291889
vt 0.000058 -0.061775
vt 0.222254 -0.061774
vt 0.222254 0.291890
vt 0.333353 -0.061773
vt 0.333352 0.291890
vt 0.444451 -0.061773
vt 0.444451 0.291891
vn 0.005700 0.037000 -0.999300
vn 0.026300 0.066900 -0.997400
vn 0.643200 0.062800 -0.763100
vn 0.645100 0.036700 -0.763200
vn 0.980800 0.065200 -0.183700
vn 0.982400 0.040400 -0.182500
vn 0.867100 0.066300 0.493600
vn 0.871000 0.036400 0.489900
vn 0.300800 0.056500 0.952000
vn 0.316100 0.039600 0.947900
vn -0.336800 0.044500 0.940500
vn -0.335000 0.041100 0.941300
vn -0.840800 0.054600 0.538600
vn -0.852100 0.039300 0.521900
vn -0.985900 0.066400 -0.153400
vn -0.984600 0.034400 -0.171600
vn -0.636600 0.027200 -0.770700
vn -0.638500 0.073000 -0.766100
vn -0.975500 0.082300 -0.203800
vn -0.979100 0.042400 -0.198800
vn -0.635100 0.035100 -0.771600
vn -0.637200 0.084600 -0.766100
vn -0.026500 0.041800 -0.998700
vn -0.033400 0.079300 -0.996300
vn -0.874800 0.070400 0.479400
vn -0.867200 0.047900 0.495600
vn -0.343800 0.068400 0.936500
vn -0.343400 0.053000 0.937700
vn 0.356700 0.070800 0.931500
vn 0.340300 0.045600 0.939200
vn 0.865000 0.074100 0.496300
vn 0.868800 0.045200 0.493100
vn 0.982600 0.072400 -0.170900
vn 0.983400 0.040700 -0.176600
vn 0.641200 0.072700 -0.763900
vn 0.643100 0.045200 -0.764400
usemtl wood
s 1
f 84/33/57 66/34/58 68/35/59 85/36/60
f 85/36/60 68/35/59 70/37/61 87/38/62
f 87/38/62 70/37/61 72/39/63 89/40/64
f 89/40/64 72/39/63 74/41/65 91/42/66
f 91/42/66 74/41/65 76/43/67 93/44/68
f 93/45/68 76/46/67 78/47/69 95/48/70
f 95/48/70 78/47/69 80/49/71 97/50/72
f 99/51/73 82/52/74 66/34/58 84/33/57
f 97/50/72 80/49/71 82/52/74 99/51/73
f 79/53/75 98/54/76 100/55/77 81/56/78
f 98/54/76 97/50/72 99/51/73 100/55/77
f 81/56/78 100/55/77 83/57/79 65/58/80
f 100/55/77 99/51/73 84/33/57 83/57/79
f 77/59/81 96/60/82 98/54/76 79/53/75
f 96/60/82 95/48/70 97/50/72 98/54/76
f 75/61/83 94/62/84 96/60/82 77/59/81
f 94/62/84 93/45/68 95/48/70 96/60/82
f 73/63/85 92/64/86 94/65/84 75/66/83
f 92/64/86 91/42/66 93/44/68 94/65/84
f 71/67/87 90/68/88 92/64/86 73/63/85
f 90/68/88 89/40/64 91/42/66 92/64/86
f 69/69/89 88/70/90 90/68/88 71/67/87
f 88/70/90 87/38/62 89/40/64 90/68/88
f 67/71/91 86/72/92 88/70/90 69/69/89
f 86/72/92 85/36/60 87/38/62 88/70/90
f 65/58/80 83/57/79 86/72/92 67/71/91
f 83/57/79 84/33/57 85/36/60 86/72/92
