# Blender v2.76 (sub 0) OBJ File: 'hillTree3.blend'
# www.blender.org
mtllib hillTree3.mtl
o leaves_Cone.005
v -0.006954 2.303973 -0.339703
v -0.021466 2.659742 0.008302
v 0.253856 2.307450 -0.216982
v 0.320438 2.309271 0.063421
v 0.142653 2.308065 0.290357
v -0.145621 2.304741 0.292939
v -0.327310 2.301800 0.069222
v -0.265597 2.301459 -0.212330
v 0.133034 2.038901 -0.375971
v -0.019284 2.576109 -0.017443
v 0.320259 2.038095 -0.125726
v 0.325416 2.085571 0.212464
v 0.041617 2.060036 0.366259
v -0.266849 2.047762 0.278187
v -0.375489 2.042691 -0.042621
v -0.193972 2.046255 -0.324044
v 0.236722 1.706064 -0.468957
v -0.007606 2.252429 0.028395
v 0.494182 1.711368 -0.060821
v 0.401190 1.712756 0.383761
v -0.033953 1.738610 0.579405
v -0.433879 1.732508 0.293331
v -0.540330 1.722087 -0.139438
v -0.251240 1.725497 -0.564582
v 0.385453 1.397955 -0.530164
v 0.009299 2.090820 0.006030
v 0.578320 1.434658 -0.052799
v 0.407971 1.431515 0.426005
v -0.092393 1.435162 0.618937
v -0.500641 1.425180 0.272620
v -0.568871 1.407775 -0.175905
v -0.190349 1.438500 -0.603251
v -0.122434 1.091843 -0.630742
v -0.004539 1.829008 0.003828
v 0.400324 1.075905 -0.427585
v 0.657016 1.103030 0.004860
v 0.389405 1.071706 0.521831
v -0.135759 1.076897 0.623277
v -0.603329 1.075075 0.264682
v -0.583814 1.052888 -0.326925
v 0.096881 0.593800 -0.700337
v 0.000002 1.443163 -0.004250
v 0.561181 0.605808 -0.307104
v 0.615455 0.602962 0.254580
v 0.213362 0.627290 0.653639
v -0.353671 0.604797 0.552360
v -0.665779 0.557375 0.062911
v -0.475379 0.550804 -0.487067
vt 0.150924 0.633626
vt 0.520305 0.999853
vt 0.039316 0.801828
vt 0.515844 0.000147
vt 0.520305 0.520286
vt 0.318162 0.041013
vt 0.318162 0.520580
vt 0.039316 0.322261
vt 0.000147 0.520286
vt 0.150924 0.154059
vt 0.000147 0.999853
vt 0.608184 0.045065
vt 0.804984 0.000147
vt 0.962806 0.126006
vt 0.962806 0.327867
vt 0.804984 0.453726
vt 0.608183 0.408808
vt 0.520599 0.226936
vn -0.763400 0.623700 -0.168100
vn 0.308100 0.671600 -0.673800
vn -0.617800 0.612000 0.493700
vn -0.000200 0.625600 0.780100
vn 0.594200 0.653400 0.469000
vn -0.340700 0.650300 -0.679000
vn 0.718400 0.673300 -0.174900
vn 0.011600 -0.999900 0.003700
vn -0.727100 0.507400 -0.462500
vn 0.679400 0.530800 -0.506600
vn -0.807600 0.526800 0.265200
vn -0.248100 0.559000 0.791200
vn 0.344700 0.585900 0.733400
vn -0.121700 0.526900 -0.841200
vn 0.834100 0.544400 -0.089100
vn 0.019900 -0.999300 0.032600
vn -0.584300 0.710800 -0.391600
vn 0.634600 0.655900 -0.408800
vn -0.721300 0.673600 0.161200
vn -0.440100 0.667100 0.601000
vn 0.333400 0.681500 0.651500
vn 0.163600 0.703100 -0.692000
vn 0.737100 0.658500 0.152100
vn -0.020100 -0.999700 0.015200
vn -0.599400 0.636600 -0.485200
vn 0.698100 0.635000 -0.330900
vn -0.772000 0.628700 0.093000
vn -0.512600 0.627400 0.586200
vn 0.283100 0.631200 0.722200
vn 0.140500 0.652500 -0.744600
vn 0.739700 0.617500 0.267200
vn 0.003600 -0.999900 0.013200
vn -0.790300 0.610700 -0.049000
vn 0.307500 0.592100 -0.744900
vn -0.486300 0.604500 0.631000
vn 0.155900 0.611600 0.775600
vn 0.680400 0.620600 0.389800
vn -0.468000 0.618400 -0.631400
vn 0.666400 0.606600 -0.433600
vn 0.018900 -0.999800 -0.003100
vn -0.778200 0.564000 -0.276200
vn 0.519400 0.576300 -0.630900
vn -0.717000 0.569400 0.402100
vn -0.164300 0.592800 0.788400
vn 0.583100 0.596900 0.551100
vn -0.322800 0.577600 -0.749800
vn 0.815400 0.573900 -0.075900
vn 0.038200 -0.998900 0.027300
usemtl leaves
s off
f 7/1/1 2/2/1 8/3/1
f 1/4/2 2/5/2 3/6/2
f 6/7/3 2/2/3 7/1/3
f 5/8/4 2/5/4 6/9/4
f 4/10/5 2/5/5 5/8/5
f 8/3/6 2/2/6 1/11/6
f 3/6/7 2/5/7 4/10/7
f 1/12/8 3/13/8 4/14/8 5/15/8 6/16/8 7/17/8 8/18/8
f 15/1/9 10/2/9 16/3/9
f 9/4/10 10/5/10 11/6/10
f 14/7/11 10/2/11 15/1/11
f 13/8/12 10/5/12 14/9/12
f 12/10/13 10/5/13 13/8/13
f 16/3/14 10/2/14 9/11/14
f 11/6/15 10/5/15 12/10/15
f 9/12/16 11/13/16 12/14/16 13/15/16 14/16/16 15/17/16 16/18/16
f 23/1/17 18/2/17 24/3/17
f 17/4/18 18/5/18 19/6/18
f 22/7/19 18/2/19 23/1/19
f 21/8/20 18/5/20 22/9/20
f 20/10/21 18/5/21 21/8/21
f 24/3/22 18/2/22 17/11/22
f 19/6/23 18/5/23 20/10/23
f 17/12/24 19/13/24 20/14/24 21/15/24 22/16/24 23/17/24 24/18/24
f 31/1/25 26/2/25 32/3/25
f 25/4/26 26/5/26 27/6/26
f 30/7/27 26/2/27 31/1/27
f 29/8/28 26/5/28 30/9/28
f 28/10/29 26/5/29 29/8/29
f 32/3/30 26/2/30 25/11/30
f 27/6/31 26/5/31 28/10/31
f 25/12/32 27/13/32 28/14/32 29/15/32 30/16/32 31/17/32 32/18/32
f 39/1/33 34/2/33 40/3/33
f 33/4/34 34/5/34 35/6/34
f 38/7/35 34/2/35 39/1/35
f 37/8/36 34/5/36 38/9/36
f 36/10/37 34/5/37 37/8/37
f 40/3/38 34/2/38 33/11/38
f 35/6/39 34/5/39 36/10/39
f 33/12/40 35/13/40 36/14/40 37/15/40 38/16/40 39/17/40 40/18/40
f 47/1/41 42/2/41 48/3/41
f 41/4/42 42/5/42 43/6/42
f 46/7/43 42/2/43 47/1/43
f 45/8/44 42/5/44 46/9/44
f 44/10/45 42/5/45 45/8/45
f 48/3/46 42/2/46 41/11/46
f 43/6/47 42/5/47 44/10/47
f 41/12/48 43/13/48 44/14/48 45/15/48 46/16/48 47/17/48 48/18/48
o wood_Cylinder
v 0.002969 -0.723065 -0.205037
v 0.002999 0.821161 -0.105035
v 0.135342 -0.723065 -0.156858
v 0.071110 0.821161 -0.080245
v 0.205776 -0.723065 -0.034863
v 0.107352 0.821161 -0.017473
v 0.181314 -0.723065 0.103865
v 0.094765 0.821161 0.053909
v 0.073403 -0.723065 0.194413
v 0.039240 0.821161 0.100500
v -0.067464 -0.723065 0.194413
v -0.033243 0.821161 0.100500
v -0.175375 -0.723065 0.103865
v -0.088768 0.821161 0.053909
v -0.199837 -0.723065 -0.034863
v -0.101355 0.821161 -0.017473
v -0.129403 -0.723065 -0.156858
v -0.065113 0.821161 -0.080245
v -0.004468 -0.112730 -0.163577
v -0.000496 0.402278 -0.118082
v 0.090298 0.372792 -0.100903
v 0.100831 -0.118149 -0.115506
v 0.137104 0.373002 -0.034302
v 0.148487 -0.112730 -0.024751
v 0.118024 0.377520 0.049107
v 0.134557 -0.124959 0.074170
v 0.048640 0.385200 0.126328
v 0.053481 -0.112730 0.139804
v -0.040878 0.371933 0.113027
v -0.053493 -0.119524 0.149300
v -0.102890 0.363107 0.069328
v -0.125072 -0.112730 0.074816
v -0.128422 0.385200 -0.022245
v -0.142629 -0.112730 -0.024751
v -0.086845 0.375273 -0.109155
v -0.079139 -0.106240 -0.103904
vt 0.555549 0.645555
vt 0.555549 0.999219
vt 0.444451 0.999219
vt 0.444451 0.645555
vt 0.333352 0.999218
vt 0.333352 0.645554
vt 0.222254 0.999218
vt 0.222254 0.645554
vt 0.111155 0.999217
vt 0.111156 0.645553
vt 0.000057 0.999217
vt 0.000057 0.645553
vt 0.999943 0.645556
vt 0.999943 0.999220
vt 0.888844 0.999220
vt 0.888844 0.645555
vt 0.777746 0.999219
vt 0.777746 0.645555
vt 0.666648 0.645555
vt 0.666648 0.999219
vt 0.777746 -0.061773
vt 0.777746 0.291891
vt 0.666648 0.291891
vt 0.666648 -0.061773
vt 0.555549 0.291891
vt 0.555549 -0.061773
vt 0.888845 -0.061773
vt 0.888844 0.291891
vt 0.999943 -0.061773
vt 0.999943 0.291892
vt 0.111156 -0.061774
vt 0.111156 0.291890
vt 0.000057 0.291889
vt 0.000058 -0.061775
vt 0.222254 -0.061774
vt 0.222254 0.291890
vt 0.333353 -0.061773
vt 0.333352 0.291890
vt 0.444451 -0.061773
vt 0.444451 0.291891
vn 0.262400 0.042200 -0.964000
vn 0.839500 0.068400 -0.539000
vn 0.978600 0.053400 0.198600
vn 0.704700 0.043100 0.708200
vn -0.085200 0.043000 0.995400
vn -0.610600 0.039000 0.791000
vn -0.971200 0.047500 0.233600
vn -0.221900 0.053700 -0.973600
vn -0.883500 0.066600 -0.463700
vn -0.829600 0.100900 -0.549100
vn -0.845000 0.004100 -0.534700
vn -0.458300 0.084100 -0.884800
vn -0.395500 0.035600 -0.917800
vn -0.980900 0.089100 0.173000
vn -0.973900 0.037100 0.223800
vn -0.673000 0.080600 0.735300
vn -0.662000 0.056100 0.747400
vn 0.035900 0.082000 0.996000
vn -0.024500 0.050400 0.998400
vn 0.637900 0.088600 0.765000
vn 0.690900 0.042600 0.721700
vn 0.982700 0.087300 0.163200
vn 0.983200 0.034100 0.179400
vn 0.870100 0.086300 -0.485200
vn 0.856800 0.021900 -0.515100
vn 0.375800 0.075900 -0.923600
vn 0.324600 0.058500 -0.944100
usemtl wood
s off
f 68/19/49 50/20/49 52/21/49 69/22/49
f 69/22/50 52/21/50 54/23/50 71/24/50
f 71/24/51 54/23/51 56/25/51 73/26/51
f 73/26/52 56/25/52 58/27/52 75/28/52
f 75/28/53 58/27/53 60/29/53 77/30/53
f 77/31/54 60/32/54 62/33/54 79/34/54
f 79/34/55 62/33/55 64/35/55 81/36/55
f 83/37/56 66/38/56 50/20/56 68/19/56
f 81/36/57 64/35/57 66/38/57 83/37/57
f 63/39/58 82/40/58 84/41/58 65/42/58
f 82/40/59 81/36/59 83/37/59 84/41/59
f 65/42/60 84/41/60 67/43/60 49/44/60
f 84/41/61 83/37/61 68/19/61 67/43/61
f 61/45/62 80/46/62 82/40/62 63/39/62
f 80/46/63 79/34/63 81/36/63 82/40/63
f 59/47/64 78/48/64 80/46/64 61/45/64
f 78/48/65 77/31/65 79/34/65 80/46/65
f 57/49/66 76/50/66 78/51/66 59/52/66
f 76/50/67 75/28/67 77/30/67 78/51/67
f 55/53/68 74/54/68 76/50/68 57/49/68
f 74/54/69 73/26/69 75/28/69 76/50/69
f 53/55/70 72/56/70 74/54/70 55/53/70
f 72/56/71 71/24/71 73/26/71 74/54/71
f 51/57/72 70/58/72 72/56/72 53/55/72
f 70/58/73 69/22/73 71/24/73 72/56/73
f 49/44/74 67/43/74 70/58/74 51/57/74
f 67/43/75 68/19/75 69/22/75 70/58/75
