# Blender v2.76 (sub 0) OBJ File: 'grass4.blend'
# www.blender.org
mtllib grass4LP.mtl
o Plane.016_Plane.032
v -0.811781 -0.046046 2.387429
v -0.690607 0.959724 1.834607
v -0.510972 -0.046046 2.306453
v -0.716514 -0.039906 2.261861
v -1.466498 0.249346 1.717824
v -0.836696 -0.039906 2.392889
v -0.824181 -0.052774 2.356354
v -0.681690 0.288758 3.182537
v -0.646963 -0.061388 2.352029
v -0.902660 -0.046133 1.919501
v -1.068768 0.749573 2.149275
v -0.771171 -0.046133 2.071496
v -0.638383 -0.009691 1.935212
v -0.301943 0.596111 1.714666
v -0.668212 -0.009691 1.779535
v -0.756322 -0.011505 1.745234
v -1.069332 1.010996 1.727456
v -0.849868 -0.011505 1.951330
v -0.674508 -0.018929 1.845734
v -0.746994 0.795599 1.878867
v -0.788450 -0.018929 1.903214
v -0.159902 -0.025193 1.060758
v -0.302288 1.274850 1.157275
v -0.431316 -0.025193 1.213645
v -0.417449 -0.025193 1.202951
v -0.378780 0.973440 0.570734
v -0.148538 -0.025193 1.045693
v -0.358571 -0.019053 1.056744
v -1.225257 0.270198 0.729166
v -0.440050 -0.019053 1.214772
v -0.437587 -0.031921 1.176233
v -0.103148 0.328283 1.875464
v -0.267750 -0.040535 1.125439
v -1.132204 -0.057780 -0.832988
v -1.385629 0.737926 -0.960027
v -1.260775 -0.057780 -0.678596
v -1.086135 -0.029480 -0.494002
v -1.340426 0.912479 -0.537157
v -1.099860 -0.029480 -0.633501
v -1.026494 -0.021338 -0.493133
v -0.818056 0.584072 -0.141659
v -0.877838 -0.021338 -0.547697
v -0.891149 -0.023152 -0.672225
v -0.924286 0.999349 -0.984288
v -1.109483 -0.023152 -0.731404
v -0.976990 -0.030576 -0.575206
v -1.021388 0.783952 -0.641466
v -1.052103 -0.030576 -0.678493
v 1.424040 -0.046046 -2.040941
v 1.311404 1.234858 -1.985786
v 1.211934 -0.046046 -1.987506
v 1.183142 -0.046046 -1.982843
v 1.358956 0.973240 -2.589772
v 1.483951 -0.046046 -2.063819
v 1.278409 -0.039906 -2.108410
v 0.528425 0.249346 -2.652448
v 1.158227 -0.039906 -1.977383
v 1.170742 -0.052774 -2.013917
v 1.314584 0.232035 -1.096093
v 1.347960 -0.061388 -2.018243
v 0.890118 -0.046133 -3.041071
v 0.619853 0.749574 -2.955370
v 0.905258 -0.046133 -2.840664
v 1.093087 -0.009691 -2.871092
v 1.494707 0.596111 -2.847959
v 1.161816 -0.009691 -3.013926
v 1.111450 -0.011505 -3.093946
v 0.870558 1.010996 -3.294601
v 0.913581 -0.011505 -2.984064
v 2.152457 -0.018002 0.215009
v 1.759303 0.457478 0.699947
v 2.242941 -0.018002 0.299721
v 2.139023 -0.009690 0.229070
v 2.636617 0.524815 0.474802
v 2.236435 -0.009690 0.104070
v 2.076174 -0.013424 0.122036
v 2.176955 0.752151 0.096142
v 2.186358 -0.013424 0.178724
v 2.276762 -0.012907 0.130569
v 2.279993 0.547114 -0.041290
v 2.162144 -0.012907 0.083507
v 1.084093 -0.018928 2.903284
v 1.099582 0.795599 2.824989
v 1.104069 -0.018928 2.777052
v 1.214434 -0.013876 2.950035
v 1.994106 0.975311 2.038374
v 1.053721 -0.013876 2.668776
v 0.991125 -0.009690 2.926195
v 0.973313 0.596111 3.328653
v 1.134655 -0.009690 2.993004
v 0.949630 -0.017832 2.883307
v 0.822869 0.946336 2.690276
v 1.038546 -0.017832 2.774996
v 1.156720 -0.046133 2.611095
v 1.067587 0.749574 2.341689
v 0.956806 -0.046133 2.629070
v -0.525898 -0.046046 2.317998
v -0.697716 1.275546 2.356033
v -0.827973 -0.046046 2.394098
vt 0.000000 0.000000
vn 0.232600 0.446800 0.863900
vn -0.220900 -0.954000 -0.202600
vn 0.035300 0.921400 -0.387000
vn 0.714500 0.327700 -0.618100
vn 0.837000 -0.523200 -0.160400
vn -0.875500 -0.274900 -0.397400
vn -0.450400 -0.003800 -0.892800
vn -0.490800 0.010900 -0.871200
vn 0.446600 0.466200 0.763700
vn -0.266500 -0.954000 -0.137400
vn -0.081500 0.901400 -0.425300
vn 0.726000 0.327700 0.604600
vn -0.962200 -0.255400 0.094700
vn -0.287100 0.553000 -0.782200
vn 0.251500 -0.275100 -0.927900
vn 0.808700 -0.003800 -0.588100
vn -0.244200 0.020300 -0.969500
vn 0.229700 0.468400 0.853200
vn -0.038900 -0.952600 0.301700
vn 0.942100 0.327700 -0.071200
vn 0.767900 -0.523200 0.369500
vn -0.466800 -0.274900 -0.840600
vn 0.414800 0.794800 -0.443000
vn 0.553100 -0.713000 0.431000
vn -0.455600 0.089900 0.885600
vn 0.365200 -0.275000 -0.889400
vn 0.987700 -0.003800 0.156300
vn 0.572100 -0.752200 -0.326900
vn -0.359500 -0.523700 0.772300
vn -0.753500 -0.222900 -0.618500
vn 0.084600 0.328000 0.940900
vn -0.244300 -0.003900 -0.969700
usemtl Material.001
s off
f 1/1/1 3/1/1 2/1/1
f 4/1/2 6/1/2 5/1/2
f 9/1/3 7/1/3 8/1/3
f 12/1/4 10/1/4 11/1/4
f 13/1/5 15/1/5 14/1/5
f 16/1/6 18/1/6 17/1/6
f 19/1/7 21/1/7 20/1/7
f 22/1/8 24/1/8 23/1/8
f 25/1/9 27/1/9 26/1/9
f 28/1/10 30/1/10 29/1/10
f 33/1/11 31/1/11 32/1/11
f 36/1/12 34/1/12 35/1/12
f 39/1/13 37/1/13 38/1/13
f 42/1/14 40/1/14 41/1/14
f 43/1/15 45/1/15 44/1/15
f 46/1/16 48/1/16 47/1/16
f 49/1/17 51/1/17 50/1/17
f 52/1/18 54/1/18 53/1/18
f 55/1/2 57/1/2 56/1/2
f 58/1/19 60/1/19 59/1/19
f 63/1/20 61/1/20 62/1/20
f 64/1/21 66/1/21 65/1/21
f 67/1/22 69/1/22 68/1/22
f 72/1/23 70/1/23 71/1/23
f 73/1/24 75/1/24 74/1/24
f 76/1/25 78/1/25 77/1/25
f 79/1/26 81/1/26 80/1/26
f 82/1/27 84/1/27 83/1/27
f 85/1/28 87/1/28 86/1/28
f 88/1/29 90/1/29 89/1/29
f 93/1/30 91/1/30 92/1/30
f 96/1/31 94/1/31 95/1/31
f 97/1/32 99/1/32 98/1/32
o Plane.014
v 1.994310 -0.011505 -0.093246
v 1.712174 1.010996 0.042834
v 2.012230 -0.011505 0.132436
v 2.208220 -0.009690 -0.025841
v 2.395577 0.596111 -0.381840
v 2.106867 -0.009690 -0.147630
v 2.046095 0.006436 0.102747
v 1.868989 0.578321 0.349738
v 2.152330 0.006436 0.196661
v -0.048487 -0.074046 1.011249
v -0.044276 0.917088 0.901562
v -0.048487 -0.074046 0.835479
v -0.502528 -0.018929 2.388342
v -0.462599 0.795599 2.319384
v -0.442879 -0.018928 2.275539
v -0.377817 -0.011505 2.423060
v -0.112489 1.010996 2.256569
v -0.420623 -0.011505 2.200752
v -0.597877 -0.009690 2.379763
v -0.744651 0.596111 2.754323
v -0.483658 -0.009690 2.489577
v -0.339493 -0.046133 2.135820
v -0.336847 0.749574 1.852225
v -0.534425 -0.046133 2.087796
v -2.023280 -0.018002 -1.016571
v -2.601145 0.457478 -0.782602
v -1.985001 -0.018002 -0.898626
v -2.041815 -0.009690 -1.010772
v -1.725114 0.524815 -0.554783
v -1.896299 -0.009690 -1.072984
v -1.976584 -0.027800 -1.177644
v -1.944502 0.752151 -1.108725
v -1.907554 -0.027800 -1.074682
v -1.873809 -0.012907 -1.030268
v -1.788067 0.547114 -1.179091
v -1.951362 -0.012907 -1.126954
v 0.004651 -0.027049 0.717442
v -0.146350 0.896639 0.424845
v -0.221190 -0.027049 0.774299
v -0.162529 -0.028186 0.978057
v -0.326700 0.796416 0.855601
v -0.103051 -0.028186 0.876638
v -0.122520 -0.021352 1.008157
v -0.090589 0.477723 1.297584
v 0.005176 -0.021352 1.044700
v 0.057553 -0.022874 0.953642
v 0.607442 0.553390 0.492382
v -0.061302 -0.022874 0.805466
v 2.114409 -0.018928 -0.044928
v 2.067087 0.795599 0.019183
v 2.042633 -0.018928 0.060575
vt 0.000000 0.000000
vn 0.958500 0.274600 -0.076100
vn 0.655100 -0.523000 -0.545200
vn -0.585500 -0.467400 0.662300
vn 1.000000 -0.004200 0.000000
vn 0.884000 -0.003800 0.467500
vn -0.944200 0.274600 0.181800
vn -0.590700 -0.523000 0.614400
vn 0.226000 -0.327700 -0.917400
vn -0.577700 -0.794400 0.187500
vn -0.275600 0.713200 -0.644600
vn -0.830500 -0.015000 0.556800
vn 0.750000 -0.274700 -0.601600
vn 0.230600 0.327900 0.916100
vn 0.837500 0.239700 0.491100
vn -0.242100 -0.475100 0.846000
vn 0.488400 -0.779700 -0.391800
vn -0.826800 -0.003800 -0.562500
usemtl Material
s off
f 101/2/33 102/2/33 100/2/33
f 103/2/34 105/2/34 104/2/34
f 106/2/35 108/2/35 107/2/35
f 109/2/36 111/2/36 110/2/36
f 112/2/37 114/2/37 113/2/37
f 116/2/38 117/2/38 115/2/38
f 118/2/39 120/2/39 119/2/39
f 121/2/40 123/2/40 122/2/40
f 124/2/41 126/2/41 125/2/41
f 129/2/42 127/2/42 128/2/42
f 130/2/43 132/2/43 131/2/43
f 133/2/44 135/2/44 134/2/44
f 138/2/45 136/2/45 137/2/45
f 139/2/46 141/2/46 140/2/46
f 142/2/47 144/2/47 143/2/47
f 145/2/48 147/2/48 146/2/48
f 148/2/49 150/2/49 149/2/49
