# Blender v2.76 (sub 0) OBJ File: 'grass6.blend'
# www.blender.org
mtllib grass6.mtl
o Icosphere
v 0.926298 -0.049170 1.059180
v 0.976705 -0.121660 1.855611
v 0.233788 -0.115094 2.352552
v -0.111343 -0.130336 1.919931
v 0.499867 -0.075586 0.505673
v 1.018929 0.134607 1.657315
v 0.614386 0.175916 2.172845
v 0.083139 0.169497 1.980929
v 0.192453 0.162652 1.295334
v 0.795643 0.153004 0.594150
v 0.592377 0.276961 1.526411
vt 0.000000 0.000000
vt 1.000000 0.000000
vt 1.000000 1.000000
vn 0.969700 -0.016100 -0.243800
vn -0.337600 0.474100 -0.813200
vn 0.476600 0.429200 -0.767200
vn 0.872000 0.073500 0.483900
vn 0.857800 0.501100 0.114100
vn -0.231200 0.489100 0.841100
vn 0.347800 0.598500 0.721700
vn -0.879700 0.457000 0.131100
vn -0.559300 0.779000 0.283300
vn -0.674800 0.675600 -0.296900
vn 0.047000 0.998800 -0.008600
usemtl Material.002
s 1
f 1/1/1 5/2/2 10/3/3
f 2/1/4 1/2/1 6/3/5
f 3/1/6 2/2/4 7/3/7
f 4/1/8 3/2/6 8/3/9
f 5/1/2 4/2/8 9/3/10
f 1/1/1 10/2/3 6/3/5
f 2/1/4 6/2/5 7/3/7
f 3/1/6 7/2/7 8/3/9
f 4/1/8 8/2/9 9/3/10
f 5/1/2 9/2/10 10/3/3
f 6/1/5 10/2/3 11/3/11
f 7/1/7 6/2/5 11/3/11
f 8/1/9 7/2/7 11/3/11
f 9/1/10 8/2/9 11/3/11
f 10/1/3 9/2/10 11/3/11
o Plane.005_Plane.082
v 1.776537 -0.033357 0.753574
v 1.467723 1.650680 0.719615
v 1.672975 -0.033357 0.952420
v 1.620893 1.151806 0.741850
v 1.641449 0.572918 0.699396
v 1.550266 0.572918 0.874475
v 1.561346 1.151806 0.856184
v 1.921007 -0.030369 0.922501
v 2.265713 0.967373 0.722083
v 1.899787 -0.030369 0.767040
v 2.154950 0.626437 0.836332
v 2.138436 0.397455 0.858607
v 2.124940 0.397455 0.759730
v 2.144200 0.626437 0.757575
v 1.569916 -0.090390 0.952919
v 1.393283 1.220123 1.171374
v 1.691938 -0.090390 1.110061
v 1.415495 0.915489 1.087144
v 1.545436 0.420185 1.009171
v 1.637399 0.420185 1.127603
v 1.475858 0.915489 1.164880
v -0.925612 -0.024571 1.185288
v -0.794785 0.861634 1.433944
v -0.733019 -0.024571 1.135425
v -0.863375 0.655633 1.380212
v -0.883620 0.355053 1.230030
v -0.738469 0.355053 1.192449
v -0.768101 0.655633 1.355545
v -0.814733 -0.015480 0.850843
v -0.862534 0.659222 0.454984
v -0.965924 -0.015480 0.808806
v -0.801384 0.565190 0.601912
v -0.808928 0.376463 0.699383
v -0.905089 0.376464 0.672647
v -0.877979 0.565190 0.580616
v -1.027027 -0.017500 0.916658
v -1.180324 1.121293 1.186803
v -0.885322 -0.017501 1.090451
v -1.099337 0.783940 1.054946
v -1.130206 0.392480 1.019268
v -1.005438 0.392480 1.172289
v -1.017858 0.783940 1.154875
v -0.901937 -0.025769 0.888242
v -0.904397 0.881398 0.967197
v -0.901015 -0.025769 1.014730
v -0.884161 0.578066 0.894039
v -0.912194 0.361125 0.890055
v -0.911272 0.361125 1.016544
v -0.883467 0.578066 0.989296
v 1.852143 -0.045584 0.857208
v 1.778644 1.295925 0.886168
v 1.736320 -0.045584 0.908068
v 1.864434 0.853098 0.899430
v 1.846418 0.459401 0.848507
v 1.730594 0.459401 0.899367
v 1.777209 0.853098 0.937732
vt 0.000000 0.000000
vt 1.000000 0.000000
vt 1.000000 1.000000
vt 0.000000 1.000000
vn -0.880500 -0.119800 -0.458600
vn -0.862600 -0.232300 -0.449300
vn -0.880700 -0.117900 -0.458700
vn -0.879100 -0.132000 -0.457900
vn -0.851100 -0.281100 -0.443300
vn -0.879100 -0.132600 -0.457800
vn 0.948400 -0.289300 -0.129500
vn 0.877700 -0.463900 -0.119800
vn 0.950400 -0.282700 -0.129700
vn 0.966900 -0.218500 -0.132000
vn 0.930100 -0.344700 -0.126900
vn 0.970600 -0.200900 -0.132500
vn -0.774200 -0.198000 0.601200
vn -0.785500 -0.104800 0.609900
vn -0.774900 -0.193400 0.601700
vn -0.762800 -0.259300 0.592300
vn -0.770200 -0.221500 0.598100
vn -0.763100 -0.257800 0.592600
vn 0.239300 -0.296800 0.924400
vn 0.248100 -0.140400 0.958500
vn 0.240300 -0.284600 0.928000
vn 0.230500 -0.392400 0.890400
vn 0.237600 -0.318500 0.917700
vn 0.231000 -0.388200 0.892100
vn 0.245400 -0.400500 -0.882800
vn 0.250700 -0.352200 -0.901700
vn 0.245200 -0.402300 -0.882000
vn 0.203800 -0.649100 -0.732900
vn 0.160900 -0.799500 -0.578600
vn 0.214500 -0.598800 -0.771600
vn -0.762900 -0.175700 0.622100
vn -0.730800 -0.333000 0.595800
vn -0.763500 -0.171800 0.622500
vn -0.761900 -0.183100 0.621200
vn -0.711200 -0.397400 0.579900
vn -0.761700 -0.184200 0.621100
vn -0.998700 0.050300 0.007300
vn -0.999600 -0.026500 0.007300
vn -0.998800 0.047800 0.007300
vn -0.999300 0.036000 0.007300
vn -0.997600 -0.068300 0.007300
vn -0.999200 0.038600 0.007300
vn -0.401400 0.057400 -0.914100
vn -0.402000 -0.020300 -0.915400
vn -0.401400 0.056100 -0.914200
vn -0.402000 0.020000 -0.915400
vn -0.399800 -0.104700 -0.910600
vn -0.401900 0.022500 -0.915400
usemtl Material
s 1
f 16/4/12 12/5/13 14/6/13 17/7/14
f 18/4/15 13/5/16 15/6/17
f 15/4/17 16/5/12 17/6/14 18/7/15
f 23/4/18 19/5/19 21/6/19 24/7/20
f 25/4/21 20/5/22 22/6/23
f 22/4/23 23/5/18 24/6/20 25/7/21
f 30/4/24 26/5/25 28/6/25 31/7/26
f 32/4/27 27/5/28 29/6/29
f 29/4/29 30/5/24 31/6/26 32/7/27
f 37/4/30 33/5/31 35/6/31 38/7/32
f 39/4/33 34/5/34 36/6/35
f 36/4/35 37/5/30 38/6/32 39/7/33
f 44/4/36 40/5/37 42/6/37 45/7/38
f 46/4/39 41/5/40 43/6/41
f 43/4/41 44/5/36 45/6/38 46/7/39
f 51/4/42 47/5/43 49/6/43 52/7/44
f 53/4/45 48/5/46 50/6/47
f 50/4/47 51/5/42 52/6/44 53/7/45
f 58/4/48 54/5/49 56/6/49 59/7/50
f 60/4/51 55/5/52 57/6/53
f 57/4/53 58/5/48 59/6/50 60/7/51
f 65/4/54 61/5/55 63/6/55 66/7/56
f 67/4/57 62/5/58 64/6/59
f 64/4/59 65/5/54 66/6/56 67/7/57
o Plane.009_Plane.066
v 0.441649 -0.026664 2.814878
v 0.284136 0.929785 2.598439
v 0.520700 -0.026664 2.718690
v 0.382483 0.586501 2.759213
v 0.401155 0.282467 2.779894
v 0.480205 0.282467 2.683705
v 0.442014 0.586501 2.686775
v 0.478556 -0.018269 2.852979
v 0.438902 0.606343 3.200768
v 0.606200 -0.018269 2.912344
v 0.418213 0.487241 3.107033
v 0.432686 0.277880 3.040601
v 0.513870 0.277880 3.078359
v 0.482879 0.487241 3.137108
v 0.677136 -0.022585 2.874192
v 1.346411 0.997317 2.020138
v 0.534176 -0.022585 2.624346
v 1.209137 0.938989 2.343368
v 0.888370 0.506652 2.729612
v 0.762497 0.506652 2.509629
v 1.126936 0.938989 2.199709
v 0.561223 -0.027794 2.832645
v 0.574984 0.812025 2.763105
v 0.578965 -0.027794 2.720527
v 0.546342 0.531213 2.824908
v 0.570567 0.254033 2.832541
v 0.588309 0.254033 2.720423
v 0.559703 0.531213 2.740474
v 1.621336 -0.021586 0.370076
v 1.624180 0.555824 0.217429
v 1.519404 -0.021586 0.328256
v 1.625407 0.397373 0.280216
v 1.650071 0.235111 0.288056
v 1.560322 0.235111 0.251235
v 1.566797 0.397373 0.256170
v 1.477986 -0.036941 0.299686
v 1.532577 0.767228 0.339481
v 1.575976 -0.036941 0.350055
v 1.472641 0.507516 0.376204
v 1.451725 0.241578 0.366213
v 1.538002 0.241578 0.410563
v 1.528985 0.507516 0.405166
v 1.498868 -0.018269 0.457543
v 1.941393 0.532833 0.675889
v 1.585471 -0.018269 0.346533
v 1.763951 0.450363 0.606079
v 1.613112 0.247816 0.503958
v 1.668193 0.247816 0.433353
v 1.807824 0.450363 0.549840
v 1.510812 -0.026839 0.445056
v 1.161283 0.463405 0.875720
v 1.591289 -0.026839 0.520314
v 1.334451 0.414118 0.680850
v 1.454766 0.183519 0.504369
v 1.525624 0.183519 0.570632
v 1.380724 0.414118 0.724123
v 1.269558 -0.020377 1.938099
v 0.811295 1.275208 1.932754
v 1.203739 -0.020377 1.700149
v 0.992495 0.916620 1.904152
v 0.977596 0.378382 1.964740
v 0.927990 0.378382 1.785405
v 0.959935 0.916620 1.786440
v 1.169633 -0.019625 1.863347
v 0.743397 0.368211 2.461141
v 1.274022 -0.019625 1.957816
v 0.907678 0.298870 2.225693
v 1.059675 0.145504 2.043409
v 1.126069 0.145504 2.103493
v 0.960562 0.298870 2.273551
v 1.245036 -0.031450 1.948117
v 1.970584 0.230262 1.828522
v 1.240592 -0.039365 1.807668
v 1.692806 0.251292 1.873511
v 1.450604 0.131666 1.895063
v 1.447778 0.126632 1.805734
v 1.690555 0.247282 1.802359
v 1.413248 -0.031450 0.000739
v 0.957664 0.230262 0.578128
v 1.511164 -0.039365 0.101485
v 1.132623 0.251292 0.357663
v 1.297084 0.131666 0.178489
v 1.359360 0.126632 0.242567
v 1.182228 0.247283 0.408702
v 1.526086 -0.019625 0.012529
v 1.438287 0.246169 -0.716332
v 1.385294 -0.019625 0.013113
v 1.476503 0.265382 -0.437422
v 1.486021 0.145504 -0.194590
v 1.396474 0.145504 -0.194218
v 1.405177 0.265382 -0.437127
v 1.401877 -0.025267 0.024667
v 1.864457 0.896881 -0.179473
v 1.610841 -0.025267 0.156064
v 1.629494 0.643793 -0.137011
v 1.591119 0.402993 -0.171641
v 1.748608 0.402993 -0.072612
v 1.732867 0.643793 -0.072010
v 1.596100 -0.025267 0.153593
v 1.487004 1.182234 0.130166
v 1.389287 -0.025267 0.018837
v 1.552008 0.866827 0.140611
v 1.601994 0.416776 0.077691
v 1.446126 0.416776 -0.023870
v 1.449699 0.866827 0.073948
v 0.625758 -0.055843 2.573130
v 0.546452 0.764571 2.333825
v 0.447988 -0.055843 2.589062
v 0.599274 0.573863 2.391443
v 0.595158 0.263790 2.527368
v 0.461178 0.263790 2.539376
v 0.511332 0.573863 2.399324
vt 0.000000 0.000000
vt 1.000000 0.000000
vt 1.000000 1.000000
vt 0.000000 1.000000
vn 0.765900 0.130700 0.629500
vn 0.761300 0.170500 0.625600
vn 0.765800 0.131600 0.629400
vn 0.743800 0.270400 0.611300
vn 0.685800 0.460400 0.563600
vn 0.743900 0.269800 0.611400
vn -0.380600 -0.430600 0.818300
vn -0.355200 -0.538900 0.763800
vn -0.381500 -0.426200 0.820200
vn -0.382700 -0.420100 0.822800
vn -0.355100 -0.539300 0.763600
vn -0.385600 -0.404700 0.829100
vn 0.707200 -0.579600 -0.404700
vn 0.781800 -0.434200 -0.447300
vn 0.693600 -0.601100 -0.396900
vn 0.376300 -0.901100 -0.215300
vn 0.177200 -0.978900 -0.101400
vn 0.464400 -0.844800 -0.265700
vn 0.987300 0.028500 0.156200
vn 0.987200 -0.032700 0.156200
vn 0.987300 0.027200 0.156200
vn 0.987600 0.016000 0.156300
vn 0.985500 -0.066200 0.155900
vn 0.987500 0.018600 0.156300
vn 0.374300 -0.165700 -0.912400
vn 0.359600 -0.320300 -0.876400
vn 0.374600 -0.160200 -0.913200
vn 0.375200 -0.150500 -0.914600
vn 0.356700 -0.341700 -0.869400
vn 0.375300 -0.149600 -0.914700
vn -0.453400 -0.128100 0.882000
vn -0.442900 -0.247600 0.861700
vn -0.453500 -0.125900 0.882300
vn -0.454400 0.109600 0.884000
vn -0.445400 0.225300 0.866500
vn -0.454500 0.106500 0.884300
vn 0.664800 -0.537500 0.518700
vn 0.720100 -0.407200 0.561800
vn 0.663200 -0.540700 0.517400
vn 0.470200 -0.802700 0.366800
vn 0.324200 -0.911600 0.252900
vn 0.479600 -0.793700 0.374100
vn -0.582500 -0.522100 0.622900
vn -0.636800 -0.361600 0.680900
vn -0.581600 -0.524300 0.621900
vn -0.346800 -0.861500 0.370800
vn -0.126900 -0.982600 0.135700
vn -0.340300 -0.867000 0.363900
vn 0.918400 0.303300 -0.254000
vn 0.780800 0.586100 -0.216000
vn 0.923900 0.284800 -0.255500
vn 0.947800 0.181300 -0.262200
vn 0.859200 0.453100 -0.237600
vn 0.945700 0.192700 -0.261600
vn -0.393200 -0.810300 0.434500
vn -0.418100 -0.782200 0.462000
vn -0.392300 -0.811200 0.433500
vn -0.270400 -0.915200 0.298800
vn -0.158700 -0.971600 0.175400
vn -0.270600 -0.915000 0.299000
vn 0.542900 -0.839300 0.030100
vn 0.625200 -0.780100 0.024200
vn 0.540900 -0.840500 0.030200
vn 0.210300 -0.976400 0.048400
vn -0.066000 -0.996100 0.058200
vn 0.210200 -0.976400 0.048400
vn -0.421300 -0.839300 0.343500
vn -0.478100 -0.780100 0.403400
vn -0.420000 -0.840500 0.342100
vn -0.188000 -0.976400 0.106000
vn 0.009500 -0.996100 -0.087500
vn -0.187900 -0.976400 0.105900
vn -0.002200 -0.841100 -0.540800
vn -0.002600 -0.782100 -0.623100
vn -0.002200 -0.842800 -0.538200
vn -0.000900 -0.978300 -0.207300
vn 0.000300 -0.997600 0.068700
vn -0.000900 -0.978100 -0.207800
vn -0.509700 0.288100 0.810600
vn -0.451700 0.528900 0.718400
vn -0.513500 0.263400 0.816600
vn -0.512100 0.272900 0.814400
vn -0.449100 0.536800 0.714200
vn -0.523400 0.182300 0.832300
vn 0.545900 0.007900 -0.837800
vn 0.539800 -0.149400 -0.828400
vn 0.545900 0.003500 -0.837800
vn 0.540900 0.134500 -0.830200
vn 0.544000 0.084400 -0.834800
vn 0.541100 0.133000 -0.830400
vn -0.085800 -0.275400 -0.957500
vn -0.088300 -0.149400 -0.984800
vn -0.086000 -0.266800 -0.959900
vn -0.083300 -0.360300 -0.929100
vn -0.084900 -0.309600 -0.947100
vn -0.083300 -0.357700 -0.930100
usemtl Material.001
s 1
f 72/8/60 68/9/61 70/10/61 73/11/62
f 74/8/63 69/9/64 71/10/65
f 71/8/65 72/9/60 73/10/62 74/11/63
f 79/8/66 75/9/67 77/10/67 80/11/68
f 81/8/69 76/9/70 78/10/71
f 78/8/71 79/9/66 80/10/68 81/11/69
f 86/8/72 82/9/73 84/10/73 87/11/74
f 88/8/75 83/9/76 85/10/77
f 85/8/77 86/9/72 87/10/74 88/11/75
f 93/8/78 89/9/79 91/10/79 94/11/80
f 95/8/81 90/9/82 92/10/83
f 92/8/83 93/9/78 94/10/80 95/11/81
f 100/8/84 96/9/85 98/10/85 101/11/86
f 102/8/87 97/9/88 99/10/89
f 99/8/89 100/9/84 101/10/86 102/11/87
f 107/8/90 103/9/91 105/10/91 108/11/92
f 109/8/93 104/9/94 106/10/95
f 106/8/95 107/9/90 108/10/92 109/11/93
f 114/8/96 110/9/97 112/10/97 115/11/98
f 116/8/99 111/9/100 113/10/101
f 113/8/101 114/9/96 115/10/98 116/11/99
f 121/8/102 117/9/103 119/10/103 122/11/104
f 123/8/105 118/9/106 120/10/107
f 120/8/107 121/9/102 122/10/104 123/11/105
f 128/8/108 124/9/109 126/10/109 129/11/110
f 130/8/111 125/9/112 127/10/113
f 127/8/113 128/9/108 129/10/110 130/11/111
f 135/8/114 131/9/115 133/10/115 136/11/116
f 137/8/117 132/9/118 134/10/119
f 134/8/119 135/9/114 136/10/116 137/11/117
f 142/8/120 138/9/121 140/10/121 143/11/122
f 144/8/123 139/9/124 141/10/125
f 141/8/125 142/9/120 143/10/122 144/11/123
f 149/8/126 145/9/127 147/10/127 150/11/128
f 151/8/129 146/9/130 148/10/131
f 148/8/131 149/9/126 150/10/128 151/11/129
f 156/8/132 152/9/133 154/10/133 157/11/134
f 158/8/135 153/9/136 155/10/137
f 155/8/137 156/9/132 157/10/134 158/11/135
f 163/8/138 159/9/139 161/10/139 164/11/140
f 165/8/141 160/9/142 162/10/143
f 162/8/143 163/9/138 164/10/140 165/11/141
f 170/8/144 166/9/145 168/10/145 171/11/146
f 172/8/147 167/9/148 169/10/149
f 169/8/149 170/9/144 171/10/146 172/11/147
f 177/8/150 173/9/151 175/10/151 178/11/152
f 179/8/153 174/9/154 176/10/155
f 176/8/155 177/9/150 178/10/152 179/11/153
