# Blender v2.76 (sub 0) OBJ File: 'hillTree2.blend'
# www.blender.org
mtllib hillTree2.mtl
o leaves_Cone.005
v -0.007547 2.232512 -0.235169
v -0.016486 2.586144 0.004009
v 0.171435 2.236512 -0.150943
v 0.217125 2.238608 0.041506
v 0.095118 2.237221 0.197260
v -0.102712 2.233395 0.199034
v -0.227396 2.230011 0.045491
v -0.185043 2.229618 -0.147747
v 0.110641 1.970477 -0.322104
v -0.017186 2.466880 -0.015408
v 0.290953 1.985861 -0.111645
v 0.274264 1.993239 0.179479
v 0.032467 1.987408 0.305893
v -0.229496 1.974767 0.222557
v -0.321288 1.949989 -0.037279
v -0.167068 1.953639 -0.276392
v 0.172238 1.638743 -0.353713
v -0.010792 2.196155 0.022721
v 0.366807 1.644937 -0.045239
v 0.267254 1.638600 0.273446
v -0.032234 1.672096 0.438688
v -0.334470 1.664882 0.222472
v -0.404117 1.669316 -0.097780
v -0.198508 1.688638 -0.357943
v 0.243958 1.360174 -0.543418
v 0.009247 2.029773 0.003337
v 0.503058 1.396674 -0.153786
v 0.439056 1.393860 0.303579
v 0.029057 1.396524 0.566907
v -0.397673 1.385544 0.333373
v -0.540624 1.410724 -0.052733
v -0.281754 1.398008 -0.503031
v -0.133319 1.081144 -0.667277
v -0.006865 1.792903 0.003131
v 0.420091 1.117896 -0.474029
v 0.689220 1.094689 0.003544
v 0.413483 1.091378 0.564893
v -0.147457 1.067832 0.656233
v -0.640863 1.064442 0.277774
v -0.624920 1.092959 -0.348844
v -0.015754 0.618287 -0.835017
v -0.004086 1.493072 -0.006594
v 0.630659 0.621502 -0.490641
v 0.789203 0.591674 0.159775
v 0.357152 0.655077 0.721360
v -0.320894 0.630116 0.702773
v -0.770182 0.579683 0.187443
v -0.644846 0.572675 -0.486403
vt 0.150924 0.633626
vt 0.520305 0.999853
vt 0.039316 0.801828
vt 0.515844 0.000147
vt 0.520305 0.520286
vt 0.318162 0.041013
vt 0.318162 0.520580
vt 0.039316 0.322261
vt 0.000147 0.520286
vt 0.150924 0.154059
vt 0.000147 0.999853
vt 0.608184 0.045065
vt 0.804984 0.000147
vt 0.962806 0.126006
vt 0.962806 0.327867
vt 0.804984 0.453726
vt 0.608183 0.408808
vt 0.520599 0.226936
vn -0.854500 0.484100 -0.188300
vn 0.351200 0.530600 -0.771400
vn -0.689300 0.472200 0.549400
vn -0.001500 0.484100 0.875000
vn 0.674500 0.510900 0.532900
vn -0.386800 0.509900 -0.768400
vn 0.822900 0.531400 -0.201100
vn 0.019400 -0.999800 0.006300
vn -0.749000 0.460800 -0.476100
vn 0.629900 0.519100 -0.577700
vn -0.839000 0.483000 0.250300
vn -0.282500 0.513600 0.810200
vn 0.379100 0.541900 0.750100
vn -0.170600 0.485700 -0.857300
vn 0.844700 0.534100 0.034900
vn 0.055400 -0.997700 0.038700
vn -0.651800 0.594400 -0.471000
vn 0.706700 0.540400 -0.456600
vn -0.807400 0.560800 0.183300
vn -0.493500 0.553000 0.671300
vn 0.451300 0.543400 0.707800
vn 0.086900 0.577000 -0.812100
vn 0.810700 0.522800 0.263600
vn -0.048200 -0.998800 -0.004300
vn -0.666600 0.628400 -0.401000
vn 0.631600 0.611100 -0.477200
vn -0.724900 0.615900 0.308500
vn -0.394500 0.604000 0.692500
vn 0.432200 0.607000 0.666900
vn -0.014400 0.629400 -0.777000
vn 0.796900 0.593000 0.115200
vn -0.012200 -0.999900 0.010900
vn -0.752200 0.658800 0.010800
vn 0.211700 0.649900 -0.729900
vn -0.470900 0.639100 0.608200
vn 0.094400 0.656100 0.748700
vn 0.667900 0.666100 0.332000
vn -0.394100 0.666300 -0.633100
vn 0.665400 0.663200 -0.342700
vn 0.021400 -0.999600 -0.019400
vn -0.773000 0.616400 -0.150200
vn 0.359100 0.639200 -0.680000
vn -0.619600 0.621500 0.479400
vn -0.044600 0.644100 0.763600
vn 0.641100 0.641900 0.420800
vn -0.411000 0.629700 -0.659200
vn 0.755600 0.636400 -0.155000
vn 0.021900 -0.999600 0.018800
usemtl leaves
s off
f 7/1/1 2/2/1 8/3/1
f 1/4/2 2/5/2 3/6/2
f 6/7/3 2/2/3 7/1/3
f 5/8/4 2/5/4 6/9/4
f 4/10/5 2/5/5 5/8/5
f 8/3/6 2/2/6 1/11/6
f 3/6/7 2/5/7 4/10/7
f 1/12/8 3/13/8 4/14/8 5/15/8 6/16/8 7/17/8 8/18/8
f 15/1/9 10/2/9 16/3/9
f 9/4/10 10/5/10 11/6/10
f 14/7/11 10/2/11 15/1/11
f 13/8/12 10/5/12 14/9/12
f 12/10/13 10/5/13 13/8/13
f 16/3/14 10/2/14 9/11/14
f 11/6/15 10/5/15 12/10/15
f 9/12/16 11/13/16 12/14/16 13/15/16 14/16/16 15/17/16 16/18/16
f 23/1/17 18/2/17 24/3/17
f 17/4/18 18/5/18 19/6/18
f 22/7/19 18/2/19 23/1/19
f 21/8/20 18/5/20 22/9/20
f 20/10/21 18/5/21 21/8/21
f 24/3/22 18/2/22 17/11/22
f 19/6/23 18/5/23 20/10/23
f 17/12/24 19/13/24 20/14/24 21/15/24 22/16/24 23/17/24 24/18/24
f 31/1/25 26/2/25 32/3/25
f 25/4/26 26/5/26 27/6/26
f 30/7/27 26/2/27 31/1/27
f 29/8/28 26/5/28 30/9/28
f 28/10/29 26/5/29 29/8/29
f 32/3/30 26/2/30 25/11/30
f 27/6/31 26/5/31 28/10/31
f 25/12/32 27/13/32 28/14/32 29/15/32 30/16/32 31/17/32 32/18/32
f 39/1/33 34/2/33 40/3/33
f 33/4/34 34/5/34 35/6/34
f 38/7/35 34/2/35 39/1/35
f 37/8/36 34/5/36 38/9/36
f 36/10/37 34/5/37 37/8/37
f 40/3/38 34/2/38 33/11/38
f 35/6/39 34/5/39 36/10/39
f 33/12/40 35/13/40 36/14/40 37/15/40 38/16/40 39/17/40 40/18/40
f 47/1/41 42/2/41 48/3/41
f 41/4/42 42/5/42 43/6/42
f 46/7/43 42/2/43 47/1/43
f 45/8/44 42/5/44 46/9/44
f 44/10/45 42/5/45 45/8/45
f 48/3/46 42/2/46 41/11/46
f 43/6/47 42/5/47 44/10/47
f 41/12/48 43/13/48 44/14/48 45/15/48 46/16/48 47/17/48 48/18/48
o wood_Cylinder
v 0.002971 -0.719296 -0.192684
v 0.002999 0.732310 -0.098680
v 0.127404 -0.719296 -0.147394
v 0.067025 0.732310 -0.075376
v 0.193613 -0.719296 -0.032716
v 0.101093 0.732310 -0.016369
v 0.170619 -0.719296 0.097691
v 0.089261 0.732310 0.050732
v 0.069181 -0.719296 0.182808
v 0.037066 0.732310 0.094528
v -0.063238 -0.719296 0.182808
v -0.031069 0.732310 0.094528
v -0.164677 -0.719296 0.097691
v -0.083264 0.732310 0.050732
v -0.187671 -0.719296 -0.032716
v -0.095096 0.732310 -0.016369
v -0.121462 -0.719296 -0.147394
v -0.061028 0.732310 -0.075376
v -0.004020 -0.145568 -0.153710
v -0.000286 0.338551 -0.110944
v 0.085062 0.310834 -0.094796
v 0.094963 -0.150662 -0.108523
v 0.129061 0.311031 -0.032189
v 0.139761 -0.145568 -0.023211
v 0.111125 0.315278 0.046217
v 0.126667 -0.157063 0.069777
v 0.045903 0.322497 0.118807
v 0.050453 -0.145568 0.131475
v -0.038246 0.310026 0.106304
v -0.050105 -0.151954 0.140401
v -0.096539 0.301729 0.065226
v -0.117391 -0.145568 0.070385
v -0.120540 0.322497 -0.020855
v -0.133894 -0.145568 -0.023211
v -0.081457 0.313166 -0.102552
v -0.074212 -0.139467 -0.097616
vt 0.555549 0.645555
vt 0.555549 0.999219
vt 0.444451 0.999219
vt 0.444451 0.645555
vt 0.333352 0.999218
vt 0.333352 0.645554
vt 0.222254 0.999218
vt 0.222254 0.645554
vt 0.111155 0.999217
vt 0.111156 0.645553
vt 0.000057 0.999217
vt 0.000057 0.645553
vt 0.999943 0.645556
vt 0.999943 0.999220
vt 0.888844 0.999220
vt 0.888844 0.645555
vt 0.777746 0.999219
vt 0.777746 0.645555
vt 0.666648 0.645555
vt 0.666648 0.999219
vt 0.777746 -0.061773
vt 0.777746 0.291891
vt 0.666648 0.291891
vt 0.666648 -0.061773
vt 0.555549 0.291891
vt 0.555549 -0.061773
vt 0.888845 -0.061773
vt 0.888844 0.291891
vt 0.999943 -0.061773
vt 0.999943 0.291892
vt 0.111156 -0.061774
vt 0.111156 0.291890
vt 0.000057 0.291889
vt 0.000058 -0.061775
vt 0.222254 -0.061774
vt 0.222254 0.291890
vt 0.333353 -0.061773
vt 0.333352 0.291890
vt 0.444451 -0.061773
vt 0.444451 0.291891
vn 0.262400 0.042200 -0.964000
vn 0.839500 0.068400 -0.539000
vn 0.978600 0.053400 0.198600
vn 0.704700 0.043100 0.708200
vn -0.085200 0.043000 0.995400
vn -0.610600 0.039000 0.791000
vn -0.971200 0.047500 0.233600
vn -0.221900 0.053700 -0.973600
vn -0.883500 0.066600 -0.463700
vn -0.829600 0.100900 -0.549100
vn -0.845000 0.004100 -0.534700
vn -0.458300 0.084100 -0.884800
vn -0.395500 0.035600 -0.917800
vn -0.980900 0.089100 0.173000
vn -0.973900 0.037100 0.223800
vn -0.673000 0.080600 0.735300
vn -0.662000 0.056100 0.747400
vn 0.035900 0.082000 0.996000
vn -0.024500 0.050400 0.998400
vn 0.637900 0.088600 0.765000
vn 0.690900 0.042600 0.721700
vn 0.982700 0.087300 0.163200
vn 0.983200 0.034100 0.179400
vn 0.870100 0.086300 -0.485200
vn 0.856800 0.021900 -0.515100
vn 0.375800 0.075900 -0.923600
vn 0.324600 0.058500 -0.944100
usemtl wood
s off
f 68/19/49 50/20/49 52/21/49 69/22/49
f 69/22/50 52/21/50 54/23/50 71/24/50
f 71/24/51 54/23/51 56/25/51 73/26/51
f 73/26/52 56/25/52 58/27/52 75/28/52
f 75/28/53 58/27/53 60/29/53 77/30/53
f 77/31/54 60/32/54 62/33/54 79/34/54
f 79/34/55 62/33/55 64/35/55 81/36/55
f 83/37/56 66/38/56 50/20/56 68/19/56
f 81/36/57 64/35/57 66/38/57 83/37/57
f 63/39/58 82/40/58 84/41/58 65/42/58
f 82/40/59 81/36/59 83/37/59 84/41/59
f 65/42/60 84/41/60 67/43/60 49/44/60
f 84/41/61 83/37/61 68/19/61 67/43/61
f 61/45/62 80/46/62 82/40/62 63/39/62
f 80/46/63 79/34/63 81/36/63 82/40/63
f 59/47/64 78/48/64 80/46/64 61/45/64
f 78/48/65 77/31/65 79/34/65 80/46/65
f 57/49/66 76/50/66 78/51/66 59/52/66
f 76/50/67 75/28/67 77/30/67 78/51/67
f 55/53/68 74/54/68 76/50/68 57/49/68
f 74/54/69 73/26/69 75/28/69 76/50/69
f 53/55/70 72/56/70 74/54/70 55/53/70
f 72/56/71 71/24/71 73/26/71 74/54/71
f 51/57/72 70/58/72 72/56/72 53/55/72
f 70/58/73 69/22/73 71/24/73 72/56/73
f 49/44/74 67/43/74 70/58/74 51/57/74
f 67/43/75 68/19/75 69/22/75 70/58/75
