# Blender v2.80 (sub 75) OBJ File: ''
# www.blender.org
mtllib tree2LP.mtl
o tree2_2mesh_tree1mesh_tree1poly
v 0.776800 2.695621 -0.450238
v 0.187033 2.448923 -0.043153
v 0.514341 2.885416 -0.746493
v 0.121435 3.301564 0.002127
v 0.866014 2.695621 0.284507
v 0.195963 2.448923 0.030390
v 0.817237 2.885416 -0.478151
v 0.911956 2.885416 0.301932
v 0.312009 2.695621 0.775313
v 0.140510 2.448923 0.079517
v 0.323769 2.885414 0.823021
v -0.406626 2.695621 0.598185
v 0.068581 2.448923 0.061788
v -0.623143 2.695621 0.284507
v 0.046909 2.448923 0.030390
v -0.439209 2.885416 0.634964
v -0.669085 2.885416 0.301932
v -0.533927 2.695621 -0.450238
v 0.055838 2.448923 -0.043153
v -0.248636 2.695622 -0.702986
v 0.084394 2.448923 -0.068451
v -0.574365 2.885416 -0.478151
v -0.271469 2.885416 -0.746493
v 0.491508 2.695622 -0.702986
v 0.158478 2.448923 -0.068451
v -0.141802 0.774583 -0.172540
v 0.096364 0.796504 -0.172540
v 0.096364 0.796504 0.066632
v -0.141802 0.774583 0.066632
v -0.109383 1.495201 -0.119585
v -0.109383 1.495201 0.119587
v 0.120817 1.430310 0.119587
v 0.120817 1.430310 -0.119585
v 0.192541 2.468223 -0.064896
v 0.192541 2.468223 0.064898
v 0.063003 2.460058 0.064898
v 0.063003 2.460058 -0.064896
v -0.115628 -0.070494 0.119586
v 0.123544 -0.070494 -0.119587
v -0.115628 -0.070494 -0.119587
v 0.123544 -0.070494 0.119586
v 0.787220 1.380608 -0.820265
v 0.342886 1.469417 -0.532239
v 0.401634 1.417669 -1.145809
v 0.457644 1.949540 -0.848534
v 0.843187 1.629853 -0.421615
v 0.838133 1.473430 -0.902796
v 0.897553 1.738055 -0.479548
v 0.707360 1.762884 -0.268961
v 0.753345 1.879293 -0.317475
v 0.256536 1.900363 -0.223842
v 0.274705 2.025255 -0.269572
v -0.091009 1.785566 -0.524195
v -0.094285 1.903376 -0.588457
v -0.035041 1.517663 -0.910554
v -0.034864 1.618942 -0.998656
v 0.376089 1.328088 -1.049156
v -0.899907 1.696841 -0.629383
v -0.692771 1.674365 -0.134541
v -1.283221 1.615614 -0.309225
v -1.026939 2.154488 -0.173833
v -0.981106 1.796530 -0.667961
v -0.401982 2.065456 -0.359860
v -0.452458 2.187888 -0.381808
v -0.439061 2.078265 0.111986
v -0.491825 2.201488 0.119153
v -0.778836 1.862161 0.361044
v -0.852565 1.972051 0.383578
v -1.127787 1.603832 0.172160
v -1.223047 1.697782 0.183038
v -1.184465 1.526440 -0.291496
v 0.212071 1.726800 0.930505
v 0.312553 1.798461 0.515210
v 0.618604 1.756705 0.907259
v 0.420835 2.185879 0.764185
v 0.228042 1.801699 1.007106
v -0.047060 2.035264 0.563218
v -0.047079 2.129197 0.617157
v 0.192011 2.146197 0.286626
v 0.206743 2.246974 0.323498
v 0.562279 2.053566 0.269732
v 0.599857 2.148628 0.305561
v 0.743881 1.837392 0.527130
v 0.792664 1.919115 0.578841
v 0.579936 1.684421 0.836462
v -0.033879 1.401108 -0.135778
v -0.116720 1.269769 -0.024078
v -0.023693 1.417258 0.054550
v -0.855269 1.823869 -0.104337
v -0.891752 1.766029 -0.055146
v -0.850784 1.830981 -0.020519
v -0.012171 1.392983 0.038675
v 0.098729 1.291514 0.069329
v 0.115257 1.390492 -0.046710
v 0.343558 1.826602 0.523434
v 0.392398 1.781916 0.536933
v 0.399677 1.825505 0.485831
v 0.095268 1.088435 -0.000100
v 0.073715 0.986966 -0.113123
v -0.037668 1.085944 -0.076629
v 0.372722 1.522054 -0.533536
v 0.363230 1.477368 -0.583311
v 0.314178 1.520957 -0.567239
vt 0.703888 0.523706
vt 0.534284 0.288500
vt 0.798024 0.247707
vt 0.442277 0.392674
vt 0.452721 0.667122
vt 0.483237 0.120006
vt 0.574607 0.053679
vt 0.693926 0.111754
vt 0.684879 0.118264
vt 0.545984 0.200871
vt 0.420412 0.121175
vt 0.582335 0.183197
vt 0.674932 0.809273
vt 0.538507 0.036542
vt 0.924683 0.713096
vt 0.675077 0.039842
vt 0.703859 0.110312
vt 0.874922 0.065051
vt 0.723553 0.112688
vt 0.663961 0.017747
vt 0.924407 0.050476
vt 0.920288 0.321832
vt 0.989371 0.589296
vt 0.926018 0.098319
vt 0.728795 0.115962
vt 0.880144 0.168864
vt 0.724296 0.123104
vt 0.986973 0.093545
vt 0.929750 0.182668
vt 0.694892 0.124597
vt 0.816666 0.212704
vt 0.791378 0.190548
vt 0.103618 0.987703
vt 0.107148 0.646679
vt 0.206879 0.658154
vt 0.201471 0.985765
vt 0.301742 0.983012
vt 0.305184 0.658380
vt 0.400575 0.648418
vt 0.400575 0.986027
vt 0.117848 0.403699
vt 0.206941 0.390608
vt 0.298327 0.391327
vt 0.022668 0.397429
vt 0.012042 0.012297
vt 0.112242 0.020707
vt 0.393561 0.400108
vt 0.005930 0.644313
vt 0.209927 0.032669
vt 0.311186 0.030186
vt 0.405796 0.013377
vt 0.715598 0.125308
vt 0.976734 0.446779
vt 0.703367 0.523695
vt 0.796500 0.249475
vt 0.672555 0.217506
vt 0.447060 0.165288
vt 0.505627 0.154802
vt 0.679689 0.193031
vt 0.533415 0.298878
vt 0.412736 0.121109
vt 0.522214 0.037188
vt 0.566069 0.056588
vt 0.475561 0.120242
vt 0.699078 0.117437
vt 0.770008 0.043961
vt 0.451102 0.401840
vt 0.455549 0.659818
vt 0.789564 0.021158
vt 0.916342 0.096809
vt 0.673605 0.809581
vt 0.984839 0.091255
vt 0.870825 0.166905
vt 0.926730 0.710828
vt 0.920479 0.182318
vt 0.701589 0.523849
vt 0.527157 0.285234
vt 0.795924 0.242382
vt 0.707098 0.116109
vt 0.684366 0.187554
vt 0.493124 0.118138
vt 0.407313 0.536294
vt 0.674886 0.209577
vt 0.428628 0.119410
vt 0.579333 0.057287
vt 0.672802 0.811689
vt 0.778734 0.048432
vt 0.924796 0.715055
vt 0.541898 0.040445
vt 0.915625 0.097813
vt 0.802622 0.025952
vt 0.990349 0.447062
vt 0.978419 0.093075
vt 0.871822 0.162443
vt 0.923059 0.176093
vt 0.978501 0.446622
vt 0.704876 0.522810
vt 0.798738 0.248026
vt 0.427930 0.125048
vt 0.533853 0.041068
vt 0.576284 0.060483
vt 0.488715 0.124181
vt 0.773601 0.047846
vt 0.704975 0.121374
vt 0.450125 0.403098
vt 0.686215 0.197021
vt 0.459170 0.658559
vt 0.792523 0.025027
vt 0.915184 0.100731
vt 0.674721 0.807368
vt 0.981457 0.095174
vt 0.871145 0.170876
vt 0.927274 0.710183
vt 0.919186 0.186301
vt 0.679313 0.221513
vt 0.991729 0.821259
vt 0.982113 0.874665
vt 0.415984 0.872853
vt 0.437820 0.816442
vt 0.980440 0.928654
vt 0.412186 0.929880
vt 0.414513 0.872347
vt 0.436391 0.815829
vt 0.991358 0.820135
vt 0.981723 0.873643
vt 0.410707 0.929483
vt 0.980047 0.927736
vt 0.436390 0.985684
vt 0.991358 0.980944
vt 0.410542 0.929483
vt 0.414347 0.872347
vt 0.981557 0.873642
vt 0.979881 0.927734
vt 0.436226 0.985684
vt 0.991192 0.980943
vt 0.436225 0.815829
vt 0.991192 0.820133
vt 0.005089 0.981980
vt 0.437820 0.985974
vt 0.991729 0.981760
vn 0.0033 1.0000 0.0037
vn 0.3379 0.3708 -0.8650
vn -0.3379 0.3708 -0.8650
vn 0.8180 0.3708 -0.4397
vn 0.8726 0.3593 0.3309
vn 0.1886 -0.6155 0.7652
vn -0.4408 -0.6282 0.6411
vn -0.1767 -0.9443 0.2778
vn 0.0779 -0.9455 0.3160
vn 0.2233 0.3593 0.9061
vn 0.7369 -0.6155 0.2795
vn -0.5351 0.3708 0.7590
vn -0.7557 -0.6282 0.1849
vn -0.3224 -0.9443 0.0667
vn -0.6895 -0.6282 -0.3604
vn -0.2970 -0.9443 -0.1419
vn -0.8995 0.3708 0.2312
vn -0.8180 0.3708 -0.4397
vn -0.2746 -0.6282 -0.7280
vn -0.1050 -0.9443 -0.3120
vn 0.2746 -0.6282 -0.7280
vn 0.1050 -0.9443 -0.3120
vn 0.3044 -0.9455 0.1154
vn 0.6895 -0.6282 -0.3604
vn 0.6981 0.0660 0.7129
vn 0.7141 -0.0113 0.7000
vn -0.7324 0.0028 0.6809
vn -0.6870 0.0237 0.7263
vn -0.7120 -0.0653 -0.6991
vn -0.6989 0.0073 -0.7152
vn 0.6850 0.0066 -0.7285
vn 0.7286 -0.0195 -0.6846
vn 0.6871 -0.0525 0.7247
vn -0.7027 0.0751 0.7076
vn -0.7139 0.1225 -0.6894
vn 0.7102 0.0100 -0.7040
vn 0.7504 -0.0161 -0.6608
vn 0.7504 -0.0161 0.6608
vn -0.6513 0.1573 0.7423
vn -0.6513 0.1573 -0.7423
vn 0.2970 -0.9443 -0.1419
vn 0.0696 -0.2228 -0.9724
vn 0.1924 0.8182 -0.5418
vn 0.8239 -0.1265 -0.5524
vn 0.9554 0.2804 0.0924
vn 0.6215 -0.5334 0.5738
vn 0.5188 -0.8546 0.0248
vn 0.5973 0.6311 0.4948
vn -0.1497 0.8271 0.5418
vn -0.3054 -0.0474 0.9510
vn 0.3118 -0.2300 0.9219
vn -0.1982 -0.8195 0.5378
vn -0.8451 -0.2257 0.4846
vn -0.7873 0.6165 -0.0093
vn -0.7582 -0.6417 -0.1154
vn -0.6846 0.1250 -0.7181
vn -0.1197 -0.9361 -0.3307
vn -0.5618 0.8227 -0.0873
vn -0.9274 -0.2349 -0.2909
vn -0.8235 -0.0930 0.5597
vn 0.5761 -0.8158 0.0514
vn 0.2475 -0.6185 -0.7457
vn 0.9146 -0.1247 -0.3847
vn -0.3202 0.1227 -0.9394
vn 0.4814 0.7161 -0.5055
vn 0.8928 -0.0894 0.4415
vn 0.3651 -0.4250 0.8283
vn 0.4401 0.7775 0.4493
vn -0.1768 -0.8262 0.5350
vn -0.1833 0.3810 0.9062
vn -0.2648 -0.9464 -0.1851
vn 0.6181 -0.2228 0.7538
vn 0.2100 0.8166 0.5377
vn -0.3119 -0.0978 0.9451
vn -0.8288 0.5176 0.2123
vn -0.2639 0.8271 -0.4963
vn -0.4323 -0.0474 -0.9005
vn -0.9141 -0.2969 -0.2761
vn 0.2803 -0.2257 -0.9330
vn -0.2434 -0.8204 -0.5173
vn -0.4839 -0.8090 0.3337
vn 0.5780 0.6165 -0.5347
vn 0.6298 -0.6417 -0.4376
vn 0.9909 0.1250 0.0505
vn 0.3143 -0.9361 0.1577
vn -0.5398 -0.8379 0.0816
vn 0.1456 0.3517 -0.9247
vn 0.1767 0.4099 -0.8948
vn -0.5388 -0.8342 0.1177
vn 0.1969 0.5418 0.8171
vn 0.2115 0.5672 0.7960
vn -0.8609 0.4576 0.2225
vn 0.3746 -0.7474 0.5486
vn 0.3440 -0.7476 0.5681
vn -0.8709 0.4079 0.2742
vn 0.5788 0.4522 -0.6786
vn 0.6045 0.4276 -0.6721
vn -0.8646 0.4522 -0.2191
vn 0.5803 0.4576 0.6737
vn 0.6311 0.4079 0.6598
vn -0.8702 0.4276 -0.2449
vn 0.3264 -0.7474 -0.5786
vn 0.3573 -0.7476 -0.5598
usemtl tree2_2
s 1
f 4/1/1 3/2/2 23/3/3
f 3/2/2 4/1/1 7/4/4
f 4/1/1 8/5/5 7/4/4
f 9/6/6 12/7/7 13/8/8 10/9/9
f 8/10/5 11/11/10 9/6/6 5/12/11
f 4/1/1 11/13/10 8/5/5
f 11/11/10 16/14/12 12/7/7 9/6/6
f 4/1/1 16/15/12 11/13/10
f 13/8/8 12/7/7 14/16/13 15/17/14
f 14/16/13 18/18/15 19/19/16 15/17/14
f 16/14/12 17/20/17 14/16/13 12/7/7
f 17/20/17 22/21/18 18/18/15 14/16/13
f 4/1/1 22/22/18 17/23/17
f 16/15/12 4/1/1 17/23/17
f 19/19/16 18/18/15 20/24/19 21/25/20
f 20/24/19 24/26/21 25/27/22 21/25/20
f 22/21/18 23/28/3 20/24/19 18/18/15
f 3/29/2 24/26/21 20/24/19 23/28/3
f 5/12/11 9/6/6 10/9/9 6/30/23
f 22/22/18 4/1/1 23/3/3
f 7/31/4 8/10/5 5/12/11 1/32/24
f 24/26/21 3/29/2 7/31/4 1/32/24
f 41/33/25 28/34/26 29/35/27 38/36/28
f 40/37/29 26/38/30 27/39/31 39/40/32
f 29/35/27 28/34/26 32/41/33 31/42/34
f 26/38/30 29/35/27 31/42/34 30/43/35
f 32/41/33 33/44/36 34/45/37 35/46/38
f 27/39/31 26/38/30 30/43/35 33/47/36
f 28/34/26 27/48/31 33/44/36 32/41/33
f 31/42/34 32/41/33 35/46/38 36/49/39
f 30/43/35 37/50/40 34/51/37 33/47/36
f 30/43/35 31/42/34 36/49/39 37/50/40
f 38/36/28 29/35/27 26/38/30 40/37/29
f 1/32/24 2/52/41 25/27/22 24/26/21
f 44/53/42 45/54/43 47/55/44
f 47/56/44 48/57/45 46/58/46 42/59/47
f 45/54/43 48/60/45 47/55/44
f 50/61/48 52/62/49 51/63/50 49/64/51
f 49/64/51 43/65/52 46/58/46
f 51/63/50 53/66/53 43/65/52
f 46/58/46 48/57/45 50/61/48 49/64/51
f 48/60/45 45/54/43 50/67/48
f 45/54/43 52/68/49 50/67/48
f 52/62/49 54/69/54 53/66/53 51/63/50
f 53/66/53 55/70/55 43/65/52
f 45/54/43 54/71/54 52/68/49
f 54/69/54 56/72/56 55/70/55 53/66/53
f 55/70/55 57/73/57 43/65/52
f 45/54/43 56/74/56 54/71/54
f 42/59/47 43/65/52 57/73/57
f 56/72/56 44/75/42 57/73/57 55/70/55
f 45/54/43 44/53/42 56/74/56
f 44/75/42 47/56/44 42/59/47 57/73/57
f 61/76/58 60/77/59 70/78/60
f 49/64/51 51/63/50 43/65/52
f 59/79/61 58/80/62 63/81/63
f 61/76/58 62/82/64 60/77/59
f 62/83/64 64/84/65 63/81/63 58/80/62
f 63/81/63 65/85/66 59/79/61
f 62/82/64 61/76/58 64/86/65
f 65/85/66 67/87/67 59/79/61
f 61/76/58 66/88/68 64/86/65
f 64/84/65 66/89/68 65/85/66 63/81/63
f 67/87/67 69/90/69 59/79/61
f 66/89/68 68/91/70 67/87/67 65/85/66
f 61/76/58 68/92/70 66/88/68
f 68/91/70 70/93/60 69/90/69 67/87/67
f 69/90/69 71/94/71 59/79/61
f 61/76/58 70/78/60 68/92/70
f 60/95/59 71/94/71 69/90/69 70/93/60
f 59/79/61 71/94/71 58/80/62
f 71/94/71 60/95/59 62/83/64 58/80/62
f 74/96/72 75/97/73 76/98/74
f 78/99/75 80/100/76 79/101/77 77/102/78
f 79/101/77 81/103/79 73/104/80
f 76/98/74 75/97/73 78/105/75
f 72/106/81 77/102/78 73/104/80
f 75/97/73 80/107/76 78/105/75
f 80/100/76 82/108/82 81/103/79 79/101/77
f 81/103/79 83/109/83 73/104/80
f 75/97/73 82/110/82 80/107/76
f 82/108/82 84/111/84 83/109/83 81/103/79
f 83/109/83 85/112/85 73/104/80
f 75/97/73 84/113/84 82/110/82
f 72/106/81 73/104/80 85/112/85
f 84/111/84 74/114/72 85/112/85 83/109/83
f 75/97/73 74/96/72 84/113/84
f 74/114/72 76/115/74 72/106/81 85/112/85
f 76/115/74 78/99/75 77/102/78 72/106/81
f 1/32/24 5/12/11 6/30/23 2/52/41
f 77/102/78 79/101/77 73/104/80
f 90/116/86 89/117/87 86/118/88 87/119/89
f 86/118/88 89/117/87 91/120/90 88/121/91
f 92/122/92 93/123/93 96/124/94 95/125/95
f 94/126/96 92/122/92 95/125/95 97/127/97
f 93/128/93 94/126/96 97/127/97 96/129/94
f 100/130/98 98/131/99 101/132/100 103/133/101
f 99/134/102 100/130/98 103/133/101 102/135/103
f 42/59/47 46/58/46 43/65/52
f 98/131/99 99/136/102 102/137/103 101/132/100
f 39/138/32 27/48/31 28/34/26 41/33/25
f 87/139/89 88/121/91 91/120/90 90/140/86
