# Blender v2.76 (sub 0) OBJ File: 'hillTree1.blend'
# www.blender.org
mtllib hillTree1.mtl
o leaves_Cone.005
v -0.007774 2.229605 -0.261500
v -0.022929 2.797075 -0.012847
v 0.191883 2.236674 -0.167545
v 0.242851 2.240377 0.047135
v 0.106750 2.237925 0.220882
v -0.113934 2.231165 0.222861
v -0.253020 2.225187 0.051581
v -0.205775 2.224492 -0.163980
v 0.111876 1.942668 -0.336086
v -0.018201 2.498523 -0.016035
v 0.312530 1.982237 -0.119327
v 0.310477 1.990156 0.212964
v 0.035093 1.983898 0.328823
v -0.241519 1.974942 0.234162
v -0.345952 1.936818 -0.037617
v -0.185908 1.966100 -0.289901
v 0.182931 1.633896 -0.373919
v -0.010189 2.222035 0.023266
v 0.388225 1.640432 -0.048440
v 0.283184 1.633745 0.287812
v -0.037598 1.655242 0.449168
v -0.349753 1.638400 0.238221
v -0.425196 1.666155 -0.103877
v -0.203077 1.670389 -0.365538
v 0.243958 1.360174 -0.543418
v 0.009247 2.029773 0.003337
v 0.503058 1.396674 -0.153786
v 0.427677 1.388118 0.290644
v 0.029057 1.396524 0.566907
v -0.383419 1.394074 0.336583
v -0.540624 1.410724 -0.052733
v -0.247588 1.409493 -0.464252
v -0.127390 1.085461 -0.636632
v -0.006726 1.764627 0.003076
v 0.400678 1.120529 -0.452233
v 0.657484 1.098385 0.003470
v 0.392910 1.110343 0.517041
v -0.140880 1.072758 0.626271
v -0.576452 1.065585 0.271042
v -0.596268 1.056538 -0.332968
v -0.015754 0.618287 -0.835017
v -0.004086 1.493072 -0.006594
v 0.612843 0.637963 -0.503132
v 0.821144 0.603843 0.174341
v 0.370465 0.638040 0.755683
v -0.324459 0.603697 0.712546
v -0.767045 0.609404 0.190962
v -0.644846 0.572675 -0.486403
vt 0.150924 0.633626
vt 0.520305 0.999853
vt 0.039316 0.801828
vt 0.515844 0.000147
vt 0.520305 0.520286
vt 0.318162 0.041013
vt 0.318162 0.520580
vt 0.039316 0.322261
vt 0.000147 0.520286
vt 0.150924 0.154059
vt 0.000147 0.999853
vt 0.608184 0.045065
vt 0.804984 0.000147
vt 0.962806 0.126006
vt 0.962806 0.327867
vt 0.804984 0.453726
vt 0.608183 0.408808
vt 0.520599 0.226936
vn -0.916300 0.345900 -0.201900
vn 0.382900 0.379300 -0.842300
vn -0.730500 0.359300 0.580700
vn -0.003500 0.385000 0.922900
vn 0.717500 0.403700 0.567700
vn -0.420500 0.354700 -0.835100
vn 0.889600 0.401200 -0.218100
vn 0.030700 -0.999500 0.010000
vn -0.770500 0.466300 -0.434700
vn 0.586600 0.502800 -0.634800
vn -0.839400 0.480000 0.255200
vn -0.293100 0.511100 0.808000
vn 0.313000 0.550900 0.773700
vn -0.097600 0.479400 -0.872200
vn 0.841300 0.540500 -0.007700
vn 0.042800 -0.998000 0.045600
vn -0.623400 0.584200 -0.519700
vn 0.706700 0.540400 -0.456600
vn -0.805000 0.550200 0.222200
vn -0.491700 0.538200 0.684600
vn 0.407800 0.535800 0.739300
vn 0.035800 0.567300 -0.822700
vn 0.810700 0.522800 0.263600
vn -0.029700 -0.999500 -0.012900
vn -0.642900 0.612700 -0.459600
vn 0.631600 0.611100 -0.477200
vn -0.722900 0.613300 0.318100
vn -0.390900 0.605100 0.693600
vn 0.465700 0.596400 0.653800
vn -0.064300 0.617600 -0.783900
vn 0.797300 0.585500 0.146500
vn -0.020900 -0.999800 0.006100
vn -0.772100 0.635300 0.015800
vn 0.211700 0.649900 -0.729900
vn -0.495900 0.632300 0.595200
vn 0.107200 0.653900 0.749000
vn 0.668700 0.666800 0.329000
vn -0.438200 0.656300 -0.614200
vn 0.665400 0.663200 -0.342700
vn 0.043300 -0.999000 -0.007000
vn -0.764300 0.621600 -0.171600
vn 0.341400 0.643900 -0.684700
vn -0.591900 0.624900 0.509100
vn -0.079100 0.643900 0.761100
vn 0.613300 0.658100 0.436800
vn -0.411000 0.629700 -0.659200
vn 0.738400 0.645700 -0.194500
vn 0.021600 -0.999800 0.004800
usemtl leaves
s off
f 7/1/1 2/2/1 8/3/1
f 1/4/2 2/5/2 3/6/2
f 6/7/3 2/2/3 7/1/3
f 5/8/4 2/5/4 6/9/4
f 4/10/5 2/5/5 5/8/5
f 8/3/6 2/2/6 1/11/6
f 3/6/7 2/5/7 4/10/7
f 1/12/8 3/13/8 4/14/8 5/15/8 6/16/8 7/17/8 8/18/8
f 15/1/9 10/2/9 16/3/9
f 9/4/10 10/5/10 11/6/10
f 14/7/11 10/2/11 15/1/11
f 13/8/12 10/5/12 14/9/12
f 12/10/13 10/5/13 13/8/13
f 16/3/14 10/2/14 9/11/14
f 11/6/15 10/5/15 12/10/15
f 9/12/16 11/13/16 12/14/16 13/15/16 14/16/16 15/17/16 16/18/16
f 23/1/17 18/2/17 24/3/17
f 17/4/18 18/5/18 19/6/18
f 22/7/19 18/2/19 23/1/19
f 21/8/20 18/5/20 22/9/20
f 20/10/21 18/5/21 21/8/21
f 24/3/22 18/2/22 17/11/22
f 19/6/23 18/5/23 20/10/23
f 17/12/24 19/13/24 20/14/24 21/15/24 22/16/24 23/17/24 24/18/24
f 31/1/25 26/2/25 32/3/25
f 25/4/26 26/5/26 27/6/26
f 30/7/27 26/2/27 31/1/27
f 29/8/28 26/5/28 30/9/28
f 28/10/29 26/5/29 29/8/29
f 32/3/30 26/2/30 25/11/30
f 27/6/31 26/5/31 28/10/31
f 25/12/32 27/13/32 28/14/32 29/15/32 30/16/32 31/17/32 32/18/32
f 39/1/33 34/2/33 40/3/33
f 33/4/34 34/5/34 35/6/34
f 38/7/35 34/2/35 39/1/35
f 37/8/36 34/5/36 38/9/36
f 36/10/37 34/5/37 37/8/37
f 40/3/38 34/2/38 33/11/38
f 35/6/39 34/5/39 36/10/39
f 33/12/40 35/13/40 36/14/40 37/15/40 38/16/40 39/17/40 40/18/40
f 47/1/41 42/2/41 48/3/41
f 41/4/42 42/5/42 43/6/42
f 46/7/43 42/2/43 47/1/43
f 45/8/44 42/5/44 46/9/44
f 44/10/45 42/5/45 45/8/45
f 48/3/46 42/2/46 41/11/46
f 43/6/47 42/5/47 44/10/47
f 41/12/48 43/13/48 44/14/48 45/15/48 46/16/48 47/17/48 48/18/48
o wood_Cylinder
v 0.002971 -0.719296 -0.173229
v 0.002999 0.732310 -0.098680
v 0.114899 -0.719296 -0.132491
v 0.067025 0.732310 -0.075376
v 0.174454 -0.719296 -0.029338
v 0.101093 0.732310 -0.016369
v 0.153771 -0.719296 0.087964
v 0.089261 0.732310 0.050732
v 0.062527 -0.719296 0.164527
v 0.037066 0.732310 0.094528
v -0.056584 -0.719296 0.164527
v -0.031069 0.732310 0.094528
v -0.147829 -0.719296 0.087964
v -0.083264 0.732310 0.050732
v -0.168512 -0.719296 -0.029338
v -0.095096 0.732310 -0.016369
v -0.108957 -0.719296 -0.132491
v -0.061028 0.732310 -0.075376
v 0.002971 -0.145677 -0.129905
v 0.002999 0.322497 -0.124516
v 0.085062 0.310834 -0.094796
v 0.089613 -0.150473 -0.102132
v 0.126537 0.322497 -0.020855
v 0.131788 -0.145677 -0.021814
v 0.116113 0.313100 0.062155
v 0.119460 -0.156500 0.065729
v 0.045903 0.322497 0.118807
v 0.047709 -0.145677 0.123815
v -0.031323 0.346951 0.106304
v -0.046961 -0.151690 0.132219
v -0.105639 0.322497 0.063650
v -0.110308 -0.145677 0.066301
v -0.120540 0.322497 -0.020855
v -0.125846 -0.145677 -0.021814
v -0.081457 0.313166 -0.102552
v -0.069658 -0.139934 -0.091864
vt 0.555549 0.645555
vt 0.555549 0.999219
vt 0.444451 0.999219
vt 0.444451 0.645555
vt 0.333352 0.999218
vt 0.333352 0.645554
vt 0.222254 0.999218
vt 0.222254 0.645554
vt 0.111155 0.999217
vt 0.111156 0.645553
vt 0.000057 0.999217
vt 0.000057 0.645553
vt 0.999943 0.645556
vt 0.999943 0.999220
vt 0.888844 0.999220
vt 0.888844 0.645555
vt 0.777746 0.999219
vt 0.777746 0.645555
vt 0.666648 0.645555
vt 0.666648 0.999219
vt 0.777746 -0.061773
vt 0.777746 0.291891
vt 0.666648 0.291891
vt 0.666648 -0.061773
vt 0.555549 0.291891
vt 0.555549 -0.061773
vt 0.888845 -0.061773
vt 0.888844 0.291891
vt 0.999943 -0.061773
vt 0.999943 0.291892
vt 0.111156 -0.061774
vt 0.111156 0.291890
vt 0.000057 0.291889
vt 0.000058 -0.061775
vt 0.222254 -0.061774
vt 0.222254 0.291890
vt 0.333353 -0.061773
vt 0.333352 0.291890
vt 0.444451 -0.061773
vt 0.444451 0.291891
vn 0.344700 0.058500 -0.936900
vn 0.865600 0.059600 -0.497100
vn 0.986600 0.063500 0.150300
vn 0.636000 0.060500 0.769300
vn -0.078200 0.044300 0.996000
vn -0.569200 0.041700 0.821100
vn -0.983100 0.059100 0.173300
vn -0.294900 0.068200 -0.953100
vn -0.883500 0.066600 -0.463700
vn -0.829900 0.082000 -0.551900
vn -0.847000 -0.011600 -0.531500
vn -0.389200 0.080100 -0.917700
vn -0.356600 -0.009900 -0.934200
vn -0.982300 0.070800 0.173200
vn -0.984800 0.010800 0.173600
vn -0.675100 0.062700 0.735100
vn -0.621800 0.036200 0.782300
vn 0.037400 0.064000 0.997300
vn -0.020400 0.032300 0.999300
vn 0.638100 0.070100 0.766800
vn 0.629500 0.010600 0.777000
vn 0.984300 0.068800 0.162300
vn 0.991000 0.009500 0.133300
vn 0.871800 0.067900 -0.485200
vn 0.878400 0.013500 -0.477800
vn 0.326900 0.068000 -0.942600
vn 0.323800 0.014500 -0.946000
usemtl wood
s off
f 68/19/49 50/20/49 52/21/49 69/22/49
f 69/22/50 52/21/50 54/23/50 71/24/50
f 71/24/51 54/23/51 56/25/51 73/26/51
f 73/26/52 56/25/52 58/27/52 75/28/52
f 75/28/53 58/27/53 60/29/53 77/30/53
f 77/31/54 60/32/54 62/33/54 79/34/54
f 79/34/55 62/33/55 64/35/55 81/36/55
f 83/37/56 66/38/56 50/20/56 68/19/56
f 81/36/57 64/35/57 66/38/57 83/37/57
f 63/39/58 82/40/58 84/41/58 65/42/58
f 82/40/59 81/36/59 83/37/59 84/41/59
f 65/42/60 84/41/60 67/43/60 49/44/60
f 84/41/61 83/37/61 68/19/61 67/43/61
f 61/45/62 80/46/62 82/40/62 63/39/62
f 80/46/63 79/34/63 81/36/63 82/40/63
f 59/47/64 78/48/64 80/46/64 61/45/64
f 78/48/65 77/31/65 79/34/65 80/46/65
f 57/49/66 76/50/66 78/51/66 59/52/66
f 76/50/67 75/28/67 77/30/67 78/51/67
f 55/53/68 74/54/68 76/50/68 57/49/68
f 74/54/69 73/26/69 75/28/69 76/50/69
f 53/55/70 72/56/70 74/54/70 55/53/70
f 72/56/71 71/24/71 73/26/71 74/54/71
f 51/57/72 70/58/72 72/56/72 53/55/72
f 70/58/73 69/22/73 71/24/73 72/56/73
f 49/44/74 67/43/74 70/58/74 51/57/74
f 67/43/75 68/19/75 69/22/75 70/58/75
