# Blender v2.76 (sub 0) OBJ File: 'hillTree1.blend'
# www.blender.org
mtllib hillTree1.mtl
o Cone.005
v 0.495605 2.544364 0.056129
v 0.118873 3.457954 0.043425
v 0.218932 2.548246 0.416454
v -0.209249 2.552344 0.264649
v -0.197206 2.550994 -0.189495
v 0.238417 2.546062 -0.318368
v 0.529287 2.226724 -0.094441
v 0.114332 2.932512 0.044852
v 0.374612 2.226292 0.397511
v -0.141073 2.225497 0.402436
v -0.305108 2.225436 -0.086472
v 0.109197 2.226195 -0.393559
v 0.655565 1.883384 0.118936
v 0.106520 2.490273 0.044716
v 0.215742 1.869717 0.577583
v -0.356230 1.851225 0.300920
v -0.269906 1.853465 -0.328715
v 0.355418 1.873340 -0.441188
v 0.539118 1.360845 -0.400113
v 0.113177 2.072528 0.045148
v 0.667850 1.360762 0.313713
v 0.028720 1.359643 0.656729
v -0.495016 1.359034 0.154899
v -0.179572 1.359777 -0.498265
v 0.403203 0.952634 -0.544128
v 0.124010 1.716102 0.038556
v 0.750593 0.941138 0.142116
v 0.205533 0.956718 0.684711
v -0.478723 0.977844 0.333809
v -0.356556 0.975319 -0.425656
v 0.106467 0.538156 -0.699722
v 0.107616 1.395010 0.042240
v 0.812415 0.539040 -0.186838
v 0.542763 0.538298 0.643031
v -0.329838 0.536955 0.643034
v -0.599484 0.536867 -0.186833
vt 0.000000 0.000000
vt 1.000000 0.000000
vt 1.000000 1.000000
vt 0.500000 1.000000
vt 0.975528 0.654508
vt 0.793893 0.095491
vt 0.206107 0.095492
vt 0.024472 0.654509
vn -0.264900 0.325400 -0.907700
vn 0.753500 0.318700 0.575100
vn -0.941900 0.334900 -0.026000
vn 0.782900 0.315400 -0.536200
vn -0.312500 0.330800 0.890500
vn -0.010500 -0.999900 0.002700
vn -0.532600 0.449200 -0.717400
vn 0.852600 0.448300 0.268500
vn -0.846900 0.449600 0.284100
vn 0.518100 0.448400 -0.728400
vn 0.007800 0.449100 0.893500
vn 0.001500 -1.000000 -0.000400
vn -0.163100 0.569000 -0.806000
vn 0.574400 0.589100 0.568400
vn -0.825600 0.553200 -0.111200
vn 0.706300 0.591400 -0.389100
vn -0.373900 0.565500 0.735200
vn 0.031900 -0.999500 0.000800
vn -0.737600 0.574000 -0.355600
vn 0.806200 0.573500 -0.145300
vn -0.566800 0.574100 0.590900
vn 0.110000 0.573700 -0.811700
vn 0.386500 0.573700 0.722100
vn -0.792800 0.595500 -0.129500
vn 0.746400 0.554200 -0.368500
vn -0.356400 0.583000 0.730100
vn -0.108900 0.577600 -0.809000
vn 0.593600 0.557500 0.580300
vn -0.030100 -0.999500 -0.001500
vn -0.778700 0.574100 0.253000
vn 0.481000 0.573500 -0.663100
vn -0.000900 0.573900 0.819000
vn -0.482000 0.573900 -0.662000
vn 0.779000 0.573500 0.253600
usemtl leaves
s off
f 5/1/1 2/2/1 6/3/1
f 1/1/2 2/2/2 3/3/2
f 4/1/3 2/2/3 5/3/3
f 6/1/4 2/2/4 1/3/4
f 3/1/5 2/2/5 4/3/5
f 1/4/6 3/5/6 4/6/6 5/7/6 6/8/6
f 11/1/7 8/2/7 12/3/7
f 7/1/8 8/2/8 9/3/8
f 10/1/9 8/2/9 11/3/9
f 12/1/10 8/2/10 7/3/10
f 9/1/11 8/2/11 10/3/11
f 7/4/12 9/5/12 10/6/12 11/7/12 12/8/12
f 17/1/13 14/2/13 18/3/13
f 13/1/14 14/2/14 15/3/14
f 16/1/15 14/2/15 17/3/15
f 18/1/16 14/2/16 13/3/16
f 15/1/17 14/2/17 16/3/17
f 13/4/18 15/5/18 16/6/18 17/7/18 18/8/18
f 23/1/19 20/2/19 24/3/19
f 19/1/20 20/2/20 21/3/20
f 22/1/21 20/2/21 23/3/21
f 24/1/22 20/2/22 19/3/22
f 21/1/23 20/2/23 22/3/23
f 19/4/12 21/5/12 22/6/12 23/7/12 24/8/12
f 29/1/24 26/2/24 30/3/24
f 25/1/25 26/2/25 27/3/25
f 28/1/26 26/2/26 29/3/26
f 30/1/27 26/2/27 25/3/27
f 27/1/28 26/2/28 28/3/28
f 25/4/29 27/5/29 28/6/29 29/7/29 30/8/29
f 35/1/30 32/2/30 36/3/30
f 31/1/31 32/2/31 33/3/31
f 34/1/32 32/2/32 35/3/32
f 36/1/33 32/2/33 31/3/33
f 33/1/34 32/2/34 34/3/34
f 31/4/12 33/5/12 34/6/12 35/7/12 36/8/12
o wood_Cylinder.001
v 0.115106 -0.612628 0.067054
v 0.115106 2.467667 0.067054
v 0.115106 -0.612628 -0.118016
v 0.115106 2.467667 0.006402
v 0.234067 -0.612628 -0.074718
v 0.154093 2.467667 0.020592
v 0.297364 -0.612628 0.034917
v 0.174837 2.467667 0.056522
v 0.275381 -0.612628 0.159589
v 0.167632 2.467667 0.097380
v 0.178404 -0.612628 0.240962
v 0.135850 2.467667 0.124048
v 0.051809 -0.612628 0.240962
v 0.094362 2.467667 0.124048
v -0.045169 -0.612628 0.159589
v 0.062580 2.467667 0.097380
v -0.067152 -0.612628 0.034917
v 0.055376 2.467667 0.056522
v -0.003854 -0.612628 -0.074718
v 0.076120 2.467667 0.020592
vt 0.000000 0.000000
vt 1.000000 0.000000
vt 1.000000 1.000000
vt 0.000000 1.000000
vn 0.000000 -1.000000 0.000000
vn 0.000000 1.000000 0.000000
vn 0.341800 0.037900 -0.939000
vn 0.865400 0.037900 -0.499600
vn 0.984100 0.037900 0.173500
vn 0.642300 0.037900 0.765500
vn 0.000000 0.037900 0.999300
vn -0.642300 0.037900 0.765500
vn -0.984100 0.037900 0.173500
vn -0.865400 0.037900 -0.499600
vn -0.341800 0.037900 -0.939000
usemtl wood
s off
f 37/9/35 39/10/35 41/11/35
f 38/9/36 42/10/36 40/11/36
f 39/9/37 40/10/37 42/11/37 41/12/37
f 37/9/35 41/10/35 43/11/35
f 38/9/36 44/10/36 42/11/36
f 41/9/38 42/10/38 44/11/38 43/12/38
f 37/9/35 43/10/35 45/11/35
f 38/9/36 46/10/36 44/11/36
f 43/9/39 44/10/39 46/11/39 45/12/39
f 37/9/35 45/10/35 47/11/35
f 38/9/36 48/10/36 46/11/36
f 45/9/40 46/10/40 48/11/40 47/12/40
f 37/9/35 47/10/35 49/11/35
f 38/9/36 50/10/36 48/11/36
f 47/9/41 48/10/41 50/11/41 49/12/41
f 37/9/35 49/10/35 51/11/35
f 38/9/36 52/10/36 50/11/36
f 49/9/42 50/10/42 52/11/42 51/12/42
f 37/9/35 51/10/35 53/11/35
f 38/9/36 54/10/36 52/11/36
f 51/9/43 52/10/43 54/11/43 53/12/43
f 37/9/35 53/10/35 55/11/35
f 38/9/36 56/10/36 54/11/36
f 53/9/44 54/10/44 56/11/44 55/12/44
f 37/9/35 55/10/35 39/11/35
f 38/9/36 40/10/36 56/11/36
f 55/9/45 56/10/45 40/11/45 39/12/45
