# Blender v2.76 (sub 0) OBJ File: 'tree1.blend'
# www.blender.org
mtllib tree1.mtl
o leaves_Icosphere.006
v 0.394556 1.426893 -0.008193
v 0.603911 1.631421 0.147664
v 0.718134 1.355420 0.003690
v 0.493610 1.115678 0.049151
v 0.240624 1.243519 0.221223
v 0.308796 1.562263 0.282106
v 0.832357 1.446612 0.301332
v 0.764185 1.127868 0.240450
v 0.469069 1.058710 0.374892
v 0.354846 1.334711 0.518865
v 0.579371 1.574453 0.473405
v 0.678425 1.263238 0.530748
v -0.113587 1.398067 0.535465
v 0.001394 1.548798 0.644938
v -0.120728 1.607789 0.473093
v -0.106973 1.449280 0.322724
v 0.023651 1.292326 0.401640
v 0.090624 1.353833 0.600778
v 0.079069 1.693169 0.499855
v 0.012096 1.631663 0.300718
v 0.101327 1.436698 0.256558
v 0.223448 1.377707 0.428402
v 0.209693 1.536215 0.578771
v 0.216307 1.587428 0.366030
v -0.132893 1.365139 -0.617942
v 0.074072 1.429343 -0.371975
v 0.186991 1.302266 -0.652254
v -0.034970 1.087955 -0.762987
v -0.285068 1.082586 -0.551139
v -0.217674 1.293574 -0.309483
v 0.299909 1.191839 -0.365004
v 0.232515 0.980851 -0.606660
v -0.059231 0.845082 -0.544168
v -0.172149 0.972159 -0.263889
v 0.049812 1.186469 -0.153156
v 0.147735 0.909285 -0.298201
v 0.073679 1.721753 -0.280692
v 0.132608 1.910686 -0.205106
v 0.269429 1.794078 -0.317193
v 0.239489 1.590716 -0.265914
v 0.084162 1.581644 -0.122132
v 0.018107 1.779396 -0.084553
v 0.334840 1.896417 -0.143613
v 0.400894 1.698666 -0.181193
v 0.286394 1.567375 -0.060640
v 0.149572 1.683984 0.051448
v 0.179512 1.887346 0.000168
v 0.345323 1.756309 0.014947
v -0.546424 1.818634 -0.510338
v -0.337068 2.023162 -0.354481
v -0.222845 1.747161 -0.498455
v -0.447370 1.507419 -0.452994
v -0.700356 1.635260 -0.280922
v -0.632183 1.954004 -0.220040
v -0.108622 1.838353 -0.200813
v -0.176795 1.519609 -0.261695
v -0.471910 1.450451 -0.127254
v -0.586133 1.726452 0.016720
v -0.361608 1.966194 -0.028741
v -0.262554 1.654979 0.028603
v -0.343986 1.917460 -0.002900
v -0.276766 2.188239 0.191295
v -0.023459 1.987460 0.086062
v -0.134953 1.666372 0.090979
v -0.457170 1.668714 0.199254
v -0.544812 1.991245 0.261252
v -0.026187 2.104503 0.405196
v 0.061455 1.781972 0.343198
v -0.206591 1.584978 0.413154
v -0.459899 1.785757 0.518388
v -0.348405 2.106845 0.513470
v -0.139372 1.855757 0.607350
v -0.012843 2.384271 -0.422140
v 0.205749 2.749547 -0.258210
v 0.372857 2.331574 -0.184358
v 0.021256 2.049577 -0.114078
v -0.363151 2.293277 -0.144497
v -0.249125 2.725879 -0.233575
v 0.374949 2.640607 0.151168
v 0.260923 2.208006 0.240247
v -0.193951 2.184337 0.264882
v -0.361059 2.602311 0.191030
v -0.009459 2.884307 0.120750
v 0.024641 2.549613 0.428812
vt 0.000000 0.000000
vt 1.000000 0.000000
vt 1.000000 1.000000
vn 0.142500 0.503500 -0.852200
vn -0.402000 0.778600 -0.481800
vn -0.004200 -0.182500 -0.983200
vn -0.639400 -0.331300 -0.693800
vn -0.885200 0.262700 -0.384000
vn -0.156100 0.974900 0.158700
vn 0.724800 0.529700 -0.440500
vn 0.487400 -0.580200 -0.652500
vn -0.540300 -0.821100 -0.184300
vn -0.938000 0.140100 0.317100
vn 0.540300 0.821100 0.184300
vn 0.938000 -0.140100 -0.317100
vn 0.156100 -0.974900 -0.158700
vn -0.724800 -0.529700 0.440500
vn -0.487400 0.580200 0.652500
vn 0.639400 0.331300 0.693800
vn 0.885200 -0.262700 0.384000
vn 0.402000 -0.778600 0.481800
vn -0.142500 -0.503500 0.852200
vn 0.004200 0.182500 0.983200
vn -0.779700 0.154000 0.606900
vn -0.353900 -0.357700 0.864200
vn -0.998000 -0.046500 -0.042200
vn -0.707100 -0.682100 -0.186200
vn -0.309000 -0.874400 0.374000
vn 0.297400 -0.079400 0.951400
vn -0.391500 0.748500 0.535200
vn -0.744800 0.424100 -0.515200
vn -0.274100 -0.604300 -0.748100
vn 0.370000 -0.915400 0.158300
vn 0.274100 0.604300 0.748100
vn -0.370000 0.915400 -0.158300
vn -0.297400 0.079400 -0.951400
vn 0.391500 -0.748500 -0.535200
vn 0.744800 -0.424100 0.515200
vn 0.707100 0.682100 0.186200
vn 0.309000 0.874400 -0.374000
vn 0.353900 0.357700 -0.864200
vn 0.779700 -0.154000 -0.606900
vn 0.998000 0.046500 0.042200
vn 0.142500 0.921800 -0.360500
vn -0.402000 0.910100 0.100700
vn -0.004200 0.462500 -0.886600
vn -0.639400 0.166900 -0.750600
vn -0.885200 0.443500 -0.140400
vn -0.156100 0.669700 0.726000
vn 0.724800 0.688600 -0.020200
vn 0.487400 -0.054600 -0.871400
vn -0.540300 -0.532800 -0.651300
vn -0.938000 -0.085200 0.336000
vn 0.540300 0.532800 0.651300
vn 0.938000 0.085200 -0.336000
vn 0.156100 -0.669700 -0.726000
vn -0.724800 -0.688600 0.020200
vn -0.487400 0.054600 0.871400
vn 0.639400 -0.166900 0.750600
vn 0.885200 -0.443500 0.140400
vn 0.402000 -0.910100 -0.100700
vn -0.142500 -0.921800 0.360500
vn 0.004200 -0.462500 0.886600
vn -0.318100 0.436000 -0.841900
vn -0.841300 0.405400 -0.357500
vn -0.095600 -0.230100 -0.968500
vn -0.481300 -0.672400 -0.562300
vn -0.942200 -0.279600 -0.184800
vn -0.621000 0.750200 0.227200
vn 0.225600 0.799600 -0.556500
vn 0.585700 -0.278200 -0.761300
vn -0.038400 -0.993800 -0.104200
vn -0.784200 -0.358200 0.506700
vn 0.038400 0.993800 0.104200
vn 0.784200 0.358200 -0.506700
vn 0.621000 -0.750200 -0.227200
vn -0.225600 -0.799600 0.556500
vn -0.585700 0.278200 0.761300
vn 0.481300 0.672400 0.562300
vn 0.942200 0.279600 0.184800
vn 0.841300 -0.405400 0.357500
vn 0.318100 -0.436000 0.841900
vn 0.095600 0.230100 0.968500
vn 0.104900 0.562300 -0.820300
vn -0.571600 0.567200 -0.593000
vn 0.288900 -0.114900 -0.950400
vn -0.273900 -0.528400 -0.803600
vn -0.805700 -0.106900 -0.582700
vn -0.577300 0.812900 0.077000
vn 0.517200 0.804900 -0.290800
vn 0.814900 -0.290700 -0.501400
vn -0.095600 -0.959800 -0.263800
vn -0.956100 -0.277800 0.093700
vn 0.095600 0.959800 0.263800
vn 0.956100 0.277800 -0.093700
vn 0.577300 -0.812900 -0.077000
vn -0.517200 -0.804900 0.290800
vn -0.814900 0.290700 0.501400
vn 0.273900 0.528400 0.803600
vn 0.805700 0.106900 0.582700
vn 0.571600 -0.567200 0.593000
vn -0.104900 -0.562300 0.820300
vn -0.288900 0.114900 0.950400
vn 0.529900 0.062400 -0.845700
vn -0.071500 0.443700 -0.893300
vn 0.351500 -0.614400 -0.706400
vn -0.360100 -0.651400 -0.667800
vn -0.621500 0.002500 -0.783400
vn -0.068200 0.927200 -0.368400
vn 0.904900 0.310300 -0.291400
vn 0.616200 -0.784800 -0.065900
vn -0.535200 -0.844700 -0.003600
vn -0.958200 0.213300 -0.190500
vn 0.535200 0.844700 0.003600
vn 0.958200 -0.213300 0.190500
vn 0.068200 -0.927200 0.368400
vn -0.904900 -0.310300 0.291400
vn -0.616200 0.784800 0.065900
vn 0.360100 0.651400 0.667800
vn 0.621500 -0.002500 0.783400
vn 0.071500 -0.443700 0.893300
vn -0.529900 -0.062400 0.845700
vn -0.351500 0.614400 0.706400
usemtl leaves
s off
f 1/1/1 2/2/1 3/3/1
f 2/1/2 1/2/2 6/3/2
f 1/1/3 3/2/3 4/3/3
f 1/1/4 4/2/4 5/3/4
f 1/1/5 5/2/5 6/3/5
f 2/1/6 6/2/6 11/3/6
f 3/1/7 2/2/7 7/3/7
f 4/1/8 3/2/8 8/3/8
f 5/1/9 4/2/9 9/3/9
f 6/1/10 5/2/10 10/3/10
f 2/1/11 11/2/11 7/3/11
f 3/1/12 7/2/12 8/3/12
f 4/1/13 8/2/13 9/3/13
f 5/1/14 9/2/14 10/3/14
f 6/1/15 10/2/15 11/3/15
f 7/1/16 11/2/16 12/3/16
f 8/1/17 7/2/17 12/3/17
f 9/1/18 8/2/18 12/3/18
f 10/1/19 9/2/19 12/3/19
f 11/1/20 10/2/20 12/3/20
f 13/1/21 14/2/21 15/3/21
f 14/1/22 13/2/22 18/3/22
f 13/1/23 15/2/23 16/3/23
f 13/1/24 16/2/24 17/3/24
f 13/1/25 17/2/25 18/3/25
f 14/1/26 18/2/26 23/3/26
f 15/1/27 14/2/27 19/3/27
f 16/1/28 15/2/28 20/3/28
f 17/1/29 16/2/29 21/3/29
f 18/1/30 17/2/30 22/3/30
f 14/1/31 23/2/31 19/3/31
f 15/1/32 19/2/32 20/3/32
f 16/1/33 20/2/33 21/3/33
f 17/1/34 21/2/34 22/3/34
f 18/1/35 22/2/35 23/3/35
f 19/1/36 23/2/36 24/3/36
f 20/1/37 19/2/37 24/3/37
f 21/1/38 20/2/38 24/3/38
f 22/1/39 21/2/39 24/3/39
f 23/1/40 22/2/40 24/3/40
f 25/1/41 26/2/41 27/3/41
f 26/1/42 25/2/42 30/3/42
f 25/1/43 27/2/43 28/3/43
f 25/1/44 28/2/44 29/3/44
f 25/1/45 29/2/45 30/3/45
f 26/1/46 30/2/46 35/3/46
f 27/1/47 26/2/47 31/3/47
f 28/1/48 27/2/48 32/3/48
f 29/1/49 28/2/49 33/3/49
f 30/1/50 29/2/50 34/3/50
f 26/1/51 35/2/51 31/3/51
f 27/1/52 31/2/52 32/3/52
f 28/1/53 32/2/53 33/3/53
f 29/1/54 33/2/54 34/3/54
f 30/1/55 34/2/55 35/3/55
f 31/1/56 35/2/56 36/3/56
f 32/1/57 31/2/57 36/3/57
f 33/1/58 32/2/58 36/3/58
f 34/1/59 33/2/59 36/3/59
f 35/1/60 34/2/60 36/3/60
f 37/1/61 38/2/61 39/3/61
f 38/1/62 37/2/62 42/3/62
f 37/1/63 39/2/63 40/3/63
f 37/1/64 40/2/64 41/3/64
f 37/1/65 41/2/65 42/3/65
f 38/1/66 42/2/66 47/3/66
f 39/1/67 38/2/67 43/3/67
f 40/1/68 39/2/68 44/3/68
f 41/1/69 40/2/69 45/3/69
f 42/1/70 41/2/70 46/3/70
f 38/1/71 47/2/71 43/3/71
f 39/1/72 43/2/72 44/3/72
f 40/1/73 44/2/73 45/3/73
f 41/1/74 45/2/74 46/3/74
f 42/1/75 46/2/75 47/3/75
f 43/1/76 47/2/76 48/3/76
f 44/1/77 43/2/77 48/3/77
f 45/1/78 44/2/78 48/3/78
f 46/1/79 45/2/79 48/3/79
f 47/1/80 46/2/80 48/3/80
f 49/1/1 50/2/1 51/3/1
f 50/1/2 49/2/2 54/3/2
f 49/1/3 51/2/3 52/3/3
f 49/1/4 52/2/4 53/3/4
f 49/1/5 53/2/5 54/3/5
f 50/1/6 54/2/6 59/3/6
f 51/1/7 50/2/7 55/3/7
f 52/1/8 51/2/8 56/3/8
f 53/1/9 52/2/9 57/3/9
f 54/1/10 53/2/10 58/3/10
f 50/1/11 59/2/11 55/3/11
f 51/1/12 55/2/12 56/3/12
f 52/1/13 56/2/13 57/3/13
f 53/1/14 57/2/14 58/3/14
f 54/1/15 58/2/15 59/3/15
f 55/1/16 59/2/16 60/3/16
f 56/1/17 55/2/17 60/3/17
f 57/1/18 56/2/18 60/3/18
f 58/1/19 57/2/19 60/3/19
f 59/1/20 58/2/20 60/3/20
f 61/1/81 62/2/81 63/3/81
f 62/1/82 61/2/82 66/3/82
f 61/1/83 63/2/83 64/3/83
f 61/1/84 64/2/84 65/3/84
f 61/1/85 65/2/85 66/3/85
f 62/1/86 66/2/86 71/3/86
f 63/1/87 62/2/87 67/3/87
f 64/1/88 63/2/88 68/3/88
f 65/1/89 64/2/89 69/3/89
f 66/1/90 65/2/90 70/3/90
f 62/1/91 71/2/91 67/3/91
f 63/1/92 67/2/92 68/3/92
f 64/1/93 68/2/93 69/3/93
f 65/1/94 69/2/94 70/3/94
f 66/1/95 70/2/95 71/3/95
f 67/1/96 71/2/96 72/3/96
f 68/1/97 67/2/97 72/3/97
f 69/1/98 68/2/98 72/3/98
f 70/1/99 69/2/99 72/3/99
f 71/1/100 70/2/100 72/3/100
f 73/1/101 74/2/101 75/3/101
f 74/1/102 73/2/102 78/3/102
f 73/1/103 75/2/103 76/3/103
f 73/1/104 76/2/104 77/3/104
f 73/1/105 77/2/105 78/3/105
f 74/1/106 78/2/106 83/3/106
f 75/1/107 74/2/107 79/3/107
f 76/1/108 75/2/108 80/3/108
f 77/1/109 76/2/109 81/3/109
f 78/1/110 77/2/110 82/3/110
f 74/1/111 83/2/111 79/3/111
f 75/1/112 79/2/112 80/3/112
f 76/1/113 80/2/113 81/3/113
f 77/1/114 81/2/114 82/3/114
f 78/1/115 82/2/115 83/3/115
f 79/1/116 83/2/116 84/3/116
f 80/1/117 79/2/117 84/3/117
f 81/1/118 80/2/118 84/3/118
f 82/1/119 81/2/119 84/3/119
f 83/1/120 82/2/120 84/3/120
o wood_Cylinder.006
v -0.190779 1.832148 0.229783
v -0.010977 1.659822 0.030028
v -0.193803 1.825098 0.233142
v -0.017645 1.644279 0.037436
v -0.197096 1.826747 0.228755
v -0.024906 1.647915 0.027763
v -0.197434 1.830924 0.224848
v -0.025650 1.657123 0.019150
v -0.194657 1.835673 0.223251
v -0.019528 1.667594 0.015627
v -0.190066 1.838772 0.224709
v -0.009405 1.674428 0.018843
v -0.185808 1.838772 0.228542
v -0.000018 1.674428 0.027292
v -0.183877 1.835673 0.232955
v 0.004242 1.667594 0.037022
v -0.185174 1.830924 0.235883
v 0.001380 1.657123 0.043480
v -0.189095 1.826747 0.235957
v -0.007263 1.647915 0.043643
v 0.212354 1.731240 -0.119472
v 0.053643 1.407816 -0.042552
v 0.212523 1.730291 -0.123113
v 0.054598 1.402449 -0.063148
v 0.214665 1.729527 -0.121903
v 0.066718 1.398129 -0.056304
v 0.215727 1.729565 -0.119556
v 0.072720 1.398342 -0.043025
v 0.215209 1.730386 -0.117169
v 0.069795 1.402988 -0.029525
v 0.213356 1.731607 -0.115860
v 0.059312 1.409893 -0.022120
v 0.211034 1.732656 -0.116241
v 0.046177 1.415826 -0.024276
v 0.209329 1.733042 -0.118134
v 0.036535 1.418011 -0.034983
v 0.209040 1.732585 -0.120653
v 0.034898 1.415426 -0.049232
v 0.210301 1.731498 -0.122620
v 0.042031 1.409280 -0.060355
v -0.367594 1.721947 -0.127043
v -0.036869 1.498950 -0.019456
v -0.371892 1.714899 -0.128441
v -0.049133 1.478836 -0.023446
v -0.369222 1.716548 -0.133231
v -0.041513 1.483541 -0.037118
v -0.365790 1.720723 -0.135126
v -0.031720 1.495457 -0.042525
v -0.363202 1.725471 -0.133239
v -0.024336 1.509006 -0.037139
v -0.362670 1.728570 -0.128452
v -0.022817 1.517850 -0.023479
v -0.364442 1.728570 -0.123006
v -0.027873 1.517850 -0.007936
v -0.367689 1.725471 -0.119448
v -0.037138 1.509006 0.002216
v -0.370891 1.720723 -0.119444
v -0.046278 1.495457 0.002227
v -0.372551 1.716548 -0.122996
v -0.051015 1.483541 -0.007908
v 0.442731 1.390800 0.214156
v 0.072276 1.123742 0.023799
v 0.448152 1.381295 0.216942
v 0.086014 1.099654 0.030858
v 0.443566 1.383519 0.222746
v 0.074393 1.105290 0.045566
v 0.438590 1.389150 0.224531
v 0.061782 1.119559 0.050089
v 0.435551 1.395553 0.221461
v 0.054081 1.135786 0.042311
v 0.435871 1.399733 0.214973
v 0.054894 1.146377 0.025870
v 0.439402 1.399733 0.208103
v 0.063840 1.146377 0.008461
v 0.444490 1.395553 0.204065
v 0.076733 1.135786 -0.001772
v 0.448755 1.389150 0.204749
v 0.087541 1.119559 -0.000039
v 0.450201 1.383519 0.209834
v 0.091206 1.105290 0.012847
v 0.058258 1.554690 0.489480
v 0.012524 1.264716 0.039560
v 0.058685 1.548104 0.493681
v 0.014220 1.238562 0.056245
v 0.053582 1.549645 0.493207
v -0.006045 1.244681 0.054361
v 0.050668 1.553546 0.490989
v -0.017622 1.260175 0.045552
v 0.051304 1.557983 0.488065
v -0.015093 1.277794 0.033939
v 0.055195 1.560878 0.485803
v 0.000359 1.289294 0.024957
v 0.060519 1.560878 0.485262
v 0.021502 1.289294 0.022808
v 0.064785 1.557983 0.486695
v 0.038445 1.277794 0.028497
v 0.065997 1.553546 0.489431
v 0.043259 1.260175 0.039363
v 0.063588 1.549645 0.492190
v 0.033692 1.244681 0.050322
v 0.016386 1.156929 -0.483913
v 0.016386 0.805792 0.063716
v 0.016386 1.141584 -0.493752
v 0.016386 0.774120 0.043408
v 0.028103 1.145174 -0.491450
v 0.040569 0.781530 0.048159
v 0.034338 1.154264 -0.485622
v 0.053437 0.800292 0.060189
v 0.032172 1.164602 -0.478993
v 0.048968 0.821628 0.073870
v 0.022620 1.171349 -0.474667
v 0.029254 0.835553 0.082799
v 0.010151 1.171349 -0.474667
v 0.003518 0.835553 0.082799
v 0.000599 1.164602 -0.478993
v -0.016197 0.821628 0.073870
v -0.001566 1.154264 -0.485622
v -0.020666 0.800292 0.060189
v 0.004669 1.145174 -0.491450
v -0.007798 0.781530 0.048159
v 0.005899 -0.289094 0.003336
v 0.005899 2.192511 0.003336
v 0.005899 -0.289094 -0.147921
v 0.005899 2.192511 -0.046235
v 0.103125 -0.289094 -0.112534
v 0.037762 2.192511 -0.034637
v 0.154858 -0.289094 -0.022929
v 0.054716 2.192511 -0.005272
v 0.136891 -0.289094 0.078965
v 0.048828 2.192511 0.028121
v 0.057632 -0.289094 0.145472
v 0.022853 2.192511 0.049917
v -0.045835 -0.289094 0.145472
v -0.011055 2.192511 0.049917
v -0.125094 -0.289094 0.078965
v -0.037031 2.192511 0.028121
v -0.143061 -0.289094 -0.022929
v -0.042919 2.192511 -0.005272
v -0.091328 -0.289094 -0.112534
v -0.025965 2.192511 -0.034637
vt 0.000000 0.000000
vt 1.000000 0.000000
vt 1.000000 1.000000
vt 0.000000 1.000000
vn 0.563200 -0.539800 -0.625700
vn -0.563200 0.539800 0.625700
vn 0.610000 0.774700 -0.166700
vn 0.840600 0.404700 0.360100
vn 0.685700 -0.162100 0.709600
vn 0.217800 -0.660600 0.718500
vn -0.344200 -0.857500 0.382400
vn -0.737300 -0.660600 -0.141200
vn -0.777600 -0.162100 -0.607500
vn -0.446200 0.404700 -0.798200
vn 0.101800 0.774700 -0.624100
vn -0.430800 -0.878000 0.208800
vn 0.430800 0.877900 -0.208800
vn -0.369300 0.336400 0.866300
vn -0.821400 0.438800 0.364200
vn -0.898200 0.317600 -0.303900
vn -0.430800 -0.877900 0.208800
vn -0.563700 0.029400 -0.825500
vn 0.025600 -0.290900 -0.956400
vn 0.593900 -0.493500 -0.635500
vn -0.430900 -0.878000 0.208700
vn 0.875300 -0.483500 -0.012800
vn -0.430800 -0.877900 0.208900
vn 0.738100 -0.265600 0.620200
vn 0.246600 0.058200 0.967400
vn 0.800500 -0.539800 0.260400
vn -0.800500 0.539800 -0.260400
vn 0.404500 0.771500 0.491000
vn 0.017000 0.401600 0.915700
vn -0.365300 -0.165100 0.916100
vn -0.563400 -0.663500 0.492200
vn -0.484700 -0.860300 -0.157700
vn -0.166000 -0.663500 -0.729500
vn 0.243600 -0.165100 -0.955700
vn 0.552500 0.401600 -0.730400
vn 0.616000 0.771500 -0.159000
vn -0.748700 -0.539800 -0.384700
vn 0.748700 0.539800 0.384700
vn -0.319300 0.772900 -0.548400
vn -0.748800 -0.539800 -0.384700
vn 0.748800 0.539800 0.384700
vn 0.131100 0.402900 -0.905800
vn 0.508600 -0.163800 -0.845300
vn 0.636600 -0.662300 -0.395200
vn 0.455200 -0.859100 0.233900
vn 0.748700 0.539800 0.384800
vn 0.049300 -0.662300 0.747600
vn -0.391200 -0.163800 0.905600
vn -0.660100 0.402900 0.633900
vn -0.631800 0.772900 0.059700
vn -0.085200 -0.539800 -0.837500
vn 0.085100 0.539800 0.837500
vn 0.285300 0.768500 -0.572800
vn -0.085100 -0.539800 -0.837500
vn 0.830100 0.398600 -0.389800
vn -0.085100 -0.539700 -0.837500
vn 0.985000 -0.168000 -0.040400
vn 0.677300 -0.666300 0.312000
vn 0.051100 -0.863000 0.502500
vn -0.600600 -0.666300 0.442000
vn -0.972900 -0.168000 0.158700
vn -0.891600 0.398600 -0.214800
vn -0.394700 0.768500 -0.503700
vn 0.000000 -0.539800 0.841800
vn 0.000000 0.539800 -0.841800
vn -0.341900 0.775600 0.530600
vn -0.865700 0.405600 0.293400
vn -0.984400 -0.161200 -0.070100
vn -0.642500 -0.659700 -0.389700
vn 0.000000 -0.856600 -0.516000
vn 0.642500 -0.659700 -0.389700
vn 0.984400 -0.161200 -0.070100
vn 0.865700 0.405600 0.293400
vn 0.341900 0.775600 0.530600
vn 0.000000 -1.000000 0.000000
vn 0.000000 1.000000 0.000000
vn 0.341800 0.038500 -0.939000
vn 0.865400 0.038500 -0.499600
vn 0.984100 0.038500 0.173500
vn 0.642300 0.038500 0.765500
vn 0.000000 0.038500 0.999300
vn -0.642300 0.038500 0.765500
vn -0.984100 0.038500 0.173500
vn -0.865400 0.038500 -0.499600
vn -0.341800 0.038500 -0.939000
usemtl wood
s off
f 85/4/121 87/5/121 89/6/121
f 86/4/122 90/5/122 88/6/122
f 87/4/123 88/5/123 90/6/123 89/7/123
f 85/4/121 89/5/121 91/6/121
f 86/4/122 92/5/122 90/6/122
f 89/4/124 90/5/124 92/6/124 91/7/124
f 85/4/121 91/5/121 93/6/121
f 86/4/122 94/5/122 92/6/122
f 91/4/125 92/5/125 94/6/125 93/7/125
f 85/4/121 93/5/121 95/6/121
f 86/4/122 96/5/122 94/6/122
f 93/4/126 94/5/126 96/6/126 95/7/126
f 85/4/121 95/5/121 97/6/121
f 86/4/122 98/5/122 96/6/122
f 95/4/127 96/5/127 98/6/127 97/7/127
f 85/4/121 97/5/121 99/6/121
f 86/4/122 100/5/122 98/6/122
f 97/4/128 98/5/128 100/6/128 99/7/128
f 85/4/121 99/5/121 101/6/121
f 86/4/122 102/5/122 100/6/122
f 99/4/129 100/5/129 102/6/129 101/7/129
f 85/4/121 101/5/121 103/6/121
f 86/4/122 104/5/122 102/6/122
f 101/4/130 102/5/130 104/6/130 103/7/130
f 85/4/121 103/5/121 87/6/121
f 86/4/122 88/5/122 104/6/122
f 103/4/131 104/5/131 88/6/131 87/7/131
f 105/4/132 107/5/132 109/6/132
f 106/4/133 110/5/133 108/6/133
f 107/4/134 108/5/134 110/6/134 109/7/134
f 105/4/132 109/5/132 111/6/132
f 106/4/133 112/5/133 110/6/133
f 109/4/135 110/5/135 112/6/135 111/7/135
f 105/4/132 111/5/132 113/6/132
f 106/4/133 114/5/133 112/6/133
f 111/4/136 112/5/136 114/6/136 113/7/136
f 105/4/137 113/5/137 115/6/137
f 106/4/133 116/5/133 114/6/133
f 113/4/138 114/5/138 116/6/138 115/7/138
f 105/4/137 115/5/137 117/6/137
f 106/4/133 118/5/133 116/6/133
f 115/4/139 116/5/139 118/6/139 117/7/139
f 105/4/137 117/5/137 119/6/137
f 106/4/133 120/5/133 118/6/133
f 117/4/140 118/5/140 120/6/140 119/7/140
f 105/4/141 119/5/141 121/6/141
f 106/4/133 122/5/133 120/6/133
f 119/4/142 120/5/142 122/6/142 121/7/142
f 105/4/143 121/5/143 123/6/143
f 106/4/133 124/5/133 122/6/133
f 121/4/144 122/5/144 124/6/144 123/7/144
f 105/4/132 123/5/132 107/6/132
f 106/4/133 108/5/133 124/6/133
f 123/4/145 124/5/145 108/6/145 107/7/145
f 125/4/146 127/5/146 129/6/146
f 126/4/147 130/5/147 128/6/147
f 127/4/148 128/5/148 130/6/148 129/7/148
f 125/4/146 129/5/146 131/6/146
f 126/4/147 132/5/147 130/6/147
f 129/4/149 130/5/149 132/6/149 131/7/149
f 125/4/146 131/5/146 133/6/146
f 126/4/147 134/5/147 132/6/147
f 131/4/150 132/5/150 134/6/150 133/7/150
f 125/4/146 133/5/146 135/6/146
f 126/4/147 136/5/147 134/6/147
f 133/4/151 134/5/151 136/6/151 135/7/151
f 125/4/146 135/5/146 137/6/146
f 126/4/147 138/5/147 136/6/147
f 135/4/152 136/5/152 138/6/152 137/7/152
f 125/4/146 137/5/146 139/6/146
f 126/4/147 140/5/147 138/6/147
f 137/4/153 138/5/153 140/6/153 139/7/153
f 125/4/146 139/5/146 141/6/146
f 126/4/147 142/5/147 140/6/147
f 139/4/154 140/5/154 142/6/154 141/7/154
f 125/4/146 141/5/146 143/6/146
f 126/4/147 144/5/147 142/6/147
f 141/4/155 142/5/155 144/6/155 143/7/155
f 125/4/146 143/5/146 127/6/146
f 126/4/147 128/5/147 144/6/147
f 143/4/156 144/5/156 128/6/156 127/7/156
f 145/4/157 147/5/157 149/6/157
f 146/4/158 150/5/158 148/6/158
f 147/4/159 148/5/159 150/6/159 149/7/159
f 145/4/160 149/5/160 151/6/160
f 146/4/161 152/5/161 150/6/161
f 149/4/162 150/5/162 152/6/162 151/7/162
f 145/4/157 151/5/157 153/6/157
f 146/4/158 154/5/158 152/6/158
f 151/4/163 152/5/163 154/6/163 153/7/163
f 145/4/157 153/5/157 155/6/157
f 146/4/158 156/5/158 154/6/158
f 153/4/164 154/5/164 156/6/164 155/7/164
f 145/4/157 155/5/157 157/6/157
f 146/4/161 158/5/161 156/6/161
f 155/4/165 156/5/165 158/6/165 157/7/165
f 145/4/157 157/5/157 159/6/157
f 146/4/166 160/5/166 158/6/166
f 157/4/167 158/5/167 160/6/167 159/7/167
f 145/4/160 159/5/160 161/6/160
f 146/4/161 162/5/161 160/6/161
f 159/4/168 160/5/168 162/6/168 161/7/168
f 145/4/157 161/5/157 163/6/157
f 146/4/158 164/5/158 162/6/158
f 161/4/169 162/5/169 164/6/169 163/7/169
f 145/4/160 163/5/160 147/6/160
f 146/4/158 148/5/158 164/6/158
f 163/4/170 164/5/170 148/6/170 147/7/170
f 165/4/171 167/5/171 169/6/171
f 166/4/172 170/5/172 168/6/172
f 167/4/173 168/5/173 170/6/173 169/7/173
f 165/4/174 169/5/174 171/6/174
f 166/4/172 172/5/172 170/6/172
f 169/4/175 170/5/175 172/6/175 171/7/175
f 165/4/176 171/5/176 173/6/176
f 166/4/172 174/5/172 172/6/172
f 171/4/177 172/5/177 174/6/177 173/7/177
f 165/4/174 173/5/174 175/6/174
f 166/4/172 176/5/172 174/6/172
f 173/4/178 174/5/178 176/6/178 175/7/178
f 165/4/174 175/5/174 177/6/174
f 166/4/172 178/5/172 176/6/172
f 175/4/179 176/5/179 178/6/179 177/7/179
f 165/4/174 177/5/174 179/6/174
f 166/4/172 180/5/172 178/6/172
f 177/4/180 178/5/180 180/6/180 179/7/180
f 165/4/176 179/5/176 181/6/176
f 166/4/172 182/5/172 180/6/172
f 179/4/181 180/5/181 182/6/181 181/7/181
f 165/4/174 181/5/174 183/6/174
f 166/4/172 184/5/172 182/6/172
f 181/4/182 182/5/182 184/6/182 183/7/182
f 165/4/174 183/5/174 167/6/174
f 166/4/172 168/5/172 184/6/172
f 183/4/183 184/5/183 168/6/183 167/7/183
f 185/4/184 187/5/184 189/6/184
f 186/4/185 190/5/185 188/6/185
f 187/4/186 188/5/186 190/6/186 189/7/186
f 185/4/184 189/5/184 191/6/184
f 186/4/185 192/5/185 190/6/185
f 189/4/187 190/5/187 192/6/187 191/7/187
f 185/4/184 191/5/184 193/6/184
f 186/4/185 194/5/185 192/6/185
f 191/4/188 192/5/188 194/6/188 193/7/188
f 185/4/184 193/5/184 195/6/184
f 186/4/185 196/5/185 194/6/185
f 193/4/189 194/5/189 196/6/189 195/7/189
f 185/4/184 195/5/184 197/6/184
f 186/4/185 198/5/185 196/6/185
f 195/4/190 196/5/190 198/6/190 197/7/190
f 185/4/184 197/5/184 199/6/184
f 186/4/185 200/5/185 198/6/185
f 197/4/191 198/5/191 200/6/191 199/7/191
f 185/4/184 199/5/184 201/6/184
f 186/4/185 202/5/185 200/6/185
f 199/4/192 200/5/192 202/6/192 201/7/192
f 185/4/184 201/5/184 203/6/184
f 186/4/185 204/5/185 202/6/185
f 201/4/193 202/5/193 204/6/193 203/7/193
f 185/4/184 203/5/184 187/6/184
f 186/4/185 188/5/185 204/6/185
f 203/4/194 204/5/194 188/6/194 187/7/194
f 205/4/195 207/5/195 209/6/195
f 206/4/196 210/5/196 208/6/196
f 207/4/197 208/5/197 210/6/197 209/7/197
f 205/4/195 209/5/195 211/6/195
f 206/4/196 212/5/196 210/6/196
f 209/4/198 210/5/198 212/6/198 211/7/198
f 205/4/195 211/5/195 213/6/195
f 206/4/196 214/5/196 212/6/196
f 211/4/199 212/5/199 214/6/199 213/7/199
f 205/4/195 213/5/195 215/6/195
f 206/4/196 216/5/196 214/6/196
f 213/4/200 214/5/200 216/6/200 215/7/200
f 205/4/195 215/5/195 217/6/195
f 206/4/196 218/5/196 216/6/196
f 215/4/201 216/5/201 218/6/201 217/7/201
f 205/4/195 217/5/195 219/6/195
f 206/4/196 220/5/196 218/6/196
f 217/4/202 218/5/202 220/6/202 219/7/202
f 205/4/195 219/5/195 221/6/195
f 206/4/196 222/5/196 220/6/196
f 219/4/203 220/5/203 222/6/203 221/7/203
f 205/4/195 221/5/195 223/6/195
f 206/4/196 224/5/196 222/6/196
f 221/4/204 222/5/204 224/6/204 223/7/204
f 205/4/195 223/5/195 207/6/195
f 206/4/196 208/5/196 224/6/196
f 223/4/205 224/5/205 208/6/205 207/7/205
