# Blender v2.76 (sub 0) OBJ File: 'tree1_2LP.blend'
# www.blender.org
mtllib tree1_2LP.mtl
o Icosphere.001
v 0.158045 1.041615 -0.463108
v 0.386950 1.195783 -0.184880
v -0.068597 1.232061 -0.194825
v -0.210285 1.117713 -0.614099
v 0.157703 1.010765 -0.863274
v 0.526810 1.059016 -0.598001
v 0.175292 1.420506 -0.174644
v -0.193815 1.372255 -0.439918
v -0.053955 1.235488 -0.853039
v 0.401592 1.199210 -0.843094
v 0.543280 1.313559 -0.423820
v 0.179753 1.393148 -0.587974
v -0.142612 1.063920 0.282898
v 0.139160 1.094089 0.603615
v -0.342408 1.091105 0.651389
v -0.536355 1.178788 0.216764
v -0.174643 1.235961 -0.099618
v 0.242843 1.183615 0.139471
v -0.091252 1.279056 0.743747
v -0.508738 1.331403 0.504657
v -0.405054 1.420928 0.040513
v 0.076514 1.423912 -0.007261
v 0.270461 1.336229 0.427364
v -0.138569 1.465895 0.366877
v 0.740848 1.101732 0.150442
v 1.030020 1.099486 0.569400
v 0.459392 1.054498 0.568756
v 0.262572 1.265686 0.078291
v 0.711571 1.441193 -0.224183
v 1.185875 1.338475 0.079341
v 0.730462 1.262052 0.756183
v 0.256159 1.364770 0.452659
v 0.412013 1.603759 -0.037399
v 0.982641 1.648747 -0.036755
v 1.179461 1.437559 0.453709
v 0.697355 1.581101 0.378626
v 0.460093 1.517169 0.412574
v 0.741616 1.687401 0.781448
v 0.191599 1.688209 0.790512
v 0.012842 1.672753 0.270658
v 0.452393 1.662394 -0.059687
v 0.902794 1.671447 0.256000
v 0.468354 1.948197 0.867511
v 0.017953 1.939144 0.551824
v 0.179132 1.923190 0.026376
v 0.729149 1.922382 0.017312
v 0.907905 1.937838 0.537166
v 0.460654 2.093423 0.395249
v -0.276165 1.481610 -0.357930
v -0.028835 1.679229 -0.006638
v -0.546109 1.561699 0.022001
v -0.732969 1.521321 -0.473643
v -0.331170 1.613898 -0.808602
v 0.104003 1.711490 -0.519974
v -0.332781 1.841076 0.094762
v -0.767954 1.743485 -0.193865
v -0.635116 1.775745 -0.707202
v -0.117842 1.893275 -0.735841
v 0.069018 1.933654 -0.240196
v -0.387785 1.973364 -0.355910
v 0.074776 2.060883 0.007032
v 0.549501 2.234724 0.534652
v -0.263848 2.325743 0.597920
v -0.576554 2.346515 -0.160776
v 0.043550 2.268332 -0.692936
v 0.739482 2.199241 -0.263134
v 0.191566 2.627798 0.692936
v -0.504366 2.696888 0.263134
v -0.314385 2.661406 -0.534652
v 0.498964 2.570386 -0.597920
v 0.811670 2.549614 0.160776
v 0.160339 2.835247 -0.007032
vt 0.278270 0.327108
vt 0.356092 0.383649
vt 0.248544 0.418593
vt 0.356092 0.270567
vt 0.182076 0.327108
vt 0.248544 0.235622
vt 0.612209 0.746031
vt 0.417505 0.746476
vt 0.217809 0.748565
vt 0.024840 0.750095
vt 0.816636 0.747236
vt 0.622306 0.137272
vt 0.811103 0.000101
vt 0.811103 0.198614
vt 0.694421 0.359215
vt 0.927785 0.359215
vt 0.999899 0.137272
vn -0.077500 -0.953800 0.290300
vn 0.467400 -0.315100 0.826000
vn -0.547000 -0.235800 0.803200
vn 0.778800 -0.620000 -0.094500
vn -0.861400 -0.491100 -0.129100
vn -0.043500 -0.728400 -0.683700
vn 0.863700 0.486300 0.132500
vn 0.042900 0.725700 0.686600
vn -0.781200 0.616700 0.097000
vn -0.470800 0.308100 -0.826600
vn 0.549200 0.227500 -0.804100
vn 0.080400 0.950900 -0.298900
vn -0.017900 -0.981000 -0.193000
vn 0.569300 -0.621700 0.538000
vn -0.444500 -0.626900 0.639900
vn 0.787300 -0.433400 -0.438500
vn -0.853800 -0.441400 -0.275900
vn -0.091000 -0.321800 -0.942400
vn 0.858200 0.433400 0.274800
vn 0.092600 0.310100 0.946200
vn -0.794200 0.420000 0.439100
vn -0.573100 0.611200 -0.545800
vn 0.447600 0.619000 -0.645300
vn 0.006300 0.980700 0.195200
vn 0.071800 -0.905300 -0.418600
vn 0.572300 -0.688100 0.445900
vn -0.454700 -0.770200 0.447200
vn 0.857100 -0.251400 -0.449500
vn -0.808200 -0.385600 -0.445100
vn 0.004900 -0.065500 -0.997800
vn 0.801400 0.396600 0.447700
vn -0.005400 0.077100 0.997000
vn -0.852800 0.261600 0.451900
vn -0.568900 0.696700 -0.437000
vn 0.450000 0.778800 -0.437000
vn -0.075400 0.903300 0.422300
vn -0.000900 -0.999500 0.030000
vn 0.527100 -0.458400 0.715500
vn -0.504400 -0.456900 0.732700
vn 0.829600 -0.488300 -0.270600
vn -0.839600 -0.485900 -0.242800
vn -0.015000 -0.505300 -0.862800
vn 0.839600 0.485900 0.242800
vn 0.015000 0.505300 0.862800
vn -0.829600 0.488300 0.270600
vn -0.527100 0.458400 -0.715500
vn 0.504400 0.456900 -0.732700
vn 0.000900 0.999500 -0.030000
vn 0.221400 -0.975200 -0.004000
vn 0.646700 -0.344800 0.680300
vn -0.359600 -0.573400 0.736100
vn 0.905100 -0.282100 -0.318200
vn -0.723100 -0.652000 -0.228100
vn 0.058500 -0.471900 -0.879700
vn 0.723100 0.652000 0.228100
vn -0.058500 0.471900 0.879700
vn -0.905100 0.282100 0.318200
vn -0.646700 0.344800 -0.680300
vn 0.359600 0.573400 -0.736100
vn -0.221400 0.975200 0.004000
vn -0.109800 -0.993800 0.018000
vn 0.515500 -0.524300 0.677700
vn -0.508400 -0.409700 0.757400
vn 0.754700 -0.569000 -0.326600
vn -0.902100 -0.383600 -0.197700
vn -0.121400 -0.482000 -0.867700
vn 0.902100 0.383600 0.197700
vn 0.121400 0.482000 0.867700
vn -0.754700 0.569000 0.326600
vn -0.515500 0.524300 -0.677700
vn 0.508400 0.409700 -0.757400
vn 0.109800 0.993800 -0.018000
usemtl None
s 1
f 1/1/1 2/2/2 3/3/3
f 2/2/2 1/1/1 6/4/4
f 1/1/1 3/3/3 4/5/5
f 1/1/1 4/5/5 5/6/6
f 1/1/1 5/6/6 6/4/4
f 2/2/2 6/4/4 11/7/7
f 3/3/3 2/2/2 7/8/8
f 4/5/5 3/3/3 8/9/9
f 5/6/6 4/5/5 9/10/10
f 6/4/4 5/6/6 10/11/11
f 2/2/2 11/7/7 7/8/8
f 3/3/3 7/8/8 8/9/9
f 4/5/5 8/9/9 9/10/10
f 5/6/6 9/10/10 10/11/11
f 6/4/4 10/11/11 11/7/7
f 7/12/8 11/13/7 12/14/12
f 8/15/9 7/12/8 12/14/12
f 9/16/10 8/15/9 12/14/12
f 10/17/11 9/16/10 12/14/12
f 11/13/7 10/17/11 12/14/12
f 13/1/13 14/2/14 15/3/15
f 14/2/14 13/1/13 18/4/16
f 13/1/13 15/3/15 16/5/17
f 13/1/13 16/5/17 17/6/18
f 13/1/13 17/6/18 18/4/16
f 14/2/14 18/4/16 23/7/19
f 15/3/15 14/2/14 19/8/20
f 16/5/17 15/3/15 20/9/21
f 17/6/18 16/5/17 21/10/22
f 18/4/16 17/6/18 22/11/23
f 14/2/14 23/7/19 19/8/20
f 15/3/15 19/8/20 20/9/21
f 16/5/17 20/9/21 21/10/22
f 17/6/18 21/10/22 22/11/23
f 18/4/16 22/11/23 23/7/19
f 19/12/20 23/13/19 24/14/24
f 20/15/21 19/12/20 24/14/24
f 21/16/22 20/15/21 24/14/24
f 22/17/23 21/16/22 24/14/24
f 23/13/19 22/17/23 24/14/24
f 25/1/25 26/2/26 27/3/27
f 26/2/26 25/1/25 30/4/28
f 25/1/25 27/3/27 28/5/29
f 25/1/25 28/5/29 29/6/30
f 25/1/25 29/6/30 30/4/28
f 26/2/26 30/4/28 35/7/31
f 27/3/27 26/2/26 31/8/32
f 28/5/29 27/3/27 32/9/33
f 29/6/30 28/5/29 33/10/34
f 30/4/28 29/6/30 34/11/35
f 26/2/26 35/7/31 31/8/32
f 27/3/27 31/8/32 32/9/33
f 28/5/29 32/9/33 33/10/34
f 29/6/30 33/10/34 34/11/35
f 30/4/28 34/11/35 35/7/31
f 31/12/32 35/13/31 36/14/36
f 32/15/33 31/12/32 36/14/36
f 33/16/34 32/15/33 36/14/36
f 34/17/35 33/16/34 36/14/36
f 35/13/31 34/17/35 36/14/36
f 37/1/37 38/2/38 39/3/39
f 38/2/38 37/1/37 42/4/40
f 37/1/37 39/3/39 40/5/41
f 37/1/37 40/5/41 41/6/42
f 37/1/37 41/6/42 42/4/40
f 38/2/38 42/4/40 47/7/43
f 39/3/39 38/2/38 43/8/44
f 40/5/41 39/3/39 44/9/45
f 41/6/42 40/5/41 45/10/46
f 42/4/40 41/6/42 46/11/47
f 38/2/38 47/7/43 43/8/44
f 39/3/39 43/8/44 44/9/45
f 40/5/41 44/9/45 45/10/46
f 41/6/42 45/10/46 46/11/47
f 42/4/40 46/11/47 47/7/43
f 43/12/44 47/13/43 48/14/48
f 44/15/45 43/12/44 48/14/48
f 45/16/46 44/15/45 48/14/48
f 46/17/47 45/16/46 48/14/48
f 47/13/43 46/17/47 48/14/48
f 49/1/49 50/2/50 51/3/51
f 50/2/50 49/1/49 54/4/52
f 49/1/49 51/3/51 52/5/53
f 49/1/49 52/5/53 53/6/54
f 49/1/49 53/6/54 54/4/52
f 50/2/50 54/4/52 59/7/55
f 51/3/51 50/2/50 55/8/56
f 52/5/53 51/3/51 56/9/57
f 53/6/54 52/5/53 57/10/58
f 54/4/52 53/6/54 58/11/59
f 50/2/50 59/7/55 55/8/56
f 51/3/51 55/8/56 56/9/57
f 52/5/53 56/9/57 57/10/58
f 53/6/54 57/10/58 58/11/59
f 54/4/52 58/11/59 59/7/55
f 55/12/56 59/13/55 60/14/60
f 56/15/57 55/12/56 60/14/60
f 57/16/58 56/15/57 60/14/60
f 58/17/59 57/16/58 60/14/60
f 59/13/55 58/17/59 60/14/60
f 61/1/61 62/2/62 63/3/63
f 62/2/62 61/1/61 66/4/64
f 61/1/61 63/3/63 64/5/65
f 61/1/61 64/5/65 65/6/66
f 61/1/61 65/6/66 66/4/64
f 62/2/62 66/4/64 71/7/67
f 63/3/63 62/2/62 67/8/68
f 64/5/65 63/3/63 68/9/69
f 65/6/66 64/5/65 69/10/70
f 66/4/64 65/6/66 70/11/71
f 62/2/62 71/7/67 67/8/68
f 63/3/63 67/8/68 68/9/69
f 64/5/65 68/9/69 69/10/70
f 65/6/66 69/10/70 70/11/71
f 66/4/64 70/11/71 71/7/67
f 67/12/68 71/13/67 72/14/72
f 68/15/69 67/12/68 72/14/72
f 69/16/70 68/15/69 72/14/72
f 70/17/71 69/16/70 72/14/72
f 71/13/67 70/17/71 72/14/72
o wood.002_Cylinder.009
v 0.205216 1.165294 -0.001531
v 0.594422 1.542386 0.135305
v 0.199499 1.190685 -0.043895
v 0.586308 1.552797 0.134891
v 0.168951 1.229882 -0.045456
v 0.595941 1.535642 0.146557
v 0.180384 1.179100 0.039271
v 0.589345 1.539309 0.157395
v 0.149836 1.218297 0.037710
v 0.581231 1.549720 0.156980
v 0.144119 1.243688 -0.004654
v 0.579713 1.556464 0.145728
v 0.123866 0.969109 -0.115864
v 0.156682 1.341882 -0.546830
v 0.091803 0.987197 -0.104411
v 0.157507 1.352334 -0.538800
v 0.094211 1.017709 -0.080969
v 0.167665 1.335686 -0.550754
v 0.158336 0.981534 -0.103875
v 0.179473 1.339942 -0.546647
v 0.160744 1.012047 -0.080433
v 0.180298 1.350394 -0.538617
v 0.128682 1.030134 -0.068980
v 0.169315 1.356590 -0.534694
v 0.056092 1.034998 0.035462
v -0.188353 1.313782 0.264245
v 0.091189 1.056029 0.052057
v -0.183779 1.324672 0.258339
v 0.106483 1.092438 0.032309
v -0.198850 1.307492 0.259282
v 0.036289 1.050375 -0.000882
v -0.204773 1.312092 0.248411
v 0.051583 1.086785 -0.020631
v -0.200199 1.322982 0.242505
v 0.086680 1.107816 -0.004035
v -0.189702 1.329272 0.247468
v 0.010425 1.525779 -0.070707
v -0.344384 1.807134 -0.265252
v 0.004278 1.544463 -0.037548
v -0.338218 1.818568 -0.262874
v 0.022277 1.577842 -0.030608
v -0.342279 1.800734 -0.276610
v 0.034570 1.540474 -0.096925
v -0.334008 1.805768 -0.285591
v 0.052569 1.573854 -0.089984
v -0.327842 1.817202 -0.283213
v 0.046422 1.592538 -0.056826
v -0.329948 1.823602 -0.271855
v 0.165840 1.672023 0.044939
v 0.475401 1.856351 0.381231
v 0.185381 1.692423 0.018703
v 0.472203 1.868960 0.378950
v 0.176046 1.729231 0.012044
v 0.468707 1.849363 0.390218
v 0.136962 1.688431 0.064515
v 0.458815 1.854984 0.396924
v 0.127627 1.725239 0.057855
v 0.455618 1.867592 0.394642
v 0.147169 1.745639 0.031619
v 0.462311 1.874580 0.385656
v 0.077762 2.239161 -0.141553
v 0.077762 0.327943 -0.154748
v -0.134441 -0.016014 -0.135015
v -0.134441 -0.016015 0.110017
v 0.077762 -0.016015 0.232532
v 0.289966 -0.016015 0.110017
v 0.289966 -0.016014 -0.135015
v 0.077762 -0.016015 -0.257530
v 0.200953 0.327943 -0.083623
v 0.189526 2.239161 -0.077026
v 0.200953 0.327943 0.058625
v 0.189526 2.239161 0.052028
v 0.077762 0.327943 0.129749
v 0.077762 2.239161 0.116555
v -0.045429 0.327943 0.058625
v -0.034002 2.239161 0.052028
v -0.045429 0.327943 -0.083623
v -0.034002 2.239161 -0.077026
vt 0.511785 0.025165
vt 0.511931 0.918994
vt 0.490768 0.919282
vt 0.432101 0.026253
vt 0.469704 0.921368
vt 0.352796 0.034106
vt 0.448891 0.925228
vt 0.274441 0.048638
vt 0.749533 0.048639
vt 0.575075 0.925228
vt 0.554129 0.922182
vt 0.670672 0.037170
vt 0.591367 0.029328
vt 0.533068 0.920099
vt 0.687181 0.091293
vt 0.579102 0.921475
vt 0.559846 0.919296
vt 0.630975 0.084935
vt 0.540496 0.918294
vt 0.574488 0.082007
vt 0.521120 0.918256
vt 0.517923 0.081897
vt 0.501753 0.918865
vt 0.461386 0.083677
vt 0.404921 0.087038
vt 0.482406 0.920017
vt 0.463126 0.921923
vt 0.348631 0.092602
vt 0.444609 0.302190
vt 0.495838 0.692024
vt 0.484045 0.693854
vt 0.405178 0.308310
vt 0.643161 0.311116
vt 0.555225 0.694693
vt 0.543483 0.692555
vt 0.603903 0.303967
vt 0.531604 0.691402
vt 0.564186 0.300113
vt 0.519676 0.690983
vt 0.524306 0.298710
vt 0.484407 0.299275
vt 0.507742 0.691151
vt 0.427091 0.164753
vt 0.485800 0.762960
vt 0.469739 0.764592
vt 0.380211 0.169517
vt 0.662124 0.171007
vt 0.566309 0.765102
vt 0.550311 0.762953
vt 0.615422 0.164731
vt 0.534199 0.761988
vt 0.568385 0.161916
vt 0.518058 0.761847
vt 0.521267 0.161502
vt 0.474155 0.162439
vt 0.501920 0.762168
vt 0.553456 0.827874
vt 0.512575 0.180825
vt 0.529948 0.179668
vt 0.604170 0.824495
vt 0.547186 0.177223
vt 0.654491 0.817357
vt 0.350440 0.820844
vt 0.443037 0.178417
vt 0.460370 0.180060
vt 0.401040 0.825640
vt 0.477763 0.180817
vt 0.451817 0.827851
vt 0.502636 0.828606
vt 0.495171 0.181076
vt 0.928242 -0.196225
vt 0.874149 1.613666
vt 0.756640 1.610815
vt 0.796149 -0.227562
vt 0.226606 -0.227483
vt 0.285065 1.613809
vt 0.162667 1.617977
vt 0.094691 -0.194492
vt 0.638823 1.609363
vt 0.656389 -0.246592
vt 0.367780 -0.247251
vt 0.402828 1.610899
vt 0.512440 -0.253326
vt 0.339821 -0.592113
vt 0.533018 -0.593878
vt 0.520821 1.609392
vt -0.068621 -0.477191
vt 0.138310 -0.559891
vt 0.719832 -0.572150
vt 0.902059 -0.525979
vt 1.076894 -0.448082
vn -0.060200 0.544900 -0.836300
vn -0.069700 0.553500 -0.829900
vn 0.560400 -0.222900 -0.797600
vn 0.563400 -0.228100 -0.794000
vn 0.675400 -0.735300 0.056800
vn 0.677100 -0.734200 0.049700
vn 0.159100 -0.466100 0.870300
vn 0.168600 -0.474700 0.863900
vn -0.465700 0.307500 0.829800
vn -0.462700 0.302400 0.833300
vn -0.577900 0.815800 -0.022900
vn -0.579600 0.814800 -0.015800
vn -0.829300 0.499500 0.250400
vn -0.824900 0.504600 0.254800
vn -0.888400 -0.285600 -0.359300
vn -0.889400 -0.284100 -0.358200
vn -0.054400 -0.760800 -0.646700
vn -0.064400 -0.759800 -0.646900
vn 0.835400 -0.446100 -0.321200
vn 0.830900 -0.451200 -0.325500
vn 0.895800 0.338300 0.288100
vn 0.894900 0.339900 0.289100
vn 0.059700 0.814900 0.576500
vn 0.069800 0.814000 0.576600
vn 0.743700 0.516000 0.424900
vn 0.743200 0.524400 0.415500
vn 0.390700 -0.294200 0.872200
vn 0.390100 -0.295000 0.872200
vn -0.399800 -0.775400 0.488700
vn -0.391600 -0.774400 0.496800
vn -0.830800 -0.436600 -0.345100
vn -0.830200 -0.444900 -0.335700
vn -0.477400 0.375900 -0.794200
vn -0.478000 0.375200 -0.794200
vn 0.314200 0.856700 -0.409100
vn 0.305900 0.855700 -0.417300
vn -0.204000 0.504100 0.839200
vn -0.193200 0.515900 0.834600
vn -0.680200 -0.340000 0.649400
vn -0.681700 -0.346100 0.644500
vn -0.519500 -0.827100 -0.214500
vn -0.523500 -0.826500 -0.206900
vn 0.126000 -0.452600 -0.882700
vn 0.115200 -0.464400 -0.878100
vn 0.605000 0.398400 -0.689400
vn 0.603500 0.392200 -0.694200
vn 0.442500 0.880200 0.171400
vn 0.446500 0.879700 0.163800
vn 0.544500 0.537200 -0.644100
vn 0.534700 0.550300 -0.641200
vn 0.795500 -0.399200 -0.455900
vn 0.794300 -0.406000 -0.451900
vn 0.285800 -0.930900 0.227400
vn 0.292100 -0.930300 0.221600
vn -0.478300 -0.506900 0.717100
vn -0.468600 -0.519900 0.714200
vn -0.729600 0.437200 0.525800
vn -0.730800 0.430400 0.529800
vn -0.220000 0.963100 -0.154900
vn -0.226400 0.962600 -0.149000
vn 0.000000 0.155100 0.987900
vn 0.000000 0.006900 1.000000
vn -0.866000 0.006900 0.500000
vn -0.855500 0.155100 0.493900
vn 0.855500 0.155100 0.493900
vn 0.866000 0.006900 0.500000
vn -0.866000 0.006900 -0.500000
vn -0.855500 0.155100 -0.493900
vn 0.855500 0.155100 -0.493900
vn 0.866000 0.006900 -0.500000
vn 0.000000 0.155100 -0.987900
vn 0.829800 0.286300 -0.479000
vn 0.000000 0.286300 -0.958100
vn 0.000000 0.006900 -1.000000
vn 0.000000 0.286300 0.958100
vn 0.829800 0.286300 0.479000
vn -0.829800 0.286300 -0.479000
vn -0.829800 0.286300 0.479000
usemtl wood
s 1
f 77/18/73 76/19/74 74/20/75 75/21/76
f 75/21/76 74/20/75 78/22/77 73/23/78
f 73/23/78 78/22/77 80/24/79 79/25/80
f 79/26/80 80/27/79 82/28/81 81/29/82
f 83/30/83 84/31/84 76/19/74 77/18/73
f 81/29/82 82/28/81 84/31/84 83/30/83
f 89/32/85 88/33/86 86/34/87 87/35/88
f 87/35/88 86/34/87 90/36/89 85/37/90
f 85/37/90 90/36/89 92/38/91 91/39/92
f 91/39/92 92/38/91 94/40/93 93/41/94
f 95/42/95 96/43/96 88/44/86 89/45/85
f 93/41/94 94/40/93 96/43/96 95/42/95
f 101/46/97 100/47/98 98/48/99 99/49/100
f 99/50/100 98/51/99 102/52/101 97/53/102
f 97/53/102 102/52/101 104/54/103 103/55/104
f 103/55/104 104/54/103 106/56/105 105/57/106
f 107/58/107 108/59/108 100/47/98 101/46/97
f 105/57/106 106/56/105 108/59/108 107/58/107
f 113/60/109 112/61/110 110/62/111 111/63/112
f 111/64/112 110/65/111 114/66/113 109/67/114
f 109/67/114 114/66/113 116/68/115 115/69/116
f 115/69/116 116/68/115 118/70/117 117/71/118
f 119/72/119 120/73/120 112/61/110 113/60/109
f 117/71/118 118/70/117 120/73/120 119/72/119
f 125/74/121 124/75/122 122/76/123 123/77/124
f 123/77/124 122/76/123 126/78/125 121/79/126
f 121/80/126 126/81/125 128/82/127 127/83/128
f 127/83/128 128/82/127 130/84/129 129/85/130
f 131/86/131 132/87/132 124/75/122 125/74/121
f 129/85/130 130/84/129 132/87/132 131/86/131
f 145/88/133 146/89/134 148/90/135 147/91/136
f 143/92/137 144/93/138 146/94/134 145/95/133
f 147/91/136 148/90/135 150/96/139 149/97/140
f 141/98/141 142/99/142 144/93/138 143/92/137
f 134/100/143 141/98/141 139/101/144 140/102/145
f 149/97/140 150/96/139 133/103/146 134/100/143
f 134/100/143 133/103/146 142/99/142 141/98/141
f 143/92/137 145/95/133 137/104/147 138/105/148
f 147/91/136 149/97/140 135/106/149 136/107/150
f 141/98/141 143/92/137 138/105/148 139/101/144
f 145/88/133 147/91/136 136/107/150 137/108/147
f 149/97/140 134/100/143 140/102/145 135/106/149
