# Blender v2.80 (sub 75) OBJ File: ''
# www.blender.org
mtllib tree8LP.mtl
o tree8mesh_Окружность.006
v 0.106041 3.069233 0.149907
v 0.108475 2.936194 0.224404
v 0.076157 2.939571 0.075410
v 0.350995 3.092115 0.097294
v 0.352920 2.986903 0.156209
v 0.327363 2.989573 0.038379
v 0.590079 3.506351 0.054824
v 0.675086 3.501701 0.082016
v 0.656146 3.503680 -0.005303
v 0.096891 3.348189 0.209869
v 0.026168 3.216123 0.181373
v 0.167614 3.216124 0.238365
v 0.004610 3.396403 0.438897
v -0.051320 3.291961 0.416362
v 0.060540 3.291961 0.461433
v -0.069881 3.829155 0.623774
v -0.140211 3.833364 0.678756
v -0.057316 3.833364 0.712157
v 0.096891 3.216742 0.028144
v 0.165424 3.084677 -0.005277
v 0.028358 3.084677 0.061566
v -0.011340 3.264956 -0.193793
v 0.042858 3.160514 -0.220223
v -0.065538 3.160514 -0.167362
v -0.098706 3.701795 -0.372944
v -0.092417 3.706004 -0.461994
v -0.172745 3.706004 -0.422821
v -0.853567 2.268311 0.294742
v -0.612849 2.268311 0.223385
v -0.612849 2.169010 0.223385
v -0.458156 2.268311 0.339034
v -0.458156 2.169010 0.339034
v -0.505974 2.268311 0.554603
v -0.505974 2.169010 0.554604
v -0.727089 1.995534 0.471726
v -0.720296 2.268311 0.707765
v -0.720296 2.169010 0.707765
v -0.939733 2.268311 0.683184
v -0.939733 2.169010 0.683184
v -0.999044 2.268311 0.499371
v -0.999044 2.169010 0.499371
v -0.727089 2.441787 0.471726
v -0.853567 2.169010 0.294742
v 0.455114 2.393116 -1.012502
v 0.374210 2.035093 -1.001015
v 0.364592 2.393116 -0.544995
v 0.301616 2.035093 -0.626104
v 0.034640 2.393116 -0.385859
v 0.037015 2.035093 -0.498486
v -0.286282 2.393115 -0.654925
v -0.220344 2.035093 -0.714261
v 0.046632 1.875759 -0.954506
v -0.356512 2.393116 -1.149582
v -0.276665 2.035093 -1.110945
v -0.123167 2.393115 -1.497342
v -0.089536 2.035093 -1.389827
v 0.238041 2.393115 -1.436336
v 0.200130 2.035093 -1.340904
v 0.046632 2.722136 -0.954506
v 1.332596 2.226981 0.286083
v 1.399908 2.003238 0.341542
v 1.593649 2.316940 0.430042
v 1.609256 2.075379 0.456989
v 1.628963 2.331666 0.666515
v 1.637575 2.087189 0.646625
v 1.411945 2.260070 0.817434
v 1.463540 2.029773 0.767653
v 1.402222 1.896561 0.556677
v 1.106014 2.156066 0.769153
v 1.218204 1.946368 0.728935
v 0.941544 2.097970 0.558029
v 1.086308 1.899779 0.559626
v 1.042382 2.129530 0.343043
v 1.167174 1.925088 0.387221
v 1.224963 2.420840 0.550498
v -0.566988 -0.118874 0.129411
v 0.252333 -0.118874 0.523976
v 0.454689 -0.118874 -0.362603
v -0.302249 0.477819 0.068986
v 0.134513 0.477819 0.279320
v 0.242385 0.477819 -0.193295
v 0.000273 3.727140 0.139130
v 0.149044 3.704864 0.211573
v 0.185788 3.699362 0.048795
v -0.770750 4.037758 0.872927
v -0.689826 4.201891 0.821688
v -1.052638 3.987900 -0.040942
v -0.961981 4.153755 -0.060631
v -0.590811 3.735923 -0.841146
v -0.516098 3.910478 -0.833209
v 0.309122 3.448570 -0.998160
v 0.352765 3.633045 -0.984801
v 1.051640 3.315993 -0.408080
v 1.069648 3.505045 -0.415094
v 1.145390 3.425923 0.538614
v 1.160162 3.611180 0.498916
v 0.528335 3.705616 1.215458
v 0.564409 3.881217 1.152393
v 0.068316 3.852503 1.295718
v 0.120272 4.023032 1.229882
v 0.158496 1.431908 0.122331
v 0.071854 1.629499 -0.008396
v 0.001899 1.629499 0.130939
v 1.119700 2.068934 0.604910
v 1.088577 2.139912 0.557951
v 1.063449 2.139912 0.608002
v 0.082261 1.870750 -0.011383
v 0.004306 2.068341 0.124704
v 0.160216 2.068341 0.124704
v 0.082261 2.507777 -1.197327
v 0.054258 2.578755 -1.148443
v 0.110263 2.578755 -1.148443
v 0.028210 1.677055 0.121254
v 0.154705 1.836597 0.127135
v 0.097273 1.836597 0.015113
v -0.744579 2.191411 0.517446
v -0.699141 2.248721 0.519559
v -0.719771 2.248721 0.479318
vt 0.111393 0.446825
vt 0.028559 0.259335
vt 0.112300 0.073014
vt 0.306779 0.010876
vt 0.483180 0.112881
vt 0.525723 0.312676
vt 0.405732 0.478163
vt 0.202205 0.499433
vt 0.105092 0.799517
vt 0.128041 0.811598
vt 0.093958 0.841802
vt 0.075809 0.832248
vt 0.274602 0.978065
vt 0.239757 0.978065
vt 0.246018 0.938519
vt 0.273575 0.938519
vt 0.183147 0.911181
vt 0.156559 0.927227
vt 0.131962 0.889647
vt 0.152989 0.876957
vt 0.243666 0.887194
vt 0.279267 0.799517
vt 0.295045 0.808535
vt 0.264640 0.877896
vt 0.128041 0.912984
vt 0.114220 0.923181
vt 0.104831 0.923190
vt 0.125474 0.923181
vt 0.213906 0.799517
vt 0.239757 0.810488
vt 0.208041 0.835139
vt 0.187596 0.826463
vt 0.218365 0.982443
vt 0.183147 0.982443
vt 0.186978 0.941363
vt 0.214830 0.941363
vt 0.295045 0.901636
vt 0.268524 0.913393
vt 0.018068 0.891181
vt 0.056525 0.799517
vt 0.069923 0.809679
vt 0.035643 0.881290
vt 0.239757 0.903561
vt 0.224361 0.913042
vt 0.011973 0.929550
vt 0.029993 0.924803
vt 0.302591 0.799517
vt 0.326520 0.816561
vt 0.313969 0.844069
vt 0.295045 0.830590
vt 0.069923 0.923181
vt 0.104831 0.923259
vt 0.104063 0.961528
vt 0.076457 0.961466
vt 0.069923 0.912296
vt 0.047699 0.924803
vt 0.326520 0.920269
vt 0.312360 0.927916
vt 0.238956 0.980883
vt 0.218365 0.981097
vt 0.607818 0.372095
vt 0.621350 0.321858
vt 0.644192 0.370458
vt 0.592069 0.488291
vt 0.586158 0.505625
vt 0.554923 0.486754
vt 0.566486 0.473584
vt 0.674414 0.346993
vt 0.545973 0.447625
vt 0.605868 0.441349
vt 0.531791 0.459794
vt 0.556846 0.411774
vt 0.588082 0.395328
vt 0.607555 0.441684
vt 0.711481 0.273758
vt 0.635314 0.308923
vt 0.672563 0.239736
vt 0.547757 0.392704
vt 0.583650 0.377191
vt 0.620310 0.230873
vt 0.618098 0.392387
vt 0.619834 0.375021
vt 0.649663 0.401073
vt 0.653932 0.383136
vt 0.569329 0.253624
vt 0.656951 0.476142
vt 0.622488 0.489882
vt 0.664396 0.497316
vt 0.624600 0.509513
vt 0.564886 0.320728
vt 0.578713 0.352384
vt 0.578713 0.352384
vt 0.621350 0.321858
vt 0.607818 0.372095
vt 0.644192 0.370458
vt 0.674414 0.346993
vt 0.577617 0.462301
vt 0.563881 0.439003
vt 0.605868 0.441349
vt 0.570771 0.426679
vt 0.592689 0.410731
vt 0.607555 0.441684
vt 0.547757 0.392704
vt 0.583650 0.377191
vt 0.554923 0.486754
vt 0.531791 0.459794
vt 0.711481 0.273758
vt 0.635314 0.308923
vt 0.672563 0.239736
vt 0.619834 0.375021
vt 0.615816 0.408120
vt 0.620310 0.230873
vt 0.653932 0.383136
vt 0.640496 0.418291
vt 0.643729 0.459079
vt 0.619592 0.473666
vt 0.569329 0.253624
vt 0.664396 0.497316
vt 0.624600 0.509513
vt 0.564886 0.320728
vt 0.596877 0.473721
vt 0.586158 0.505625
vt 0.586158 0.505625
vt 0.554923 0.486754
vt 0.577617 0.462301
vt 0.596877 0.473721
vt 0.607818 0.372095
vt 0.621350 0.321858
vt 0.644192 0.370458
vt 0.674414 0.346993
vt 0.531791 0.459794
vt 0.563881 0.439003
vt 0.570771 0.426679
vt 0.592689 0.410731
vt 0.607555 0.441684
vt 0.605868 0.441349
vt 0.547757 0.392704
vt 0.583650 0.377191
vt 0.711481 0.273758
vt 0.635314 0.308923
vt 0.672563 0.239736
vt 0.619834 0.375021
vt 0.615816 0.408120
vt 0.620310 0.230873
vt 0.640496 0.418291
vt 0.653932 0.383136
vt 0.569329 0.253624
vt 0.643729 0.459079
vt 0.619592 0.473666
vt 0.664396 0.497316
vt 0.624600 0.509513
vt 0.564886 0.320728
vt 0.578713 0.352384
vt 0.886469 0.981153
vt 0.789467 0.979199
vt 0.802781 0.809246
vt 0.899875 0.805137
vt 0.989289 0.880051
vt 0.984078 0.760244
vt 0.671643 0.844235
vt 0.681851 0.745136
vt 0.762447 0.017997
vt 0.849154 0.034012
vt 0.908628 0.034065
vt 0.967133 0.026264
vt 0.619915 0.782483
vt 0.533734 0.782483
vt 0.533734 0.528529
vt 0.619915 0.528529
vt 0.447552 0.782483
vt 0.447552 0.528529
vt 0.361370 0.782483
vt 0.361370 0.528529
vt 0.275189 0.782483
vt 0.275189 0.528529
vt 0.189007 0.782483
vt 0.189007 0.528529
vt 0.102826 0.782483
vt 0.102826 0.528529
vt 0.059735 0.782483
vt 0.059735 0.528529
vt 0.663472 0.211035
vt 0.716505 0.152136
vt 0.708221 0.073313
vt 0.644101 0.026727
vt 0.566575 0.043206
vt 0.526947 0.111844
vt 0.551439 0.187222
vt 0.584215 0.211035
vt 0.400721 0.983683
vt 0.373869 0.923433
vt 0.635251 0.860453
vt 0.644896 0.882096
vt 0.367409 0.891087
vt 0.632930 0.848833
vt 0.400721 0.983683
vt 0.373869 0.923433
vt 0.635251 0.860453
vt 0.644896 0.882096
vt 0.367409 0.891087
vt 0.632930 0.848833
vt 0.400721 0.983683
vt 0.373869 0.923433
vt 0.635251 0.860453
vt 0.644896 0.882096
vt 0.367409 0.891087
vt 0.632930 0.848833
vt 0.369058 0.825145
vt 0.633522 0.825145
vt 0.369058 0.825145
vt 0.633522 0.825145
vt 0.369058 0.825145
vt 0.633522 0.825145
vt 0.167237 0.799517
vt 0.183147 0.807772
vn 0.2793 0.9502 -0.1380
vn -0.0059 -0.5757 -0.8176
vn -0.0842 0.9956 0.0408
vn -0.6571 0.7367 0.1592
vn 0.2503 -0.4473 -0.8586
vn 0.3278 -0.6106 0.7209
vn 0.5791 -0.4816 0.6577
vn -0.8958 -0.4195 0.1463
vn -0.8927 -0.3217 0.3157
vn 0.3332 0.4530 -0.8269
vn 0.2786 0.6666 -0.6914
vn -0.8210 0.5382 0.1903
vn 0.4242 -0.3653 -0.8285
vn 0.7258 -0.3968 0.5618
vn 0.6455 -0.5732 0.5047
vn 0.0716 0.9814 -0.1777
vn 0.5442 -0.4195 0.7265
vn -0.8151 -0.5732 -0.0838
vn 0.4908 -0.4188 -0.7640
vn 0.3652 -0.3193 -0.8744
vn 0.3914 0.4499 0.8027
vn 0.3276 0.6645 0.6717
vn 0.4244 -0.3217 0.8464
vn -0.8072 -0.5732 0.1412
vn 0.0840 0.9814 0.1722
vn -0.9042 -0.4188 -0.0837
vn 0.6082 -0.5732 -0.5491
vn -0.9139 -0.3193 -0.2507
vn -0.5323 0.4021 -0.7449
vn 0.0000 1.0000 0.0001
vn 0.1714 0.4279 -0.8874
vn -0.5323 -0.4021 -0.7449
vn 0.1714 -0.4279 -0.8874
vn 0.8417 0.4363 -0.3181
vn 0.8417 -0.4363 -0.3181
vn 0.0000 -1.0000 0.0001
vn 0.7658 -0.4112 0.4944
vn 0.7658 0.4112 0.4944
vn 0.2197 0.4112 0.8846
vn 0.2197 -0.4112 0.8846
vn -0.5735 -0.4363 0.6933
vn -0.5735 0.4363 0.6933
vn -0.8951 -0.4279 -0.1252
vn -0.8951 0.4279 -0.1252
vn 0.5414 0.3080 -0.7823
vn -0.0001 1.0000 0.0000
vn 0.9444 0.3002 -0.1341
vn 0.7378 0.3080 0.6006
vn -0.1056 0.3052 0.9464
vn 0.6301 -0.6115 0.4786
vn -0.1012 -0.6246 0.7743
vn -0.0002 -1.0000 0.0000
vn -0.7047 -0.5922 0.3906
vn -0.8238 0.3042 0.4783
vn -0.9244 0.3042 -0.2300
vn -0.7856 -0.5922 -0.1790
vn -0.3648 0.3052 -0.8796
vn -0.3127 -0.6246 -0.7155
vn 0.4720 -0.6115 -0.6350
vn 0.8046 -0.5827 -0.1142
vn 0.0407 0.3195 -0.9467
vn 0.6481 0.5379 -0.5391
vn 0.8023 -0.3797 -0.4605
vn 0.3033 -0.5220 -0.7972
vn -0.3203 0.9472 -0.0110
vn 0.7317 0.5739 0.3678
vn 0.8746 -0.3599 0.3249
vn 0.3510 -0.4972 0.7935
vn 0.3202 -0.9473 0.0113
vn 0.1108 0.3695 0.9226
vn -0.5591 0.1417 0.8169
vn -0.1877 -0.6803 0.7084
vn -0.5345 -0.8389 0.1025
vn -0.9954 -0.0132 0.0952
vn -0.2509 -0.7377 -0.6267
vn -0.6599 0.0932 -0.7455
vn 0.3949 0.4142 0.8200
vn 0.5969 0.4083 -0.6906
vn 0.5607 0.2637 -0.7848
vn 0.4180 0.2459 0.8745
vn -0.9121 0.4083 0.0361
vn -0.9604 0.2743 -0.0486
vn -0.9956 0.0925 0.0136
vn 0.5890 0.0705 -0.8050
vn 0.3814 0.0178 0.9242
vn -0.3101 0.8841 0.3496
vn -0.4799 0.8540 -0.2008
vn -0.9531 -0.2988 -0.0474
vn -0.7521 -0.2633 0.6041
vn -0.2018 0.7023 -0.6827
vn -0.6239 -0.4785 -0.6179
vn 0.3403 0.5292 -0.7773
vn 0.0177 -0.6833 -0.7299
vn 0.7874 0.4494 -0.4219
vn 0.5471 -0.7779 -0.3092
vn 0.8439 0.5155 0.1483
vn 0.6139 -0.6995 0.3657
vn 0.5351 0.6756 0.5070
vn 0.2357 -0.5433 0.8057
vn 0.1272 0.8059 0.5782
vn -0.2387 -0.3918 0.8885
vn 0.4554 -0.8604 0.2286
vn 0.1353 0.6028 -0.7863
vn 0.2124 0.5051 -0.8365
vn -0.5497 0.6028 0.5782
vn -0.5440 0.5051 0.6700
vn 0.0000 -0.8809 -0.4732
vn -0.7533 0.6200 0.2190
vn -0.8502 0.4993 0.1668
vn 0.7533 0.6200 0.2190
vn 0.8502 0.4993 0.1668
vn -0.4535 -0.8604 0.2325
vn 0.5546 0.6028 0.5736
vn 0.5496 0.5051 0.6654
vn -0.1420 0.6028 -0.7851
vn -0.2195 0.5051 -0.8347
usemtl TREE8
s off
f 98/1/1 96/2/1 94/3/1 92/4/1 90/5/1 88/6/1 86/7/1 100/8/1
s 1
f 3/9/2 1/10/3 4/11/4 6/12/5
f 2/13/6 3/14/2 6/15/5 5/16/7
f 1/17/3 2/18/6 5/19/7 4/20/4
f 14/21/8 17/22/9 16/23/10 13/24/11
f 4/11/4 7/25/12 9/26/13 6/12/5
f 6/15/5 9/27/13 8/28/14 5/16/7
f 12/29/15 10/30/16 13/31/11 15/32/17
f 11/33/18 12/34/15 15/35/17 14/36/8
f 10/37/16 11/38/18 14/21/8 13/24/11
f 23/39/19 26/40/20 25/41/21 22/42/22
f 13/31/11 16/43/10 18/44/23 15/32/17
f 15/35/17 18/45/23 17/46/9 14/36/8
f 21/47/24 19/48/25 22/49/22 24/50/26
f 20/51/27 21/52/24 24/53/26 23/54/19
f 19/55/25 20/56/27 23/39/19 22/42/22
f 22/49/22 25/57/21 27/58/28 24/50/26
f 24/53/26 27/59/28 26/60/20 23/54/19
f 28/61/29 42/62/30 29/63/31
f 43/64/32 28/65/29 29/66/31 30/67/33
f 29/63/31 42/62/30 31/68/34
f 30/67/33 32/69/35 35/70/36
f 30/67/33 29/66/31 31/71/34 32/69/35
f 32/72/35 34/73/37 35/74/36
f 31/75/34 42/76/30 33/77/38
f 32/72/35 31/78/34 33/79/38 34/73/37
f 33/77/38 42/76/30 36/80/39
f 34/73/37 37/81/40 35/74/36
f 34/73/37 33/79/38 36/82/39 37/81/40
f 35/74/36 37/81/40 39/83/41
f 37/81/40 36/82/39 38/84/42 39/83/41
f 36/80/39 42/76/30 38/85/42
f 35/70/36 39/86/41 41/87/43
f 39/86/41 38/88/42 40/89/44 41/87/43
f 38/90/42 42/62/30 40/91/44
f 41/87/43 40/89/44 28/65/29 43/64/32
f 40/91/44 42/62/30 28/61/29
f 43/64/32 30/67/33 35/70/36
f 41/87/43 43/64/32 35/70/36
f 57/92/45 59/93/46 44/94/47
f 46/95/48 59/93/46 48/96/49
f 47/97/50 49/98/51 52/99/52
f 49/100/51 51/101/53 52/102/52
f 48/103/49 50/104/54 51/101/53 49/100/51
f 46/105/48 48/106/49 49/98/51 47/97/50
f 48/107/49 59/108/46 50/109/54
f 50/104/54 53/110/55 54/111/56 51/101/53
f 50/109/54 59/108/46 53/112/55
f 54/111/56 53/110/55 55/113/57 56/114/58
f 52/102/52 51/101/53 54/111/56
f 52/102/52 54/111/56 56/114/58
f 52/99/52 56/115/58 58/116/59
f 53/112/55 59/108/46 55/117/57
f 56/115/58 55/118/57 57/119/45 58/116/59
f 55/120/57 59/93/46 57/92/45
f 58/116/59 45/121/60 52/99/52
f 58/116/59 57/119/45 44/122/47 45/121/60
f 44/122/47 46/105/48 47/97/50 45/121/60
f 44/94/47 59/93/46 46/95/48
f 45/121/60 47/97/50 52/99/52
f 60/123/61 62/124/62 63/125/63 61/126/64
f 60/127/61 75/128/65 62/129/62
f 62/129/62 75/128/65 64/130/66
f 62/124/62 64/131/66 65/132/67 63/125/63
f 65/133/67 67/134/68 68/135/69
f 63/125/63 65/132/67 68/136/69
f 64/137/66 66/138/70 67/134/68 65/133/67
f 64/139/66 75/140/65 66/141/70
f 66/138/70 69/142/71 70/143/72 67/134/68
f 66/141/70 75/140/65 69/144/71
f 68/135/69 67/134/68 70/143/72
f 68/135/69 70/143/72 72/145/73
f 70/143/72 69/142/71 71/146/74 72/145/73
f 69/144/71 75/140/65 71/147/74
f 68/136/69 72/148/73 74/149/75
f 72/148/73 71/150/74 73/151/76 74/149/75
f 71/152/74 75/128/65 73/153/76
f 74/149/75 73/151/76 60/123/61 61/126/64
f 74/149/75 61/126/64 68/136/69
f 73/153/76 75/128/65 60/127/61
f 61/126/64 63/125/63 68/136/69
f 77/154/77 78/155/78 81/156/79 80/157/80
f 76/158/81 77/154/77 80/157/80 79/159/82
f 76/160/81 79/161/82 81/156/79 78/155/78
f 79/161/82 82/162/83 84/163/84 81/156/79
f 81/156/79 84/163/84 83/164/85 80/157/80
f 80/157/80 83/164/85 82/165/83 79/159/82
f 86/166/86 88/167/87 87/168/88 85/169/89
f 88/167/87 90/170/90 89/171/91 87/168/88
f 90/170/90 92/172/92 91/173/93 89/171/91
f 92/172/92 94/174/94 93/175/95 91/173/93
f 94/174/94 96/176/96 95/177/97 93/175/95
f 96/176/96 98/178/98 97/179/99 95/177/97
f 97/179/99 98/178/98 100/180/100 99/181/101
f 85/182/89 87/183/88 89/184/91 91/185/93 93/186/95 95/187/97 97/188/99 99/189/101
f 101/190/102 102/191/103 105/192/104 104/193/102
f 102/191/103 103/194/105 106/195/106 105/192/104
f 107/196/107 108/197/108 111/198/109 110/199/107
f 108/197/108 109/200/110 112/201/111 111/198/109
f 113/202/112 114/203/113 117/204/114 116/205/112
f 114/203/113 115/206/115 118/207/116 117/204/114
f 103/194/105 101/208/102 104/209/102 106/195/106
f 109/200/110 107/210/107 110/211/107 112/201/111
f 115/206/115 113/212/112 116/213/112 118/207/116
f 5/19/7 8/214/14 7/215/12 4/20/4
f 99/181/101 100/180/100 86/166/86 85/169/89
