# Blender v2.79 (sub 0) OBJ File: 'tree8LP.obj'
# www.blender.org
mtllib tree8LP.mtl
o tree8mesh_Окружность.006
v 0.564409 3.881217 1.152394
v 1.160162 3.611180 0.498917
v 1.069648 3.505045 -0.415093
v 0.352765 3.633045 -0.984800
v -0.516098 3.910478 -0.833208
v -0.961981 4.153755 -0.060630
v -0.689826 4.201891 0.821689
v 0.120272 4.023032 1.229883
v 0.076157 2.939571 0.075410
v 0.106041 3.069233 0.149907
v 0.350995 3.092115 0.097295
v 0.327363 2.989573 0.038379
v 0.108475 2.936194 0.224404
v 0.352920 2.986903 0.156209
v -0.051320 3.291961 0.416363
v -0.140211 3.833364 0.678757
v -0.069881 3.829155 0.623775
v 0.004610 3.396403 0.438898
v 0.590079 3.506351 0.054825
v 0.656146 3.503680 -0.005302
v 0.675086 3.501701 0.082017
v 0.167614 3.216124 0.238366
v 0.096891 3.348189 0.209870
v 0.060540 3.291961 0.461434
v 0.026168 3.216123 0.181374
v 0.042858 3.160514 -0.220222
v -0.092417 3.706004 -0.461993
v -0.098706 3.701795 -0.372943
v -0.011340 3.264956 -0.193792
v -0.057316 3.833364 0.712158
v 0.028358 3.084677 0.061567
v 0.096891 3.216742 0.028145
v -0.065538 3.160514 -0.167361
v 0.165424 3.084677 -0.005276
v -0.172745 3.706004 -0.422820
v -0.853567 2.268311 0.294742
v -0.727089 2.441787 0.471726
v -0.612849 2.268311 0.223385
v -0.853567 2.169010 0.294742
v -0.612849 2.169010 0.223385
v -0.458156 2.268311 0.339034
v -0.458156 2.169010 0.339034
v -0.727089 1.995534 0.471726
v -0.505974 2.169010 0.554604
v -0.505974 2.268311 0.554603
v -0.720296 2.268311 0.707765
v -0.720296 2.169010 0.707765
v -0.939733 2.169010 0.683184
v -0.939733 2.268311 0.683184
v -0.999044 2.169010 0.499371
v -0.999044 2.268311 0.499371
v 0.238041 2.393115 -1.436336
v 0.046632 2.722136 -0.954506
v 0.455114 2.393116 -1.012502
v 0.364592 2.393116 -0.544995
v 0.034640 2.393116 -0.385859
v 0.301616 2.035093 -0.626104
v 0.037015 2.035093 -0.498486
v 0.046632 1.875759 -0.954506
v -0.220344 2.035093 -0.714261
v -0.286282 2.393115 -0.654925
v -0.356512 2.393116 -1.149582
v -0.276665 2.035093 -1.110945
v -0.123167 2.393115 -1.497342
v -0.089536 2.035093 -1.389827
v 0.200130 2.035093 -1.340904
v 0.374210 2.035093 -1.001015
v 1.332596 2.226981 0.286083
v 1.593649 2.316940 0.430042
v 1.609256 2.075379 0.456989
v 1.399908 2.003238 0.341542
v 1.224963 2.420840 0.550498
v 1.628963 2.331666 0.666515
v 1.637575 2.087189 0.646625
v 1.463540 2.029773 0.767653
v 1.402222 1.896561 0.556677
v 1.411945 2.260070 0.817434
v 1.106014 2.156066 0.769153
v 1.218204 1.946368 0.728935
v 1.086308 1.899779 0.559626
v 0.941544 2.097970 0.558029
v 1.167174 1.925088 0.387221
v 1.042382 2.129530 0.343043
v 0.266271 -0.136790 0.555318
v 0.483374 -0.136790 -0.395874
v 0.255598 0.467149 -0.214227
v 0.139864 0.467149 0.292832
v -0.612761 -0.136790 0.131997
v -0.328728 0.467149 0.067169
v -0.004159 3.755928 0.142425
v 0.194876 3.727813 0.045507
v 0.155454 3.733382 0.220148
v -1.052638 3.987900 -0.040941
v -0.770750 4.037758 0.872928
v -0.590811 3.735923 -0.841145
v 0.309122 3.448570 -0.998159
v 1.051640 3.315993 -0.408079
v 1.145390 3.425923 0.538615
v 0.528335 3.705616 1.215459
v 0.068316 3.852503 1.295719
v 0.158496 1.431908 0.122331
v 0.071854 1.629499 -0.008396
v 1.088577 2.139912 0.557951
v 1.119700 2.068934 0.604910
v 0.001899 1.629499 0.130939
v 1.063449 2.139912 0.608002
v 0.082261 1.870750 -0.011383
v 0.004306 2.068341 0.124704
v 0.054258 2.578755 -1.148443
v 0.082261 2.507777 -1.197327
v 0.160216 2.068341 0.124704
v 0.110263 2.578755 -1.148443
v 0.028210 1.677055 0.121254
v 0.154705 1.836597 0.127135
v -0.699141 2.248721 0.519559
v -0.744579 2.191411 0.517446
v 0.097273 1.836597 0.015113
v -0.719771 2.248721 0.479318
vt 0.111393 0.446825
vt 0.028559 0.259335
vt 0.112300 0.073014
vt 0.306779 0.010876
vt 0.483180 0.112881
vt 0.525723 0.312676
vt 0.405732 0.478163
vt 0.202205 0.499433
vt 0.105092 0.799517
vt 0.128041 0.811598
vt 0.093958 0.841802
vt 0.075809 0.832248
vt 0.274602 0.978065
vt 0.239757 0.978065
vt 0.246018 0.938519
vt 0.273575 0.938519
vt 0.183147 0.911181
vt 0.156559 0.927227
vt 0.131962 0.889647
vt 0.152989 0.876957
vt 0.243666 0.887194
vt 0.279267 0.799517
vt 0.295045 0.808535
vt 0.264640 0.877896
vt 0.128041 0.912984
vt 0.114220 0.923181
vt 0.104831 0.923190
vt 0.125474 0.923181
vt 0.213906 0.799517
vt 0.239757 0.810488
vt 0.208041 0.835139
vt 0.187596 0.826463
vt 0.218365 0.982443
vt 0.183147 0.982443
vt 0.186978 0.941363
vt 0.214830 0.941363
vt 0.295045 0.901636
vt 0.268524 0.913393
vt 0.018068 0.891181
vt 0.056525 0.799517
vt 0.069923 0.809679
vt 0.035643 0.881290
vt 0.239757 0.903561
vt 0.224361 0.913042
vt 0.011973 0.929550
vt 0.029993 0.924803
vt 0.302591 0.799517
vt 0.326520 0.816561
vt 0.313969 0.844069
vt 0.295045 0.830590
vt 0.069923 0.923181
vt 0.104831 0.923259
vt 0.104063 0.961528
vt 0.076457 0.961466
vt 0.069923 0.912296
vt 0.047699 0.924803
vt 0.326520 0.920269
vt 0.312360 0.927916
vt 0.238956 0.980883
vt 0.218365 0.981097
vt 0.607818 0.372095
vt 0.621350 0.321858
vt 0.644192 0.370458
vt 0.592069 0.488291
vt 0.586158 0.505625
vt 0.554923 0.486754
vt 0.566486 0.473584
vt 0.674414 0.346993
vt 0.545973 0.447625
vt 0.605868 0.441349
vt 0.531791 0.459794
vt 0.556846 0.411774
vt 0.588082 0.395328
vt 0.607555 0.441684
vt 0.711481 0.273758
vt 0.635314 0.308923
vt 0.672563 0.239736
vt 0.547757 0.392704
vt 0.583650 0.377191
vt 0.620310 0.230873
vt 0.618098 0.392387
vt 0.619834 0.375021
vt 0.649663 0.401073
vt 0.653932 0.383136
vt 0.569329 0.253624
vt 0.656951 0.476142
vt 0.622488 0.489882
vt 0.664396 0.497316
vt 0.624600 0.509513
vt 0.564886 0.320728
vt 0.578713 0.352384
vt 0.578713 0.352384
vt 0.621350 0.321858
vt 0.607818 0.372095
vt 0.644192 0.370458
vt 0.674414 0.346993
vt 0.577617 0.462301
vt 0.563881 0.439003
vt 0.605868 0.441349
vt 0.570771 0.426679
vt 0.592689 0.410731
vt 0.607555 0.441684
vt 0.547757 0.392704
vt 0.583650 0.377191
vt 0.554923 0.486754
vt 0.531791 0.459794
vt 0.711481 0.273758
vt 0.635314 0.308923
vt 0.672563 0.239736
vt 0.619834 0.375021
vt 0.615816 0.408120
vt 0.620310 0.230873
vt 0.653932 0.383136
vt 0.640496 0.418291
vt 0.643729 0.459079
vt 0.619592 0.473666
vt 0.569329 0.253624
vt 0.664396 0.497316
vt 0.624600 0.509513
vt 0.564886 0.320728
vt 0.596877 0.473721
vt 0.586158 0.505625
vt 0.586158 0.505625
vt 0.554923 0.486754
vt 0.577617 0.462301
vt 0.596877 0.473721
vt 0.607818 0.372095
vt 0.621350 0.321858
vt 0.644192 0.370458
vt 0.674414 0.346993
vt 0.531791 0.459794
vt 0.563881 0.439003
vt 0.570771 0.426679
vt 0.592689 0.410731
vt 0.607555 0.441684
vt 0.605868 0.441349
vt 0.547757 0.392704
vt 0.583650 0.377191
vt 0.711481 0.273758
vt 0.635314 0.308923
vt 0.672563 0.239736
vt 0.619834 0.375021
vt 0.615816 0.408120
vt 0.620310 0.230873
vt 0.640496 0.418291
vt 0.653932 0.383136
vt 0.569329 0.253624
vt 0.643729 0.459079
vt 0.619592 0.473666
vt 0.664396 0.497316
vt 0.624600 0.509513
vt 0.564886 0.320728
vt 0.578713 0.352384
vt 0.886469 0.981153
vt 0.789467 0.979199
vt 0.802781 0.809246
vt 0.899875 0.805137
vt 0.989289 0.880051
vt 0.984078 0.760244
vt 0.671643 0.844235
vt 0.681851 0.745136
vt 0.762447 0.017997
vt 0.849154 0.034012
vt 0.908628 0.034065
vt 0.967133 0.026264
vt 0.619915 0.782483
vt 0.533734 0.782483
vt 0.533734 0.528529
vt 0.619915 0.528529
vt 0.447552 0.782483
vt 0.447552 0.528529
vt 0.361370 0.782483
vt 0.361370 0.528529
vt 0.275189 0.782483
vt 0.275189 0.528529
vt 0.189007 0.782483
vt 0.189007 0.528529
vt 0.102826 0.782483
vt 0.102826 0.528529
vt 0.059735 0.782483
vt 0.059735 0.528529
vt 0.663472 0.211035
vt 0.716505 0.152136
vt 0.708221 0.073313
vt 0.644101 0.026727
vt 0.566575 0.043206
vt 0.526947 0.111844
vt 0.551439 0.187222
vt 0.584215 0.211035
vt 0.400721 0.983683
vt 0.373869 0.923433
vt 0.635251 0.860453
vt 0.644896 0.882096
vt 0.367409 0.891087
vt 0.632930 0.848833
vt 0.400721 0.983683
vt 0.373869 0.923433
vt 0.635251 0.860453
vt 0.644896 0.882096
vt 0.367409 0.891087
vt 0.632930 0.848833
vt 0.400721 0.983683
vt 0.373869 0.923433
vt 0.635251 0.860453
vt 0.644896 0.882096
vt 0.367409 0.891087
vt 0.632930 0.848833
vt 0.369058 0.825145
vt 0.633522 0.825145
vt 0.369058 0.825145
vt 0.633522 0.825145
vt 0.369058 0.825145
vt 0.633522 0.825145
vt 0.167237 0.799517
vt 0.183147 0.807772
vn 0.2793 0.9502 -0.1380
vn -0.0059 -0.5757 -0.8176
vn -0.0842 0.9956 0.0408
vn -0.6571 0.7368 0.1592
vn 0.2503 -0.4473 -0.8587
vn 0.3278 -0.6106 0.7209
vn 0.5792 -0.4817 0.6577
vn -0.8959 -0.4195 0.1463
vn -0.8927 -0.3217 0.3157
vn 0.3332 0.4530 -0.8269
vn 0.2786 0.6666 -0.6914
vn -0.8211 0.5382 0.1903
vn 0.4243 -0.3654 -0.8286
vn 0.7258 -0.3969 0.5618
vn 0.6455 -0.5732 0.5047
vn 0.0716 0.9815 -0.1778
vn 0.5442 -0.4195 0.7265
vn -0.8151 -0.5732 -0.0838
vn 0.4908 -0.4189 -0.7640
vn 0.3652 -0.3193 -0.8745
vn 0.3914 0.4499 0.8027
vn 0.3276 0.6645 0.6717
vn 0.4244 -0.3217 0.8464
vn -0.8072 -0.5732 0.1412
vn 0.0840 0.9815 0.1722
vn -0.9042 -0.4189 -0.0837
vn 0.6082 -0.5732 -0.5491
vn -0.9139 -0.3193 -0.2507
vn -0.5324 0.4021 -0.7449
vn 0.0001 1.0000 0.0001
vn 0.1714 0.4279 -0.8874
vn -0.5324 -0.4021 -0.7449
vn 0.1714 -0.4279 -0.8874
vn 0.8417 0.4363 -0.3181
vn 0.8417 -0.4363 -0.3181
vn 0.0001 -1.0000 0.0001
vn 0.7658 -0.4112 0.4944
vn 0.7658 0.4112 0.4944
vn 0.2197 0.4112 0.8847
vn 0.2197 -0.4112 0.8847
vn -0.5736 -0.4363 0.6933
vn -0.5736 0.4363 0.6933
vn -0.8951 -0.4279 -0.1252
vn -0.8951 0.4279 -0.1252
vn 0.5415 0.3080 -0.7823
vn -0.0001 1.0000 0.0000
vn 0.9444 0.3002 -0.1341
vn 0.7378 0.3080 0.6007
vn -0.1056 0.3052 0.9464
vn 0.6301 -0.6115 0.4786
vn -0.1012 -0.6246 0.7743
vn -0.0002 -1.0000 0.0000
vn -0.7048 -0.5922 0.3906
vn -0.8238 0.3042 0.4783
vn -0.9244 0.3042 -0.2301
vn -0.7856 -0.5922 -0.1790
vn -0.3648 0.3052 -0.8796
vn -0.3127 -0.6246 -0.7155
vn 0.4720 -0.6115 -0.6350
vn 0.8046 -0.5827 -0.1142
vn 0.0408 0.3195 -0.9467
vn 0.6481 0.5379 -0.5391
vn 0.8023 -0.3797 -0.4605
vn 0.3033 -0.5220 -0.7972
vn -0.3203 0.9473 -0.0111
vn 0.7317 0.5739 0.3678
vn 0.8746 -0.3599 0.3249
vn 0.3510 -0.4972 0.7935
vn 0.3202 -0.9473 0.0113
vn 0.1108 0.3695 0.9226
vn -0.5591 0.1418 0.8169
vn -0.1877 -0.6803 0.7085
vn -0.5345 -0.8389 0.1025
vn -0.9954 -0.0132 0.0952
vn -0.2509 -0.7377 -0.6267
vn -0.6599 0.0932 -0.7456
vn 0.3908 0.4345 0.8115
vn 0.5918 0.4285 -0.6827
vn 0.5551 0.2788 -0.7837
vn 0.4162 0.2602 0.8712
vn -0.9028 0.4285 0.0370
vn -0.9556 0.2899 -0.0522
vn -0.9951 0.0980 0.0145
vn 0.5926 0.0746 -0.8020
vn 0.3850 0.0188 0.9227
vn -0.3101 0.8841 0.3496
vn -0.4799 0.8540 -0.2008
vn -0.9531 -0.2988 -0.0474
vn -0.7522 -0.2633 0.6041
vn -0.2018 0.7023 -0.6827
vn -0.6239 -0.4785 -0.6179
vn 0.3403 0.5292 -0.7773
vn 0.0177 -0.6834 -0.7299
vn 0.7874 0.4494 -0.4219
vn 0.5471 -0.7779 -0.3092
vn 0.8439 0.5155 0.1483
vn 0.6139 -0.6995 0.3658
vn 0.5351 0.6757 0.5070
vn 0.2357 -0.5433 0.8058
vn 0.1272 0.8059 0.5782
vn -0.2387 -0.3918 0.8885
vn 0.4554 -0.8604 0.2287
vn 0.1353 0.6029 -0.7863
vn 0.2124 0.5051 -0.8365
vn -0.5497 0.6029 0.5782
vn -0.5440 0.5051 0.6701
vn 0.0000 -0.8810 -0.4732
vn -0.7534 0.6201 0.2190
vn -0.8502 0.4994 0.1668
vn 0.7534 0.6201 0.2190
vn 0.8502 0.4994 0.1668
vn -0.4535 -0.8604 0.2325
vn 0.5546 0.6029 0.5736
vn 0.5496 0.5051 0.6654
vn -0.1420 0.6029 -0.7851
vn -0.2195 0.5051 -0.8347
usemtl TREE8
s off
f 1/1/1 2/2/1 3/3/1 4/4/1 5/5/1 6/6/1 7/7/1 8/8/1
s 1
f 9/9/2 10/10/3 11/11/4 12/12/5
f 13/13/6 9/14/2 12/15/5 14/16/7
f 10/17/3 13/18/6 14/19/7 11/20/4
f 15/21/8 16/22/9 17/23/10 18/24/11
f 11/11/4 19/25/12 20/26/13 12/12/5
f 12/15/5 20/27/13 21/28/14 14/16/7
f 22/29/15 23/30/16 18/31/11 24/32/17
f 25/33/18 22/34/15 24/35/17 15/36/8
f 23/37/16 25/38/18 15/21/8 18/24/11
f 26/39/19 27/40/20 28/41/21 29/42/22
f 18/31/11 17/43/10 30/44/23 24/32/17
f 24/35/17 30/45/23 16/46/9 15/36/8
f 31/47/24 32/48/25 29/49/22 33/50/26
f 34/51/27 31/52/24 33/53/26 26/54/19
f 32/55/25 34/56/27 26/39/19 29/42/22
f 29/49/22 28/57/21 35/58/28 33/50/26
f 33/53/26 35/59/28 27/60/20 26/54/19
f 36/61/29 37/62/30 38/63/31
f 39/64/32 36/65/29 38/66/31 40/67/33
f 38/63/31 37/62/30 41/68/34
f 40/67/33 42/69/35 43/70/36
f 40/67/33 38/66/31 41/71/34 42/69/35
f 42/72/35 44/73/37 43/74/36
f 41/75/34 37/76/30 45/77/38
f 42/72/35 41/78/34 45/79/38 44/73/37
f 45/77/38 37/76/30 46/80/39
f 44/73/37 47/81/40 43/74/36
f 44/73/37 45/79/38 46/82/39 47/81/40
f 43/74/36 47/81/40 48/83/41
f 47/81/40 46/82/39 49/84/42 48/83/41
f 46/80/39 37/76/30 49/85/42
f 43/70/36 48/86/41 50/87/43
f 48/86/41 49/88/42 51/89/44 50/87/43
f 49/90/42 37/62/30 51/91/44
f 50/87/43 51/89/44 36/65/29 39/64/32
f 51/91/44 37/62/30 36/61/29
f 39/64/32 40/67/33 43/70/36
f 50/87/43 39/64/32 43/70/36
f 52/92/45 53/93/46 54/94/47
f 55/95/48 53/93/46 56/96/49
f 57/97/50 58/98/51 59/99/52
f 58/100/51 60/101/53 59/102/52
f 56/103/49 61/104/54 60/101/53 58/100/51
f 55/105/48 56/106/49 58/98/51 57/97/50
f 56/107/49 53/108/46 61/109/54
f 61/104/54 62/110/55 63/111/56 60/101/53
f 61/109/54 53/108/46 62/112/55
f 63/111/56 62/110/55 64/113/57 65/114/58
f 59/102/52 60/101/53 63/111/56
f 59/102/52 63/111/56 65/114/58
f 59/99/52 65/115/58 66/116/59
f 62/112/55 53/108/46 64/117/57
f 65/115/58 64/118/57 52/119/45 66/116/59
f 64/120/57 53/93/46 52/92/45
f 66/116/59 67/121/60 59/99/52
f 66/116/59 52/119/45 54/122/47 67/121/60
f 54/122/47 55/105/48 57/97/50 67/121/60
f 54/94/47 53/93/46 55/95/48
f 67/121/60 57/97/50 59/99/52
f 68/123/61 69/124/62 70/125/63 71/126/64
f 68/127/61 72/128/65 69/129/62
f 69/129/62 72/128/65 73/130/66
f 69/124/62 73/131/66 74/132/67 70/125/63
f 74/133/67 75/134/68 76/135/69
f 70/125/63 74/132/67 76/136/69
f 73/137/66 77/138/70 75/134/68 74/133/67
f 73/139/66 72/140/65 77/141/70
f 77/138/70 78/142/71 79/143/72 75/134/68
f 77/141/70 72/140/65 78/144/71
f 76/135/69 75/134/68 79/143/72
f 76/135/69 79/143/72 80/145/73
f 79/143/72 78/142/71 81/146/74 80/145/73
f 78/144/71 72/140/65 81/147/74
f 76/136/69 80/148/73 82/149/75
f 80/148/73 81/150/74 83/151/76 82/149/75
f 81/152/74 72/128/65 83/153/76
f 82/149/75 83/151/76 68/123/61 71/126/64
f 82/149/75 71/126/64 76/136/69
f 83/153/76 72/128/65 68/127/61
f 71/126/64 70/125/63 76/136/69
f 84/154/77 85/155/78 86/156/79 87/157/80
f 88/158/81 84/154/77 87/157/80 89/159/82
f 88/160/81 89/161/82 86/156/79 85/155/78
f 89/161/82 90/162/83 91/163/84 86/156/79
f 86/156/79 91/163/84 92/164/85 87/157/80
f 87/157/80 92/164/85 90/165/83 89/159/82
f 7/166/86 6/167/87 93/168/88 94/169/89
f 6/167/87 5/170/90 95/171/91 93/168/88
f 5/170/90 4/172/92 96/173/93 95/171/91
f 4/172/92 3/174/94 97/175/95 96/173/93
f 3/174/94 2/176/96 98/177/97 97/175/95
f 2/176/96 1/178/98 99/179/99 98/177/97
f 99/179/99 1/178/98 8/180/100 100/181/101
f 94/182/89 93/183/88 95/184/91 96/185/93 97/186/95 98/187/97 99/188/99 100/189/101
f 101/190/102 102/191/103 103/192/104 104/193/102
f 102/191/103 105/194/105 106/195/106 103/192/104
f 107/196/107 108/197/108 109/198/109 110/199/107
f 108/197/108 111/200/110 112/201/111 109/198/109
f 113/202/112 114/203/113 115/204/114 116/205/112
f 114/203/113 117/206/115 118/207/116 115/204/114
f 105/194/105 101/208/102 104/209/102 106/195/106
f 111/200/110 107/210/107 110/211/107 112/201/111
f 117/206/115 113/212/112 116/213/112 118/207/116
f 14/19/7 21/214/14 19/215/12 11/20/4
f 100/181/101 8/180/100 7/166/86 94/169/89
