# Blender v2.76 (sub 0) OBJ File: 'grass1.blend'
# www.blender.org
mtllib grass1LP.mtl
o Plane.011_Plane.059
v 2.509443 -0.018929 2.636146
v 2.580002 0.795599 2.599118
v 2.620070 -0.018929 2.572551
v 2.596409 -0.011505 2.732037
v 2.909647 1.010996 2.732748
v 2.678790 -0.011505 2.521165
v 2.484694 -0.009690 2.578027
v 2.153415 0.593126 2.748199
v 2.522726 -0.009690 2.731841
v 2.782049 -0.046133 2.612044
v 2.935567 0.749574 2.271056
v 2.642785 -0.046133 2.467441
v -2.023280 -0.018002 -1.016571
v -2.601145 0.457478 -0.782602
v -1.985001 -0.018002 -0.898626
v -2.041815 -0.009690 -1.010772
v -1.725114 0.524815 -0.554783
v -1.896299 -0.009690 -1.072984
v -1.976584 -0.027800 -1.177644
v -1.944502 0.752151 -1.108725
v -1.907554 -0.027800 -1.074682
v -1.873809 -0.012907 -1.030268
v -1.788067 0.547114 -1.179091
v -1.951362 -0.012907 -1.126954
v 0.004651 -0.027049 0.717442
v -0.146350 0.896639 0.424845
v -0.221190 -0.027049 0.774299
v -0.162529 -0.028186 0.978057
v -0.322125 0.789163 0.809254
v -0.103051 -0.028186 0.876638
v -0.122520 -0.021352 1.008157
v -0.118383 0.484300 1.325286
v 0.005176 -0.021352 1.044700
v 0.057553 -0.022874 0.953642
v 0.590117 0.554086 0.464741
v -0.061302 -0.022874 0.805466
v -0.048487 -0.074046 1.011249
v -0.044276 0.917088 0.901562
v -0.048487 -0.074046 0.835479
vt 0.000000 0.000000
vn 0.498400 -0.003800 0.867000
vn 0.895600 -0.274600 0.349900
vn 0.832000 0.515300 -0.205700
vn 0.660200 -0.399800 -0.635800
vn -0.577700 -0.794400 0.187500
vn -0.275600 0.713200 -0.644600
vn -0.830500 -0.015000 0.556800
vn 0.750000 -0.274700 -0.601600
vn 0.230600 0.327900 0.916100
vn 0.832200 0.263300 0.488000
vn -0.235800 -0.514900 0.824100
vn 0.487200 -0.780900 -0.390800
vn 1.000000 -0.004200 0.000000
usemtl Material
s off
f 1/1/1 3/1/1 2/1/1
f 5/1/2 4/1/2 6/1/2
f 8/1/3 9/1/3 7/1/3
f 10/1/4 12/1/4 11/1/4
f 13/1/5 15/1/5 14/1/5
f 18/1/6 16/1/6 17/1/6
f 19/1/7 21/1/7 20/1/7
f 22/1/8 24/1/8 23/1/8
f 27/1/9 25/1/9 26/1/9
f 28/1/10 30/1/10 29/1/10
f 31/1/11 33/1/11 32/1/11
f 34/1/12 36/1/12 35/1/12
f 37/1/13 39/1/13 38/1/13
o Plane.012_Plane.034
v -1.020627 0.776244 -0.643154
v -1.052549 -0.030735 -0.679237
v -0.976114 -0.028494 -0.574418
v -1.318870 0.922566 -0.548429
v -1.098530 -0.029222 -0.633908
v -1.091005 -0.030571 -0.495357
v -1.384406 0.737042 -0.958326
v -1.258108 -0.057778 -0.679334
v -1.129958 -0.058050 -0.833152
v -0.928008 0.985600 -0.979118
v -1.099980 -0.003503 -0.726112
v -0.903895 -0.003776 -0.685696
v -0.818887 0.571436 -0.169017
v -1.010212 -0.021187 -0.509355
v -0.891719 -0.020953 -0.545016
v 1.156720 -0.046133 2.611095
v 1.067587 0.749574 2.341689
v 0.956806 -0.046133 2.629070
v 0.949630 -0.017833 2.883307
v 0.778907 0.936479 2.686368
v 1.038546 -0.017833 2.774996
v 0.991125 -0.009691 2.926195
v 0.924066 0.539814 3.358179
v 1.134655 -0.009691 2.993003
v 1.214433 -0.013877 2.950035
v 2.059169 0.973867 2.067389
v 1.053720 -0.013877 2.668775
v 1.084093 -0.018929 2.903284
v 1.099582 0.795599 2.824989
v 1.104068 -0.018929 2.777051
v -0.274051 -0.012908 0.794156
v -0.201933 0.547113 0.638128
v -0.360039 -0.012908 0.704949
v -0.389732 -0.027800 0.656769
v -0.351565 0.752150 0.722475
v -0.311677 -0.027800 0.753005
v -0.439784 -0.009691 0.828900
v -0.083149 0.524815 1.254100
v -0.300304 -0.009691 0.753669
v -0.421827 -0.018002 0.821434
v -0.963479 0.467578 1.136756
v -0.373083 -0.018002 0.935397
v 1.117340 -0.018929 -2.964490
v 1.039377 0.795598 -2.981030
v 0.991573 -0.018929 -2.986153
v 1.111450 -0.011505 -3.093946
v 0.870558 1.010996 -3.294601
v 0.913580 -0.011505 -2.984065
v 1.097689 -0.009691 -2.880656
v 1.484257 0.600895 -2.823609
v 1.157214 -0.009691 -3.004362
v 0.890118 -0.046134 -3.041071
v 0.619853 0.749573 -2.955371
v 0.905257 -0.046134 -2.840664
v 1.170741 -0.052774 -2.013917
v 1.323083 0.302520 -1.156760
v 1.347959 -0.061388 -2.018243
v 1.278408 -0.039906 -2.108411
v 0.660304 0.319382 -2.525999
v 1.158226 -0.039906 -1.977383
v 1.183142 -0.046046 -1.982842
v 1.239880 0.945923 -2.602556
v 1.483951 -0.046046 -2.063819
v 1.469024 -0.046046 -2.052274
v 1.342241 1.234324 -1.968307
v 1.166950 -0.046046 -1.976173
vt 0.524356 1.017470
vt 0.524786 0.008302
vt 1.002352 0.494195
vt 0.000000 0.000000
vn -0.808000 0.005600 0.589100
vn -0.972000 -0.229600 0.050600
vn 0.726200 0.327600 0.604400
vn -0.193700 0.274600 0.941800
vn 0.243400 -0.540900 0.805100
vn -0.084600 -0.328000 -0.940900
vn -0.746300 -0.260000 -0.612700
vn 0.335300 0.607200 -0.720300
vn -0.559700 0.764500 0.319800
vn 0.987700 -0.003800 0.156300
vn -0.692200 0.275000 0.667200
vn 0.776600 0.015100 -0.629900
vn -0.332900 0.713000 -0.617100
vn 0.565800 0.788300 -0.242000
vn 0.169700 -0.003800 -0.985500
vn -0.466800 -0.274900 -0.840600
vn 0.768900 -0.521400 0.370000
vn -0.942100 -0.327700 0.071200
vn -0.035300 -0.921000 0.388000
vn -0.322700 -0.899100 -0.295900
vn 0.224000 0.507100 0.832200
vn 0.244100 -0.039400 0.968900
usemtl Material.001
s off
f 41/2/14 42/3/14 40/4/14
f 44/2/15 45/3/15 43/4/15
f 47/2/16 48/3/16 46/4/16
f 50/2/17 51/3/17 49/4/17
f 53/2/18 54/3/18 52/4/18
usemtl Material.001_NONE
f 56/5/19 55/5/19 57/5/19
f 60/5/20 58/5/20 59/5/20
f 63/5/21 61/5/21 62/5/21
f 66/5/22 64/5/22 65/5/22
f 67/5/23 69/5/23 68/5/23
f 72/5/24 70/5/24 71/5/24
f 75/5/25 73/5/25 74/5/25
f 77/5/26 78/5/26 76/5/26
f 81/5/27 79/5/27 80/5/27
f 84/5/28 83/5/28 82/5/28
f 87/5/29 86/5/29 85/5/29
f 88/5/30 90/5/30 89/5/30
f 91/5/31 93/5/31 92/5/31
f 95/5/32 94/5/32 96/5/32
f 97/5/33 99/5/33 98/5/33
f 102/5/34 101/5/34 100/5/34
f 103/5/35 104/5/35 105/5/35
