# Blender v2.76 (sub 0) OBJ File: 'tree2.blend'
# www.blender.org
mtllib tree2.mtl
o leaves_Icosphere.006
v 0.293748 1.108118 -0.161111
v 0.522269 1.331370 0.009013
v 0.646948 1.030102 -0.148141
v 0.401870 0.768413 -0.098518
v 0.125724 0.907957 0.089306
v 0.200138 1.255880 0.155762
v 0.771628 1.129642 0.176749
v 0.697214 0.781719 0.110293
v 0.375083 0.706229 0.257042
v 0.250404 1.007497 0.414196
v 0.495482 1.269186 0.364574
v 0.603604 0.929481 0.427167
v -0.162160 1.415103 0.568290
v -0.013205 1.610372 0.710110
v -0.171411 1.686793 0.487488
v -0.153592 1.481449 0.292688
v 0.015629 1.278118 0.394923
v 0.102391 1.357798 0.652901
v 0.087422 1.797402 0.522158
v 0.000660 1.717722 0.264179
v 0.116256 1.465149 0.206971
v 0.274462 1.388727 0.429592
v 0.256643 1.594071 0.624392
v 0.265211 1.660417 0.348790
v -0.161416 1.449663 -0.657097
v 0.086788 1.526660 -0.362120
v 0.222206 1.374262 -0.698247
v -0.043982 1.117249 -0.831044
v -0.343913 1.110809 -0.576983
v -0.263090 1.363838 -0.287176
v 0.357625 1.241832 -0.353760
v 0.276802 0.988803 -0.643568
v -0.073076 0.825981 -0.568623
v -0.208494 0.978379 -0.232497
v 0.057694 1.235392 -0.099700
v 0.175128 0.902978 -0.273646
v 0.074214 1.770569 -0.285046
v 0.134122 1.962639 -0.208205
v 0.273216 1.844095 -0.322154
v 0.242779 1.637356 -0.270023
v 0.084871 1.628133 -0.123854
v 0.017720 1.829169 -0.085650
v 0.339712 1.948133 -0.145691
v 0.406864 1.747098 -0.183895
v 0.290462 1.613627 -0.061340
v 0.151368 1.732172 0.052609
v 0.181805 1.938911 0.000478
v 0.350369 1.805698 0.015502
v -0.556186 1.869058 -0.518506
v -0.343354 2.076983 -0.360061
v -0.227234 1.796398 -0.506426
v -0.455487 1.552675 -0.460210
v -0.712674 1.682639 -0.285281
v -0.643370 2.006676 -0.223387
v -0.111114 1.889105 -0.203841
v -0.180419 1.565067 -0.265735
v -0.480435 1.494761 -0.129060
v -0.596555 1.775345 0.017305
v -0.368302 2.019068 -0.028911
v -0.267603 1.702686 0.029384
v -0.412456 1.933217 0.081761
v -0.355552 2.162441 0.246154
v -0.141119 1.992475 0.157070
v -0.235503 1.720662 0.161233
v -0.508270 1.722645 0.252891
v -0.582462 1.995679 0.305374
v -0.143429 2.091555 0.427227
v -0.069237 1.818522 0.374744
v -0.296147 1.651760 0.433965
v -0.510580 1.821726 0.523049
v -0.416197 2.093538 0.518886
v -0.239243 1.880983 0.598358
v -0.018141 2.407269 -0.528666
v 0.255365 2.864310 -0.323554
v 0.464454 2.341334 -0.231148
v 0.024525 1.988494 -0.143212
v -0.456454 2.293416 -0.181273
v -0.313782 2.834696 -0.292729
v 0.467072 2.728003 0.188669
v 0.324400 2.186723 0.300126
v -0.244748 2.157109 0.330950
v -0.453836 2.680085 0.238545
v -0.013907 3.032925 0.150609
v 0.028759 2.614149 0.536063
vt 0.000000 0.000000
vt 1.000000 0.000000
vt 1.000000 1.000000
vn 0.142500 0.503500 -0.852200
vn -0.402000 0.778600 -0.481800
vn -0.004200 -0.182500 -0.983200
vn -0.639400 -0.331300 -0.693800
vn -0.885200 0.262700 -0.384000
vn -0.156100 0.974900 0.158700
vn 0.724800 0.529700 -0.440500
vn 0.487400 -0.580200 -0.652500
vn -0.540300 -0.821100 -0.184300
vn -0.938000 0.140100 0.317100
vn 0.540300 0.821100 0.184300
vn 0.938000 -0.140100 -0.317100
vn 0.156100 -0.974900 -0.158700
vn -0.724800 -0.529700 0.440500
vn -0.487400 0.580200 0.652500
vn 0.639400 0.331300 0.693800
vn 0.885200 -0.262700 0.384000
vn 0.402000 -0.778600 0.481800
vn -0.142500 -0.503500 0.852200
vn 0.004200 0.182500 0.983200
vn -0.779700 0.154000 0.606900
vn -0.353900 -0.357700 0.864200
vn -0.998000 -0.046500 -0.042200
vn -0.707100 -0.682100 -0.186200
vn -0.309000 -0.874400 0.374000
vn 0.297400 -0.079400 0.951400
vn -0.391500 0.748500 0.535200
vn -0.744800 0.424100 -0.515200
vn -0.274100 -0.604300 -0.748100
vn 0.370000 -0.915400 0.158300
vn 0.274100 0.604300 0.748100
vn -0.370000 0.915400 -0.158300
vn -0.297400 0.079400 -0.951400
vn 0.391500 -0.748500 -0.535200
vn 0.744800 -0.424100 0.515200
vn 0.707100 0.682100 0.186200
vn 0.309000 0.874400 -0.374000
vn 0.353900 0.357700 -0.864200
vn 0.779700 -0.154000 -0.606900
vn 0.998000 0.046500 0.042200
vn 0.142500 0.921800 -0.360500
vn -0.402000 0.910100 0.100700
vn -0.004200 0.462500 -0.886600
vn -0.639400 0.166900 -0.750600
vn -0.885200 0.443500 -0.140400
vn -0.156100 0.669700 0.726000
vn 0.724800 0.688600 -0.020200
vn 0.487400 -0.054600 -0.871400
vn -0.540300 -0.532800 -0.651300
vn -0.938000 -0.085200 0.336000
vn 0.540300 0.532800 0.651300
vn 0.938000 0.085200 -0.336000
vn 0.156100 -0.669700 -0.726000
vn -0.724800 -0.688600 0.020200
vn -0.487400 0.054600 0.871400
vn 0.639400 -0.166900 0.750600
vn 0.885200 -0.443500 0.140400
vn 0.402000 -0.910100 -0.100700
vn -0.142500 -0.921800 0.360500
vn 0.004200 -0.462500 0.886600
vn -0.318100 0.436000 -0.841900
vn -0.841300 0.405400 -0.357500
vn -0.095600 -0.230100 -0.968500
vn -0.481300 -0.672400 -0.562300
vn -0.942200 -0.279600 -0.184800
vn -0.621000 0.750200 0.227200
vn 0.225600 0.799600 -0.556500
vn 0.585700 -0.278200 -0.761300
vn -0.038400 -0.993800 -0.104200
vn -0.784200 -0.358200 0.506700
vn 0.038400 0.993800 0.104200
vn 0.784200 0.358200 -0.506700
vn 0.621000 -0.750200 -0.227200
vn -0.225600 -0.799600 0.556500
vn -0.585700 0.278200 0.761300
vn 0.481300 0.672400 0.562300
vn 0.942200 0.279600 0.184800
vn 0.841300 -0.405400 0.357500
vn 0.318100 -0.436000 0.841900
vn 0.095600 0.230100 0.968500
vn 0.104900 0.562300 -0.820300
vn -0.571600 0.567200 -0.593000
vn 0.288900 -0.114900 -0.950400
vn -0.273900 -0.528400 -0.803600
vn -0.805700 -0.106900 -0.582700
vn -0.577300 0.812900 0.077000
vn 0.517200 0.804900 -0.290800
vn 0.814900 -0.290700 -0.501400
vn -0.095600 -0.959800 -0.263800
vn -0.956100 -0.277800 0.093700
vn 0.095600 0.959800 0.263800
vn 0.956100 0.277800 -0.093700
vn 0.577300 -0.812900 -0.077000
vn -0.517200 -0.804900 0.290800
vn -0.814900 0.290700 0.501400
vn 0.273900 0.528400 0.803600
vn 0.805700 0.106900 0.582700
vn 0.571600 -0.567200 0.593000
vn -0.104900 -0.562300 0.820300
vn -0.288900 0.114900 0.950400
vn 0.529900 0.062400 -0.845700
vn -0.071500 0.443700 -0.893300
vn 0.351500 -0.614400 -0.706400
vn -0.360100 -0.651400 -0.667800
vn -0.621500 0.002500 -0.783400
vn -0.068200 0.927200 -0.368400
vn 0.904900 0.310300 -0.291400
vn 0.616200 -0.784800 -0.065900
vn -0.535200 -0.844700 -0.003600
vn -0.958200 0.213300 -0.190500
vn 0.535200 0.844700 0.003600
vn 0.958200 -0.213300 0.190500
vn 0.068200 -0.927200 0.368400
vn -0.904900 -0.310300 0.291400
vn -0.616200 0.784800 0.065900
vn 0.360100 0.651400 0.667800
vn 0.621500 -0.002500 0.783400
vn 0.071500 -0.443700 0.893300
vn -0.529900 -0.062400 0.845700
vn -0.351500 0.614400 0.706400
usemtl leaves
s off
f 1/1/1 2/2/1 3/3/1
f 2/1/2 1/2/2 6/3/2
f 1/1/3 3/2/3 4/3/3
f 1/1/4 4/2/4 5/3/4
f 1/1/5 5/2/5 6/3/5
f 2/1/6 6/2/6 11/3/6
f 3/1/7 2/2/7 7/3/7
f 4/1/8 3/2/8 8/3/8
f 5/1/9 4/2/9 9/3/9
f 6/1/10 5/2/10 10/3/10
f 2/1/11 11/2/11 7/3/11
f 3/1/12 7/2/12 8/3/12
f 4/1/13 8/2/13 9/3/13
f 5/1/14 9/2/14 10/3/14
f 6/1/15 10/2/15 11/3/15
f 7/1/16 11/2/16 12/3/16
f 8/1/17 7/2/17 12/3/17
f 9/1/18 8/2/18 12/3/18
f 10/1/19 9/2/19 12/3/19
f 11/1/20 10/2/20 12/3/20
f 13/1/21 14/2/21 15/3/21
f 14/1/22 13/2/22 18/3/22
f 13/1/23 15/2/23 16/3/23
f 13/1/24 16/2/24 17/3/24
f 13/1/25 17/2/25 18/3/25
f 14/1/26 18/2/26 23/3/26
f 15/1/27 14/2/27 19/3/27
f 16/1/28 15/2/28 20/3/28
f 17/1/29 16/2/29 21/3/29
f 18/1/30 17/2/30 22/3/30
f 14/1/31 23/2/31 19/3/31
f 15/1/32 19/2/32 20/3/32
f 16/1/33 20/2/33 21/3/33
f 17/1/34 21/2/34 22/3/34
f 18/1/35 22/2/35 23/3/35
f 19/1/36 23/2/36 24/3/36
f 20/1/37 19/2/37 24/3/37
f 21/1/38 20/2/38 24/3/38
f 22/1/39 21/2/39 24/3/39
f 23/1/40 22/2/40 24/3/40
f 25/1/41 26/2/41 27/3/41
f 26/1/42 25/2/42 30/3/42
f 25/1/43 27/2/43 28/3/43
f 25/1/44 28/2/44 29/3/44
f 25/1/45 29/2/45 30/3/45
f 26/1/46 30/2/46 35/3/46
f 27/1/47 26/2/47 31/3/47
f 28/1/48 27/2/48 32/3/48
f 29/1/49 28/2/49 33/3/49
f 30/1/50 29/2/50 34/3/50
f 26/1/51 35/2/51 31/3/51
f 27/1/52 31/2/52 32/3/52
f 28/1/53 32/2/53 33/3/53
f 29/1/54 33/2/54 34/3/54
f 30/1/55 34/2/55 35/3/55
f 31/1/56 35/2/56 36/3/56
f 32/1/57 31/2/57 36/3/57
f 33/1/58 32/2/58 36/3/58
f 34/1/59 33/2/59 36/3/59
f 35/1/60 34/2/60 36/3/60
f 37/1/61 38/2/61 39/3/61
f 38/1/62 37/2/62 42/3/62
f 37/1/63 39/2/63 40/3/63
f 37/1/64 40/2/64 41/3/64
f 37/1/65 41/2/65 42/3/65
f 38/1/66 42/2/66 47/3/66
f 39/1/67 38/2/67 43/3/67
f 40/1/68 39/2/68 44/3/68
f 41/1/69 40/2/69 45/3/69
f 42/1/70 41/2/70 46/3/70
f 38/1/71 47/2/71 43/3/71
f 39/1/72 43/2/72 44/3/72
f 40/1/73 44/2/73 45/3/73
f 41/1/74 45/2/74 46/3/74
f 42/1/75 46/2/75 47/3/75
f 43/1/76 47/2/76 48/3/76
f 44/1/77 43/2/77 48/3/77
f 45/1/78 44/2/78 48/3/78
f 46/1/79 45/2/79 48/3/79
f 47/1/80 46/2/80 48/3/80
f 49/1/1 50/2/1 51/3/1
f 50/1/2 49/2/2 54/3/2
f 49/1/3 51/2/3 52/3/3
f 49/1/4 52/2/4 53/3/4
f 49/1/5 53/2/5 54/3/5
f 50/1/6 54/2/6 59/3/6
f 51/1/7 50/2/7 55/3/7
f 52/1/8 51/2/8 56/3/8
f 53/1/9 52/2/9 57/3/9
f 54/1/10 53/2/10 58/3/10
f 50/1/11 59/2/11 55/3/11
f 51/1/12 55/2/12 56/3/12
f 52/1/13 56/2/13 57/3/13
f 53/1/14 57/2/14 58/3/14
f 54/1/15 58/2/15 59/3/15
f 55/1/16 59/2/16 60/3/16
f 56/1/17 55/2/17 60/3/17
f 57/1/18 56/2/18 60/3/18
f 58/1/19 57/2/19 60/3/19
f 59/1/20 58/2/20 60/3/20
f 61/1/81 62/2/81 63/3/81
f 62/1/82 61/2/82 66/3/82
f 61/1/83 63/2/83 64/3/83
f 61/1/84 64/2/84 65/3/84
f 61/1/85 65/2/85 66/3/85
f 62/1/86 66/2/86 71/3/86
f 63/1/87 62/2/87 67/3/87
f 64/1/88 63/2/88 68/3/88
f 65/1/89 64/2/89 69/3/89
f 66/1/90 65/2/90 70/3/90
f 62/1/91 71/2/91 67/3/91
f 63/1/92 67/2/92 68/3/92
f 64/1/93 68/2/93 69/3/93
f 65/1/94 69/2/94 70/3/94
f 66/1/95 70/2/95 71/3/95
f 67/1/96 71/2/96 72/3/96
f 68/1/97 67/2/97 72/3/97
f 69/1/98 68/2/98 72/3/98
f 70/1/99 69/2/99 72/3/99
f 71/1/100 70/2/100 72/3/100
f 73/1/101 74/2/101 75/3/101
f 74/1/102 73/2/102 78/3/102
f 73/1/103 75/2/103 76/3/103
f 73/1/104 76/2/104 77/3/104
f 73/1/105 77/2/105 78/3/105
f 74/1/106 78/2/106 83/3/106
f 75/1/107 74/2/107 79/3/107
f 76/1/108 75/2/108 80/3/108
f 77/1/109 76/2/109 81/3/109
f 78/1/110 77/2/110 82/3/110
f 74/1/111 83/2/111 79/3/111
f 75/1/112 79/2/112 80/3/112
f 76/1/113 80/2/113 81/3/113
f 77/1/114 81/2/114 82/3/114
f 78/1/115 82/2/115 83/3/115
f 79/1/116 83/2/116 84/3/116
f 80/1/117 79/2/117 84/3/117
f 81/1/118 80/2/118 84/3/118
f 82/1/119 81/2/119 84/3/119
f 83/1/120 82/2/120 84/3/120
o wood_Cylinder.007
v -0.321607 1.939183 0.360684
v 0.006854 1.624379 -0.004226
v -0.323822 1.934020 0.363144
v 0.001971 1.612996 0.001199
v -0.326234 1.935228 0.359931
v -0.003347 1.615659 -0.005885
v -0.326481 1.938287 0.357070
v -0.003892 1.622403 -0.012193
v -0.324447 1.941765 0.355900
v 0.000591 1.630071 -0.014773
v -0.321085 1.944035 0.356968
v 0.008005 1.635077 -0.012418
v -0.317966 1.944035 0.359775
v 0.014880 1.635077 -0.006230
v -0.316552 1.941765 0.363007
v 0.018000 1.630071 0.000896
v -0.317502 1.938287 0.365152
v 0.015904 1.622403 0.005626
v -0.320373 1.935228 0.365206
v 0.009574 1.615659 0.005745
v 0.215192 1.766791 -0.121149
v 0.053846 1.437996 -0.042952
v 0.215364 1.765826 -0.124851
v 0.054817 1.432539 -0.063890
v 0.217542 1.765050 -0.123621
v 0.067138 1.428148 -0.056932
v 0.218621 1.765088 -0.121234
v 0.073240 1.428365 -0.043433
v 0.218095 1.765923 -0.118808
v 0.070266 1.433088 -0.029708
v 0.216211 1.767164 -0.117477
v 0.059609 1.440108 -0.022181
v 0.213851 1.768230 -0.117865
v 0.046256 1.446139 -0.024372
v 0.212118 1.768623 -0.119789
v 0.036453 1.448361 -0.035258
v 0.211823 1.768158 -0.122350
v 0.034789 1.445732 -0.049743
v 0.213105 1.767054 -0.124349
v 0.042042 1.439484 -0.061051
v -0.374387 1.757344 -0.128846
v -0.038169 1.530643 -0.019473
v -0.378756 1.750179 -0.130267
v -0.050637 1.510196 -0.023529
v -0.376041 1.751855 -0.135137
v -0.042890 1.514979 -0.037427
v -0.372552 1.756100 -0.137064
v -0.032934 1.527093 -0.042925
v -0.369922 1.760927 -0.135145
v -0.025428 1.540867 -0.037449
v -0.369380 1.764078 -0.130278
v -0.023883 1.549858 -0.023562
v -0.371182 1.764078 -0.124742
v -0.029023 1.549858 -0.007761
v -0.374482 1.760927 -0.121125
v -0.038443 1.540867 0.002559
v -0.377738 1.756100 -0.121121
v -0.047734 1.527093 0.002571
v -0.379426 1.751855 -0.124731
v -0.052550 1.514979 -0.007732
v 0.474875 1.041094 0.165561
v 0.076403 0.769600 0.022376
v 0.480706 1.031430 0.167656
v 0.091179 0.745113 0.027686
v 0.476846 1.033691 0.174110
v 0.081399 0.750842 0.044040
v 0.472064 1.039415 0.176564
v 0.069281 0.765348 0.050258
v 0.468597 1.045925 0.173869
v 0.060495 0.781844 0.043429
v 0.468067 1.050174 0.167287
v 0.059153 0.792611 0.026750
v 0.470723 1.050174 0.159897
v 0.065882 0.792611 0.008024
v 0.475321 1.045925 0.155158
v 0.077534 0.781844 -0.003987
v 0.479710 1.039415 0.155286
v 0.088656 0.765348 -0.003662
v 0.481837 1.033691 0.160222
v 0.094045 0.750842 0.008847
v 0.058538 1.587309 0.497916
v 0.012044 1.292520 0.040524
v 0.058972 1.580614 0.502186
v 0.013768 1.265931 0.057486
v 0.053784 1.582181 0.501704
v -0.006834 1.272152 0.055570
v 0.050821 1.586146 0.499449
v -0.018603 1.287903 0.046615
v 0.051468 1.590657 0.496477
v -0.016031 1.305815 0.034810
v 0.055424 1.593600 0.494178
v -0.000323 1.317506 0.025678
v 0.060836 1.593600 0.493627
v 0.021172 1.317506 0.023493
v 0.065173 1.590657 0.495084
v 0.038396 1.305815 0.029277
v 0.066405 1.586146 0.497865
v 0.043290 1.287903 0.040324
v 0.063956 1.582181 0.500670
v 0.033564 1.272152 0.051464
v 0.015970 1.182943 -0.491642
v 0.015970 0.825975 0.065081
v 0.015970 1.167343 -0.501645
v 0.015970 0.793777 0.044436
v 0.027882 1.170993 -0.499305
v 0.040555 0.801310 0.049266
v 0.034220 1.180234 -0.493379
v 0.053637 0.820384 0.061496
v 0.032019 1.190743 -0.486641
v 0.049094 0.842073 0.075403
v 0.022308 1.197602 -0.482243
v 0.029052 0.856230 0.084480
v 0.009632 1.197602 -0.482243
v 0.002889 0.856230 0.084480
v -0.000079 1.190743 -0.486641
v -0.017154 0.842073 0.075403
v -0.002280 1.180234 -0.493379
v -0.021697 0.820384 0.061496
v 0.004058 1.170993 -0.499305
v -0.008615 0.801310 0.049266
v 0.005309 -0.084773 0.003698
v 0.005309 2.438043 0.003698
v 0.005309 -0.084773 -0.150071
v 0.005309 2.438043 -0.046696
v 0.104150 -0.084773 -0.114096
v 0.037701 2.438043 -0.034906
v 0.156742 -0.084773 -0.023004
v 0.054937 2.438043 -0.005053
v 0.138477 -0.084773 0.080583
v 0.048951 2.438043 0.028895
v 0.057901 -0.084773 0.148194
v 0.022545 2.438043 0.051053
v -0.047283 -0.084773 0.148194
v -0.011927 2.438043 0.051053
v -0.127859 -0.084773 0.080583
v -0.038334 2.438043 0.028895
v -0.146124 -0.084773 -0.023003
v -0.044319 2.438043 -0.005053
v -0.093532 -0.084773 -0.114096
v -0.027084 2.438043 -0.034906
vt 0.000000 0.000000
vt 1.000000 0.000000
vt 1.000000 1.000000
vt 0.000000 1.000000
vn 0.563200 -0.539800 -0.625700
vn -0.563200 0.539800 0.625700
vn 0.600200 0.784600 -0.155600
vn 0.830900 0.414400 0.371300
vn 0.675900 -0.152600 0.721000
vn 0.207800 -0.651200 0.729900
vn -0.354400 -0.848200 0.393700
vn -0.747600 -0.651200 -0.130200
vn -0.787900 -0.152600 -0.596600
vn -0.456400 0.414400 -0.787400
vn 0.091800 0.784600 -0.613200
vn -0.430800 -0.877900 0.208800
vn 0.430800 0.877900 -0.208800
vn -0.369300 0.336400 0.866300
vn -0.430800 -0.878000 0.208700
vn -0.821400 0.438800 0.364200
vn -0.430800 -0.878000 0.208800
vn -0.898200 0.317600 -0.303900
vn -0.563700 0.029400 -0.825500
vn 0.025600 -0.290900 -0.956400
vn 0.593900 -0.493500 -0.635500
vn 0.875300 -0.483500 -0.012800
vn 0.738100 -0.265600 0.620200
vn 0.246600 0.058200 0.967400
vn 0.800500 -0.539800 0.260400
vn -0.800500 0.539800 -0.260400
vn 0.404500 0.771500 0.491000
vn 0.017000 0.401600 0.915700
vn -0.365300 -0.165100 0.916100
vn -0.563400 -0.663500 0.492200
vn -0.484700 -0.860300 -0.157700
vn -0.166000 -0.663500 -0.729500
vn 0.243600 -0.165100 -0.955700
vn 0.552500 0.401600 -0.730400
vn 0.616000 0.771500 -0.159000
vn -0.792200 -0.539800 -0.284700
vn 0.792200 0.539800 0.284700
vn -0.387500 0.772900 -0.502500
vn 0.012800 0.402900 -0.915100
vn -0.792200 -0.539800 -0.284600
vn 0.395000 -0.163900 -0.904000
vn 0.580100 -0.662300 -0.474200
vn 0.481600 -0.859100 0.173100
vn 0.145600 -0.662300 0.735000
vn -0.270700 -0.163800 0.948600
vn -0.572600 0.402900 0.714000
vn -0.618700 0.772900 0.140900
vn -0.085200 -0.539800 -0.837500
vn 0.085100 0.539800 0.837500
vn 0.285300 0.768500 -0.572800
vn -0.085100 -0.539800 -0.837500
vn 0.830100 0.398600 -0.389800
vn 0.985000 -0.168000 -0.040400
vn 0.677300 -0.666300 0.312000
vn 0.051100 -0.863000 0.502500
vn -0.600600 -0.666300 0.442000
vn -0.972900 -0.168000 0.158700
vn -0.085100 -0.539700 -0.837500
vn -0.891600 0.398600 -0.214800
vn -0.394700 0.768500 -0.503700
vn 0.000000 -0.539800 0.841800
vn -0.000000 0.539800 -0.841800
vn -0.341900 0.775600 0.530600
vn -0.865700 0.405600 0.293400
vn -0.984400 -0.161200 -0.070100
vn -0.642500 -0.659700 -0.389700
vn 0.000000 -0.856600 -0.516000
vn 0.642500 -0.659700 -0.389800
vn 0.984400 -0.161200 -0.070100
vn 0.865700 0.405600 0.293400
vn 0.341900 0.775600 0.530600
vn -0.000000 -1.000000 0.000000
vn 0.000000 1.000000 -0.000000
vn 0.341800 0.038500 -0.939000
vn 0.865400 0.038500 -0.499600
vn 0.984100 0.038500 0.173500
vn 0.642300 0.038500 0.765500
vn -0.000000 0.038500 0.999300
vn -0.642300 0.038500 0.765500
vn -0.984100 0.038500 0.173500
vn -0.865400 0.038500 -0.499600
vn -0.341800 0.038500 -0.939000
usemtl wood
s off
f 85/4/121 87/5/121 89/6/121
f 86/4/122 90/5/122 88/6/122
f 87/4/123 88/5/123 90/6/123 89/7/123
f 85/4/121 89/5/121 91/6/121
f 86/4/122 92/5/122 90/6/122
f 89/4/124 90/5/124 92/6/124 91/7/124
f 85/4/121 91/5/121 93/6/121
f 86/4/122 94/5/122 92/6/122
f 91/4/125 92/5/125 94/6/125 93/7/125
f 85/4/121 93/5/121 95/6/121
f 86/4/122 96/5/122 94/6/122
f 93/4/126 94/5/126 96/6/126 95/7/126
f 85/4/121 95/5/121 97/6/121
f 86/4/122 98/5/122 96/6/122
f 95/4/127 96/5/127 98/6/127 97/7/127
f 85/4/121 97/5/121 99/6/121
f 86/4/122 100/5/122 98/6/122
f 97/4/128 98/5/128 100/6/128 99/7/128
f 85/4/121 99/5/121 101/6/121
f 86/4/122 102/5/122 100/6/122
f 99/4/129 100/5/129 102/6/129 101/7/129
f 85/4/121 101/5/121 103/6/121
f 86/4/122 104/5/122 102/6/122
f 101/4/130 102/5/130 104/6/130 103/7/130
f 85/4/121 103/5/121 87/6/121
f 86/4/122 88/5/122 104/6/122
f 103/4/131 104/5/131 88/6/131 87/7/131
f 105/4/132 107/5/132 109/6/132
f 106/4/133 110/5/133 108/6/133
f 107/4/134 108/5/134 110/6/134 109/7/134
f 105/4/135 109/5/135 111/6/135
f 106/4/133 112/5/133 110/6/133
f 109/4/136 110/5/136 112/6/136 111/7/136
f 105/4/137 111/5/137 113/6/137
f 106/4/133 114/5/133 112/6/133
f 111/4/138 112/5/138 114/6/138 113/7/138
f 105/4/132 113/5/132 115/6/132
f 106/4/133 116/5/133 114/6/133
f 113/4/139 114/5/139 116/6/139 115/7/139
f 105/4/137 115/5/137 117/6/137
f 106/4/133 118/5/133 116/6/133
f 115/4/140 116/5/140 118/6/140 117/7/140
f 105/4/135 117/5/135 119/6/135
f 106/4/133 120/5/133 118/6/133
f 117/4/141 118/5/141 120/6/141 119/7/141
f 105/4/135 119/5/135 121/6/135
f 106/4/133 122/5/133 120/6/133
f 119/4/142 120/5/142 122/6/142 121/7/142
f 105/4/132 121/5/132 123/6/132
f 106/4/133 124/5/133 122/6/133
f 121/4/143 122/5/143 124/6/143 123/7/143
f 105/4/132 123/5/132 107/6/132
f 106/4/133 108/5/133 124/6/133
f 123/4/144 124/5/144 108/6/144 107/7/144
f 125/4/145 127/5/145 129/6/145
f 126/4/146 130/5/146 128/6/146
f 127/4/147 128/5/147 130/6/147 129/7/147
f 125/4/145 129/5/145 131/6/145
f 126/4/146 132/5/146 130/6/146
f 129/4/148 130/5/148 132/6/148 131/7/148
f 125/4/145 131/5/145 133/6/145
f 126/4/146 134/5/146 132/6/146
f 131/4/149 132/5/149 134/6/149 133/7/149
f 125/4/145 133/5/145 135/6/145
f 126/4/146 136/5/146 134/6/146
f 133/4/150 134/5/150 136/6/150 135/7/150
f 125/4/145 135/5/145 137/6/145
f 126/4/146 138/5/146 136/6/146
f 135/4/151 136/5/151 138/6/151 137/7/151
f 125/4/145 137/5/145 139/6/145
f 126/4/146 140/5/146 138/6/146
f 137/4/152 138/5/152 140/6/152 139/7/152
f 125/4/145 139/5/145 141/6/145
f 126/4/146 142/5/146 140/6/146
f 139/4/153 140/5/153 142/6/153 141/7/153
f 125/4/145 141/5/145 143/6/145
f 126/4/146 144/5/146 142/6/146
f 141/4/154 142/5/154 144/6/154 143/7/154
f 125/4/145 143/5/145 127/6/145
f 126/4/146 128/5/146 144/6/146
f 143/4/155 144/5/155 128/6/155 127/7/155
f 145/4/156 147/5/156 149/6/156
f 146/4/157 150/5/157 148/6/157
f 147/4/158 148/5/158 150/6/158 149/7/158
f 145/4/156 149/5/156 151/6/156
f 146/4/157 152/5/157 150/6/157
f 149/4/159 150/5/159 152/6/159 151/7/159
f 145/4/160 151/5/160 153/6/160
f 146/4/157 154/5/157 152/6/157
f 151/4/161 152/5/161 154/6/161 153/7/161
f 145/4/156 153/5/156 155/6/156
f 146/4/157 156/5/157 154/6/157
f 153/4/162 154/5/162 156/6/162 155/7/162
f 145/4/156 155/5/156 157/6/156
f 146/4/157 158/5/157 156/6/157
f 155/4/163 156/5/163 158/6/163 157/7/163
f 145/4/156 157/5/156 159/6/156
f 146/4/157 160/5/157 158/6/157
f 157/4/164 158/5/164 160/6/164 159/7/164
f 145/4/156 159/5/156 161/6/156
f 146/4/157 162/5/157 160/6/157
f 159/4/165 160/5/165 162/6/165 161/7/165
f 145/4/156 161/5/156 163/6/156
f 146/4/157 164/5/157 162/6/157
f 161/4/166 162/5/166 164/6/166 163/7/166
f 145/4/156 163/5/156 147/6/156
f 146/4/157 148/5/157 164/6/157
f 163/4/167 164/5/167 148/6/167 147/7/167
f 165/4/168 167/5/168 169/6/168
f 166/4/169 170/5/169 168/6/169
f 167/4/170 168/5/170 170/6/170 169/7/170
f 165/4/171 169/5/171 171/6/171
f 166/4/169 172/5/169 170/6/169
f 169/4/172 170/5/172 172/6/172 171/7/172
f 165/4/171 171/5/171 173/6/171
f 166/4/169 174/5/169 172/6/169
f 171/4/173 172/5/173 174/6/173 173/7/173
f 165/4/171 173/5/171 175/6/171
f 166/4/169 176/5/169 174/6/169
f 173/4/174 174/5/174 176/6/174 175/7/174
f 165/4/171 175/5/171 177/6/171
f 166/4/169 178/5/169 176/6/169
f 175/4/175 176/5/175 178/6/175 177/7/175
f 165/4/171 177/5/171 179/6/171
f 166/4/169 180/5/169 178/6/169
f 177/4/176 178/5/176 180/6/176 179/7/176
f 165/4/171 179/5/171 181/6/171
f 166/4/169 182/5/169 180/6/169
f 179/4/177 180/5/177 182/6/177 181/7/177
f 165/4/178 181/5/178 183/6/178
f 166/4/169 184/5/169 182/6/169
f 181/4/179 182/5/179 184/6/179 183/7/179
f 165/4/171 183/5/171 167/6/171
f 166/4/169 168/5/169 184/6/169
f 183/4/180 184/5/180 168/6/180 167/7/180
f 185/4/181 187/5/181 189/6/181
f 186/4/182 190/5/182 188/6/182
f 187/4/183 188/5/183 190/6/183 189/7/183
f 185/4/181 189/5/181 191/6/181
f 186/4/182 192/5/182 190/6/182
f 189/4/184 190/5/184 192/6/184 191/7/184
f 185/4/181 191/5/181 193/6/181
f 186/4/182 194/5/182 192/6/182
f 191/4/185 192/5/185 194/6/185 193/7/185
f 185/4/181 193/5/181 195/6/181
f 186/4/182 196/5/182 194/6/182
f 193/4/186 194/5/186 196/6/186 195/7/186
f 185/4/181 195/5/181 197/6/181
f 186/4/182 198/5/182 196/6/182
f 195/4/187 196/5/187 198/6/187 197/7/187
f 185/4/181 197/5/181 199/6/181
f 186/4/182 200/5/182 198/6/182
f 197/4/188 198/5/188 200/6/188 199/7/188
f 185/4/181 199/5/181 201/6/181
f 186/4/182 202/5/182 200/6/182
f 199/4/189 200/5/189 202/6/189 201/7/189
f 185/4/181 201/5/181 203/6/181
f 186/4/182 204/5/182 202/6/182
f 201/4/190 202/5/190 204/6/190 203/7/190
f 185/4/181 203/5/181 187/6/181
f 186/4/182 188/5/182 204/6/182
f 203/4/191 204/5/191 188/6/191 187/7/191
f 205/4/192 207/5/192 209/6/192
f 206/4/193 210/5/193 208/6/193
f 207/4/194 208/5/194 210/6/194 209/7/194
f 205/4/192 209/5/192 211/6/192
f 206/4/193 212/5/193 210/6/193
f 209/4/195 210/5/195 212/6/195 211/7/195
f 205/4/192 211/5/192 213/6/192
f 206/4/193 214/5/193 212/6/193
f 211/4/196 212/5/196 214/6/196 213/7/196
f 205/4/192 213/5/192 215/6/192
f 206/4/193 216/5/193 214/6/193
f 213/4/197 214/5/197 216/6/197 215/7/197
f 205/4/192 215/5/192 217/6/192
f 206/4/193 218/5/193 216/6/193
f 215/4/198 216/5/198 218/6/198 217/7/198
f 205/4/192 217/5/192 219/6/192
f 206/4/193 220/5/193 218/6/193
f 217/4/199 218/5/199 220/6/199 219/7/199
f 205/4/192 219/5/192 221/6/192
f 206/4/193 222/5/193 220/6/193
f 219/4/200 220/5/200 222/6/200 221/7/200
f 205/4/192 221/5/192 223/6/192
f 206/4/193 224/5/193 222/6/193
f 221/4/201 222/5/201 224/6/201 223/7/201
f 205/4/192 223/5/192 207/6/192
f 206/4/193 208/5/193 224/6/193
f 223/4/202 224/5/202 208/6/202 207/7/202
