# Blender v2.80 (sub 75) OBJ File: ''
# www.blender.org
mtllib grass2.mtl
o Plane.005_Plane.082
v 3.573885 0.783940 -1.535674
v 3.660468 1.086353 -1.452144
v 3.702480 0.783940 -1.526652
v 3.896712 0.428671 -1.089693
v 3.953709 0.659070 -0.972054
v 3.828772 0.428671 -1.048432
v 3.280567 0.624136 -1.490989
v 3.174711 0.787769 -1.600761
v 3.327789 0.624136 -1.577342
v -0.813929 0.624137 -1.268141
v -0.732539 0.830138 -1.283441
v -0.745614 0.624137 -1.197298
v -1.299732 0.438179 -0.831479
v -1.450563 0.659222 -0.774764
v -1.318838 0.438179 -0.908650
v -0.812675 0.783940 -0.983545
v -0.705008 1.121293 -0.857758
v -0.859645 0.783940 -0.863468
v -1.022930 0.578066 -1.019185
v -1.031886 0.881398 -0.990095
v -1.105542 0.578066 -0.971756
v 3.749609 0.392480 -1.524728
v 3.753786 -0.017501 -1.379241
v 3.530138 -0.017501 -1.394931
v 3.552693 0.392480 -1.538542
v 3.771968 0.181647 -1.112371
v 3.656471 -0.015480 -1.228617
v 3.790579 -0.015480 -1.310063
v 3.857263 0.181647 -1.164173
v 3.451106 0.289197 -1.489266
v 3.512453 -0.056068 -1.489245
v 3.416995 -0.056068 -1.314686
v 3.379162 0.289197 -1.357707
v -0.866447 0.289198 -1.105843
v -0.884768 -0.056067 -1.047282
v -1.022864 -0.056067 -1.190488
v -0.970525 0.289198 -1.213773
v -1.260115 0.226472 -0.941034
v -1.129331 -0.015480 -1.010983
v -1.091617 -0.015480 -0.858656
v -1.236129 0.226472 -0.844151
v -0.875541 0.392480 -0.819048
v -1.015617 -0.017500 -0.858461
v -0.933928 -0.017501 -1.067295
v -0.803615 0.392480 -1.002921
v -1.095231 0.278659 -0.945385
v -1.101853 -0.025769 -0.953426
v -0.992155 -0.025769 -1.016406
v -0.985533 0.278659 -1.008366
v 3.694589 0.278658 -1.277304
v 3.688892 -0.025769 -1.268583
v 3.596069 -0.025769 -1.354523
v 3.601766 0.278658 -1.363243
v 3.602598 0.578066 -1.324313
v 3.633028 0.881397 -1.324440
v 3.672502 0.578066 -1.259594
vt 0.000000 0.000000
vt 0.578347 0.491102
vt 1.000000 1.000000
vt 0.000000 0.000000
vt 0.578347 0.493582
vt 1.000000 1.000000
vt 0.000000 0.000000
vt 0.568425 0.493582
vt 1.000000 1.000000
vt 0.000000 0.000000
vt 0.578347 0.486142
vt 1.000000 1.000000
vt 0.000000 0.000000
vt 0.573386 0.483661
vt 1.000000 1.000000
vt 0.000000 0.000000
vt 0.565945 0.496063
vt 1.000000 1.000000
vt 0.000000 0.000000
vt 0.570906 0.503504
vt 1.000000 1.000000
vt 0.000000 0.000000
vt 1.000000 0.000000
vt 1.000000 1.000000
vt 0.000000 1.000000
vt 0.000000 0.000000
vt 1.000000 0.000000
vt 1.000000 1.000000
vt 0.000000 1.000000
vt 0.000000 0.000000
vt 1.000000 0.000000
vt 1.000000 1.000000
vt 0.000000 1.000000
vt 0.000000 0.000000
vt 1.000000 0.000000
vt 1.000000 1.000000
vt 0.000000 1.000000
vt 0.000000 0.000000
vt 1.000000 0.000000
vt 1.000000 1.000000
vt 0.000000 1.000000
vt 0.000000 0.000000
vt 1.000000 0.000000
vt 1.000000 1.000000
vt 0.000000 1.000000
vt 0.000000 0.000000
vt 1.000000 0.000000
vt 1.000000 1.000000
vt 0.000000 1.000000
vt 0.000000 0.000000
vt 1.000000 0.000000
vt 1.000000 1.000000
vt 0.000000 1.000000
vt 0.000000 0.000000
vt 1.000000 0.000000
vt 1.000000 1.000000
vt 0.000000 1.000000
vt 0.000000 0.000000
vt 1.000000 0.000000
vt 1.000000 1.000000
vt 0.000000 1.000000
vt 0.000000 0.000000
vt 1.000000 0.000000
vt 1.000000 1.000000
vt 0.000000 1.000000
vt 0.000000 0.000000
vt 1.000000 0.000000
vt 1.000000 1.000000
vt 0.000000 1.000000
vt 0.000000 0.000000
vt 1.000000 0.000000
vt 1.000000 1.000000
vt 0.000000 1.000000
vt 0.000000 0.000000
vt 1.000000 0.000000
vt 1.000000 1.000000
vt 0.000000 1.000000
vt 0.000000 0.000000
vt 1.000000 0.000000
vt 1.000000 1.000000
vt 0.000000 1.000000
vt 0.000000 0.000000
vt 1.000000 0.000000
vt 1.000000 1.000000
vt 0.000000 0.000000
vt 1.000000 0.000000
vt 1.000000 1.000000
vt 0.000000 1.000000
vn 0.0695 0.1120 -0.9913
vn 0.0678 0.2475 -0.9665
vn 0.0695 0.1172 -0.9907
vn 0.4741 -0.4071 0.7807
vn 0.4520 -0.4918 0.7442
vn 0.4758 -0.4000 0.7834
vn -0.7456 -0.5272 -0.4077
vn -0.6556 -0.6646 -0.3585
vn -0.7413 -0.5350 -0.4054
vn 0.6687 -0.3703 -0.6448
vn 0.6824 -0.3185 -0.6580
vn 0.6694 -0.3676 -0.6455
vn -0.8678 -0.4481 0.2148
vn -0.7862 -0.5865 0.1947
vn -0.8794 -0.4235 0.2177
vn 0.9155 -0.1831 0.3581
vn 0.8546 -0.3974 0.3343
vn 0.9153 -0.1843 0.3581
vn 0.4978 0.0166 0.8671
vn 0.4967 -0.0683 0.8652
vn 0.4978 0.0194 0.8671
vn 0.0689 -0.1758 -0.9820
vn 0.0660 -0.3331 -0.9406
vn 0.0689 -0.1718 -0.9827
vn 0.4516 -0.4929 0.7437
vn 0.4037 -0.6286 0.6648
vn 0.4533 -0.4874 0.7463
vn -0.8415 -0.2831 -0.4602
vn -0.8669 -0.1541 -0.4741
vn -0.8438 -0.2740 -0.4614
vn 0.6904 -0.2831 -0.6658
vn 0.7112 -0.1541 -0.6859
vn 0.6923 -0.2740 -0.6676
vn -0.8846 -0.4117 0.2190
vn -0.8345 -0.5108 0.2066
vn -0.8864 -0.4076 0.2195
vn 0.9168 -0.1758 0.3586
vn 0.8781 -0.3330 0.3435
vn 0.9174 -0.1718 0.3589
vn 0.4977 0.0294 0.8669
vn 0.4976 -0.0337 0.8667
vn 0.4977 0.0280 0.8669
vn 0.6791 0.0294 -0.7335
vn 0.6790 -0.0337 -0.7334
vn 0.6791 0.0280 -0.7335
vn 0.6793 0.0166 -0.7337
vn 0.6778 -0.0683 -0.7321
vn 0.6792 0.0194 -0.7337
usemtl Material
s 1
f 1/1/1 2/2/2 3/3/3
f 4/4/4 5/5/5 6/6/6
f 7/7/7 8/8/8 9/9/9
f 10/10/10 11/11/11 12/12/12
f 13/13/13 14/14/14 15/15/15
f 16/16/16 17/17/17 18/18/18
f 19/19/19 20/20/20 21/21/21
f 22/22/22 23/23/23 24/24/23 25/25/24
f 3/26/3 22/27/22 25/28/24 1/29/1
f 26/30/25 27/31/26 28/32/26 29/33/27
f 6/34/6 26/35/25 29/36/27 4/37/4
f 30/38/28 31/39/29 32/40/29 33/41/30
f 9/42/9 30/43/28 33/44/30 7/45/7
f 34/46/31 35/47/32 36/48/32 37/49/33
f 12/50/12 34/51/31 37/52/33 10/53/10
f 38/54/34 39/55/35 40/56/35 41/57/36
f 15/58/15 38/59/34 41/60/36 13/61/13
f 42/62/37 43/63/38 44/64/38 45/65/39
f 18/66/18 42/67/37 45/68/39 16/69/16
f 46/70/40 47/71/41 48/72/41 49/73/42
f 21/74/21 46/75/40 49/76/42 19/77/19
f 50/78/43 51/79/44 52/80/44 53/81/45
f 54/82/46 55/83/47 56/84/48
f 56/85/48 50/86/43 53/87/45 54/88/46
o Plane.009_Plane.066
v 0.369809 0.292332 2.787529
v 0.414961 -0.018896 2.826537
v 0.503103 -0.018896 2.719286
v 0.457951 0.292332 2.680278
v 0.415368 0.544319 2.683702
v 0.271624 0.884959 2.589393
v 0.348990 0.544318 2.764470
v 0.416653 0.195450 2.992005
v 0.456112 -0.011185 2.828258
v 0.598437 -0.011185 2.894450
v 0.507175 0.195450 3.034105
v 0.483186 0.377355 3.083497
v 0.438526 0.562544 3.226835
v 0.411083 0.377355 3.049963
v 0.913058 0.470975 2.731465
v 0.677531 -0.015149 2.892672
v 0.518129 -0.015149 2.614092
v 0.772708 0.470975 2.486181
v 1.179062 0.868093 2.140618
v 1.503899 0.927286 2.058296
v 1.270716 0.868093 2.300799
v 0.558706 0.258940 2.846232
v 0.548287 -0.019934 2.846347
v 0.568070 -0.019934 2.721334
v 0.578488 0.258940 2.721219
v 0.546592 0.493535 2.743576
v 0.563631 0.751472 2.768809
v 0.531694 0.493535 2.837720
v 1.753165 0.194195 0.009999
v 1.730321 -0.014232 0.086406
v 1.616667 -0.014232 0.039777
v 1.653096 0.194195 -0.031057
v 1.663627 0.359026 -0.025920
v 1.733492 0.516142 -0.083796
v 1.728977 0.359026 0.000892
v 1.541203 0.227495 0.096256
v 1.570485 -0.028336 0.022077
v 1.679744 -0.028336 0.078239
v 1.637404 0.227495 0.145706
v 1.627349 0.471768 0.139688
v 1.631354 0.710324 0.066449
v 1.564526 0.471768 0.107395
v 1.721152 0.189738 0.249842
v 1.593769 -0.011185 0.198089
v 1.690331 -0.011185 0.074312
v 1.782568 0.189738 0.171117
v 1.938258 0.419272 0.301001
v 2.087188 0.495024 0.441547
v 1.889338 0.419272 0.363708
v 1.544594 0.184656 0.250301
v 1.607086 -0.019057 0.184166
v 1.696819 -0.019057 0.268079
v 1.623602 0.184656 0.324184
v 1.462037 0.385979 0.495327
v 1.217359 0.431251 0.664360
v 1.410442 0.385979 0.447078
v -2.998101 0.375168 1.157194
v -2.754881 -0.013122 1.168535
v -2.758149 -0.013122 0.980287
v -3.001702 0.375168 0.949757
v -3.046165 0.847546 0.962042
v -3.215423 1.183135 0.980795
v -3.043802 0.847546 1.098200
v -3.010062 0.177503 1.267263
v -2.841188 -0.012431 1.103489
v -2.754800 -0.012431 1.234560
v -2.955117 0.177503 1.350627
v -3.187127 0.249359 1.490715
v -3.467896 0.231711 1.630165
v -3.230892 0.249359 1.424313
v -2.546672 0.162975 1.215999
v -2.783392 -0.023292 1.216015
v -2.749067 -0.030562 1.063141
v -2.524840 0.158351 1.118767
v -2.261786 0.232734 1.182751
v -1.966740 0.217100 1.289004
v -2.279175 0.236417 1.260198
v -0.199370 0.161156 -1.553324
v -0.256796 -0.023292 -1.783018
v -0.100195 -0.030562 -1.786807
v -0.099768 0.156532 -1.555733
v -0.098031 0.267489 -1.284958
v -0.129534 0.309774 -0.972882
v -0.177367 0.271172 -1.283038
v -0.361474 0.170154 -1.990527
v -0.161670 -0.012431 -1.866403
v -0.267849 -0.012431 -1.750772
v -0.429006 0.170154 -1.916984
v -0.621148 0.249359 -2.108119
v -0.824496 0.380586 -2.346719
v -0.567357 0.249359 -2.166698
v -0.252848 0.270184 -2.005276
v -0.245833 -0.017613 -1.755588
v 0.019969 -0.017613 -1.827011
v -0.052522 0.270184 -2.059105
v -0.074188 0.596944 -2.099623
v -0.147911 0.848142 -2.297637
v -0.205678 0.596944 -2.064290
v -0.050854 0.388420 -1.879145
v 0.006781 -0.017613 -1.816823
v -0.260140 -0.017613 -1.749703
v -0.252023 0.388420 -1.828559
v -0.169286 0.801810 -1.757380
v -0.117524 1.042345 -1.657231
v -0.037243 0.801810 -1.790583
v 0.586124 0.271538 2.505961
v 0.620244 -0.045698 2.556986
v 0.422029 -0.045698 2.574751
v 0.436736 0.271538 2.519349
v 0.492658 0.532711 2.363191
v 0.531817 0.707884 2.290159
v 0.590714 0.532711 2.354403
vt 0.000000 0.000000
vt 1.000000 0.000000
vt 1.000000 1.000000
vt 0.000000 1.000000
vt 0.000000 0.000000
vt 1.000000 0.000000
vt 1.000000 1.000000
vt 0.000000 0.000000
vt 1.000000 0.000000
vt 1.000000 1.000000
vt 0.000000 1.000000
vt 0.000000 0.000000
vt 1.000000 0.000000
vt 1.000000 1.000000
vt 0.000000 1.000000
vt 0.000000 0.000000
vt 1.000000 0.000000
vt 1.000000 1.000000
vt 0.000000 0.000000
vt 1.000000 0.000000
vt 1.000000 1.000000
vt 0.000000 1.000000
vt 0.000000 0.000000
vt 1.000000 0.000000
vt 1.000000 1.000000
vt 0.000000 1.000000
vt 0.000000 0.000000
vt 1.000000 0.000000
vt 1.000000 1.000000
vt 0.000000 0.000000
vt 1.000000 0.000000
vt 1.000000 1.000000
vt 0.000000 1.000000
vt 0.000000 0.000000
vt 1.000000 0.000000
vt 1.000000 1.000000
vt 0.000000 1.000000
vt 0.000000 0.000000
vt 1.000000 0.000000
vt 1.000000 1.000000
vt 0.000000 0.000000
vt 1.000000 0.000000
vt 1.000000 1.000000
vt 0.000000 1.000000
vt 0.000000 0.000000
vt 1.000000 0.000000
vt 1.000000 1.000000
vt 0.000000 1.000000
vt 0.000000 0.000000
vt 1.000000 0.000000
vt 1.000000 1.000000
vt 0.000000 0.000000
vt 1.000000 0.000000
vt 1.000000 1.000000
vt 0.000000 1.000000
vt 0.000000 0.000000
vt 1.000000 0.000000
vt 1.000000 1.000000
vt 0.000000 1.000000
vt 0.000000 0.000000
vt 1.000000 0.000000
vt 1.000000 1.000000
vt 0.000000 0.000000
vt 1.000000 0.000000
vt 1.000000 1.000000
vt 0.000000 1.000000
vt 0.000000 0.000000
vt 1.000000 0.000000
vt 1.000000 1.000000
vt 0.000000 1.000000
vt 0.000000 0.000000
vt 1.000000 0.000000
vt 1.000000 1.000000
vt 0.000000 0.000000
vt 1.000000 0.000000
vt 1.000000 1.000000
vt 0.000000 1.000000
vt 0.000000 0.000000
vt 1.000000 0.000000
vt 1.000000 1.000000
vt 0.000000 1.000000
vt 0.000000 0.000000
vt 1.000000 0.000000
vt 1.000000 1.000000
vt 0.000000 0.000000
vt 1.000000 0.000000
vt 1.000000 1.000000
vt 0.000000 1.000000
vt 0.000000 0.000000
vt 1.000000 0.000000
vt 1.000000 1.000000
vt 0.000000 1.000000
vt 0.000000 0.000000
vt 1.000000 0.000000
vt 1.000000 1.000000
vt 0.000000 0.000000
vt 1.000000 0.000000
vt 1.000000 1.000000
vt 0.000000 1.000000
vt 0.000000 0.000000
vt 1.000000 0.000000
vt 1.000000 1.000000
vt 0.000000 1.000000
vt 0.000000 0.000000
vt 1.000000 0.000000
vt 1.000000 1.000000
vt 0.000000 0.000000
vt 1.000000 0.000000
vt 1.000000 1.000000
vt 0.000000 1.000000
vt 0.000000 0.000000
vt 1.000000 0.000000
vt 1.000000 1.000000
vt 0.000000 1.000000
vt 0.000000 0.000000
vt 1.000000 0.000000
vt 1.000000 1.000000
vt 0.000000 0.000000
vt 1.000000 0.000000
vt 1.000000 1.000000
vt 0.000000 1.000000
vt 0.000000 0.000000
vt 1.000000 0.000000
vt 1.000000 1.000000
vt 0.000000 1.000000
vt 0.000000 0.000000
vt 1.000000 0.000000
vt 1.000000 1.000000
vt 0.000000 0.000000
vt 1.000000 0.000000
vt 1.000000 1.000000
vt 0.000000 1.000000
vt 0.000000 0.000000
vt 1.000000 0.000000
vt 1.000000 1.000000
vt 0.000000 1.000000
vt 0.000000 0.000000
vt 1.000000 0.000000
vt 1.000000 1.000000
vt 0.000000 0.000000
vt 1.000000 0.000000
vt 1.000000 1.000000
vt 0.000000 1.000000
vt 0.000000 0.000000
vt 1.000000 0.000000
vt 1.000000 1.000000
vt 0.000000 1.000000
vt 0.000000 0.000000
vt 1.000000 0.000000
vt 1.000000 1.000000
vt 0.000000 0.000000
vt 1.000000 0.000000
vt 1.000000 1.000000
vt 0.000000 1.000000
vt 0.000000 0.000000
vt 1.000000 0.000000
vt 1.000000 1.000000
vt 0.000000 1.000000
vt 0.000000 0.000000
vt 1.000000 0.000000
vt 1.000000 1.000000
vt 0.000000 0.000000
vt 1.000000 0.000000
vt 1.000000 1.000000
vt 0.000000 1.000000
vt 0.000000 0.000000
vt 1.000000 0.000000
vt 1.000000 1.000000
vt 0.000000 1.000000
vt 0.000000 0.000000
vt 1.000000 0.000000
vt 1.000000 1.000000
vt 0.000000 0.000000
vt 1.000000 0.000000
vt 1.000000 1.000000
vt 0.000000 1.000000
vn 0.7632 0.1550 0.6273
vn 0.7588 0.1882 0.6236
vn 0.7631 0.1560 0.6272
vn 0.7416 0.2805 0.6094
vn 0.6905 0.4485 0.5675
vn 0.7427 0.2754 0.6104
vn -0.3706 -0.4772 0.7968
vn -0.3294 -0.6243 0.7084
vn -0.3722 -0.4700 0.8003
vn -0.3721 -0.4704 0.8001
vn -0.3287 -0.6264 0.7068
vn -0.3795 -0.4359 0.8161
vn 0.6620 -0.6467 -0.3788
vn 0.7491 -0.5051 -0.4286
vn 0.6449 -0.6693 -0.3690
vn 0.3580 -0.9110 -0.2049
vn 0.1565 -0.9836 -0.0896
vn 0.3836 -0.8970 -0.2195
vn 0.9869 0.0404 0.1562
vn 0.9870 -0.0368 0.1562
vn 0.9870 0.0382 0.1562
vn 0.9874 0.0255 0.1562
vn 0.9845 -0.0803 0.1558
vn 0.9873 0.0294 0.1562
vn 0.3726 -0.1902 -0.9083
vn 0.3547 -0.3558 -0.8646
vn 0.3730 -0.1846 -0.9093
vn 0.3714 -0.2067 -0.9052
vn 0.3382 -0.4540 -0.8243
vn 0.3713 -0.2077 -0.9050
vn -0.4516 -0.1550 0.8786
vn -0.4366 -0.2963 0.8494
vn -0.4519 -0.1519 0.8791
vn -0.4533 0.1306 0.8818
vn -0.4402 0.2703 0.8563
vn -0.4535 0.1262 0.8823
vn 0.6284 -0.6039 0.4903
vn 0.6586 -0.5499 0.5138
vn 0.6275 -0.6055 0.4895
vn 0.4521 -0.8193 0.3527
vn 0.2746 -0.9374 0.2142
vn 0.4637 -0.8088 0.3618
vn -0.5507 -0.5916 0.5889
vn -0.6236 -0.4078 0.6669
vn -0.5492 -0.5945 0.5873
vn -0.2983 -0.8996 0.3190
vn -0.1051 -0.9881 0.1124
vn -0.2931 -0.9032 0.3135
vn 0.9429 0.3326 -0.0164
vn 0.8476 0.5305 -0.0147
vn 0.9482 0.3171 -0.0165
vn 0.9617 0.2735 -0.0167
vn 0.8924 0.4510 -0.0155
vn 0.9680 0.2506 -0.0168
vn -0.3897 -0.8844 0.2569
vn -0.5301 -0.7726 0.3494
vn -0.3851 -0.8873 0.2538
vn -0.0914 -0.9940 0.0602
vn 0.0473 -0.9984 -0.0312
vn -0.0917 -0.9939 0.0605
vn 0.4485 -0.8823 0.1427
vn 0.6090 -0.7739 0.1735
vn 0.4423 -0.8856 0.1414
vn 0.1006 -0.9925 0.0698
vn -0.0647 -0.9974 0.0329
vn 0.1018 -0.9923 0.0700
vn -0.0272 -0.8558 0.5165
vn -0.0209 -0.7770 0.6292
vn -0.0274 -0.8581 0.5128
vn -0.0384 -0.9639 0.2634
vn -0.0428 -0.9906 0.1299
vn -0.0384 -0.9640 0.2631
vn -0.3449 -0.8836 -0.3168
vn -0.4566 -0.7847 -0.4193
vn -0.3413 -0.8862 -0.3134
vn -0.2449 -0.9431 -0.2249
vn -0.2862 -0.9214 -0.2628
vn 0.2337 0.4349 0.8697
vn 0.1983 0.6451 0.7379
vn 0.2365 0.4113 0.8803
vn 0.2382 0.3969 0.8864
vn 0.1990 0.6420 0.7404
vn 0.2423 0.3580 0.9017
vn -0.2439 0.0082 -0.9698
vn -0.2399 -0.1805 -0.9539
vn -0.2439 0.0016 -0.9698
vn -0.2321 0.3070 -0.9230
vn -0.2219 0.4151 -0.8823
vn -0.2327 0.2994 -0.9253
vn -0.0840 -0.3371 -0.9377
vn -0.0880 -0.1674 -0.9820
vn -0.0845 -0.3223 -0.9428
vn -0.0800 -0.4444 -0.8922
vn -0.0830 -0.3676 -0.9263
vn -0.0802 -0.4397 -0.8946
usemtl Material.001
s 1
f 57/89/49 58/90/50 59/91/50 60/92/51
f 61/93/52 62/94/53 63/95/54
f 63/96/54 57/97/49 60/98/51 61/99/52
f 64/100/55 65/101/56 66/102/56 67/103/57
f 68/104/58 69/105/59 70/106/60
f 70/107/60 64/108/55 67/109/57 68/110/58
f 71/111/61 72/112/62 73/113/62 74/114/63
f 75/115/64 76/116/65 77/117/66
f 77/118/66 71/119/61 74/120/63 75/121/64
f 78/122/67 79/123/68 80/124/68 81/125/69
f 82/126/70 83/127/71 84/128/72
f 84/129/72 78/130/67 81/131/69 82/132/70
f 85/133/73 86/134/74 87/135/74 88/136/75
f 89/137/76 90/138/77 91/139/78
f 91/140/78 85/141/73 88/142/75 89/143/76
f 92/144/79 93/145/80 94/146/80 95/147/81
f 96/148/82 97/149/83 98/150/84
f 98/151/84 92/152/79 95/153/81 96/154/82
f 99/155/85 100/156/86 101/157/86 102/158/87
f 103/159/88 104/160/89 105/161/90
f 105/162/90 99/163/85 102/164/87 103/165/88
f 106/166/91 107/167/92 108/168/92 109/169/93
f 110/170/94 111/171/95 112/172/96
f 112/173/96 106/174/91 109/175/93 110/176/94
f 113/177/97 114/178/98 115/179/98 116/180/99
f 117/181/100 118/182/101 119/183/102
f 119/184/102 113/185/97 116/186/99 117/187/100
f 120/188/103 121/189/104 122/190/104 123/191/105
f 124/192/106 125/193/107 126/194/108
f 126/195/108 120/196/103 123/197/105 124/198/106
f 127/199/109 128/200/110 129/201/110 130/202/111
f 131/203/112 132/204/113 133/205/114
f 133/206/114 127/207/109 130/208/111 131/209/112
f 134/210/115 135/211/116 136/212/116 137/213/117
f 138/214/118 139/215/119 140/216/120
f 140/217/120 134/218/115 137/219/117 138/220/118
f 141/221/121 142/222/122 143/223/122 144/224/123
f 145/225/124 146/226/125 147/227/124
f 147/228/124 141/229/121 144/230/123 145/231/124
f 148/232/126 149/233/127 150/234/127 151/235/128
f 152/236/129 153/237/130 154/238/131
f 154/239/131 148/240/126 151/241/128 152/242/129
f 155/243/132 156/244/133 157/245/133 158/246/134
f 159/247/135 160/248/136 161/249/137
f 161/250/137 155/251/132 158/252/134 159/253/135
f 162/254/138 163/255/139 164/256/139 165/257/140
f 166/258/141 167/259/142 168/260/143
f 168/261/143 162/262/138 165/263/140 166/264/141
