# Blender v2.80 (sub 75) OBJ File: ''
# www.blender.org
mtllib tree3_2LP.mtl
o tree3_2mesh_tree3_2poly
v -0.182272 0.829610 -0.118325
v -0.193051 0.784115 -0.005450
v -0.182272 0.829610 0.107425
v -0.130228 1.049280 0.107425
v -0.130228 1.049280 -0.118325
v -0.528453 0.900149 -0.118325
v -0.539231 0.854654 -0.005450
v -0.528453 0.900149 0.107425
v -0.476409 1.119818 0.107425
v -0.476409 1.119818 -0.118325
v -0.856631 1.154835 -0.118325
v -0.900409 1.138418 -0.005450
v -0.856631 1.154835 0.107425
v -0.645255 1.234102 0.107425
v -0.645255 1.234102 -0.118325
v -0.863726 1.428873 -0.118325
v -0.910443 1.428873 -0.005450
v -0.863726 1.428873 0.107425
v -0.638159 1.428873 0.107425
v -0.638159 1.428873 -0.118325
v -0.783027 1.497241 -0.037560
v -0.796317 1.497241 -0.005450
v -0.783027 1.497241 0.026660
v -0.718859 1.497241 0.026660
v -0.718859 1.497241 -0.037560
v -0.238467 -0.077327 0.238467
v -0.238467 -0.077327 -0.238467
v 0.238467 -0.077327 0.238467
v 0.238467 -0.077327 -0.238467
v -0.227134 1.224933 -0.238467
v 0.249801 1.224933 -0.238467
v 0.249801 1.224933 0.238467
v -0.227134 1.224933 0.238467
v 0.077072 1.476514 -0.065738
v -0.054405 1.476514 0.065738
v 0.077072 1.476514 0.065738
v -0.054405 1.476514 -0.065738
v 0.143304 0.831509 -0.119705
v 0.122557 0.788984 -0.005474
v 0.143304 0.831509 0.108756
v 0.243477 1.036837 0.108756
v 0.243477 1.036837 -0.119705
v 0.459521 0.664660 -0.119705
v 0.438774 0.622135 -0.005474
v 0.459521 0.664660 0.108756
v 0.559694 0.869988 0.108756
v 0.559694 0.869988 -0.119705
v 0.879771 0.653498 -0.119705
v 0.903507 0.612566 -0.005474
v 0.879771 0.653498 0.108756
v 0.765166 0.851134 0.108756
v 0.765166 0.851134 -0.119705
v 1.072409 0.906724 -0.100996
v 1.102987 0.881665 -0.005474
v 1.072409 0.906724 0.090047
v 0.924765 1.027720 0.090047
v 0.924765 1.027720 -0.100996
v 1.041800 0.968727 -0.037970
v 1.052202 0.960202 -0.005474
v 1.041800 0.968727 0.027021
v 0.991573 1.009889 0.027021
v 0.991573 1.009889 -0.037970
v -0.696663 1.493727 -0.044038
v -0.759150 1.493727 -0.071342
v -0.814039 1.493727 -0.030879
v -0.806441 1.493727 0.036888
v -0.743955 1.493727 0.064192
v -0.689066 1.493727 0.023729
v -0.751552 1.500122 -0.003575
v -0.770415 1.489144 0.047270
v -0.770415 1.491745 0.047270
v -0.697403 1.489144 -0.006552
v -0.697403 1.491745 -0.006552
v -0.660334 1.508938 0.104785
v -0.660334 1.506336 0.104785
v -0.675026 1.506336 0.115616
v -0.675026 1.508938 0.115616
v -0.698292 1.489144 -0.006393
v -0.698292 1.491745 -0.006393
v -0.782305 1.489144 -0.040588
v -0.782305 1.491745 -0.040588
v -0.706675 1.508938 -0.130311
v -0.706674 1.506336 -0.130311
v -0.689768 1.506336 -0.123430
v -0.689768 1.508938 -0.123430
v -0.769849 1.489144 0.046640
v -0.769849 1.491745 0.046640
v -0.780471 1.489144 -0.043442
v -0.780471 1.491745 -0.043442
v -0.887075 1.508938 0.005605
v -0.887075 1.506336 0.005605
v -0.884938 1.506336 0.023733
v -0.884938 1.508938 0.023733
v -0.095069 1.481788 0.009923
v -0.095069 1.486875 0.009923
v 0.065834 1.481788 0.084551
v 0.065834 1.486875 0.084551
v -0.090260 1.520493 0.252739
v -0.090260 1.515407 0.252739
v -0.122639 1.515406 0.237721
v -0.122639 1.520493 0.237721
v 0.064726 1.481788 0.083177
v 0.064726 1.486875 0.083177
v 0.044421 1.481788 -0.093024
v 0.044421 1.486875 -0.093024
v 0.269348 1.520493 -0.047639
v 0.269348 1.515407 -0.047639
v 0.273434 1.515406 -0.012181
v 0.273434 1.520493 -0.012181
v -0.093457 1.481788 0.010300
v -0.093457 1.486875 0.010300
v 0.051039 1.481788 -0.092561
v 0.051039 1.486875 -0.092561
v -0.133242 1.520493 -0.229283
v -0.133242 1.515406 -0.229283
v -0.162319 1.515406 -0.208584
v -0.162319 1.520493 -0.208584
v 1.074332 0.947943 0.023337
v 1.067737 0.953249 -0.045152
v 1.018228 0.993085 -0.072066
v 0.975313 1.027614 -0.030491
v 0.981908 1.022307 0.037998
v 1.031418 0.982472 0.064912
v 1.028880 0.992821 -0.003577
v 0.979844 1.018015 0.006231
v 0.981494 1.020066 0.006231
v 1.045700 0.965028 0.042031
v 1.047350 0.967079 0.042031
v 0.997633 1.029412 0.131744
v 0.995983 1.027361 0.131744
v 0.982731 1.038024 0.124540
v 0.984381 1.040075 0.124540
v 1.045235 0.965402 0.041340
v 1.046885 0.967453 0.041340
v 1.034662 0.973909 -0.049446
v 1.036312 0.975960 -0.049446
v 1.138480 0.916088 -0.029887
v 1.136829 0.914037 -0.029887
v 1.138957 0.912325 -0.011618
v 1.140607 0.914376 -0.011618
v 0.980499 1.017488 0.006398
v 0.982149 1.019539 0.006398
v 1.037335 0.971758 -0.049322
v 1.038985 0.973809 -0.049322
v 0.973773 1.048610 -0.116833
v 0.972122 1.046559 -0.116833
v 0.960685 1.055762 -0.105620
v 0.962335 1.057813 -0.105620
v -0.003046 1.535152 -0.127615
v -0.003046 1.449350 -0.092074
v 0.091825 1.535152 -0.081928
v 0.064038 1.449350 -0.059768
v 0.115255 1.535152 0.020730
v 0.080606 1.449350 0.012822
v -0.055695 1.535152 0.103055
v -0.040274 1.449350 0.071034
v -0.003046 1.656496 -0.006271
v -0.121347 1.535152 0.020730
v -0.086697 1.449350 0.012822
v -0.097916 1.535153 -0.081928
v -0.070129 1.449350 -0.059769
v -0.017619 1.641054 -0.036533
v -0.017619 1.628676 -0.066417
v -0.040983 1.628676 -0.055165
v -0.040282 1.707373 -0.083593
vt 0.776287 0.349708
vt 0.861090 0.349708
vt 0.866279 0.599179
vt 0.771098 0.599179
vt 0.691224 0.338230
vt 0.689752 0.566538
vt 0.767820 0.754820
vt 0.691602 0.825545
vt 0.946153 0.338230
vt 0.991011 0.329972
vt 0.988250 0.563701
vt 0.947625 0.566538
vt 0.646366 0.329972
vt 0.649127 0.563701
vt 0.869557 0.754820
vt 0.982114 0.862162
vt 0.945775 0.825545
vt 0.655263 0.862162
vt 0.890116 0.921923
vt 0.844555 0.857862
vt 0.792822 0.857862
vt 0.747261 0.921923
vt 0.830425 0.927251
vt 0.806952 0.927251
vt 0.908463 0.989331
vt 0.728914 0.989331
vt 0.990326 0.164168
vt 0.990326 0.312985
vt 0.971137 0.291281
vt 0.971137 0.142463
vt 0.787228 0.959618
vt 0.850149 0.959618
vt 0.784224 0.984342
vt 0.853153 0.984342
vt 0.333276 0.022659
vt 0.304696 0.772768
vt 0.156823 0.772768
vt 0.170987 0.022659
vt 0.600442 0.772768
vt 0.578127 0.981195
vt 0.437441 0.981195
vt 0.452569 0.772768
vt 0.657855 0.022659
vt 0.495566 0.022659
vt 0.156069 0.981195
vt 0.015383 0.981195
vt 0.008950 0.772768
vt 0.296755 0.981195
vt 0.771098 0.599179
vt 0.866279 0.599179
vt 0.861090 0.349708
vt 0.776287 0.349708
vt 0.689752 0.566538
vt 0.691224 0.338230
vt 0.691602 0.825545
vt 0.767820 0.754820
vt 0.946153 0.338230
vt 0.947625 0.566538
vt 0.988250 0.563701
vt 0.991011 0.329972
vt 0.646366 0.329972
vt 0.649127 0.563701
vt 0.869557 0.754820
vt 0.945775 0.825545
vt 0.982114 0.862162
vt 0.655263 0.862162
vt 0.840640 0.876706
vt 0.878936 0.935414
vt 0.796737 0.876706
vt 0.747447 0.994830
vt 0.758441 0.935414
vt 0.806952 0.927251
vt 0.830425 0.927251
vt 0.787228 0.959618
vt 0.850149 0.959618
vt 0.784224 0.984342
vt 0.889930 0.994830
vt 0.853153 0.984342
vt 0.982770 0.100928
vt 0.927284 0.073185
vt 0.982770 0.045443
vt 0.927284 0.017700
vt 0.871799 0.045443
vt 0.871799 0.100928
vt 0.927284 0.128671
vt 0.652369 0.312842
vt 0.692710 0.164339
vt 0.713036 0.164339
vt 0.753378 0.312842
vt 0.903168 0.312985
vt 0.903167 0.164168
vt 0.922356 0.142463
vt 0.922356 0.291281
vt 0.990326 0.164168
vt 0.990326 0.312985
vt 0.971137 0.291281
vt 0.971137 0.142463
vt 0.854387 0.290997
vt 0.753378 0.290997
vt 0.793719 0.142463
vt 0.814045 0.142463
vt 0.692710 0.142463
vt 0.713036 0.142463
vt 0.652369 0.312842
vt 0.692710 0.164339
vt 0.713036 0.164339
vt 0.753378 0.312842
vt 0.903168 0.312985
vt 0.903167 0.164168
vt 0.922356 0.142463
vt 0.922356 0.291281
vt 0.971137 0.142463
vt 0.971137 0.291281
vt 0.990326 0.312985
vt 0.990326 0.164168
vt 0.854387 0.290997
vt 0.753378 0.290997
vt 0.793719 0.142463
vt 0.814045 0.142463
vt 0.692710 0.142463
vt 0.713036 0.142463
vt 0.753378 0.312842
vt 0.713036 0.164339
vt 0.692710 0.164339
vt 0.652369 0.312842
vt 0.922356 0.291281
vt 0.922356 0.142463
vt 0.903167 0.164168
vt 0.903168 0.312985
vt 0.753378 0.290997
vt 0.854387 0.290997
vt 0.814045 0.142463
vt 0.793719 0.142463
vt 0.713036 0.142463
vt 0.692710 0.142463
vt 0.652369 0.312842
vt 0.692710 0.164339
vt 0.713036 0.164339
vt 0.753378 0.312842
vt 0.903168 0.312985
vt 0.903167 0.164168
vt 0.922356 0.142463
vt 0.922356 0.291281
vt 0.905515 0.105143
vt 0.900073 0.067047
vt 0.921842 0.067047
vt 0.854387 0.290997
vt 0.753378 0.290997
vt 0.793719 0.142463
vt 0.814045 0.142463
vt 0.692710 0.142463
vt 0.713036 0.142463
vt 0.652369 0.312842
vt 0.692710 0.164339
vt 0.713036 0.164339
vt 0.753378 0.312842
vt 0.903168 0.312985
vt 0.903167 0.164168
vt 0.922356 0.142463
vt 0.922356 0.291281
vt 0.971137 0.142463
vt 0.971137 0.291281
vt 0.990326 0.312985
vt 0.990326 0.164168
vt 0.854387 0.290997
vt 0.753378 0.290997
vt 0.793719 0.142463
vt 0.814045 0.142463
vt 0.692710 0.142463
vt 0.713036 0.142463
vt 0.753378 0.312842
vt 0.713036 0.164339
vt 0.692710 0.164339
vt 0.652369 0.312842
vt 0.922356 0.291281
vt 0.922356 0.142463
vt 0.903167 0.164168
vt 0.903168 0.312985
vt 0.990326 0.164168
vt 0.990326 0.312985
vt 0.971137 0.291281
vt 0.971137 0.142463
vt 0.753378 0.290997
vt 0.854387 0.290997
vt 0.814045 0.142463
vt 0.793719 0.142463
vt 0.713036 0.142463
vt 0.692710 0.142463
vt 0.982770 0.100928
vt 0.927284 0.073185
vt 0.982770 0.045443
vt 0.927284 0.017700
vt 0.871799 0.045443
vt 0.871799 0.100928
vt 0.927284 0.128671
vt 0.990326 0.164168
vt 0.990326 0.312985
vt 0.971137 0.291281
vt 0.971137 0.142463
vt 0.652369 0.312842
vt 0.692710 0.164339
vt 0.713036 0.164339
vt 0.753378 0.312842
vt 0.903168 0.312985
vt 0.903167 0.164168
vt 0.922356 0.142463
vt 0.922356 0.291281
vt 0.990326 0.164168
vt 0.990326 0.312985
vt 0.971137 0.291281
vt 0.971137 0.142463
vt 0.854387 0.290997
vt 0.753378 0.290997
vt 0.793719 0.142463
vt 0.814045 0.142463
vt 0.692710 0.142463
vt 0.713036 0.142463
vt 0.652369 0.312842
vt 0.692710 0.164339
vt 0.713036 0.164339
vt 0.753378 0.312842
vt 0.903168 0.312985
vt 0.903167 0.164168
vt 0.922356 0.142463
vt 0.922356 0.291281
vt 0.971137 0.142463
vt 0.971137 0.291281
vt 0.990326 0.312985
vt 0.990326 0.164168
vt 0.854387 0.290997
vt 0.753378 0.290997
vt 0.793719 0.142463
vt 0.814045 0.142463
vt 0.692710 0.142463
vt 0.713036 0.142463
vt 0.753378 0.312842
vt 0.713036 0.164339
vt 0.692710 0.164339
vt 0.652369 0.312842
vt 0.922356 0.291281
vt 0.922356 0.142463
vt 0.903167 0.164168
vt 0.903168 0.312985
vt 0.753378 0.290997
vt 0.854387 0.290997
vt 0.814045 0.142463
vt 0.793719 0.142463
vt 0.713036 0.142463
vt 0.692710 0.142463
vt 0.943611 0.047998
vt 0.943611 0.067047
vt 0.932727 0.067047
vt 0.932727 0.047998
vt 0.927284 0.105143
vt 0.959938 0.105143
vt 0.959938 0.105143
vt 0.954496 0.086095
vt 0.954496 0.067047
vt 0.965381 0.067047
vt 0.921842 0.047998
vt 0.943611 0.086095
vt 0.938169 0.105143
vt 0.938169 0.105143
vt 0.894630 0.105143
vt 0.889188 0.067047
vt 0.900073 0.047998
vt 0.889188 0.047998
vt 0.965381 0.047998
vt 0.954496 0.047998
vt 0.756364 0.096229
vt 0.718301 0.046089
vt 0.757035 0.056202
vt 0.787925 0.032753
vt 0.990326 0.164168
vt 0.990326 0.312985
vt 0.971137 0.291281
vt 0.971137 0.142463
vt 0.008697 0.022659
vn 0.1426 0.6999 0.6999
vn 0.1426 0.6999 -0.6999
vn 0.2546 0.6056 -0.7539
vn 0.2546 0.6056 0.7539
vn -0.1094 -0.5369 0.8365
vn -0.2633 -0.5528 0.7906
vn 0.4920 0.2497 0.8340
vn -0.5691 -0.2980 0.7664
vn -0.1094 -0.5369 -0.8365
vn -0.1997 -0.9799 0.0000
vn -0.4097 -0.9122 0.0000
vn -0.2633 -0.5528 -0.7906
vn 0.4920 0.2497 -0.8340
vn -0.8965 -0.4431 0.0000
vn -0.5691 -0.2980 -0.7664
vn -0.5193 0.4216 -0.7433
vn 0.6517 0.4053 -0.6411
vn 0.6517 0.4053 0.6411
vn -0.5193 0.4216 0.7433
vn 0.3634 0.8579 -0.3631
vn 0.3634 0.8579 0.3631
vn -0.9011 0.4335 0.0000
vn 0.7278 0.5985 -0.3347
vn 0.7353 0.6466 0.2029
vn 0.7942 -0.5408 0.2771
vn 0.7532 -0.6400 -0.1520
vn -0.2462 0.8470 0.4710
vn -0.2462 0.8470 -0.4710
vn -0.5139 0.8578 0.0000
vn -0.7090 0.0062 0.7051
vn -0.6663 0.3299 0.6687
vn -0.6663 0.3299 -0.6687
vn -0.7090 0.0062 -0.7051
vn 0.6701 0.3243 -0.6677
vn 0.5073 0.6966 -0.5073
vn 0.5073 0.6966 0.5073
vn 0.6701 0.3243 0.6677
vn 0.7051 -0.0061 -0.7090
vn 0.7051 -0.0061 0.7090
vn -0.5073 0.6966 -0.5073
vn -0.5073 0.6966 0.5073
vn 0.1869 0.6298 0.7539
vn 0.1869 0.6298 -0.7539
vn 0.3333 0.6317 -0.6999
vn 0.3333 0.6317 0.6999
vn -0.1468 -0.5944 0.7906
vn -0.2557 -0.4846 0.8365
vn 0.2868 -0.5705 0.7696
vn -0.1754 0.5373 0.8249
vn -0.2557 -0.4846 -0.8365
vn -0.1468 -0.5944 -0.7906
vn -0.2613 -0.9652 0.0000
vn -0.4667 -0.8844 0.0000
vn -0.1754 0.5373 -0.8249
vn 0.2868 -0.5705 -0.7696
vn 0.4473 -0.8944 0.0000
vn -0.1359 0.7875 -0.6011
vn 0.7136 0.1069 -0.6923
vn -0.1359 0.7875 0.6011
vn 0.9946 -0.1038 0.0000
vn 0.7136 0.1069 0.6923
vn 0.4366 0.8734 0.2157
vn 0.4366 0.8734 -0.2157
vn 0.7099 0.6429 0.2877
vn 0.7099 0.6429 -0.2877
vn 0.8397 0.5430 0.0000
vn 0.0751 0.9956 -0.0554
vn 0.0000 1.0000 0.0000
vn 0.0855 0.9956 0.0374
vn 0.0104 0.9956 0.0928
vn -0.0751 0.9956 0.0554
vn -0.0855 0.9956 -0.0374
vn -0.0104 0.9956 -0.0928
vn 0.0298 -0.5408 0.8406
vn -0.3680 -0.6399 0.6746
vn -0.0236 0.6466 0.7624
vn -0.5350 0.5986 0.5962
vn -0.6653 0.5986 -0.4461
vn -0.2106 0.6466 -0.7332
vn -0.1780 -0.5408 -0.8221
vn -0.5227 -0.6399 -0.5632
vn 0.7015 -0.5408 -0.4641
vn 0.7674 -0.6399 -0.0381
vn 0.6627 0.6466 -0.3777
vn 0.7878 0.5986 0.1453
vn -0.4039 -0.6399 -0.6536
vn -0.7451 -0.5408 -0.3902
vn -0.6507 0.6466 -0.3980
vn -0.2531 0.5986 -0.7600
vn -0.2408 -0.6399 0.7297
vn -0.6339 -0.5408 0.5528
vn -0.0694 0.5986 0.7980
vn -0.5403 0.6466 0.5384
vn 0.4952 -0.6399 0.5875
vn 0.1386 -0.5408 0.8296
vn -0.7229 -0.5408 0.4301
vn -0.7684 -0.6399 0.0014
vn -0.6800 0.6466 0.3457
vn -0.7799 0.5986 -0.1827
vn 0.0534 0.9924 0.1110
vn -0.2528 0.1626 0.9537
vn 0.9033 0.1626 0.3969
vn 0.6433 0.5986 0.4774
vn 0.1754 0.6466 0.7424
vn 0.2427 -0.6399 -0.7291
vn 0.6354 -0.5408 -0.5512
vn 0.7441 -0.5408 0.3922
vn 0.4022 -0.6399 0.6547
vn 0.6497 0.6466 0.3997
vn 0.2511 0.5986 0.7607
vn 0.3791 -0.6399 -0.6684
vn -0.0158 -0.5408 -0.8410
vn 0.0363 0.6466 -0.7620
vn 0.5448 0.5986 -0.5872
vn 0.0715 0.5986 -0.7978
vn 0.5418 0.6466 -0.5370
vn -0.7556 -0.6399 0.1394
vn -0.7895 -0.5408 -0.2903
vn -0.7332 0.5986 0.3226
vn -0.7319 0.6466 -0.2151
vn 0.6911 0.7218 0.0364
vn 0.6269 0.7791 0.0000
vn 0.6330 0.7685 0.0927
vn 0.5661 0.8224 0.0562
vn 0.5571 0.8296 -0.0364
vn 0.6152 0.7829 -0.0927
vn 0.6822 0.7290 -0.0562
vn 0.8886 0.0533 0.4555
vn 0.5613 0.3782 0.7361
vn -0.2093 -0.5257 0.8245
vn -0.0002 -0.8213 0.5705
vn -0.8906 0.0225 0.4541
vn -0.9995 -0.0172 0.0273
vn -0.1151 0.9225 0.3683
vn -0.2369 0.9589 -0.1564
vn 0.4100 0.4384 -0.7998
vn 0.8131 0.1756 -0.5549
vn 0.1413 -0.8078 -0.5723
vn -0.2312 -0.6353 -0.7368
vn 0.2506 -0.8958 0.3670
vn -0.0708 -0.7644 0.6408
vn 0.9217 0.0883 0.3776
vn 0.5907 0.2930 0.7518
vn -0.1234 -0.7220 -0.6807
vn -0.3734 -0.3937 -0.8400
vn 0.4136 0.4971 -0.7627
vn 0.7841 0.1374 -0.6052
vn -0.9859 -0.0281 0.1648
vn -0.9614 0.0794 -0.2635
vn -0.1872 0.9189 0.3471
vn -0.1702 0.9668 -0.1904
vn 0.0000 -0.3827 -0.9239
vn 0.0399 0.1189 -0.9921
vn 0.7909 0.1593 -0.5909
vn 0.7223 -0.3827 -0.5760
vn -0.1179 0.9623 -0.2449
vn -0.8054 0.4656 -0.3667
vn -0.8005 0.1189 -0.5874
vn -0.9550 0.1593 0.2499
vn 0.8184 -0.3710 0.4388
vn 0.2155 0.4656 -0.8584
vn -0.1672 -0.3710 0.9134
vn -0.9007 -0.3827 0.2056
vn -0.7223 -0.3827 -0.5760
vn -0.1811 0.9087 -0.3761
usemtl tree3_2
s 1
f 4/1/1 5/2/2 10/3/3 9/4/4
f 3/5/5 4/1/1 9/4/4 8/6/6
f 8/6/6 9/4/4 14/7/7 13/8/8
f 1/9/9 2/10/10 7/11/11 6/12/12
f 2/13/10 3/5/5 8/6/6 7/14/11
f 9/4/4 10/3/3 15/15/13 14/7/7
f 6/12/12 7/11/11 12/16/14 11/17/15
f 10/3/3 6/12/12 11/17/15 15/15/13
f 7/14/11 8/6/6 13/8/8 12/18/14
f 11/17/15 16/19/16 20/20/17 15/15/13
f 14/7/7 15/15/13 20/20/17 19/21/18
f 13/8/8 14/7/7 19/21/18 18/22/19
f 20/20/17 25/23/20 24/24/21 19/21/18
f 11/17/15 12/16/14 17/25/22 16/19/16
f 12/18/14 13/8/8 18/22/19 17/26/22
f 73/27/23 74/28/24 75/29/25 72/30/26
f 19/21/18 24/24/21 23/31/27 18/22/19
f 16/19/16 21/32/28 25/23/20 20/20/17
f 18/22/19 23/31/27 22/33/29 17/26/22
f 17/25/22 22/34/29 21/32/28 16/19/16
f 26/35/30 33/36/31 30/37/32 27/38/33
f 31/39/34 34/40/35 36/41/36 32/42/37
f 29/43/38 31/39/34 32/42/37 28/44/39
f 28/44/39 32/42/37 33/36/31 26/35/30
f 30/37/32 37/45/40 34/46/35 31/47/34
f 32/42/37 36/41/36 35/48/41 33/36/31
f 33/36/31 35/48/41 37/45/40 30/37/32
f 46/49/42 47/50/43 42/51/44 41/52/45
f 45/53/46 46/49/42 41/52/45 40/54/47
f 50/55/48 51/56/49 46/49/42 45/53/46
f 38/57/50 43/58/51 44/59/52 39/60/53
f 39/61/53 44/62/52 45/53/46 40/54/47
f 46/49/42 51/56/49 52/63/54 47/50/43
f 43/58/51 48/64/55 49/65/56 44/59/52
f 47/50/43 52/63/54 48/64/55 43/58/51
f 44/62/52 49/66/56 50/55/48 45/53/46
f 52/63/54 57/67/57 53/68/58 48/64/55
f 56/69/59 57/67/57 52/63/54 51/56/49
f 49/66/56 54/70/60 55/71/61 50/55/48
f 50/55/48 55/71/61 56/69/59 51/56/49
f 56/69/59 61/72/62 62/73/63 57/67/57
f 55/71/61 60/74/64 61/72/62 56/69/59
f 57/67/57 62/73/63 58/75/65 53/68/58
f 54/70/60 59/76/66 60/74/64 55/71/61
f 48/64/55 53/68/58 54/77/60 49/65/56
f 53/68/58 58/75/65 59/78/66 54/77/60
f 63/79/67 69/80/68 68/81/69
f 67/82/70 69/80/68 66/83/71
f 65/84/72 69/80/68 64/85/73
f 68/81/69 69/80/68 67/82/70
f 66/83/71 69/80/68 65/84/72
f 72/86/26 75/87/25 76/88/74 70/89/75
f 70/90/75 76/91/74 77/92/76 71/93/77
f 81/94/78 82/95/79 83/96/80 80/97/81
f 73/98/23 71/99/77 77/100/76 74/101/24
f 75/87/25 74/102/24 77/103/76 76/88/74
f 80/104/81 83/105/80 84/106/82 78/107/83
f 78/108/83 84/109/82 85/110/84 79/111/85
f 88/112/86 91/113/87 90/114/88 89/115/89
f 81/116/78 79/117/85 85/118/84 82/119/79
f 83/105/80 82/120/79 85/121/84 84/106/82
f 86/122/90 92/123/91 91/124/87 88/125/86
f 87/126/92 93/127/93 92/128/91 86/129/90
f 64/85/73 69/80/68 63/79/67
f 87/130/92 89/131/89 90/132/88 93/133/93
f 91/124/87 92/123/91 93/134/93 90/135/88
f 96/136/94 99/137/95 100/138/96 94/139/97
f 94/140/97 100/141/96 101/142/98 95/143/99
f 157/144/100 155/145/101 153/146/102
f 97/147/103 95/148/99 101/149/98 98/150/104
f 99/137/95 98/151/104 101/152/98 100/138/96
f 104/153/105 107/154/106 108/155/107 102/156/108
f 102/157/108 108/158/107 109/159/109 103/160/110
f 112/161/111 115/162/112 114/163/113 113/164/114
f 105/165/115 103/166/110 109/167/109 106/168/116
f 107/154/106 106/169/116 109/170/109 108/155/107
f 110/171/117 116/172/118 115/173/112 112/174/111
f 111/175/119 117/176/120 116/177/118 110/178/117
f 97/179/103 98/180/104 99/181/95 96/182/94
f 111/183/119 113/184/114 114/185/113 117/186/120
f 115/173/112 116/172/118 117/187/120 114/188/113
f 118/189/121 124/190/122 123/191/123
f 122/192/124 124/190/122 121/193/125
f 120/194/126 124/190/122 119/195/127
f 128/196/128 129/197/129 130/198/130 127/199/131
f 123/191/123 124/190/122 122/192/124
f 121/193/125 124/190/122 120/194/126
f 127/200/131 130/201/130 131/202/132 125/203/133
f 125/204/133 131/205/132 132/206/134 126/207/135
f 136/208/136 137/209/137 138/210/138 135/211/139
f 128/212/128 126/213/135 132/214/134 129/215/129
f 130/201/130 129/216/129 132/217/134 131/202/132
f 135/218/139 138/219/138 139/220/140 133/221/141
f 133/222/141 139/223/140 140/224/142 134/225/143
f 143/226/144 146/227/145 145/228/146 144/229/147
f 136/230/136 134/231/143 140/232/142 137/233/137
f 138/219/138 137/234/137 140/235/142 139/220/140
f 141/236/148 147/237/149 146/238/145 143/239/144
f 142/240/150 148/241/151 147/242/149 141/243/148
f 142/244/150 144/245/147 145/246/146 148/247/151
f 146/238/145 147/237/149 148/248/151 145/249/146
f 150/250/152 149/251/153 151/252/154 152/253/155
f 151/252/154 157/254/100 153/146/102
f 157/255/100 162/256/156 164/257/157 160/258/158 158/259/159
f 152/253/155 151/252/154 153/146/102 154/260/160
f 149/251/153 163/261/161 162/262/156 157/263/100 151/252/154
f 155/145/101 157/264/100 158/265/159
f 156/266/162 155/145/101 158/265/159 159/267/163
f 160/258/158 164/257/157 163/261/161 149/251/153
f 159/268/163 158/259/159 160/258/158 161/269/164
f 161/269/164 160/258/158 149/251/153 150/250/152
f 163/270/161 164/271/157 165/272/165
f 164/271/157 162/273/156 165/272/165
f 162/273/156 163/270/161 165/272/165
f 42/51/44 47/50/43 43/58/51 38/57/50
f 119/195/127 124/190/122 118/189/121
f 5/2/2 1/9/9 6/12/12 10/3/3
f 105/274/115 106/275/116 107/276/106 104/277/105
f 153/146/102 155/145/101 156/266/162 154/260/160
f 27/38/33 30/37/32 31/47/34 29/278/38
